<?xml version="1.0" encoding="UTF-8" standalone="no"?>
<svg
   xmlns:dc="http://purl.org/dc/elements/1.1/"
   xmlns:cc="http://creativecommons.org/ns#"
   xmlns:rdf="http://www.w3.org/1999/02/22-rdf-syntax-ns#"
   xmlns:svg="http://www.w3.org/2000/svg"
   xmlns="http://www.w3.org/2000/svg"
   xmlns:xlink="http://www.w3.org/1999/xlink"
   xmlns:sodipodi="http://sodipodi.sourceforge.net/DTD/sodipodi-0.dtd"
   xmlns:inkscape="http://www.inkscape.org/namespaces/inkscape"
   width="1658px"
   height="547px"
   viewBox="0 0 1658 547"
   version="1.1"
   id="svg3003"
   inkscape:version="0.47 r22583"
   sodipodi:docname="bank_example.svg">
  <metadata
     id="metadata3186">
    <rdf:RDF>
      <cc:Work
         rdf:about="">
        <dc:format>image/svg+xml</dc:format>
        <dc:type
           rdf:resource="http://purl.org/dc/dcmitype/StillImage" />
      </cc:Work>
    </rdf:RDF>
  </metadata>
  <sodipodi:namedview
     pagecolor="#ffffff"
     bordercolor="#666666"
     borderopacity="1"
     objecttolerance="10"
     gridtolerance="10"
     guidetolerance="10"
     inkscape:pageopacity="0"
     inkscape:pageshadow="2"
     inkscape:window-width="1600"
     inkscape:window-height="838"
     id="namedview3184"
     showgrid="false"
     inkscape:zoom="0.65138721"
     inkscape:cx="804.6628"
     inkscape:cy="241.39824"
     inkscape:window-x="-8"
     inkscape:window-y="-8"
     inkscape:window-maximized="1"
     inkscape:current-layer="2-bank_ex" />
  <!-- Generator: Sketch 49.3 (51167) - http://www.bohemiancoding.com/sketch -->
  <title
     id="title3005">2-bank_ex</title>
  <desc
     id="desc3007">Created with Sketch.</desc>
  <defs
     id="defs3009">
    <inkscape:perspective
       sodipodi:type="inkscape:persp3d"
       inkscape:vp_x="0 : 273.5 : 1"
       inkscape:vp_y="0 : 1000 : 0"
       inkscape:vp_z="1658 : 273.5 : 1"
       inkscape:persp3d-origin="829 : 182.33333 : 1"
       id="perspective3188" />
    <path
       d="M0,0 L800,0 L800,523 L0,523 L0,0 Z"
       id="path-1" />
    <mask
       id="mask-2"
       maskContentUnits="userSpaceOnUse"
       maskUnits="objectBoundingBox"
       x="0"
       y="0"
       width="800"
       height="523"
       fill="white">
      <use
         xlink:href="#path-1"
         id="use3013" />
    </mask>
    <path
       d="M0,0 L800,0 L800,523 L0,523 L0,0 Z"
       id="path-3" />
    <mask
       id="mask-4"
       maskContentUnits="userSpaceOnUse"
       maskUnits="objectBoundingBox"
       x="0"
       y="0"
       width="800"
       height="523"
       fill="white">
      <use
         xlink:href="#path-3"
         id="use3017" />
    </mask>
  </defs>
  <g
     id="2-bank_ex"
     stroke="none"
     stroke-width="1"
     fill="none"
     fill-rule="evenodd">
    <g
       id="bank_ex"
       transform="translate(9.000000, 10.000000)">
      <g
         id="retail-org">
        <use
           id="dotted-box"
           stroke="#DFE3E6"
           mask="url(#mask-2)"
           stroke-width="6"
           stroke-dasharray="10"
           xlink:href="#path-1" />
        <text
           id="Bank-A--Retail-Organ"
           font-size="24"
           font-weight="normal"
           style="font-size:24px;font-weight:normal;fill:#5a6872;font-family:'IBMPlexSans, IBM Plex Sans'">
          <tspan
             x="35"
             y="53"
             id="tspan3024"><tspan
   style="-inkscape-font-specification:SimHei;font-family:SimHei"
   id="tspan3566">银行</tspan>
 A - <tspan
   style="-inkscape-font-specification:SimHei;font-family:SimHei"
   id="tspan3568">零售组织</tspan>
</tspan>
        </text>
        <g
           id="project-a"
           transform="translate(35.000000, 78.000000)">
          <rect
             id="Rectangle-2-Copy-2"
             stroke="#8C9BA5"
             stroke-width="2"
             x="1"
             y="1"
             width="351"
             height="415" />
          <g
             id="middle-content"
             transform="translate(53.000000, 26.000000)">
            <text
               id="Retail-Project-A"
               font-size="20"
               font-weight="bold"
               style="font-size:20px;font-weight:bold;fill:#5a6872;font-family:'IBMPlexSans-Bold, IBM Plex Sans'">
              <tspan
                 x="0"
                 y="21"
                 id="tspan3030"><tspan
   style="-inkscape-font-specification:SimHei;font-family:SimHei"
   id="tspan3570">零售项目</tspan>
 A</tspan>
            </text>
            <text
               id="Prod_AppA_V1"
               font-family="IBMPlexSans, IBM Plex Sans"
               font-size="20"
               font-weight="normal"
               fill="#5A6872">
              <tspan
                 x="100"
                 y="94"
                 id="tspan3033">Prod_AppA_V1</tspan>
            </text>
            <text
               id="Stage_AppA_V1"
               font-family="IBMPlexSans, IBM Plex Sans"
               font-size="20"
               font-weight="normal"
               fill="#5A6872">
              <tspan
                 x="100"
                 y="174"
                 id="tspan3036">Stage_AppA_V1</tspan>
            </text>
            <text
               id="Test_AppA_V1"
               font-family="IBMPlexSans, IBM Plex Sans"
               font-size="20"
               font-weight="normal"
               fill="#5A6872">
              <tspan
                 x="100"
                 y="254"
                 id="tspan3039">Test_AppA_V1</tspan>
            </text>
            <text
               id="Dev_AppA_V1"
               font-family="IBMPlexSans, IBM Plex Sans"
               font-size="20"
               font-weight="normal"
               fill="#5A6872">
              <tspan
                 x="100"
                 y="334"
                 id="tspan3042">Dev_AppA_V1</tspan>
            </text>
            <g
               id="Hexy"
               transform="translate(0.000000, 46.000000)">
              <polygon
                 id="polygon13"
                 fill="#79C6FF"
                 fill-rule="nonzero"
                 points="37 0 0 20 0 60 37 80 74 60 74 20" />
              <polygon
                 id="polygon15"
                 fill="#56A8FD"
                 fill-rule="nonzero"
                 points="37 80 0 100 0 140 37 160 74 140 74 100" />
              <polygon
                 id="polygon17"
                 fill="#5294E9"
                 fill-rule="nonzero"
                 points="37 160 0 180 0 220 37 240 74 220 74 180" />
              <polygon
                 id="polygon19"
                 fill="#3A6EB4"
                 fill-rule="nonzero"
                 points="37 240 0 260 0 300 37 320 74 300 74 260" />
              <path
                 d="M37.5,45.5 L37.5,274.5"
                 id="Line-Copy-2"
                 stroke="#0F212E"
                 stroke-width="3"
                 stroke-linecap="square" />
              <circle
                 id="Oval-Copy-2"
                 stroke="#0F212E"
                 stroke-width="3"
                 fill="#FFFFFF"
                 cx="37.5"
                 cy="40.5"
                 r="6.5"
                 d="M 44,40.5 C 44,44.089851 41.089851,47 37.5,47 33.910149,47 31,44.089851 31,40.5 31,36.910149 33.910149,34 37.5,34 c 3.589851,0 6.5,2.910149 6.5,6.5 z" />
              <circle
                 id="circle3051"
                 stroke="#0F212E"
                 stroke-width="3"
                 fill="#FFFFFF"
                 cx="37.5"
                 cy="120.5"
                 r="6.5"
                 d="m 44,120.5 c 0,3.58985 -2.910149,6.5 -6.5,6.5 -3.589851,0 -6.5,-2.91015 -6.5,-6.5 0,-3.58985 2.910149,-6.5 6.5,-6.5 3.589851,0 6.5,2.91015 6.5,6.5 z" />
              <circle
                 id="circle3053"
                 stroke="#0F212E"
                 stroke-width="3"
                 fill="#FFFFFF"
                 cx="37.5"
                 cy="200.5"
                 r="6.5"
                 d="m 44,200.5 c 0,3.58985 -2.910149,6.5 -6.5,6.5 -3.589851,0 -6.5,-2.91015 -6.5,-6.5 0,-3.58985 2.910149,-6.5 6.5,-6.5 3.589851,0 6.5,2.91015 6.5,6.5 z" />
              <circle
                 id="Oval-Copy-3"
                 stroke="#0F212E"
                 stroke-width="3"
                 fill="#FFFFFF"
                 cx="37.5"
                 cy="280.5"
                 r="6.5"
                 d="m 44,280.5 c 0,3.58985 -2.910149,6.5 -6.5,6.5 -3.589851,0 -6.5,-2.91015 -6.5,-6.5 0,-3.58985 2.910149,-6.5 6.5,-6.5 3.589851,0 6.5,2.91015 6.5,6.5 z" />
            </g>
          </g>
        </g>
        <g
           id="project-b"
           transform="translate(412.000000, 78.000000)">
          <rect
             id="rect3057"
             stroke="#8C9BA5"
             stroke-width="2"
             x="1"
             y="1"
             width="351"
             height="415" />
          <g
             id="g3059"
             transform="translate(53.000000, 26.000000)">
            <text
               id="Retail-Project-B"
               font-size="20"
               font-weight="bold"
               style="font-size:20px;font-weight:bold;fill:#5a6872;font-family:'IBMPlexSans-Bold, IBM Plex Sans'">
              <tspan
                 x="0"
                 y="21"
                 id="tspan3062"><tspan
   style="-inkscape-font-specification:SimHei;font-family:SimHei"
   id="tspan3572">零售项目</tspan>
 B</tspan>
            </text>
            <text
               id="Prod_AppB_V1"
               font-family="IBMPlexSans, IBM Plex Sans"
               font-size="20"
               font-weight="normal"
               fill="#5A6872">
              <tspan
                 x="100"
                 y="94"
                 id="tspan3065">Prod_AppB_V1</tspan>
            </text>
            <text
               id="Stage_AppB_V1"
               font-family="IBMPlexSans, IBM Plex Sans"
               font-size="20"
               font-weight="normal"
               fill="#5A6872">
              <tspan
                 x="100"
                 y="174"
                 id="tspan3068">Stage_AppB_V1</tspan>
            </text>
            <text
               id="Test_AppB_V1"
               font-family="IBMPlexSans, IBM Plex Sans"
               font-size="20"
               font-weight="normal"
               fill="#5A6872">
              <tspan
                 x="100"
                 y="254"
                 id="tspan3071">Test_AppB_V1</tspan>
            </text>
            <text
               id="Dev_AppB_V1"
               font-family="IBMPlexSans, IBM Plex Sans"
               font-size="20"
               font-weight="normal"
               fill="#5A6872">
              <tspan
                 x="100"
                 y="334"
                 id="tspan3074">Dev_AppB_V1</tspan>
            </text>
            <g
               id="g3076"
               transform="translate(0.000000, 46.000000)">
              <polygon
                 id="polygon3078"
                 fill="#DFE3E6"
                 fill-rule="nonzero"
                 points="37 0 0 20 0 60 37 80 74 60 74 20" />
              <polygon
                 id="polygon3080"
                 fill="#8C9BA6"
                 fill-rule="nonzero"
                 points="37 80 0 100 0 140 37 160 74 140 74 100" />
              <polygon
                 id="polygon3082"
                 fill="#5A6873"
                 fill-rule="nonzero"
                 points="37 160 0 180 0 220 37 240 74 220 74 180" />
              <polygon
                 id="polygon3084"
                 fill="#2C3F4A"
                 fill-rule="nonzero"
                 points="37 240 0 260 0 300 37 320 74 300 74 260" />
              <path
                 d="M37.5,45.5 L37.5,274.5"
                 id="path3086"
                 stroke="#0F212E"
                 stroke-width="3"
                 stroke-linecap="square" />
              <circle
                 id="circle3088"
                 stroke="#0F212E"
                 stroke-width="3"
                 fill="#FFFFFF"
                 cx="37.5"
                 cy="40.5"
                 r="6.5"
                 d="M 44,40.5 C 44,44.089851 41.089851,47 37.5,47 33.910149,47 31,44.089851 31,40.5 31,36.910149 33.910149,34 37.5,34 c 3.589851,0 6.5,2.910149 6.5,6.5 z" />
              <circle
                 id="circle3090"
                 stroke="#0F212E"
                 stroke-width="3"
                 fill="#FFFFFF"
                 cx="37.5"
                 cy="120.5"
                 r="6.5"
                 d="m 44,120.5 c 0,3.58985 -2.910149,6.5 -6.5,6.5 -3.589851,0 -6.5,-2.91015 -6.5,-6.5 0,-3.58985 2.910149,-6.5 6.5,-6.5 3.589851,0 6.5,2.91015 6.5,6.5 z" />
              <circle
                 id="circle3092"
                 stroke="#0F212E"
                 stroke-width="3"
                 fill="#FFFFFF"
                 cx="37.5"
                 cy="200.5"
                 r="6.5"
                 d="m 44,200.5 c 0,3.58985 -2.910149,6.5 -6.5,6.5 -3.589851,0 -6.5,-2.91015 -6.5,-6.5 0,-3.58985 2.910149,-6.5 6.5,-6.5 3.589851,0 6.5,2.91015 6.5,6.5 z" />
              <circle
                 id="circle3094"
                 stroke="#0F212E"
                 stroke-width="3"
                 fill="#FFFFFF"
                 cx="37.5"
                 cy="280.5"
                 r="6.5"
                 d="m 44,280.5 c 0,3.58985 -2.910149,6.5 -6.5,6.5 -3.589851,0 -6.5,-2.91015 -6.5,-6.5 0,-3.58985 2.910149,-6.5 6.5,-6.5 3.589851,0 6.5,2.91015 6.5,6.5 z" />
            </g>
          </g>
        </g>
      </g>
      <g
         id="investment-org"
         transform="translate(824.000000, 0.000000)">
        <use
           id="use3097"
           stroke="#DFE3E6"
           mask="url(#mask-4)"
           stroke-width="6"
           stroke-dasharray="10"
           xlink:href="#path-3" />
        <text
           id="Bank-A--Investment-O"
           font-size="24"
           font-weight="normal"
           style="font-size:24px;font-weight:normal;fill:#5a6872;font-family:'IBMPlexSans, IBM Plex Sans'">
          <tspan
             x="35"
             y="53"
             id="tspan3100"><tspan
   style="-inkscape-font-specification:SimHei;font-family:SimHei"
   id="tspan3576">银行</tspan>
 A - <tspan
   style="-inkscape-font-specification:SimHei;font-family:SimHei"
   id="tspan3574">投资组织</tspan>
</tspan>
        </text>
        <g
           id="g3102"
           transform="translate(35.000000, 78.000000)">
          <rect
             id="rect3104"
             stroke="#8C9BA5"
             stroke-width="2"
             x="1"
             y="1"
             width="351"
             height="415" />
          <g
             id="g3106"
             transform="translate(53.000000, 26.000000)">
            <text
               id="Investment-Project-X"
               font-size="20"
               font-weight="bold"
               style="font-size:20px;font-weight:bold;fill:#5a6872;font-family:'IBMPlexSans-Bold, IBM Plex Sans'">
              <tspan
                 x="0"
                 y="21"
                 id="tspan3109"><tspan
   style="-inkscape-font-specification:SimHei;font-family:SimHei"
   id="tspan3578">投资项目</tspan>
 X</tspan>
            </text>
            <text
               id="Prod_AppX_V1"
               font-family="IBMPlexSans, IBM Plex Sans"
               font-size="20"
               font-weight="normal"
               fill="#5A6872">
              <tspan
                 x="100"
                 y="94"
                 id="tspan3112">Prod_AppX_V1</tspan>
            </text>
            <text
               id="Stage_AppX_V1"
               font-family="IBMPlexSans, IBM Plex Sans"
               font-size="20"
               font-weight="normal"
               fill="#5A6872">
              <tspan
                 x="100"
                 y="174"
                 id="tspan3115">Stage_AppX_V1</tspan>
            </text>
            <text
               id="Test_AppX_V1"
               font-family="IBMPlexSans, IBM Plex Sans"
               font-size="20"
               font-weight="normal"
               fill="#5A6872">
              <tspan
                 x="100"
                 y="254"
                 id="tspan3118">Test_AppX_V1</tspan>
            </text>
            <text
               id="Dev_AppX_V1"
               font-family="IBMPlexSans, IBM Plex Sans"
               font-size="20"
               font-weight="normal"
               fill="#5A6872">
              <tspan
                 x="100"
                 y="334"
                 id="tspan3121">Dev_AppX_V1</tspan>
            </text>
            <g
               id="g3123"
               transform="translate(0.000000, 46.000000)">
              <polygon
                 id="polygon3125"
                 fill="#79C6FF"
                 fill-rule="nonzero"
                 points="37 0 0 20 0 60 37 80 74 60 74 20" />
              <polygon
                 id="polygon3127"
                 fill="#56A8FD"
                 fill-rule="nonzero"
                 points="37 80 0 100 0 140 37 160 74 140 74 100" />
              <polygon
                 id="polygon3129"
                 fill="#5294E9"
                 fill-rule="nonzero"
                 points="37 160 0 180 0 220 37 240 74 220 74 180" />
              <polygon
                 id="polygon3131"
                 fill="#3A6EB4"
                 fill-rule="nonzero"
                 points="37 240 0 260 0 300 37 320 74 300 74 260" />
              <path
                 d="M37.5,45.5 L37.5,274.5"
                 id="path3133"
                 stroke="#0F212E"
                 stroke-width="3"
                 stroke-linecap="square" />
              <circle
                 id="circle3135"
                 stroke="#0F212E"
                 stroke-width="3"
                 fill="#FFFFFF"
                 cx="37.5"
                 cy="40.5"
                 r="6.5"
                 d="M 44,40.5 C 44,44.089851 41.089851,47 37.5,47 33.910149,47 31,44.089851 31,40.5 31,36.910149 33.910149,34 37.5,34 c 3.589851,0 6.5,2.910149 6.5,6.5 z" />
              <circle
                 id="circle3137"
                 stroke="#0F212E"
                 stroke-width="3"
                 fill="#FFFFFF"
                 cx="37.5"
                 cy="120.5"
                 r="6.5"
                 d="m 44,120.5 c 0,3.58985 -2.910149,6.5 -6.5,6.5 -3.589851,0 -6.5,-2.91015 -6.5,-6.5 0,-3.58985 2.910149,-6.5 6.5,-6.5 3.589851,0 6.5,2.91015 6.5,6.5 z" />
              <circle
                 id="circle3139"
                 stroke="#0F212E"
                 stroke-width="3"
                 fill="#FFFFFF"
                 cx="37.5"
                 cy="200.5"
                 r="6.5"
                 d="m 44,200.5 c 0,3.58985 -2.910149,6.5 -6.5,6.5 -3.589851,0 -6.5,-2.91015 -6.5,-6.5 0,-3.58985 2.910149,-6.5 6.5,-6.5 3.589851,0 6.5,2.91015 6.5,6.5 z" />
              <circle
                 id="circle3141"
                 stroke="#0F212E"
                 stroke-width="3"
                 fill="#FFFFFF"
                 cx="37.5"
                 cy="280.5"
                 r="6.5"
                 d="m 44,280.5 c 0,3.58985 -2.910149,6.5 -6.5,6.5 -3.589851,0 -6.5,-2.91015 -6.5,-6.5 0,-3.58985 2.910149,-6.5 6.5,-6.5 3.589851,0 6.5,2.91015 6.5,6.5 z" />
            </g>
          </g>
        </g>
        <g
           id="g3143"
           transform="translate(412.000000, 78.000000)">
          <rect
             id="rect3145"
             stroke="#8C9BA5"
             stroke-width="2"
             x="1"
             y="1"
             width="351"
             height="415" />
          <g
             id="g3147"
             transform="translate(53.000000, 26.000000)">
            <text
               id="Investment-Project-Y"
               font-size="20"
               font-weight="bold"
               style="font-size:20px;font-weight:bold;fill:#5a6872;font-family:'IBMPlexSans-Bold, IBM Plex Sans'">
              <tspan
                 x="0"
                 y="21"
                 id="tspan3150"><tspan
   style="-inkscape-font-specification:SimHei;font-family:SimHei"
   id="tspan3580">投资项目</tspan>
 Y</tspan>
            </text>
            <text
               id="Prod_AppY_V1"
               font-family="IBMPlexSans, IBM Plex Sans"
               font-size="20"
               font-weight="normal"
               fill="#5A6872">
              <tspan
                 x="100"
                 y="94"
                 id="tspan3153">Prod_AppY_V1</tspan>
            </text>
            <text
               id="Stage_AppY_V1"
               font-family="IBMPlexSans, IBM Plex Sans"
               font-size="20"
               font-weight="normal"
               fill="#5A6872">
              <tspan
                 x="100"
                 y="174"
                 id="tspan3156">Stage_AppY_V1</tspan>
            </text>
            <text
               id="Test_AppY_V1"
               font-family="IBMPlexSans, IBM Plex Sans"
               font-size="20"
               font-weight="normal"
               fill="#5A6872">
              <tspan
                 x="100"
                 y="254"
                 id="tspan3159">Test_AppY_V1</tspan>
            </text>
            <text
               id="Dev_AppY_V1"
               font-family="IBMPlexSans, IBM Plex Sans"
               font-size="20"
               font-weight="normal"
               fill="#5A6872">
              <tspan
                 x="100"
                 y="334"
                 id="tspan3162">Dev_AppY_V1</tspan>
            </text>
            <g
               id="g3164"
               transform="translate(0.000000, 46.000000)">
              <polygon
                 id="polygon3166"
                 fill="#DFE3E6"
                 fill-rule="nonzero"
                 points="37 0 0 20 0 60 37 80 74 60 74 20" />
              <polygon
                 id="polygon3168"
                 fill="#8C9BA6"
                 fill-rule="nonzero"
                 points="37 80 0 100 0 140 37 160 74 140 74 100" />
              <polygon
                 id="polygon3170"
                 fill="#5A6873"
                 fill-rule="nonzero"
                 points="37 160 0 180 0 220 37 240 74 220 74 180" />
              <polygon
                 id="polygon3172"
                 fill="#2C3F4A"
                 fill-rule="nonzero"
                 points="37 240 0 260 0 300 37 320 74 300 74 260" />
              <path
                 d="M37.5,45.5 L37.5,274.5"
                 id="path3174"
                 stroke="#0F212E"
                 stroke-width="3"
                 stroke-linecap="square" />
              <circle
                 id="circle3176"
                 stroke="#0F212E"
                 stroke-width="3"
                 fill="#FFFFFF"
                 cx="37.5"
                 cy="40.5"
                 r="6.5"
                 d="M 44,40.5 C 44,44.089851 41.089851,47 37.5,47 33.910149,47 31,44.089851 31,40.5 31,36.910149 33.910149,34 37.5,34 c 3.589851,0 6.5,2.910149 6.5,6.5 z" />
              <circle
                 id="circle3178"
                 stroke="#0F212E"
                 stroke-width="3"
                 fill="#FFFFFF"
                 cx="37.5"
                 cy="120.5"
                 r="6.5"
                 d="m 44,120.5 c 0,3.58985 -2.910149,6.5 -6.5,6.5 -3.589851,0 -6.5,-2.91015 -6.5,-6.5 0,-3.58985 2.910149,-6.5 6.5,-6.5 3.589851,0 6.5,2.91015 6.5,6.5 z" />
              <circle
                 id="circle3180"
                 stroke="#0F212E"
                 stroke-width="3"
                 fill="#FFFFFF"
                 cx="37.5"
                 cy="200.5"
                 r="6.5"
                 d="m 44,200.5 c 0,3.58985 -2.910149,6.5 -6.5,6.5 -3.589851,0 -6.5,-2.91015 -6.5,-6.5 0,-3.58985 2.910149,-6.5 6.5,-6.5 3.589851,0 6.5,2.91015 6.5,6.5 z" />
              <circle
                 id="circle3182"
                 stroke="#0F212E"
                 stroke-width="3"
                 fill="#FFFFFF"
                 cx="37.5"
                 cy="280.5"
                 r="6.5"
                 d="m 44,280.5 c 0,3.58985 -2.910149,6.5 -6.5,6.5 -3.589851,0 -6.5,-2.91015 -6.5,-6.5 0,-3.58985 2.910149,-6.5 6.5,-6.5 3.589851,0 6.5,2.91015 6.5,6.5 z" />
            </g>
          </g>
        </g>
      </g>
    </g>
  </g>
</svg>
