<?xml version="1.0" encoding="utf-8"?>
<!-- Generator: Adobe Illustrator 22.1.0, SVG Export Plug-In . SVG Version: 6.00 Build 0)  -->
<svg version="1.1" id="Layer_1" xmlns="http://www.w3.org/2000/svg" xmlns:xlink="http://www.w3.org/1999/xlink" x="0px" y="0px"
	 viewBox="0 0 1056 319" style="enable-background:new 0 0 1056 319;" xml:space="preserve">
<style type="text/css">
	.st0{fill:#FFFFFF;}
	.st1{fill:#0530AD;}
	.st2{fill:#004548;}
	.st3{fill:#A66EFA;}
	.st4{fill:#009C98;}
	.st5{fill:#565656;}
	.st6{enable-background:new    ;}
	.st7{fill:none;stroke:#009C98;}
</style>
<title>geographies - 4 tiers</title>
<desc>Created with Sketch.</desc>
<g id="geographies---4-tiers">
	<rect class="st0" width="1056" height="319"/>
	<path id="Rectangle" class="st1" d="M428,24h136c6.6,0,12,5.4,12,12v12c0,6.6-5.4,12-12,12H428c-6.6,0-12-5.4-12-12V36
		C416,29.4,421.4,24,428,24z M428,25c-6.1,0-11,4.9-11,11v12c0,6.1,4.9,11,11,11h136c6.1,0,11-4.9,11-11V36c0-6.1-4.9-11-11-11H428z
		"/>
	<path id="ExampleCorp." class="st2" d="M451,45.7v-8.2h5.2v0.9H452v2.8h4V42h-4v2.9h4.2v0.9H451z M457.9,45.7l2.3-3.1l-2.2-3h1.2
		l0.9,1.3l0.7,1h0l0.7-1l0.9-1.3h1.1l-2.3,3l2.3,3.1h-1.2l-1-1.4l-0.7-1h0l-0.7,1l-1,1.4H457.9z M470.3,45.7c-0.4,0-0.6-0.1-0.8-0.3
		c-0.2-0.2-0.3-0.4-0.3-0.7h-0.1c-0.1,0.4-0.4,0.6-0.7,0.8c-0.3,0.2-0.7,0.3-1.2,0.3c-0.6,0-1.2-0.2-1.6-0.5
		c-0.4-0.3-0.6-0.8-0.6-1.3c0-0.6,0.2-1,0.6-1.3s1.1-0.5,2-0.5h1.3v-0.6c0-0.4-0.1-0.8-0.4-1c-0.3-0.2-0.6-0.3-1.1-0.3
		c-0.4,0-0.8,0.1-1,0.2c-0.3,0.2-0.5,0.4-0.6,0.6l-0.6-0.5c0.1-0.2,0.2-0.3,0.3-0.5s0.3-0.3,0.5-0.4c0.2-0.1,0.4-0.2,0.7-0.3
		c0.3-0.1,0.5-0.1,0.9-0.1c0.7,0,1.3,0.2,1.7,0.5s0.6,0.9,0.6,1.5v3.3h0.9v0.8H470.3z M467.4,45c0.2,0,0.5,0,0.7-0.1
		s0.4-0.1,0.5-0.2c0.2-0.1,0.3-0.2,0.4-0.4c0.1-0.1,0.1-0.3,0.1-0.4v-1h-1.3c-0.6,0-1,0.1-1.3,0.2c-0.3,0.2-0.4,0.4-0.4,0.7v0.2
		c0,0.3,0.1,0.5,0.3,0.7C466.7,44.9,467,45,467.4,45z M472.2,45.7v-6h0.9v0.7h0c0.1-0.2,0.2-0.4,0.4-0.6c0.2-0.2,0.4-0.2,0.8-0.2
		c0.4,0,0.6,0.1,0.8,0.3c0.2,0.2,0.3,0.4,0.3,0.7h0c0.1-0.3,0.3-0.5,0.5-0.7c0.2-0.2,0.5-0.3,0.9-0.3c0.5,0,0.8,0.2,1,0.5
		c0.2,0.3,0.3,0.8,0.3,1.5v4.2h-0.9v-4c0-0.5-0.1-0.9-0.2-1.1c-0.1-0.2-0.3-0.3-0.6-0.3c-0.3,0-0.5,0.1-0.6,0.2
		c-0.2,0.2-0.2,0.4-0.2,0.7v4.4h-0.9v-4c0-0.5-0.1-0.9-0.2-1.1c-0.1-0.2-0.3-0.3-0.6-0.3c-0.3,0-0.5,0.1-0.6,0.2
		c-0.2,0.2-0.2,0.4-0.2,0.7v4.4H472.2z M479.9,39.6h1v1h0c0.4-0.7,1-1.1,1.9-1.1c0.8,0,1.4,0.3,1.8,0.8c0.4,0.6,0.6,1.3,0.6,2.3
		c0,1-0.2,1.8-0.6,2.3c-0.4,0.6-1,0.8-1.8,0.8c-0.9,0-1.5-0.4-1.9-1.1h0V48h-1V39.6z M482.5,45c0.6,0,1-0.2,1.3-0.5
		c0.3-0.3,0.5-0.8,0.5-1.3v-1c0-0.5-0.2-1-0.5-1.3c-0.3-0.3-0.7-0.5-1.3-0.5c-0.2,0-0.4,0-0.6,0.1c-0.2,0.1-0.4,0.1-0.5,0.2
		s-0.3,0.2-0.3,0.4c-0.1,0.2-0.1,0.3-0.1,0.5v2.2c0,0.2,0,0.4,0.1,0.5c0.1,0.2,0.2,0.3,0.3,0.4s0.3,0.2,0.5,0.2S482.3,45,482.5,45z
		 M487,44.9h2.2v-7.1H487V37h3.1v7.9h2.2v0.8H487V44.9z M496.9,45.8c-0.4,0-0.9-0.1-1.2-0.2c-0.4-0.1-0.7-0.4-0.9-0.6
		c-0.3-0.3-0.4-0.6-0.6-1s-0.2-0.8-0.2-1.3c0-0.5,0.1-0.9,0.2-1.3c0.1-0.4,0.3-0.7,0.6-1c0.2-0.3,0.5-0.5,0.9-0.6
		c0.3-0.1,0.7-0.2,1.2-0.2c0.4,0,0.8,0.1,1.1,0.2s0.6,0.4,0.9,0.6c0.2,0.3,0.4,0.6,0.6,0.9s0.2,0.8,0.2,1.2v0.4H495v0.3
		c0,0.3,0,0.5,0.1,0.7c0.1,0.2,0.2,0.4,0.4,0.6c0.2,0.2,0.4,0.3,0.6,0.4c0.2,0.1,0.5,0.1,0.8,0.1c0.4,0,0.8-0.1,1.1-0.3
		c0.3-0.2,0.5-0.4,0.7-0.8l0.7,0.5c-0.2,0.4-0.5,0.7-0.9,1S497.5,45.8,496.9,45.8z M496.9,40.3c-0.3,0-0.5,0-0.7,0.1
		c-0.2,0.1-0.4,0.2-0.6,0.4c-0.2,0.2-0.3,0.4-0.4,0.6c-0.1,0.2-0.1,0.5-0.1,0.7v0.1h3.6V42c0-0.3,0-0.5-0.1-0.7
		c-0.1-0.2-0.2-0.4-0.3-0.6c-0.1-0.2-0.3-0.3-0.5-0.4C497.4,40.3,497.1,40.3,496.9,40.3z M511.5,45.8c-1,0-1.8-0.4-2.3-1.1
		c-0.5-0.7-0.8-1.8-0.8-3.1c0-1.4,0.3-2.4,0.8-3.1s1.3-1.1,2.3-1.1c0.4,0,0.7,0.1,1,0.2c0.3,0.1,0.5,0.2,0.7,0.4
		c0.2,0.2,0.4,0.4,0.5,0.6c0.1,0.2,0.3,0.4,0.4,0.6l-0.9,0.4c-0.1-0.2-0.2-0.3-0.3-0.5c-0.1-0.2-0.2-0.3-0.3-0.4
		c-0.1-0.1-0.3-0.2-0.5-0.3c-0.2-0.1-0.4-0.1-0.7-0.1c-0.7,0-1.2,0.2-1.5,0.7c-0.3,0.5-0.5,1.1-0.5,2v1.3c0,0.8,0.2,1.5,0.5,2
		c0.3,0.5,0.8,0.7,1.5,0.7c0.3,0,0.5,0,0.7-0.1c0.2-0.1,0.3-0.2,0.5-0.3c0.1-0.1,0.2-0.3,0.3-0.4s0.2-0.3,0.3-0.5l0.9,0.4
		c-0.1,0.2-0.2,0.4-0.4,0.7s-0.3,0.4-0.5,0.6c-0.2,0.2-0.4,0.3-0.7,0.4C512.2,45.7,511.9,45.8,511.5,45.8z M518.5,45.8
		c-0.4,0-0.8-0.1-1.2-0.2c-0.3-0.1-0.6-0.4-0.9-0.6c-0.2-0.3-0.4-0.6-0.6-1c-0.1-0.4-0.2-0.8-0.2-1.3c0-0.5,0.1-0.9,0.2-1.3
		c0.1-0.4,0.3-0.7,0.6-1c0.2-0.3,0.5-0.5,0.9-0.6c0.3-0.1,0.7-0.2,1.2-0.2s0.8,0.1,1.2,0.2s0.6,0.4,0.9,0.6c0.2,0.3,0.4,0.6,0.6,1
		c0.1,0.4,0.2,0.8,0.2,1.3c0,0.5-0.1,0.9-0.2,1.3s-0.3,0.7-0.6,1c-0.2,0.3-0.5,0.5-0.9,0.6S518.9,45.8,518.5,45.8z M518.5,45
		c0.5,0,1-0.2,1.3-0.5s0.5-0.8,0.5-1.5v-0.9c0-0.7-0.2-1.1-0.5-1.5s-0.8-0.5-1.3-0.5s-1,0.2-1.3,0.5c-0.3,0.3-0.5,0.8-0.5,1.5v0.9
		c0,0.7,0.2,1.1,0.5,1.5C517.5,44.8,517.9,45,518.5,45z M523,44.9h1.8v-4.4H523v-0.8h2.8v1.1h0.1c0.1-0.3,0.3-0.5,0.6-0.8
		c0.3-0.2,0.7-0.3,1.2-0.3h1.1v0.9h-1.3c-0.5,0-1,0.1-1.3,0.3c-0.3,0.2-0.5,0.4-0.5,0.7v3.3h2.4v0.8H523V44.9z M530.4,39.6h1v1h0
		c0.4-0.7,1-1.1,1.9-1.1c0.8,0,1.4,0.3,1.8,0.8c0.4,0.6,0.6,1.3,0.6,2.3c0,1-0.2,1.8-0.6,2.3c-0.4,0.6-1,0.8-1.8,0.8
		c-0.9,0-1.5-0.4-1.9-1.1h0V48h-1V39.6z M533,45c0.6,0,1-0.2,1.3-0.5s0.5-0.8,0.5-1.3v-1c0-0.5-0.2-1-0.5-1.3s-0.7-0.5-1.3-0.5
		c-0.2,0-0.4,0-0.6,0.1c-0.2,0.1-0.4,0.1-0.5,0.2c-0.1,0.1-0.3,0.2-0.3,0.4c-0.1,0.2-0.1,0.3-0.1,0.5v2.2c0,0.2,0,0.4,0.1,0.5
		c0.1,0.2,0.2,0.3,0.3,0.4c0.1,0.1,0.3,0.2,0.5,0.2C532.6,44.9,532.8,45,533,45z M540.1,45.8c-0.3,0-0.6-0.1-0.7-0.2
		c-0.1-0.1-0.2-0.3-0.2-0.5v-0.2c0-0.2,0.1-0.4,0.2-0.5c0.1-0.1,0.4-0.2,0.7-0.2c0.3,0,0.6,0.1,0.7,0.2c0.1,0.1,0.2,0.3,0.2,0.5v0.2
		c0,0.2-0.1,0.4-0.2,0.5C540.7,45.7,540.4,45.8,540.1,45.8z"/>
	<path id="Europe" class="st2" d="M124,122.6V114h5.1v0.9H125v2.9h4v0.9h-4v3h4.1v0.9H124z M135.1,121.5L135.1,121.5
		c-0.1,0.2-0.2,0.3-0.3,0.4c-0.1,0.1-0.2,0.3-0.4,0.4s-0.3,0.2-0.5,0.3s-0.4,0.1-0.7,0.1c-0.6,0-1.2-0.2-1.5-0.6
		c-0.4-0.4-0.6-1-0.6-1.8v-4.1h1v3.9c0,0.6,0.1,1,0.4,1.3c0.2,0.3,0.6,0.4,1.1,0.4c0.2,0,0.4,0,0.6-0.1c0.2,0,0.3-0.1,0.5-0.2
		c0.1-0.1,0.3-0.2,0.3-0.4s0.1-0.3,0.1-0.5v-4.4h1v6.3h-1V121.5z M138.1,121.7h1.8v-4.7h-1.8v-0.8h2.8v1.1h0.1
		c0.1-0.3,0.3-0.6,0.6-0.8c0.3-0.2,0.7-0.3,1.2-0.3h1.1v1h-1.3c-0.5,0-1,0.1-1.3,0.3c-0.3,0.2-0.5,0.4-0.5,0.7v3.5h2.4v0.8h-5.1
		V121.7z M147.9,122.7c-0.4,0-0.8-0.1-1.2-0.2c-0.3-0.2-0.6-0.4-0.9-0.7c-0.2-0.3-0.4-0.6-0.6-1c-0.1-0.4-0.2-0.9-0.2-1.4
		c0-0.5,0.1-1,0.2-1.4c0.1-0.4,0.3-0.8,0.6-1c0.2-0.3,0.5-0.5,0.9-0.7c0.3-0.2,0.7-0.2,1.2-0.2s0.8,0.1,1.2,0.2
		c0.3,0.2,0.6,0.4,0.9,0.7c0.2,0.3,0.4,0.6,0.6,1c0.1,0.4,0.2,0.9,0.2,1.4c0,0.5-0.1,1-0.2,1.4c-0.1,0.4-0.3,0.8-0.6,1
		c-0.2,0.3-0.5,0.5-0.9,0.7C148.8,122.6,148.4,122.7,147.9,122.7z M147.9,121.9c0.5,0,1-0.2,1.3-0.5c0.3-0.3,0.5-0.8,0.5-1.5v-0.9
		c0-0.7-0.2-1.2-0.5-1.5c-0.3-0.3-0.8-0.5-1.3-0.5c-0.5,0-1,0.2-1.3,0.5c-0.3,0.3-0.5,0.8-0.5,1.5v0.9c0,0.7,0.2,1.2,0.5,1.5
		C147,121.7,147.4,121.9,147.9,121.9z M152.6,116.2h1v1h0c0.4-0.8,1-1.2,1.9-1.2c0.8,0,1.3,0.3,1.8,0.9s0.6,1.4,0.6,2.4
		s-0.2,1.9-0.6,2.4s-1,0.9-1.8,0.9c-0.9,0-1.5-0.4-1.9-1.2h0v3.5h-1V116.2z M155.2,121.8c0.6,0,1-0.2,1.3-0.5s0.5-0.8,0.5-1.4v-1.1
		c0-0.6-0.2-1-0.5-1.4s-0.7-0.5-1.3-0.5c-0.2,0-0.4,0-0.6,0.1c-0.2,0.1-0.4,0.1-0.5,0.3c-0.1,0.1-0.3,0.2-0.3,0.4s-0.1,0.3-0.1,0.6
		v2.3c0,0.2,0,0.4,0.1,0.6c0.1,0.2,0.2,0.3,0.3,0.4s0.3,0.2,0.5,0.3C154.7,121.8,154.9,121.8,155.2,121.8z M162.3,122.7
		c-0.4,0-0.8-0.1-1.2-0.2c-0.4-0.2-0.7-0.4-0.9-0.7c-0.3-0.3-0.4-0.6-0.6-1s-0.2-0.9-0.2-1.4c0-0.5,0.1-1,0.2-1.4s0.3-0.8,0.6-1
		c0.2-0.3,0.5-0.5,0.9-0.7c0.3-0.2,0.7-0.2,1.1-0.2c0.4,0,0.8,0.1,1.1,0.2c0.3,0.2,0.6,0.4,0.9,0.6c0.2,0.3,0.4,0.6,0.5,1
		c0.1,0.4,0.2,0.8,0.2,1.2v0.5h-4.5v0.3c0,0.3,0,0.5,0.1,0.8s0.2,0.4,0.4,0.6c0.2,0.2,0.4,0.3,0.6,0.4c0.2,0.1,0.5,0.1,0.8,0.1
		c0.4,0,0.8-0.1,1.1-0.3s0.5-0.5,0.7-0.8l0.7,0.5c-0.2,0.4-0.5,0.8-0.9,1C163.5,122.6,162.9,122.7,162.3,122.7z M162.3,116.9
		c-0.3,0-0.5,0-0.7,0.1c-0.2,0.1-0.4,0.2-0.6,0.4s-0.3,0.4-0.4,0.6c-0.1,0.2-0.1,0.5-0.1,0.8v0.1h3.5v-0.1c0-0.3,0-0.5-0.1-0.8
		c-0.1-0.2-0.2-0.4-0.3-0.6c-0.1-0.2-0.3-0.3-0.5-0.4C162.8,116.9,162.5,116.9,162.3,116.9z"/>
	<path id="Germany" class="st2" d="M82.6,196.5L82.6,196.5c-0.1,0.2-0.2,0.3-0.3,0.5c-0.1,0.2-0.2,0.3-0.4,0.4
		c-0.1,0.1-0.3,0.2-0.5,0.3s-0.5,0.1-0.7,0.1c-0.9,0-1.6-0.4-2-1.1c-0.4-0.7-0.7-1.8-0.7-3.2c0-1.5,0.2-2.6,0.7-3.3
		c0.5-0.7,1.2-1.1,2.3-1.1c0.4,0,0.7,0.1,1,0.2c0.3,0.1,0.5,0.2,0.7,0.4s0.4,0.4,0.5,0.6c0.1,0.2,0.2,0.4,0.3,0.7l-0.9,0.4
		c-0.1-0.2-0.2-0.4-0.2-0.5c-0.1-0.2-0.2-0.3-0.3-0.4s-0.3-0.2-0.5-0.3c-0.2-0.1-0.4-0.1-0.6-0.1c-0.7,0-1.2,0.3-1.5,0.8
		c-0.3,0.5-0.5,1.2-0.5,2v1.3c0,0.4,0,0.8,0.1,1.2c0.1,0.4,0.2,0.7,0.3,0.9c0.1,0.3,0.3,0.5,0.6,0.6c0.2,0.1,0.5,0.2,0.9,0.2
		c0.5,0,1-0.2,1.3-0.5c0.3-0.3,0.5-0.8,0.5-1.3v-0.9h-1.8v-0.8h2.7v4.2h-0.9V196.5z M88.2,197.7c-0.4,0-0.8-0.1-1.2-0.2
		c-0.4-0.2-0.7-0.4-0.9-0.7c-0.3-0.3-0.4-0.6-0.6-1c-0.1-0.4-0.2-0.8-0.2-1.3c0-0.5,0.1-1,0.2-1.4c0.1-0.4,0.3-0.7,0.6-1
		c0.2-0.3,0.5-0.5,0.9-0.7c0.3-0.2,0.7-0.2,1.2-0.2c0.4,0,0.8,0.1,1.1,0.2c0.3,0.2,0.6,0.4,0.9,0.6c0.2,0.3,0.4,0.6,0.6,1
		s0.2,0.8,0.2,1.2v0.5h-4.6v0.3c0,0.3,0,0.5,0.1,0.8s0.2,0.4,0.4,0.6c0.2,0.2,0.4,0.3,0.6,0.4c0.2,0.1,0.5,0.1,0.8,0.1
		c0.4,0,0.8-0.1,1.1-0.3c0.3-0.2,0.5-0.5,0.7-0.8l0.7,0.5c-0.2,0.4-0.5,0.8-0.9,1C89.4,197.6,88.8,197.7,88.2,197.7z M88.2,192
		c-0.3,0-0.5,0-0.7,0.1c-0.2,0.1-0.4,0.2-0.6,0.4c-0.2,0.2-0.3,0.4-0.4,0.6s-0.1,0.5-0.1,0.8v0.1h3.5v-0.1c0-0.3,0-0.5-0.1-0.7
		c-0.1-0.2-0.2-0.4-0.3-0.6c-0.1-0.2-0.3-0.3-0.5-0.4C88.6,192,88.4,192,88.2,192z M92.6,196.8h1.8v-4.6h-1.8v-0.8h2.8v1.1h0.1
		c0.1-0.3,0.3-0.6,0.6-0.8c0.3-0.2,0.7-0.3,1.2-0.3h1.1v1h-1.3c-0.5,0-1,0.1-1.3,0.3c-0.3,0.2-0.5,0.4-0.5,0.7v3.4h2.4v0.8h-5.2
		V196.8z M99.5,197.6v-6.2h0.9v0.7h0c0.1-0.2,0.2-0.4,0.4-0.6c0.2-0.2,0.4-0.3,0.8-0.3c0.4,0,0.6,0.1,0.8,0.3
		c0.2,0.2,0.3,0.4,0.3,0.7h0c0.1-0.3,0.3-0.5,0.5-0.7c0.2-0.2,0.5-0.3,0.9-0.3c0.5,0,0.8,0.2,1,0.5c0.2,0.4,0.3,0.9,0.3,1.5v4.3
		h-0.9v-4.2c0-0.5-0.1-0.9-0.2-1.1s-0.3-0.3-0.6-0.3c-0.3,0-0.5,0.1-0.6,0.2c-0.2,0.2-0.2,0.4-0.2,0.8v4.6H102v-4.2
		c0-0.5-0.1-0.9-0.2-1.1c-0.1-0.2-0.3-0.3-0.6-0.3c-0.3,0-0.5,0.1-0.6,0.2c-0.2,0.2-0.2,0.4-0.2,0.8v4.6H99.5z M112,197.6
		c-0.4,0-0.6-0.1-0.8-0.3c-0.2-0.2-0.3-0.4-0.3-0.7h-0.1c-0.1,0.4-0.4,0.6-0.7,0.9c-0.3,0.2-0.7,0.3-1.2,0.3c-0.6,0-1.2-0.2-1.5-0.5
		c-0.4-0.3-0.6-0.8-0.6-1.4c0-0.6,0.2-1,0.6-1.3s1.1-0.5,2-0.5h1.3v-0.6c0-0.5-0.1-0.8-0.4-1c-0.3-0.2-0.6-0.3-1.1-0.3
		c-0.4,0-0.8,0.1-1,0.2c-0.3,0.2-0.5,0.4-0.6,0.7l-0.6-0.5c0.1-0.2,0.2-0.3,0.3-0.5c0.1-0.2,0.3-0.3,0.5-0.4
		c0.2-0.1,0.4-0.2,0.7-0.3c0.3-0.1,0.5-0.1,0.9-0.1c0.7,0,1.3,0.2,1.7,0.6s0.6,0.9,0.6,1.5v3.4h0.9v0.8H112z M109.2,196.9
		c0.2,0,0.5,0,0.7-0.1s0.4-0.1,0.5-0.2c0.2-0.1,0.3-0.2,0.4-0.4c0.1-0.1,0.1-0.3,0.1-0.5v-1h-1.3c-0.6,0-1,0.1-1.3,0.2
		c-0.3,0.2-0.4,0.4-0.4,0.7v0.3c0,0.3,0.1,0.6,0.3,0.7C108.4,196.8,108.8,196.9,109.2,196.9z M114.4,197.6v-6.2h1v1h0
		c0.1-0.2,0.1-0.3,0.2-0.4c0.1-0.1,0.2-0.3,0.4-0.4c0.1-0.1,0.3-0.2,0.5-0.3s0.4-0.1,0.7-0.1c0.6,0,1.2,0.2,1.6,0.6
		c0.4,0.4,0.6,1,0.6,1.8v4h-1v-3.8c0-0.6-0.1-1-0.4-1.3c-0.2-0.3-0.6-0.4-1.1-0.4c-0.2,0-0.4,0-0.6,0.1s-0.3,0.1-0.5,0.2
		c-0.1,0.1-0.3,0.2-0.3,0.4c-0.1,0.2-0.1,0.3-0.1,0.5v4.3H114.4z M126,191.3h1l-3.1,7.6c-0.1,0.2-0.2,0.3-0.2,0.5
		c-0.1,0.1-0.2,0.2-0.3,0.3c-0.1,0.1-0.3,0.1-0.4,0.2s-0.4,0.1-0.6,0.1h-0.9v-0.8h1.4l0.7-1.7l-2.5-6.1h1l1,2.6l0.9,2.4h0l0.9-2.4
		L126,191.3z"/>
	<path id="France" class="st2" d="M165,197.8V189h5.2v0.9H166v3h3.9v0.9H166v4H165z M172,197h1.8v-4.8H172v-0.9h2.8v1.2h0.1
		c0.1-0.3,0.3-0.6,0.6-0.8c0.3-0.2,0.7-0.3,1.2-0.3h1.1v1h-1.3c-0.5,0-1,0.1-1.3,0.3s-0.5,0.5-0.5,0.8v3.6h2.4v0.9H172V197z
		 M184.1,197.8c-0.4,0-0.6-0.1-0.8-0.3c-0.2-0.2-0.3-0.5-0.3-0.8H183c-0.1,0.4-0.4,0.7-0.6,0.9c-0.3,0.2-0.7,0.3-1.2,0.3
		c-0.6,0-1.2-0.2-1.5-0.5c-0.4-0.4-0.6-0.8-0.6-1.5c0-0.6,0.2-1.1,0.6-1.4c0.4-0.3,1.1-0.5,2-0.5h1.3v-0.6c0-0.5-0.1-0.8-0.4-1.1
		s-0.6-0.4-1.1-0.4c-0.4,0-0.8,0.1-1,0.3c-0.3,0.2-0.5,0.4-0.6,0.7l-0.6-0.5c0.1-0.2,0.2-0.3,0.3-0.5c0.1-0.2,0.3-0.3,0.5-0.4
		c0.2-0.1,0.4-0.2,0.7-0.3c0.3-0.1,0.5-0.1,0.8-0.1c0.7,0,1.3,0.2,1.7,0.6c0.4,0.4,0.6,0.9,0.6,1.6v3.6h0.9v0.9H184.1z M181.3,197.2
		c0.2,0,0.5,0,0.7-0.1s0.4-0.1,0.5-0.3c0.2-0.1,0.3-0.2,0.4-0.4s0.1-0.3,0.1-0.5v-1.1h-1.3c-0.6,0-1,0.1-1.3,0.3
		c-0.3,0.2-0.4,0.4-0.4,0.7v0.3c0,0.3,0.1,0.6,0.3,0.8C180.6,197.1,180.9,197.2,181.3,197.2z M186.5,197.8v-6.5h1v1.1h0
		c0.1-0.2,0.1-0.3,0.2-0.5c0.1-0.1,0.2-0.3,0.4-0.4s0.3-0.2,0.5-0.3c0.2-0.1,0.4-0.1,0.7-0.1c0.6,0,1.2,0.2,1.5,0.7
		c0.4,0.4,0.6,1.1,0.6,1.8v4.2h-1v-4c0-0.6-0.1-1-0.4-1.3c-0.2-0.3-0.6-0.4-1.1-0.4c-0.2,0-0.4,0-0.6,0.1c-0.2,0.1-0.3,0.1-0.5,0.2
		s-0.3,0.2-0.3,0.4c-0.1,0.2-0.1,0.3-0.1,0.6v4.5H186.5z M196.3,198c-0.4,0-0.8-0.1-1.2-0.2c-0.3-0.2-0.6-0.4-0.9-0.7
		c-0.2-0.3-0.4-0.7-0.5-1.1c-0.1-0.4-0.2-0.9-0.2-1.4c0-0.5,0.1-1,0.2-1.4c0.1-0.4,0.3-0.8,0.5-1.1c0.2-0.3,0.5-0.5,0.9-0.7
		c0.3-0.2,0.7-0.2,1.2-0.2c0.6,0,1.1,0.1,1.5,0.4c0.4,0.3,0.6,0.6,0.8,1.1l-0.8,0.4c-0.1-0.3-0.3-0.6-0.6-0.8
		c-0.3-0.2-0.6-0.3-1-0.3c-0.3,0-0.5,0-0.7,0.1c-0.2,0.1-0.4,0.2-0.6,0.4c-0.2,0.2-0.3,0.4-0.3,0.6c-0.1,0.2-0.1,0.5-0.1,0.8v1.1
		c0,0.3,0,0.6,0.1,0.8c0.1,0.2,0.2,0.5,0.3,0.6c0.2,0.2,0.3,0.3,0.6,0.4s0.5,0.1,0.8,0.1c0.4,0,0.8-0.1,1-0.3
		c0.3-0.2,0.5-0.5,0.6-0.8l0.7,0.5c-0.2,0.4-0.5,0.8-0.9,1.1C197.4,197.9,196.9,198,196.3,198z M203.3,198c-0.4,0-0.8-0.1-1.2-0.2
		c-0.4-0.2-0.7-0.4-0.9-0.7s-0.4-0.7-0.6-1.1c-0.1-0.4-0.2-0.9-0.2-1.4c0-0.5,0.1-1,0.2-1.4c0.1-0.4,0.3-0.8,0.6-1.1
		s0.5-0.5,0.9-0.7c0.3-0.2,0.7-0.2,1.1-0.2c0.4,0,0.8,0.1,1.1,0.2c0.3,0.2,0.6,0.4,0.9,0.7c0.2,0.3,0.4,0.6,0.5,1
		c0.1,0.4,0.2,0.8,0.2,1.3v0.5h-4.5v0.3c0,0.3,0,0.6,0.1,0.8s0.2,0.5,0.4,0.6c0.2,0.2,0.4,0.3,0.6,0.4c0.2,0.1,0.5,0.1,0.8,0.1
		c0.4,0,0.8-0.1,1.1-0.3s0.5-0.5,0.7-0.8l0.7,0.5c-0.2,0.4-0.5,0.8-0.9,1.1C204.5,197.9,203.9,198,203.3,198z M203.3,192
		c-0.3,0-0.5,0.1-0.7,0.2s-0.4,0.2-0.6,0.4c-0.2,0.2-0.3,0.4-0.4,0.6c-0.1,0.2-0.1,0.5-0.1,0.8v0.1h3.5v-0.1c0-0.3,0-0.5-0.1-0.8
		c-0.1-0.2-0.2-0.4-0.3-0.6c-0.1-0.2-0.3-0.3-0.5-0.4C203.8,192,203.5,192,203.3,192z"/>
	<path id="Rectangle_1_" class="st3" d="M76,100h136c6.6,0,12,5.4,12,12v12c0,6.6-5.4,12-12,12H76c-6.6,0-12-5.4-12-12v-12
		C64,105.4,69.4,100,76,100z M76,101c-6.1,0-11,4.9-11,11v12c0,6.1,4.9,11,11,11h136c6.1,0,11-4.9,11-11v-12c0-6.1-4.9-11-11-11H76z
		"/>
	<path id="Rectangle_2_" class="st4" d="M76,176h53c6.6,0,12,5.4,12,12v12c0,6.6-5.4,12-12,12H76c-6.6,0-12-5.4-12-12v-12
		C64,181.4,69.4,176,76,176z M76,177c-6.1,0-11,4.9-11,11v12c0,6.1,4.9,11,11,11h53c6.1,0,11-4.9,11-11v-12c0-6.1-4.9-11-11-11H76z"
		/>
	<path id="Rectangle_3_" class="st4" d="M159,176h53c6.6,0,12,5.4,12,12v12c0,6.6-5.4,12-12,12h-53c-6.6,0-12-5.4-12-12v-12
		C147,181.4,152.4,176,159,176z M159,177c-6.1,0-11,4.9-11,11v12c0,6.1,4.9,11,11,11h53c6.1,0,11-4.9,11-11v-12c0-6.1-4.9-11-11-11
		H159z"/>
	<path id="Combined-Shape" class="st5" d="M144.1,155.7V136h0.5v19.7h0.1h32c5.7,0,10.3,4.6,10.3,10.3v10h-0.5v-10
		c0-5.4-4.4-9.8-9.8-9.8h-32h-30.4c-5.4,0-9.8,4.4-9.8,9.8v10h-0.5v-10c0-5.7,4.6-10.3,10.3-10.3H144.1z"/>
	<path id="Asia-Pacific" class="st2" d="M795.4,121.9l-0.7-2.4h-2.9l-0.7,2.4h-1l2.6-8.3h1.3l2.6,8.3H795.4z M793.3,114.6h-0.1
		l-1.2,4h2.5L793.3,114.6z M800.5,122c-0.6,0-1.2-0.1-1.7-0.3c-0.5-0.2-0.9-0.5-1.2-0.9l0.6-0.6c0.3,0.3,0.6,0.5,1,0.7
		c0.4,0.2,0.8,0.2,1.3,0.2c0.5,0,0.9-0.1,1.2-0.3s0.5-0.4,0.5-0.8c0-0.2,0-0.3-0.1-0.4c-0.1-0.1-0.1-0.2-0.2-0.3
		c-0.1-0.1-0.2-0.1-0.3-0.1c-0.1,0-0.3-0.1-0.4-0.1l-1-0.1c-0.2,0-0.4-0.1-0.7-0.1c-0.3-0.1-0.5-0.1-0.7-0.3
		c-0.2-0.1-0.4-0.3-0.5-0.5c-0.1-0.2-0.2-0.5-0.2-0.8c0-0.3,0.1-0.6,0.2-0.8c0.1-0.2,0.3-0.4,0.5-0.6c0.2-0.2,0.5-0.3,0.8-0.3
		c0.3-0.1,0.6-0.1,1-0.1c0.6,0,1,0.1,1.5,0.3c0.4,0.2,0.8,0.4,1.1,0.7l-0.6,0.6c-0.1-0.1-0.2-0.2-0.3-0.3c-0.1-0.1-0.2-0.2-0.4-0.2
		c-0.2-0.1-0.3-0.1-0.5-0.2c-0.2,0-0.4-0.1-0.7-0.1c-0.5,0-0.9,0.1-1.1,0.2c-0.3,0.2-0.4,0.4-0.4,0.7c0,0.2,0,0.3,0.1,0.4
		c0.1,0.1,0.1,0.2,0.2,0.3c0.1,0.1,0.2,0.1,0.4,0.1c0.1,0,0.3,0.1,0.4,0.1l1,0.1c0.2,0,0.5,0.1,0.7,0.1c0.2,0.1,0.5,0.1,0.7,0.3
		c0.2,0.1,0.4,0.3,0.5,0.5c0.1,0.2,0.2,0.5,0.2,0.8c0,0.6-0.2,1.1-0.7,1.4S801.3,122,800.5,122z M808,114.4c-0.3,0-0.5-0.1-0.6-0.2
		c-0.1-0.1-0.2-0.3-0.2-0.4v-0.2c0-0.2,0.1-0.3,0.2-0.4c0.1-0.1,0.3-0.2,0.6-0.2c0.3,0,0.5,0.1,0.6,0.2c0.1,0.1,0.2,0.3,0.2,0.4v0.2
		c0,0.2-0.1,0.3-0.2,0.4C808.5,114.3,808.3,114.4,808,114.4z M805.3,121.1h2.2v-4.5h-2.2v-0.8h3.2v5.3h2.1v0.8h-5.3V121.1z
		 M817.2,121.9c-0.4,0-0.6-0.1-0.8-0.3s-0.3-0.4-0.3-0.7H816c-0.1,0.4-0.4,0.6-0.7,0.8s-0.7,0.3-1.2,0.3c-0.6,0-1.2-0.2-1.5-0.5
		s-0.6-0.8-0.6-1.4c0-0.6,0.2-1,0.6-1.3c0.4-0.3,1.1-0.5,2-0.5h1.3v-0.6c0-0.5-0.1-0.8-0.4-1c-0.3-0.2-0.6-0.3-1.1-0.3
		c-0.4,0-0.8,0.1-1,0.2c-0.3,0.2-0.5,0.4-0.6,0.7l-0.6-0.5c0.1-0.2,0.2-0.3,0.3-0.5c0.1-0.2,0.3-0.3,0.5-0.4
		c0.2-0.1,0.4-0.2,0.7-0.3c0.3-0.1,0.5-0.1,0.9-0.1c0.7,0,1.3,0.2,1.7,0.5s0.6,0.9,0.6,1.5v3.4h0.9v0.8H817.2z M814.3,121.2
		c0.2,0,0.5,0,0.7-0.1c0.2-0.1,0.4-0.1,0.5-0.2s0.3-0.2,0.4-0.4s0.1-0.3,0.1-0.4v-1h-1.3c-0.6,0-1,0.1-1.3,0.2
		c-0.3,0.2-0.4,0.4-0.4,0.7v0.2c0,0.3,0.1,0.6,0.3,0.7S813.9,121.2,814.3,121.2z M820.3,118.8v-1h3.5v1H820.3z M826.7,121.9v-8.3h3
		c0.8,0,1.4,0.2,1.8,0.6c0.4,0.4,0.6,1,0.6,1.8c0,0.8-0.2,1.3-0.6,1.8c-0.4,0.4-1,0.6-1.8,0.6h-2v3.5H826.7z M827.7,117.5h2
		c0.4,0,0.8-0.1,1-0.3c0.2-0.2,0.4-0.5,0.4-0.9v-0.6c0-0.4-0.1-0.7-0.4-0.9c-0.2-0.2-0.6-0.3-1-0.3h-2V117.5z M838.8,121.9
		c-0.4,0-0.6-0.1-0.8-0.3s-0.3-0.4-0.3-0.7h-0.1c-0.1,0.4-0.4,0.6-0.7,0.8s-0.7,0.3-1.2,0.3c-0.6,0-1.2-0.2-1.5-0.5
		s-0.6-0.8-0.6-1.4c0-0.6,0.2-1,0.6-1.3c0.4-0.3,1.1-0.5,2-0.5h1.3v-0.6c0-0.5-0.1-0.8-0.4-1c-0.3-0.2-0.6-0.3-1.1-0.3
		c-0.4,0-0.8,0.1-1,0.2c-0.3,0.2-0.5,0.4-0.6,0.7l-0.6-0.5c0.1-0.2,0.2-0.3,0.3-0.5c0.1-0.2,0.3-0.3,0.5-0.4
		c0.2-0.1,0.4-0.2,0.7-0.3c0.3-0.1,0.5-0.1,0.9-0.1c0.7,0,1.3,0.2,1.7,0.5c0.4,0.4,0.6,0.9,0.6,1.5v3.4h0.9v0.8H838.8z M835.9,121.2
		c0.2,0,0.5,0,0.7-0.1c0.2-0.1,0.4-0.1,0.5-0.2s0.3-0.2,0.4-0.4s0.1-0.3,0.1-0.4v-1h-1.3c-0.6,0-1,0.1-1.3,0.2
		c-0.3,0.2-0.4,0.4-0.4,0.7v0.2c0,0.3,0.1,0.6,0.3,0.7S835.5,121.2,835.9,121.2z M843.8,122c-0.4,0-0.8-0.1-1.2-0.2
		c-0.3-0.2-0.6-0.4-0.9-0.6c-0.2-0.3-0.4-0.6-0.5-1s-0.2-0.8-0.2-1.3c0-0.5,0.1-0.9,0.2-1.3s0.3-0.7,0.6-1c0.2-0.3,0.5-0.5,0.9-0.6
		s0.7-0.2,1.2-0.2c0.6,0,1.1,0.1,1.5,0.4c0.4,0.3,0.7,0.6,0.8,1l-0.8,0.4c-0.1-0.3-0.3-0.6-0.6-0.7c-0.3-0.2-0.6-0.3-1-0.3
		c-0.3,0-0.5,0-0.7,0.1s-0.4,0.2-0.6,0.4c-0.2,0.2-0.3,0.4-0.3,0.6c-0.1,0.2-0.1,0.5-0.1,0.7v1c0,0.3,0,0.5,0.1,0.7
		c0.1,0.2,0.2,0.4,0.3,0.6s0.3,0.3,0.6,0.4c0.2,0.1,0.5,0.1,0.8,0.1c0.4,0,0.8-0.1,1-0.3c0.3-0.2,0.5-0.4,0.6-0.8l0.7,0.5
		c-0.2,0.4-0.5,0.8-0.9,1C845,121.9,844.5,122,843.8,122z M851.2,114.4c-0.3,0-0.5-0.1-0.6-0.2c-0.1-0.1-0.2-0.3-0.2-0.4v-0.2
		c0-0.2,0.1-0.3,0.2-0.4c0.1-0.1,0.3-0.2,0.6-0.2c0.3,0,0.5,0.1,0.6,0.2c0.1,0.1,0.2,0.3,0.2,0.4v0.2c0,0.2-0.1,0.3-0.2,0.4
		C851.7,114.3,851.5,114.4,851.2,114.4z M848.5,121.1h2.2v-4.5h-2.2v-0.8h3.2v5.3h2.1v0.8h-5.3V121.1z M855.4,121.1h2.1v-4.5h-2.2
		v-0.8h2.2v-1.3c0-0.4,0.1-0.7,0.3-1s0.6-0.4,1-0.4h2.1v0.8h-2.5v1.8h2.5v0.8h-2.5v4.5h2.2v0.8h-5.3V121.1z M865.6,114.4
		c-0.3,0-0.5-0.1-0.6-0.2c-0.1-0.1-0.2-0.3-0.2-0.4v-0.2c0-0.2,0.1-0.3,0.2-0.4c0.1-0.1,0.3-0.2,0.6-0.2c0.3,0,0.5,0.1,0.6,0.2
		c0.1,0.1,0.2,0.3,0.2,0.4v0.2c0,0.2-0.1,0.3-0.2,0.4C866.1,114.3,865.9,114.4,865.6,114.4z M862.9,121.1h2.2v-4.5h-2.2v-0.8h3.2
		v5.3h2.1v0.8h-5.3V121.1z M872.6,122c-0.4,0-0.8-0.1-1.2-0.2c-0.3-0.2-0.6-0.4-0.9-0.6c-0.2-0.3-0.4-0.6-0.5-1s-0.2-0.8-0.2-1.3
		c0-0.5,0.1-0.9,0.2-1.3c0.1-0.4,0.3-0.7,0.6-1c0.2-0.3,0.5-0.5,0.9-0.6s0.7-0.2,1.2-0.2c0.6,0,1.1,0.1,1.5,0.4
		c0.4,0.3,0.7,0.6,0.8,1l-0.8,0.4c-0.1-0.3-0.3-0.6-0.6-0.7c-0.3-0.2-0.6-0.3-1-0.3c-0.3,0-0.5,0-0.7,0.1s-0.4,0.2-0.6,0.4
		c-0.2,0.2-0.3,0.4-0.3,0.6c-0.1,0.2-0.1,0.5-0.1,0.7v1c0,0.3,0,0.5,0.1,0.7c0.1,0.2,0.2,0.4,0.3,0.6s0.3,0.3,0.6,0.4
		c0.2,0.1,0.5,0.1,0.8,0.1c0.4,0,0.8-0.1,1-0.3c0.3-0.2,0.5-0.4,0.6-0.8l0.7,0.5c-0.2,0.4-0.5,0.8-0.9,1
		C873.8,121.9,873.2,122,872.6,122z"/>
	<g id="Group-2" transform="translate(704.000000, 176.000000)">
		<g class="st6">
			<path class="st2" d="M116.3,13.6v6.2c0,0.4-0.1,0.7-0.2,1s-0.3,0.5-0.5,0.7c-0.2,0.2-0.5,0.4-0.8,0.5c-0.3,0.1-0.6,0.2-1,0.2
				c-0.6,0-1.2-0.2-1.6-0.5s-0.7-0.8-0.8-1.4l1-0.2c0,0.2,0.1,0.3,0.2,0.5c0.1,0.1,0.2,0.3,0.3,0.4s0.3,0.2,0.4,0.3
				c0.2,0.1,0.4,0.1,0.6,0.1c0.5,0,0.8-0.1,1.1-0.4c0.3-0.3,0.4-0.7,0.4-1.2v-5.2h-3v-0.9H116.3z"/>
			<path class="st2" d="M123.6,22c-0.4,0-0.6-0.1-0.8-0.3s-0.3-0.4-0.3-0.7h-0.1c-0.1,0.4-0.4,0.6-0.7,0.8c-0.3,0.2-0.7,0.3-1.2,0.3
				c-0.6,0-1.2-0.2-1.5-0.5c-0.4-0.3-0.6-0.8-0.6-1.4c0-0.6,0.2-1,0.6-1.3c0.4-0.3,1.1-0.5,2-0.5h1.3v-0.6c0-0.5-0.1-0.8-0.4-1
				s-0.6-0.3-1.1-0.3c-0.4,0-0.8,0.1-1,0.2c-0.3,0.2-0.5,0.4-0.6,0.7l-0.6-0.5c0.1-0.2,0.2-0.3,0.3-0.5c0.1-0.2,0.3-0.3,0.5-0.4
				c0.2-0.1,0.4-0.2,0.7-0.3c0.3-0.1,0.5-0.1,0.9-0.1c0.7,0,1.3,0.2,1.7,0.6c0.4,0.4,0.6,0.9,0.6,1.5v3.4h0.9V22H123.6z M120.8,21.3
				c0.2,0,0.5,0,0.7-0.1s0.4-0.1,0.5-0.2c0.2-0.1,0.3-0.2,0.4-0.4c0.1-0.1,0.1-0.3,0.1-0.5v-1h-1.3c-0.6,0-1,0.1-1.3,0.2
				c-0.3,0.2-0.4,0.4-0.4,0.7v0.3c0,0.3,0.1,0.6,0.3,0.7S120.4,21.3,120.8,21.3z"/>
			<path class="st2" d="M126,15.8h1v1h0c0.4-0.8,1-1.2,1.9-1.2c0.8,0,1.4,0.3,1.8,0.9c0.4,0.6,0.6,1.4,0.6,2.4c0,1-0.2,1.8-0.6,2.4
				s-1,0.9-1.8,0.9c-0.9,0-1.5-0.4-1.9-1.2h0v3.4h-1V15.8z M128.6,21.3c0.6,0,1-0.2,1.3-0.5s0.5-0.8,0.5-1.4v-1.1
				c0-0.6-0.2-1-0.5-1.3s-0.7-0.5-1.3-0.5c-0.2,0-0.4,0-0.6,0.1c-0.2,0.1-0.4,0.1-0.5,0.2c-0.1,0.1-0.3,0.2-0.3,0.4
				s-0.1,0.3-0.1,0.5V20c0,0.2,0,0.4,0.1,0.5c0.1,0.2,0.2,0.3,0.3,0.4s0.3,0.2,0.5,0.2S128.4,21.3,128.6,21.3z"/>
			<path class="st2" d="M138,22c-0.4,0-0.6-0.1-0.8-0.3c-0.2-0.2-0.3-0.4-0.3-0.7h-0.1c-0.1,0.4-0.4,0.6-0.7,0.8s-0.7,0.3-1.2,0.3
				c-0.6,0-1.2-0.2-1.5-0.5s-0.6-0.8-0.6-1.4c0-0.6,0.2-1,0.6-1.3c0.4-0.3,1.1-0.5,2-0.5h1.3v-0.6c0-0.5-0.1-0.8-0.4-1
				c-0.3-0.2-0.6-0.3-1.1-0.3c-0.4,0-0.8,0.1-1,0.2c-0.3,0.2-0.5,0.4-0.6,0.7l-0.6-0.5c0.1-0.2,0.2-0.3,0.3-0.5
				c0.1-0.2,0.3-0.3,0.5-0.4c0.2-0.1,0.4-0.2,0.7-0.3s0.5-0.1,0.9-0.1c0.7,0,1.3,0.2,1.7,0.6c0.4,0.4,0.6,0.9,0.6,1.5v3.4h0.9V22
				H138z M135.2,21.3c0.2,0,0.5,0,0.7-0.1c0.2-0.1,0.4-0.1,0.5-0.2c0.2-0.1,0.3-0.2,0.4-0.4c0.1-0.1,0.1-0.3,0.1-0.5v-1h-1.3
				c-0.6,0-1,0.1-1.3,0.2c-0.3,0.2-0.4,0.4-0.4,0.7v0.3c0,0.3,0.1,0.6,0.3,0.7C134.5,21.3,134.8,21.3,135.2,21.3z"/>
			<path class="st2" d="M140.5,22v-6.2h1v1h0c0.1-0.2,0.1-0.3,0.2-0.4c0.1-0.1,0.2-0.3,0.4-0.4c0.1-0.1,0.3-0.2,0.5-0.3
				c0.2-0.1,0.4-0.1,0.7-0.1c0.6,0,1.2,0.2,1.6,0.6s0.6,1,0.6,1.7v4h-1v-3.8c0-0.6-0.1-1-0.4-1.3c-0.2-0.3-0.6-0.4-1.1-0.4
				c-0.2,0-0.4,0-0.6,0.1c-0.2,0-0.3,0.1-0.5,0.2c-0.1,0.1-0.3,0.2-0.3,0.4c-0.1,0.2-0.1,0.3-0.1,0.5V22H140.5z"/>
		</g>
		<g class="st6">
			<path class="st2" d="M24.4,22.1c-1,0-1.8-0.4-2.3-1.1s-0.8-1.8-0.8-3.2c0-1.4,0.2-2.5,0.8-3.2s1.3-1.1,2.3-1.1
				c0.4,0,0.7,0.1,1,0.2c0.3,0.1,0.5,0.2,0.7,0.4c0.2,0.2,0.4,0.4,0.5,0.6c0.1,0.2,0.3,0.4,0.4,0.7l-0.9,0.4
				c-0.1-0.2-0.2-0.4-0.3-0.5s-0.2-0.3-0.3-0.4s-0.3-0.2-0.5-0.3c-0.2-0.1-0.4-0.1-0.7-0.1c-0.7,0-1.2,0.3-1.5,0.8
				c-0.3,0.5-0.5,1.2-0.5,2v1.4c0,0.8,0.2,1.5,0.5,2c0.3,0.5,0.8,0.8,1.5,0.8c0.3,0,0.5,0,0.7-0.1c0.2-0.1,0.3-0.2,0.5-0.3
				s0.2-0.3,0.3-0.4c0.1-0.2,0.2-0.3,0.3-0.5l0.9,0.4c-0.1,0.2-0.2,0.5-0.4,0.7c-0.1,0.2-0.3,0.4-0.5,0.6c-0.2,0.2-0.4,0.3-0.7,0.4
				C25.1,22.1,24.8,22.1,24.4,22.1z"/>
			<path class="st2" d="M28.9,13.1h1v3.7h0c0.1-0.2,0.1-0.3,0.2-0.4c0.1-0.1,0.2-0.3,0.4-0.4c0.1-0.1,0.3-0.2,0.5-0.3
				c0.2-0.1,0.4-0.1,0.7-0.1c0.6,0,1.2,0.2,1.6,0.6c0.4,0.4,0.6,1,0.6,1.7v4h-1v-3.8c0-0.6-0.1-1-0.4-1.3c-0.2-0.3-0.6-0.4-1.1-0.4
				c-0.2,0-0.4,0-0.6,0.1s-0.3,0.1-0.5,0.2c-0.1,0.1-0.3,0.2-0.3,0.4c-0.1,0.2-0.1,0.3-0.1,0.5V22h-1V13.1z"/>
			<path class="st2" d="M36.2,21.2h2.2v-4.5h-2.2v-0.8h3.2v5.4h2.1V22h-5.3V21.2z M38.9,14.4c-0.3,0-0.5-0.1-0.6-0.2
				c-0.1-0.1-0.2-0.3-0.2-0.4v-0.2c0-0.2,0.1-0.3,0.2-0.4s0.3-0.2,0.6-0.2s0.5,0.1,0.6,0.2s0.2,0.3,0.2,0.4v0.2
				c0,0.2-0.1,0.3-0.2,0.4C39.4,14.4,39.2,14.4,38.9,14.4z"/>
			<path class="st2" d="M43.3,22v-6.2h1v1h0c0.1-0.2,0.1-0.3,0.2-0.4s0.2-0.3,0.4-0.4c0.1-0.1,0.3-0.2,0.5-0.3
				c0.2-0.1,0.4-0.1,0.7-0.1c0.6,0,1.2,0.2,1.6,0.6s0.6,1,0.6,1.7v4h-1v-3.8c0-0.6-0.1-1-0.4-1.3c-0.2-0.3-0.6-0.4-1.1-0.4
				c-0.2,0-0.4,0-0.6,0.1c-0.2,0-0.3,0.1-0.5,0.2c-0.1,0.1-0.3,0.2-0.3,0.4c-0.1,0.2-0.1,0.3-0.1,0.5V22H43.3z"/>
			<path class="st2" d="M55.2,22c-0.4,0-0.6-0.1-0.8-0.3s-0.3-0.4-0.3-0.7h-0.1c-0.1,0.4-0.4,0.6-0.7,0.8c-0.3,0.2-0.7,0.3-1.2,0.3
				c-0.6,0-1.2-0.2-1.5-0.5c-0.4-0.3-0.6-0.8-0.6-1.4c0-0.6,0.2-1,0.6-1.3c0.4-0.3,1.1-0.5,2-0.5h1.3v-0.6c0-0.5-0.1-0.8-0.4-1
				s-0.6-0.3-1.1-0.3c-0.4,0-0.8,0.1-1,0.2s-0.5,0.4-0.6,0.7l-0.6-0.5c0.1-0.2,0.2-0.3,0.3-0.5c0.1-0.2,0.3-0.3,0.5-0.4
				c0.2-0.1,0.4-0.2,0.7-0.3c0.3-0.1,0.5-0.1,0.9-0.1c0.7,0,1.3,0.2,1.7,0.6c0.4,0.4,0.6,0.9,0.6,1.5v3.4h0.9V22H55.2z M52.4,21.3
				c0.2,0,0.5,0,0.7-0.1c0.2-0.1,0.4-0.1,0.5-0.2c0.2-0.1,0.3-0.2,0.4-0.4c0.1-0.1,0.1-0.3,0.1-0.5v-1h-1.3c-0.6,0-1,0.1-1.3,0.2
				s-0.4,0.4-0.4,0.7v0.3c0,0.3,0.1,0.6,0.3,0.7C51.7,21.3,52,21.3,52.4,21.3z"/>
		</g>
		<g class="st6">
			<path class="st2" d="M200.5,22v-0.8h2.1v-6.8h-2.1v-0.8h5.2v0.8h-2.1v6.8h2.1V22H200.5z"/>
			<path class="st2" d="M207.9,22v-6.2h1v1h0c0.1-0.2,0.1-0.3,0.2-0.4c0.1-0.1,0.2-0.3,0.4-0.4c0.1-0.1,0.3-0.2,0.5-0.3
				c0.2-0.1,0.4-0.1,0.7-0.1c0.6,0,1.2,0.2,1.6,0.6c0.4,0.4,0.6,1,0.6,1.7v4h-1v-3.8c0-0.6-0.1-1-0.4-1.3c-0.2-0.3-0.6-0.4-1.1-0.4
				c-0.2,0-0.4,0-0.6,0.1s-0.3,0.1-0.5,0.2c-0.1,0.1-0.3,0.2-0.3,0.4c-0.1,0.2-0.1,0.3-0.1,0.5V22H207.9z"/>
			<path class="st2" d="M219,21L219,21c-0.4,0.8-1.1,1.2-2,1.2c-0.8,0-1.4-0.3-1.8-0.9s-0.6-1.4-0.6-2.4c0-1,0.2-1.8,0.6-2.4
				c0.4-0.6,1-0.9,1.8-0.9c0.9,0,1.5,0.4,1.9,1.2h0v-3.7h1V22h-1V21z M217.4,21.3c0.2,0,0.4,0,0.6-0.1c0.2-0.1,0.4-0.1,0.5-0.2
				c0.1-0.1,0.3-0.2,0.3-0.4c0.1-0.2,0.1-0.3,0.1-0.5v-2.2c0-0.2,0-0.4-0.1-0.5s-0.2-0.3-0.3-0.4c-0.1-0.1-0.3-0.2-0.5-0.2
				c-0.2-0.1-0.4-0.1-0.6-0.1c-0.6,0-1,0.2-1.3,0.5c-0.3,0.3-0.5,0.8-0.5,1.3v1.1c0,0.6,0.2,1,0.5,1.4
				C216.4,21.1,216.9,21.3,217.4,21.3z"/>
			<path class="st2" d="M222.4,21.2h2.2v-4.5h-2.2v-0.8h3.2v5.4h2.1V22h-5.3V21.2z M225.1,14.4c-0.3,0-0.5-0.1-0.6-0.2
				c-0.1-0.1-0.2-0.3-0.2-0.4v-0.2c0-0.2,0.1-0.3,0.2-0.4c0.1-0.1,0.3-0.2,0.6-0.2c0.3,0,0.5,0.1,0.6,0.2c0.1,0.1,0.2,0.3,0.2,0.4
				v0.2c0,0.2-0.1,0.3-0.2,0.4C225.6,14.4,225.4,14.4,225.1,14.4z"/>
			<path class="st2" d="M234.2,22c-0.4,0-0.6-0.1-0.8-0.3s-0.3-0.4-0.3-0.7h-0.1c-0.1,0.4-0.4,0.6-0.7,0.8c-0.3,0.2-0.7,0.3-1.2,0.3
				c-0.6,0-1.2-0.2-1.5-0.5c-0.4-0.3-0.6-0.8-0.6-1.4c0-0.6,0.2-1,0.6-1.3c0.4-0.3,1.1-0.5,2-0.5h1.3v-0.6c0-0.5-0.1-0.8-0.4-1
				s-0.6-0.3-1.1-0.3c-0.4,0-0.8,0.1-1,0.2s-0.5,0.4-0.6,0.7l-0.6-0.5c0.1-0.2,0.2-0.3,0.3-0.5c0.1-0.2,0.3-0.3,0.5-0.4
				c0.2-0.1,0.4-0.2,0.7-0.3c0.3-0.1,0.5-0.1,0.9-0.1c0.7,0,1.3,0.2,1.7,0.6c0.4,0.4,0.6,0.9,0.6,1.5v3.4h0.9V22H234.2z M231.4,21.3
				c0.2,0,0.5,0,0.7-0.1c0.2-0.1,0.4-0.1,0.5-0.2c0.2-0.1,0.3-0.2,0.4-0.4c0.1-0.1,0.1-0.3,0.1-0.5v-1h-1.3c-0.6,0-1,0.1-1.3,0.2
				s-0.4,0.4-0.4,0.7v0.3c0,0.3,0.1,0.6,0.3,0.7C230.7,21.3,231,21.3,231.4,21.3z"/>
		</g>
		<path id="Rectangle_4_" class="st7" d="M102.5,0.5h52c6.6,0,12,5.4,12,12v11c0,6.6-5.4,12-12,12h-52c-6.6,0-12-5.4-12-12v-11
			C90.5,5.9,95.9,0.5,102.5,0.5z"/>
		<path id="Rectangle_5_" class="st7" d="M12.5,0.5h52c6.6,0,12,5.4,12,12v11c0,6.6-5.4,12-12,12h-52c-6.6,0-12-5.4-12-12v-11
			C0.5,5.9,5.9,0.5,12.5,0.5z"/>
		<path id="Rectangle_6_" class="st7" d="M191.5,0.5h52c6.6,0,12,5.4,12,12v11c0,6.6-5.4,12-12,12h-52c-6.6,0-12-5.4-12-12v-11
			C179.5,5.9,184.9,0.5,191.5,0.5z"/>
	</g>
	<path id="Rectangle_7_" class="st3" d="M764,100h136c6.6,0,12,5.4,12,12v12c0,6.6-5.4,12-12,12H764c-6.6,0-12-5.4-12-12v-12
		C752,105.4,757.4,100,764,100z M764,101c-6.1,0-11,4.9-11,11v12c0,6.1,4.9,11,11,11h136c6.1,0,11-4.9,11-11v-12c0-6.1-4.9-11-11-11
		H764z"/>
	<path id="Combined-Shape_1_" class="st5" d="M832.6,155.7V136h0.5v19.7h78.6c5.7,0,10.2,4.6,10.2,10.3v10h-0.5v-10
		c0-5.4-4.4-9.8-9.7-9.8h-78.6V176h-0.5v-19.8h-4.9h-74.4c-5.4,0-9.8,4.4-9.8,9.8v10h-0.5v-10c0-5.7,4.6-10.3,10.3-10.3h74.4H832.6z
		"/>
	<path id="N.America" class="st2" d="M527,190.9L527,190.9l-0.1,7H526v-8.3h1.4l2.8,6.9h0.1v-6.9h0.9v8.3h-1.4L527,190.9z
		 M535.8,198c-0.3,0-0.6-0.1-0.7-0.2c-0.1-0.1-0.2-0.3-0.2-0.5V197c0-0.2,0.1-0.4,0.2-0.5c0.1-0.1,0.4-0.2,0.7-0.2
		c0.3,0,0.6,0.1,0.7,0.2c0.1,0.1,0.2,0.3,0.2,0.5v0.2c0,0.2-0.1,0.4-0.2,0.5C536.3,197.9,536.1,198,535.8,198z M552.2,197.9
		l-0.7-2.4h-2.9l-0.7,2.4h-1l2.6-8.3h1.3l2.6,8.3H552.2z M550.1,190.6H550l-1.2,4h2.4L550.1,190.6z M554.3,197.9v-6.1h0.9v0.7h0
		c0.1-0.2,0.2-0.4,0.4-0.6c0.2-0.2,0.4-0.2,0.8-0.2c0.4,0,0.6,0.1,0.8,0.3c0.2,0.2,0.3,0.4,0.3,0.7h0c0.1-0.3,0.3-0.5,0.5-0.7
		c0.2-0.2,0.5-0.3,0.9-0.3c0.5,0,0.8,0.2,1,0.5c0.2,0.3,0.3,0.8,0.3,1.5v4.2h-0.9v-4.1c0-0.5-0.1-0.9-0.2-1.1
		c-0.1-0.2-0.3-0.3-0.6-0.3c-0.3,0-0.5,0.1-0.6,0.2c-0.2,0.2-0.2,0.4-0.2,0.7v4.5h-0.9v-4.1c0-0.5-0.1-0.9-0.2-1.1
		c-0.1-0.2-0.3-0.3-0.6-0.3c-0.3,0-0.5,0.1-0.6,0.2c-0.2,0.2-0.2,0.4-0.2,0.7v4.5H554.3z M564.5,198c-0.4,0-0.8-0.1-1.2-0.2
		c-0.4-0.1-0.7-0.4-0.9-0.6c-0.3-0.3-0.4-0.6-0.6-1c-0.1-0.4-0.2-0.8-0.2-1.3c0-0.5,0.1-0.9,0.2-1.3c0.1-0.4,0.3-0.7,0.6-1
		c0.2-0.3,0.5-0.5,0.9-0.6c0.3-0.1,0.7-0.2,1.2-0.2c0.4,0,0.8,0.1,1.1,0.2c0.3,0.2,0.6,0.4,0.9,0.6c0.2,0.3,0.4,0.6,0.5,0.9
		s0.2,0.8,0.2,1.2v0.4h-4.6v0.3c0,0.3,0,0.5,0.1,0.7c0.1,0.2,0.2,0.4,0.4,0.6c0.2,0.2,0.4,0.3,0.6,0.4c0.2,0.1,0.5,0.1,0.8,0.1
		c0.4,0,0.8-0.1,1.1-0.3c0.3-0.2,0.5-0.4,0.7-0.8l0.7,0.5c-0.2,0.4-0.5,0.7-0.9,1C565.6,197.9,565.1,198,564.5,198z M564.4,192.4
		c-0.3,0-0.5,0-0.7,0.1s-0.4,0.2-0.6,0.4c-0.2,0.2-0.3,0.4-0.4,0.6c-0.1,0.2-0.1,0.5-0.1,0.7v0.1h3.5v-0.1c0-0.3,0-0.5-0.1-0.7
		c-0.1-0.2-0.2-0.4-0.3-0.6c-0.1-0.2-0.3-0.3-0.5-0.4C564.9,192.4,564.7,192.4,564.4,192.4z M568.9,197.1h1.8v-4.5h-1.8v-0.8h2.8
		v1.1h0.1c0.1-0.3,0.3-0.5,0.6-0.8c0.3-0.2,0.7-0.3,1.2-0.3h1.1v0.9h-1.3c-0.5,0-1,0.1-1.3,0.3c-0.3,0.2-0.5,0.4-0.5,0.7v3.4h2.4
		v0.8h-5.1V197.1z M579.1,190.4c-0.3,0-0.5-0.1-0.6-0.2c-0.1-0.1-0.2-0.3-0.2-0.4v-0.2c0-0.2,0.1-0.3,0.2-0.4
		c0.1-0.1,0.3-0.2,0.6-0.2s0.5,0.1,0.6,0.2c0.1,0.1,0.2,0.3,0.2,0.4v0.2c0,0.2-0.1,0.3-0.2,0.4C579.6,190.3,579.4,190.4,579.1,190.4
		z M576.4,197.1h2.2v-4.5h-2.2v-0.8h3.2v5.3h2.1v0.8h-5.2V197.1z M586.1,198c-0.4,0-0.8-0.1-1.2-0.2s-0.6-0.4-0.9-0.6
		c-0.2-0.3-0.4-0.6-0.5-1c-0.1-0.4-0.2-0.8-0.2-1.3s0.1-0.9,0.2-1.3s0.3-0.7,0.5-1c0.2-0.3,0.5-0.5,0.9-0.6c0.3-0.1,0.7-0.2,1.2-0.2
		c0.6,0,1.1,0.1,1.5,0.4s0.6,0.6,0.8,1l-0.8,0.4c-0.1-0.3-0.3-0.6-0.6-0.7c-0.3-0.2-0.6-0.3-1-0.3c-0.3,0-0.5,0-0.7,0.1
		s-0.4,0.2-0.6,0.4s-0.3,0.4-0.3,0.6c-0.1,0.2-0.1,0.5-0.1,0.7v1c0,0.3,0,0.5,0.1,0.7c0.1,0.2,0.2,0.4,0.3,0.6
		c0.2,0.2,0.3,0.3,0.6,0.4s0.5,0.1,0.8,0.1c0.4,0,0.8-0.1,1-0.3c0.3-0.2,0.5-0.4,0.6-0.8l0.7,0.5c-0.2,0.4-0.5,0.8-0.9,1
		C587.2,197.9,586.7,198,586.1,198z M595.3,197.9c-0.4,0-0.6-0.1-0.8-0.3s-0.3-0.4-0.3-0.7h-0.1c-0.1,0.4-0.4,0.6-0.6,0.8
		c-0.3,0.2-0.7,0.3-1.2,0.3c-0.6,0-1.2-0.2-1.5-0.5c-0.4-0.3-0.6-0.8-0.6-1.4c0-0.6,0.2-1,0.6-1.3c0.4-0.3,1.1-0.5,2-0.5h1.3v-0.6
		c0-0.4-0.1-0.8-0.4-1c-0.3-0.2-0.6-0.3-1.1-0.3c-0.4,0-0.8,0.1-1,0.2c-0.3,0.2-0.5,0.4-0.6,0.7l-0.6-0.5c0.1-0.2,0.2-0.3,0.3-0.5
		s0.3-0.3,0.5-0.4c0.2-0.1,0.4-0.2,0.7-0.3c0.3-0.1,0.5-0.1,0.8-0.1c0.7,0,1.3,0.2,1.7,0.5c0.4,0.4,0.6,0.9,0.6,1.5v3.4h0.9v0.8
		H595.3z M592.5,197.2c0.2,0,0.5,0,0.7-0.1c0.2-0.1,0.4-0.1,0.5-0.2s0.3-0.2,0.4-0.4c0.1-0.1,0.1-0.3,0.1-0.4v-1h-1.3
		c-0.6,0-1,0.1-1.3,0.2c-0.3,0.2-0.4,0.4-0.4,0.7v0.2c0,0.3,0.1,0.6,0.3,0.7C591.8,197.1,592.1,197.2,592.5,197.2z"/>
	<path id="S.America" class="st2" d="M336,198c-0.8,0-1.4-0.1-1.9-0.4s-0.9-0.6-1.2-1l0.7-0.6c0.3,0.4,0.7,0.7,1,0.9
		s0.8,0.3,1.3,0.3c0.6,0,1.1-0.1,1.4-0.4c0.3-0.3,0.5-0.7,0.5-1.2c0-0.4-0.1-0.7-0.3-0.9c-0.2-0.2-0.6-0.4-1.2-0.5l-0.9-0.2
		c-0.4-0.1-0.8-0.2-1-0.3s-0.5-0.3-0.7-0.5c-0.2-0.2-0.3-0.4-0.4-0.7c-0.1-0.2-0.1-0.5-0.1-0.8c0-0.8,0.3-1.3,0.8-1.7
		c0.5-0.4,1.2-0.6,2-0.6c0.7,0,1.2,0.1,1.7,0.3s0.8,0.5,1.1,0.9l-0.7,0.6c-0.2-0.3-0.5-0.5-0.8-0.7c-0.3-0.2-0.8-0.3-1.3-0.3
		c-0.6,0-1,0.1-1.3,0.4s-0.5,0.6-0.5,1.1c0,0.4,0.1,0.7,0.3,0.9s0.6,0.4,1.2,0.5l0.9,0.2c0.4,0.1,0.8,0.2,1,0.3s0.5,0.3,0.7,0.5
		c0.2,0.2,0.3,0.4,0.4,0.7c0.1,0.2,0.1,0.5,0.1,0.8c0,0.8-0.3,1.4-0.8,1.8C337.7,197.8,337,198,336,198z M343.3,198
		c-0.3,0-0.6-0.1-0.7-0.2c-0.1-0.1-0.2-0.3-0.2-0.5V197c0-0.2,0.1-0.4,0.2-0.5c0.1-0.1,0.4-0.2,0.7-0.2s0.6,0.1,0.7,0.2
		c0.1,0.1,0.2,0.3,0.2,0.5v0.2c0,0.2-0.1,0.4-0.2,0.5C343.8,197.9,343.6,198,343.3,198z M359.9,197.9l-0.7-2.4h-2.9l-0.7,2.4h-1
		l2.6-8.3h1.3l2.6,8.3H359.9z M357.8,190.6h-0.1l-1.2,4h2.5L357.8,190.6z M362,197.9v-6.1h0.9v0.7h0c0.1-0.2,0.2-0.4,0.4-0.6
		c0.2-0.2,0.4-0.2,0.8-0.2c0.4,0,0.6,0.1,0.8,0.3c0.2,0.2,0.3,0.4,0.3,0.7h0c0.1-0.3,0.3-0.5,0.5-0.7c0.2-0.2,0.5-0.3,0.9-0.3
		c0.5,0,0.8,0.2,1,0.5c0.2,0.3,0.3,0.8,0.3,1.5v4.2H367v-4.1c0-0.5-0.1-0.9-0.2-1.1c-0.1-0.2-0.3-0.3-0.6-0.3
		c-0.3,0-0.5,0.1-0.6,0.2c-0.2,0.2-0.2,0.4-0.2,0.7v4.5h-0.9v-4.1c0-0.5-0.1-0.9-0.2-1.1c-0.1-0.2-0.3-0.3-0.6-0.3
		c-0.3,0-0.5,0.1-0.6,0.2c-0.2,0.2-0.2,0.4-0.2,0.7v4.5H362z M372.2,198c-0.4,0-0.9-0.1-1.2-0.2c-0.4-0.1-0.7-0.4-0.9-0.6
		c-0.3-0.3-0.4-0.6-0.6-1c-0.1-0.4-0.2-0.8-0.2-1.3c0-0.5,0.1-0.9,0.2-1.3c0.1-0.4,0.3-0.7,0.6-1c0.2-0.3,0.5-0.5,0.9-0.6
		c0.3-0.1,0.7-0.2,1.2-0.2c0.4,0,0.8,0.1,1.1,0.2c0.3,0.2,0.6,0.4,0.9,0.6c0.2,0.3,0.4,0.6,0.6,0.9c0.1,0.4,0.2,0.8,0.2,1.2v0.4
		h-4.6v0.3c0,0.3,0,0.5,0.1,0.7c0.1,0.2,0.2,0.4,0.4,0.6c0.2,0.2,0.4,0.3,0.6,0.4c0.2,0.1,0.5,0.1,0.8,0.1c0.4,0,0.8-0.1,1.1-0.3
		c0.3-0.2,0.5-0.4,0.7-0.8l0.7,0.5c-0.2,0.4-0.5,0.7-0.9,1C373.4,197.9,372.9,198,372.2,198z M372.2,192.4c-0.3,0-0.5,0-0.7,0.1
		c-0.2,0.1-0.4,0.2-0.6,0.4c-0.2,0.2-0.3,0.4-0.4,0.6c-0.1,0.2-0.1,0.5-0.1,0.7v0.1h3.6v-0.1c0-0.3,0-0.5-0.1-0.7s-0.2-0.4-0.3-0.6
		c-0.1-0.2-0.3-0.3-0.5-0.4C372.7,192.4,372.4,192.4,372.2,192.4z M376.7,197.1h1.8v-4.5h-1.8v-0.8h2.8v1.1h0.1
		c0.1-0.3,0.3-0.5,0.6-0.8s0.7-0.3,1.2-0.3h1.1v0.9h-1.3c-0.5,0-1,0.1-1.3,0.3c-0.3,0.2-0.5,0.4-0.5,0.7v3.4h2.4v0.8h-5.2V197.1z
		 M387,190.4c-0.3,0-0.5-0.1-0.6-0.2c-0.1-0.1-0.2-0.3-0.2-0.4v-0.2c0-0.2,0.1-0.3,0.2-0.4c0.1-0.1,0.3-0.2,0.6-0.2s0.5,0.1,0.6,0.2
		c0.1,0.1,0.2,0.3,0.2,0.4v0.2c0,0.2-0.1,0.3-0.2,0.4C387.4,190.3,387.2,190.4,387,190.4z M384.2,197.1h2.2v-4.5h-2.2v-0.8h3.2v5.3
		h2.1v0.8h-5.3V197.1z M394,198c-0.4,0-0.8-0.1-1.2-0.2c-0.3-0.2-0.6-0.4-0.9-0.6c-0.2-0.3-0.4-0.6-0.5-1c-0.1-0.4-0.2-0.8-0.2-1.3
		s0.1-0.9,0.2-1.3c0.1-0.4,0.3-0.7,0.6-1c0.2-0.3,0.5-0.5,0.9-0.6c0.3-0.1,0.7-0.2,1.2-0.2c0.6,0,1.1,0.1,1.5,0.4s0.7,0.6,0.8,1
		l-0.8,0.4c-0.1-0.3-0.3-0.6-0.6-0.7c-0.3-0.2-0.6-0.3-1-0.3c-0.3,0-0.5,0-0.8,0.1c-0.2,0.1-0.4,0.2-0.6,0.4
		c-0.2,0.2-0.3,0.4-0.3,0.6c-0.1,0.2-0.1,0.5-0.1,0.7v1c0,0.3,0,0.5,0.1,0.7c0.1,0.2,0.2,0.4,0.3,0.6c0.2,0.2,0.3,0.3,0.6,0.4
		c0.2,0.1,0.5,0.1,0.8,0.1c0.4,0,0.8-0.1,1-0.3c0.3-0.2,0.5-0.4,0.6-0.8l0.7,0.5c-0.2,0.4-0.5,0.8-0.9,1S394.6,198,394,198z
		 M403.3,197.9c-0.4,0-0.6-0.1-0.8-0.3s-0.3-0.4-0.3-0.7h-0.1c-0.1,0.4-0.4,0.6-0.7,0.8c-0.3,0.2-0.7,0.3-1.2,0.3
		c-0.6,0-1.2-0.2-1.6-0.5c-0.4-0.3-0.6-0.8-0.6-1.4c0-0.6,0.2-1,0.6-1.3c0.4-0.3,1.1-0.5,2-0.5h1.3v-0.6c0-0.4-0.1-0.8-0.4-1
		c-0.3-0.2-0.6-0.3-1.1-0.3c-0.4,0-0.8,0.1-1,0.2c-0.3,0.2-0.5,0.4-0.6,0.7l-0.6-0.5c0.1-0.2,0.2-0.3,0.3-0.5s0.3-0.3,0.5-0.4
		c0.2-0.1,0.4-0.2,0.7-0.3c0.3-0.1,0.5-0.1,0.9-0.1c0.7,0,1.3,0.2,1.7,0.5c0.4,0.4,0.6,0.9,0.6,1.5v3.4h0.9v0.8H403.3z M400.5,197.2
		c0.2,0,0.5,0,0.7-0.1c0.2-0.1,0.4-0.1,0.5-0.2c0.2-0.1,0.3-0.2,0.4-0.4c0.1-0.1,0.1-0.3,0.1-0.4v-1h-1.3c-0.6,0-1,0.1-1.3,0.2
		s-0.4,0.4-0.4,0.7v0.2c0,0.3,0.1,0.6,0.3,0.7C399.8,197.1,400.1,197.2,400.5,197.2z"/>
	<path id="Brazil" class="st2" d="M306,264.6h2.8c0.7,0,1.3,0.2,1.7,0.6c0.4,0.4,0.6,0.9,0.6,1.6c0,0.5-0.1,0.9-0.4,1.2
		c-0.2,0.3-0.6,0.5-0.9,0.6v0c0.5,0.1,0.9,0.3,1.2,0.6c0.3,0.3,0.5,0.7,0.5,1.3c0,0.3-0.1,0.6-0.2,0.9c-0.1,0.3-0.3,0.5-0.5,0.8
		s-0.4,0.4-0.7,0.5c-0.3,0.1-0.6,0.2-0.9,0.2H306V264.6z M308.9,272c0.5,0,0.8-0.1,1.1-0.3s0.4-0.5,0.4-0.9v-0.5
		c0-0.4-0.1-0.7-0.4-0.9c-0.3-0.2-0.6-0.3-1.1-0.3H307v3H308.9z M308.7,268.2c0.4,0,0.8-0.1,1-0.3s0.4-0.5,0.4-0.8v-0.5
		c0-0.4-0.1-0.7-0.4-0.9s-0.6-0.3-1-0.3H307v2.7H308.7z M313,272.1h1.8v-4.5H313v-0.8h2.8v1.1h0.1c0.1-0.3,0.3-0.5,0.6-0.8
		c0.3-0.2,0.7-0.3,1.2-0.3h1.1v0.9h-1.3c-0.5,0-1,0.1-1.3,0.3s-0.5,0.4-0.5,0.7v3.4h2.4v0.8H313V272.1z M325.2,272.9
		c-0.4,0-0.6-0.1-0.8-0.3c-0.2-0.2-0.3-0.4-0.3-0.7H324c-0.1,0.4-0.4,0.6-0.7,0.8c-0.3,0.2-0.7,0.3-1.2,0.3c-0.6,0-1.2-0.2-1.5-0.5
		s-0.6-0.8-0.6-1.4c0-0.6,0.2-1,0.6-1.3c0.4-0.3,1.1-0.5,2-0.5h1.3v-0.6c0-0.5-0.1-0.8-0.4-1s-0.6-0.3-1.1-0.3c-0.4,0-0.8,0.1-1,0.2
		s-0.5,0.4-0.6,0.7l-0.6-0.5c0.1-0.2,0.2-0.3,0.3-0.5c0.1-0.1,0.3-0.3,0.5-0.4c0.2-0.1,0.4-0.2,0.7-0.3c0.3-0.1,0.5-0.1,0.8-0.1
		c0.7,0,1.3,0.2,1.7,0.5s0.6,0.9,0.6,1.5v3.4h0.9v0.8H325.2z M322.4,272.2c0.2,0,0.5,0,0.7-0.1s0.4-0.1,0.5-0.2
		c0.2-0.1,0.3-0.2,0.4-0.4s0.1-0.3,0.1-0.4v-1h-1.3c-0.6,0-1,0.1-1.3,0.2c-0.3,0.2-0.4,0.4-0.4,0.7v0.2c0,0.3,0.1,0.6,0.3,0.7
		C321.6,272.1,322,272.2,322.4,272.2z M327.5,272.9v-0.9l4-4.4h-3.8v-0.8h4.9v0.9l-4,4.4h4.1v0.8H327.5z M337.6,265.4
		c-0.3,0-0.5-0.1-0.6-0.2c-0.1-0.1-0.2-0.3-0.2-0.4v-0.2c0-0.2,0.1-0.3,0.2-0.4c0.1-0.1,0.3-0.2,0.6-0.2s0.5,0.1,0.6,0.2
		c0.1,0.1,0.2,0.3,0.2,0.4v0.2c0,0.2-0.1,0.3-0.2,0.4C338.1,265.3,337.9,265.4,337.6,265.4z M334.9,272.1h2.2v-4.5h-2.2v-0.8h3.2
		v5.3h2.1v0.8h-5.3V272.1z M341.7,272.1h2.2v-7.2h-2.2v-0.8h3.1v8h2.2v0.8h-5.3V272.1z"/>
	<path id="USA" class="st2" d="M510,264.1v5.2c0,0.4,0,0.8,0,1.1c0,0.3,0.1,0.6,0.2,0.9s0.3,0.4,0.5,0.5c0.2,0.1,0.5,0.2,0.9,0.2
		s0.7-0.1,0.9-0.2c0.2-0.1,0.4-0.3,0.5-0.5c0.1-0.2,0.2-0.5,0.2-0.9c0-0.3,0-0.7,0-1.1v-5.2h1v5c0,0.6,0,1.2-0.1,1.7
		c-0.1,0.5-0.2,0.9-0.4,1.2c-0.2,0.3-0.4,0.6-0.8,0.7s-0.8,0.2-1.4,0.2s-1-0.1-1.4-0.2c-0.3-0.2-0.6-0.4-0.8-0.7
		c-0.2-0.3-0.3-0.7-0.4-1.2c-0.1-0.5-0.1-1-0.1-1.7v-5H510z M518.7,273c-0.7,0-1.3-0.1-1.8-0.4s-0.9-0.7-1.2-1.1l0.7-0.6
		c0.3,0.4,0.7,0.7,1,0.9c0.4,0.2,0.8,0.3,1.3,0.3c0.6,0,1.1-0.1,1.4-0.4c0.3-0.3,0.5-0.7,0.5-1.2c0-0.4-0.1-0.8-0.3-1
		c-0.2-0.2-0.6-0.4-1.2-0.5l-0.9-0.2c-0.4-0.1-0.7-0.2-1-0.3c-0.3-0.1-0.5-0.3-0.7-0.5c-0.2-0.2-0.3-0.4-0.4-0.7
		c-0.1-0.3-0.1-0.5-0.1-0.8c0-0.8,0.2-1.4,0.7-1.8c0.5-0.4,1.2-0.6,2-0.6c0.7,0,1.2,0.1,1.7,0.3c0.5,0.2,0.8,0.6,1.1,1l-0.7,0.6
		c-0.2-0.3-0.5-0.6-0.8-0.8c-0.3-0.2-0.7-0.3-1.3-0.3c-0.6,0-1,0.1-1.3,0.4c-0.3,0.2-0.4,0.6-0.4,1.1c0,0.4,0.1,0.7,0.3,1
		s0.6,0.4,1.2,0.5l0.9,0.2c0.4,0.1,0.7,0.2,1,0.3c0.3,0.1,0.5,0.3,0.7,0.5c0.2,0.2,0.3,0.4,0.4,0.7c0.1,0.3,0.1,0.5,0.1,0.8
		c0,0.8-0.3,1.4-0.8,1.9C520.3,272.8,519.6,273,518.7,273z M527.9,272.9l-0.7-2.5h-2.9l-0.7,2.5h-1l2.5-8.7h1.3l2.5,8.7H527.9z
		 M525.9,265.3h-0.1l-1.2,4.2h2.4L525.9,265.3z"/>
	<path id="Argentina" class="st2" d="M382.4,273.4l-0.7-2.5h-2.9l-0.7,2.5h-1l2.6-8.7h1.3l2.6,8.7H382.4z M380.3,265.7h-0.1L379,270
		h2.5L380.3,265.7z M384.8,272.5h1.8v-4.8h-1.8v-0.9h2.8v1.1h0.1c0.1-0.3,0.3-0.6,0.6-0.8c0.3-0.2,0.7-0.3,1.2-0.3h1.1v1h-1.3
		c-0.5,0-1,0.1-1.3,0.3c-0.3,0.2-0.5,0.5-0.5,0.8v3.5h2.4v0.9h-5.2V272.5z M397.8,274.1c0,0.6-0.3,1.1-0.8,1.4s-1.3,0.5-2.3,0.5
		c-1,0-1.7-0.1-2.2-0.4c-0.4-0.3-0.7-0.7-0.7-1.2c0-0.4,0.1-0.6,0.3-0.8c0.2-0.2,0.4-0.3,0.7-0.4V273c-0.2-0.1-0.3-0.2-0.4-0.4
		c-0.1-0.1-0.1-0.3-0.1-0.5c0-0.3,0.1-0.6,0.3-0.8c0.2-0.2,0.5-0.3,0.8-0.4v0c-0.4-0.2-0.7-0.4-0.9-0.8c-0.2-0.3-0.3-0.7-0.3-1.2
		c0-0.3,0.1-0.6,0.2-0.9c0.1-0.3,0.3-0.5,0.5-0.7s0.5-0.3,0.8-0.5c0.3-0.1,0.6-0.2,1-0.2c0.5,0,0.9,0.1,1.2,0.3v-0.1
		c0-0.2,0.1-0.5,0.2-0.6c0.1-0.2,0.3-0.2,0.6-0.2h1.1v0.9h-1.4v0.4c0.2,0.2,0.4,0.4,0.5,0.7c0.1,0.3,0.2,0.6,0.2,0.9
		c0,0.3-0.1,0.6-0.2,0.9c-0.1,0.3-0.3,0.5-0.5,0.7s-0.5,0.3-0.8,0.5s-0.6,0.2-1,0.2c-0.1,0-0.2,0-0.3,0s-0.2,0-0.3,0
		c-0.1,0-0.2,0-0.3,0.1c-0.1,0-0.2,0.1-0.3,0.1s-0.2,0.1-0.2,0.2c-0.1,0.1-0.1,0.2-0.1,0.3c0,0.2,0.1,0.3,0.3,0.4
		c0.2,0.1,0.4,0.1,0.7,0.1h1.4c0.8,0,1.4,0.2,1.7,0.5C397.6,273.1,397.8,273.6,397.8,274.1z M396.9,274.1c0-0.3-0.1-0.5-0.3-0.6
		c-0.2-0.2-0.5-0.2-1-0.2h-2.2c-0.4,0.2-0.6,0.5-0.6,0.9c0,0.3,0.1,0.5,0.3,0.7c0.2,0.2,0.6,0.3,1.1,0.3h0.9c0.6,0,1-0.1,1.3-0.3
		C396.8,274.8,396.9,274.5,396.9,274.1z M394.6,270.4c0.5,0,0.8-0.1,1.1-0.3c0.2-0.2,0.3-0.5,0.3-0.9v-0.4c0-0.4-0.1-0.7-0.3-0.9
		c-0.2-0.2-0.6-0.3-1.1-0.3s-0.8,0.1-1.1,0.3c-0.2,0.2-0.3,0.5-0.3,0.9v0.4c0,0.4,0.1,0.7,0.3,0.9S394.2,270.4,394.6,270.4z
		 M402,273.5c-0.4,0-0.9-0.1-1.2-0.2c-0.4-0.2-0.7-0.4-0.9-0.7s-0.4-0.6-0.6-1.1c-0.1-0.4-0.2-0.9-0.2-1.4c0-0.5,0.1-1,0.2-1.4
		c0.1-0.4,0.3-0.8,0.6-1.1c0.2-0.3,0.5-0.5,0.9-0.7c0.3-0.2,0.7-0.2,1.2-0.2c0.4,0,0.8,0.1,1.1,0.2c0.3,0.2,0.6,0.4,0.9,0.7
		c0.2,0.3,0.4,0.6,0.6,1c0.1,0.4,0.2,0.8,0.2,1.3v0.5h-4.6v0.3c0,0.3,0,0.5,0.1,0.8c0.1,0.2,0.2,0.5,0.4,0.6
		c0.2,0.2,0.4,0.3,0.6,0.4s0.5,0.1,0.8,0.1c0.4,0,0.8-0.1,1.1-0.3c0.3-0.2,0.5-0.5,0.7-0.8l0.7,0.5c-0.2,0.4-0.5,0.8-0.9,1.1
		C403.1,273.4,402.6,273.5,402,273.5z M401.9,267.6c-0.3,0-0.5,0-0.7,0.1c-0.2,0.1-0.4,0.2-0.6,0.4c-0.2,0.2-0.3,0.4-0.4,0.6
		c-0.1,0.2-0.1,0.5-0.1,0.8v0.1h3.6v-0.1c0-0.3,0-0.5-0.1-0.8s-0.2-0.4-0.3-0.6c-0.1-0.2-0.3-0.3-0.5-0.4
		C402.4,267.6,402.2,267.6,401.9,267.6z M406.7,273.4v-6.5h1v1.1h0c0.1-0.2,0.1-0.3,0.2-0.5c0.1-0.1,0.2-0.3,0.4-0.4
		c0.1-0.1,0.3-0.2,0.5-0.3c0.2-0.1,0.4-0.1,0.7-0.1c0.6,0,1.2,0.2,1.6,0.6c0.4,0.4,0.6,1,0.6,1.8v4.1h-1v-4c0-0.6-0.1-1-0.4-1.3
		c-0.2-0.3-0.6-0.4-1.1-0.4c-0.2,0-0.4,0-0.6,0.1c-0.2,0.1-0.3,0.1-0.5,0.2s-0.3,0.2-0.3,0.4c-0.1,0.2-0.1,0.3-0.1,0.5v4.5H406.7z
		 M416.6,273.4c-0.5,0-0.8-0.1-1-0.4s-0.3-0.6-0.3-1.1v-4.1h-2.1v-0.9h1.5c0.2,0,0.4,0,0.4-0.1c0.1-0.1,0.1-0.2,0.1-0.5v-1.7h0.9
		v2.3h2.8v0.9h-2.8v4.8h2.8v0.9H416.6z M423.9,265.5c-0.3,0-0.5-0.1-0.6-0.2c-0.1-0.1-0.2-0.3-0.2-0.5v-0.2c0-0.2,0.1-0.3,0.2-0.5
		c0.1-0.1,0.3-0.2,0.6-0.2s0.5,0.1,0.6,0.2c0.1,0.1,0.2,0.3,0.2,0.5v0.2c0,0.2-0.1,0.3-0.2,0.5C424.4,265.4,424.2,265.5,423.9,265.5
		z M421.2,272.5h2.2v-4.8h-2.2v-0.9h3.2v5.6h2.1v0.9h-5.3V272.5z M428.3,273.4v-6.5h1v1.1h0c0.1-0.2,0.1-0.3,0.2-0.5
		c0.1-0.1,0.2-0.3,0.4-0.4c0.1-0.1,0.3-0.2,0.5-0.3c0.2-0.1,0.4-0.1,0.7-0.1c0.6,0,1.2,0.2,1.6,0.6c0.4,0.4,0.6,1,0.6,1.8v4.1h-1v-4
		c0-0.6-0.1-1-0.4-1.3c-0.2-0.3-0.6-0.4-1.1-0.4c-0.2,0-0.4,0-0.6,0.1c-0.2,0.1-0.3,0.1-0.5,0.2s-0.3,0.2-0.3,0.4
		c-0.1,0.2-0.1,0.3-0.1,0.5v4.5H428.3z M440.3,273.4c-0.4,0-0.6-0.1-0.8-0.3c-0.2-0.2-0.3-0.4-0.3-0.8h-0.1
		c-0.1,0.4-0.4,0.7-0.7,0.9s-0.7,0.3-1.2,0.3c-0.6,0-1.2-0.2-1.6-0.5s-0.6-0.8-0.6-1.4c0-0.6,0.2-1.1,0.6-1.4c0.4-0.3,1.1-0.5,2-0.5
		h1.3V269c0-0.5-0.1-0.8-0.4-1.1c-0.3-0.2-0.6-0.4-1.1-0.4c-0.4,0-0.8,0.1-1,0.3c-0.3,0.2-0.5,0.4-0.6,0.7l-0.6-0.5
		c0.1-0.2,0.2-0.3,0.3-0.5c0.1-0.2,0.3-0.3,0.5-0.4c0.2-0.1,0.4-0.2,0.7-0.3s0.5-0.1,0.9-0.1c0.7,0,1.3,0.2,1.7,0.6
		c0.4,0.4,0.6,0.9,0.6,1.6v3.6h0.9v0.9H440.3z M437.5,272.7c0.2,0,0.5,0,0.7-0.1s0.4-0.1,0.5-0.2c0.2-0.1,0.3-0.2,0.4-0.4
		c0.1-0.1,0.1-0.3,0.1-0.5v-1.1h-1.3c-0.6,0-1,0.1-1.3,0.2c-0.3,0.2-0.4,0.4-0.4,0.7v0.3c0,0.3,0.1,0.6,0.3,0.8
		C436.8,272.6,437.1,272.7,437.5,272.7z"/>
	<path id="Mexico" class="st2" d="M585.7,272.9v-6.8h-0.1l-1.8,4.3l-1.8-4.3h-0.1v6.8H581v-8.3h1.3l1.5,3.6h0.1l1.5-3.6h1.3v8.3
		H585.7z M591.2,273c-0.5,0-0.9-0.1-1.2-0.2s-0.7-0.4-0.9-0.6c-0.3-0.3-0.5-0.6-0.6-1c-0.1-0.4-0.2-0.8-0.2-1.3
		c0-0.5,0.1-0.9,0.2-1.3s0.3-0.7,0.6-1c0.3-0.3,0.6-0.5,0.9-0.6c0.4-0.1,0.7-0.2,1.2-0.2c0.4,0,0.8,0.1,1.1,0.2
		c0.3,0.1,0.6,0.4,0.9,0.6c0.2,0.3,0.4,0.6,0.6,0.9s0.2,0.8,0.2,1.2v0.4h-4.6v0.3c0,0.3,0,0.5,0.1,0.7s0.2,0.4,0.4,0.6
		c0.2,0.2,0.4,0.3,0.6,0.4c0.2,0.1,0.5,0.1,0.8,0.1c0.4,0,0.8-0.1,1.1-0.3c0.3-0.2,0.5-0.4,0.7-0.8l0.7,0.5c-0.2,0.4-0.5,0.7-0.9,1
		C592.3,272.9,591.8,273,591.2,273z M591.1,267.4c-0.3,0-0.5,0-0.7,0.1c-0.2,0.1-0.4,0.2-0.6,0.4s-0.3,0.4-0.4,0.6s-0.1,0.5-0.1,0.7
		v0.1h3.6v-0.1c0-0.3,0-0.5-0.1-0.7c-0.1-0.2-0.2-0.4-0.4-0.6c-0.1-0.2-0.3-0.3-0.5-0.4C591.6,267.4,591.4,267.4,591.1,267.4z
		 M595.5,272.9l2.3-3.1l-2.3-3h1.2l0.9,1.3l0.8,1h0l0.7-1l0.9-1.3h1.1l-2.3,3l2.4,3.1h-1.2l-1.1-1.4l-0.7-1h0l-0.7,1l-1,1.4H595.5z
		 M606,265.4c-0.3,0-0.5-0.1-0.6-0.2s-0.2-0.3-0.2-0.4v-0.2c0-0.2,0.1-0.3,0.2-0.4s0.3-0.2,0.6-0.2c0.3,0,0.5,0.1,0.6,0.2
		s0.2,0.3,0.2,0.4v0.2c0,0.2-0.1,0.3-0.2,0.4S606.3,265.4,606,265.4z M603.3,272.1h2.3v-4.5h-2.3v-0.8h3.2v5.3h2.1v0.8h-5.3V272.1z
		 M613.1,273c-0.5,0-0.9-0.1-1.2-0.2c-0.4-0.2-0.6-0.4-0.9-0.6c-0.2-0.3-0.4-0.6-0.6-1c-0.1-0.4-0.2-0.8-0.2-1.3
		c0-0.5,0.1-0.9,0.2-1.3s0.3-0.7,0.6-1c0.2-0.3,0.5-0.5,0.9-0.6s0.7-0.2,1.2-0.2c0.6,0,1.1,0.1,1.5,0.4s0.7,0.6,0.8,1l-0.8,0.4
		c-0.1-0.3-0.3-0.6-0.6-0.7c-0.3-0.2-0.6-0.3-1-0.3c-0.3,0-0.5,0-0.8,0.1s-0.4,0.2-0.6,0.4s-0.3,0.4-0.3,0.6
		c-0.1,0.2-0.1,0.5-0.1,0.7v1c0,0.3,0,0.5,0.1,0.7c0.1,0.2,0.2,0.4,0.3,0.6c0.2,0.2,0.3,0.3,0.6,0.4s0.5,0.1,0.8,0.1
		c0.4,0,0.8-0.1,1-0.3s0.5-0.4,0.7-0.8l0.7,0.5c-0.2,0.4-0.5,0.8-0.9,1C614.3,272.9,613.7,273,613.1,273z M620.2,273
		c-0.4,0-0.8-0.1-1.2-0.2c-0.4-0.1-0.7-0.4-0.9-0.6s-0.4-0.6-0.6-1c-0.1-0.4-0.2-0.8-0.2-1.3c0-0.5,0.1-0.9,0.2-1.3
		c0.1-0.4,0.3-0.7,0.6-1c0.2-0.3,0.5-0.5,0.9-0.6c0.4-0.1,0.7-0.2,1.2-0.2c0.4,0,0.8,0.1,1.2,0.2c0.4,0.1,0.7,0.4,0.9,0.6
		c0.2,0.3,0.4,0.6,0.6,1c0.1,0.4,0.2,0.8,0.2,1.3c0,0.5-0.1,0.9-0.2,1.3c-0.1,0.4-0.3,0.7-0.6,1c-0.2,0.3-0.5,0.5-0.9,0.6
		C621,272.9,620.6,273,620.2,273z M620.2,272.2c0.5,0,1-0.2,1.3-0.5c0.3-0.3,0.5-0.8,0.5-1.5v-0.9c0-0.7-0.2-1.2-0.5-1.5
		c-0.3-0.3-0.8-0.5-1.3-0.5s-1,0.2-1.3,0.5c-0.3,0.3-0.5,0.8-0.5,1.5v0.9c0,0.7,0.2,1.2,0.5,1.5C619.2,272,619.6,272.2,620.2,272.2z
		"/>
	<path id="Americas" class="st2" d="M441.4,121.9l-0.7-2.4h-2.9l-0.7,2.4h-1l2.6-8.3h1.3l2.6,8.3H441.4z M439.3,114.6h-0.1l-1.2,4
		h2.4L439.3,114.6z M443.4,121.9v-6.1h0.9v0.7h0c0.1-0.2,0.2-0.4,0.4-0.6c0.2-0.2,0.4-0.2,0.8-0.2c0.4,0,0.6,0.1,0.8,0.3
		c0.2,0.2,0.3,0.4,0.3,0.7h0c0.1-0.3,0.3-0.5,0.5-0.7s0.5-0.3,0.9-0.3c0.5,0,0.8,0.2,1,0.5c0.2,0.3,0.3,0.8,0.3,1.5v4.2h-0.9v-4.1
		c0-0.5-0.1-0.9-0.2-1.1c-0.1-0.2-0.3-0.3-0.6-0.3c-0.3,0-0.5,0.1-0.6,0.2c-0.2,0.2-0.2,0.4-0.2,0.7v4.5h-0.9v-4.1
		c0-0.5-0.1-0.9-0.2-1.1c-0.1-0.2-0.3-0.3-0.6-0.3c-0.3,0-0.5,0.1-0.6,0.2c-0.2,0.2-0.2,0.4-0.2,0.7v4.5H443.4z M453.6,122
		c-0.4,0-0.8-0.1-1.2-0.2s-0.7-0.4-0.9-0.6c-0.3-0.3-0.4-0.6-0.6-1c-0.1-0.4-0.2-0.8-0.2-1.3c0-0.5,0.1-0.9,0.2-1.3
		c0.1-0.4,0.3-0.7,0.6-1c0.2-0.3,0.5-0.5,0.9-0.6c0.3-0.2,0.7-0.2,1.2-0.2c0.4,0,0.8,0.1,1.1,0.2c0.3,0.2,0.6,0.4,0.9,0.6
		c0.2,0.3,0.4,0.6,0.5,0.9c0.1,0.4,0.2,0.8,0.2,1.2v0.4h-4.6v0.3c0,0.3,0,0.5,0.1,0.7c0.1,0.2,0.2,0.4,0.4,0.6
		c0.2,0.2,0.4,0.3,0.6,0.4c0.2,0.1,0.5,0.1,0.8,0.1c0.4,0,0.8-0.1,1.1-0.3c0.3-0.2,0.5-0.4,0.7-0.8l0.7,0.5c-0.2,0.4-0.5,0.7-0.9,1
		C454.8,121.9,454.2,122,453.6,122z M453.6,116.4c-0.3,0-0.5,0-0.7,0.1c-0.2,0.1-0.4,0.2-0.6,0.4c-0.2,0.2-0.3,0.4-0.4,0.6
		c-0.1,0.2-0.1,0.5-0.1,0.7v0.1h3.5v-0.1c0-0.3,0-0.5-0.1-0.7c-0.1-0.2-0.2-0.4-0.3-0.6c-0.1-0.2-0.3-0.3-0.5-0.4
		S453.8,116.4,453.6,116.4z M458,121.1h1.8v-4.5H458v-0.8h2.8v1.1h0.1c0.1-0.3,0.3-0.5,0.6-0.8c0.3-0.2,0.7-0.3,1.2-0.3h1.1v0.9
		h-1.3c-0.5,0-1,0.1-1.3,0.3c-0.3,0.2-0.5,0.4-0.5,0.7v3.4h2.4v0.8H458V121.1z M468.2,114.4c-0.3,0-0.5-0.1-0.6-0.2
		c-0.1-0.1-0.2-0.3-0.2-0.4v-0.2c0-0.2,0.1-0.3,0.2-0.4c0.1-0.1,0.3-0.2,0.6-0.2c0.3,0,0.5,0.1,0.6,0.2c0.1,0.1,0.2,0.3,0.2,0.4v0.2
		c0,0.2-0.1,0.3-0.2,0.4C468.7,114.3,468.5,114.4,468.2,114.4z M465.5,121.1h2.2v-4.5h-2.2v-0.8h3.2v5.3h2.1v0.8h-5.3V121.1z
		 M475.2,122c-0.4,0-0.8-0.1-1.2-0.2c-0.3-0.2-0.6-0.4-0.9-0.6c-0.2-0.3-0.4-0.6-0.5-1c-0.1-0.4-0.2-0.8-0.2-1.3
		c0-0.5,0.1-0.9,0.2-1.3c0.1-0.4,0.3-0.7,0.5-1c0.2-0.3,0.5-0.5,0.9-0.6s0.7-0.2,1.2-0.2c0.6,0,1.1,0.1,1.5,0.4
		c0.4,0.3,0.6,0.6,0.8,1l-0.8,0.4c-0.1-0.3-0.3-0.6-0.6-0.7c-0.3-0.2-0.6-0.3-1-0.3c-0.3,0-0.5,0-0.7,0.1c-0.2,0.1-0.4,0.2-0.6,0.4
		c-0.2,0.2-0.3,0.4-0.3,0.6c-0.1,0.2-0.1,0.5-0.1,0.7v1c0,0.3,0,0.5,0.1,0.7c0.1,0.2,0.2,0.4,0.3,0.6c0.2,0.2,0.3,0.3,0.6,0.4
		c0.2,0.1,0.5,0.1,0.8,0.1c0.4,0,0.8-0.1,1-0.3c0.3-0.2,0.5-0.4,0.6-0.8l0.7,0.5c-0.2,0.4-0.5,0.8-0.9,1
		C476.3,121.9,475.8,122,475.2,122z M484.5,121.9c-0.4,0-0.6-0.1-0.8-0.3c-0.2-0.2-0.3-0.4-0.3-0.7h-0.1c-0.1,0.4-0.4,0.6-0.7,0.8
		s-0.7,0.3-1.2,0.3c-0.6,0-1.2-0.2-1.5-0.5c-0.4-0.3-0.6-0.8-0.6-1.4c0-0.6,0.2-1,0.6-1.3c0.4-0.3,1.1-0.5,2-0.5h1.3v-0.6
		c0-0.5-0.1-0.8-0.4-1c-0.3-0.2-0.6-0.3-1.1-0.3c-0.4,0-0.8,0.1-1,0.2s-0.5,0.4-0.6,0.7l-0.6-0.5c0.1-0.2,0.2-0.3,0.3-0.5
		c0.1-0.2,0.3-0.3,0.5-0.4c0.2-0.1,0.4-0.2,0.7-0.3c0.3-0.1,0.5-0.1,0.8-0.1c0.7,0,1.3,0.2,1.7,0.5s0.6,0.9,0.6,1.5v3.4h0.9v0.8
		H484.5z M481.7,121.2c0.2,0,0.5,0,0.7-0.1c0.2-0.1,0.4-0.1,0.5-0.2c0.2-0.1,0.3-0.2,0.4-0.4c0.1-0.1,0.1-0.3,0.1-0.4v-1H482
		c-0.6,0-1,0.1-1.3,0.2c-0.3,0.2-0.4,0.4-0.4,0.7v0.2c0,0.3,0.1,0.6,0.3,0.7C480.9,121.1,481.3,121.2,481.7,121.2z M489.4,122
		c-0.6,0-1.2-0.1-1.7-0.3c-0.5-0.2-0.9-0.5-1.2-0.9l0.6-0.6c0.3,0.3,0.6,0.5,1,0.7c0.4,0.2,0.8,0.2,1.3,0.2c0.5,0,0.9-0.1,1.2-0.3
		s0.5-0.4,0.5-0.8c0-0.2,0-0.3-0.1-0.4c-0.1-0.1-0.1-0.2-0.2-0.3c-0.1-0.1-0.2-0.1-0.3-0.1c-0.1,0-0.3-0.1-0.4-0.1l-1-0.1
		c-0.2,0-0.4-0.1-0.7-0.1c-0.3-0.1-0.5-0.1-0.7-0.3c-0.2-0.1-0.4-0.3-0.5-0.5c-0.1-0.2-0.2-0.5-0.2-0.8c0-0.3,0.1-0.6,0.2-0.8
		c0.1-0.2,0.3-0.4,0.5-0.6c0.2-0.2,0.5-0.3,0.8-0.3c0.3-0.1,0.6-0.1,1-0.1c0.6,0,1,0.1,1.4,0.3c0.4,0.2,0.8,0.4,1.1,0.7l-0.6,0.6
		c-0.1-0.1-0.2-0.2-0.3-0.3s-0.2-0.2-0.4-0.2c-0.2-0.1-0.3-0.1-0.5-0.2c-0.2,0-0.4-0.1-0.7-0.1c-0.5,0-0.9,0.1-1.1,0.2
		c-0.3,0.2-0.4,0.4-0.4,0.7c0,0.2,0,0.3,0.1,0.4c0.1,0.1,0.1,0.2,0.2,0.3c0.1,0.1,0.2,0.1,0.4,0.1c0.1,0,0.3,0.1,0.4,0.1l1,0.1
		c0.2,0,0.5,0.1,0.7,0.1c0.2,0.1,0.5,0.1,0.7,0.3c0.2,0.1,0.4,0.3,0.5,0.5c0.1,0.2,0.2,0.5,0.2,0.8c0,0.6-0.2,1.1-0.7,1.4
		S490.2,122,489.4,122z"/>
	<path id="Rectangle_8_" class="st3" d="M396,100h136c6.6,0,12,5.4,12,12v12c0,6.6-5.4,12-12,12H396c-6.6,0-12-5.4-12-12v-12
		C384,105.4,389.4,100,396,100z M396,101c-6.1,0-11,4.9-11,11v12c0,6.1,4.9,11,11,11h136c6.1,0,11-4.9,11-11v-12c0-6.1-4.9-11-11-11
		H396z"/>
	<path id="Rectangle_9_" class="st3" d="M492,176h136c6.6,0,12,5.4,12,12v12c0,6.6-5.4,12-12,12H492c-6.6,0-12-5.4-12-12v-12
		C480,181.4,485.4,176,492,176z M492,177c-6.1,0-11,4.9-11,11v12c0,6.1,4.9,11,11,11h136c6.1,0,11-4.9,11-11v-12c0-6.1-4.9-11-11-11
		H492z"/>
	<path id="Rectangle_10_" class="st3" d="M300,176h136c6.6,0,12,5.4,12,12v12c0,6.6-5.4,12-12,12H300c-6.6,0-12-5.4-12-12v-12
		C288,181.4,293.4,176,300,176z M300,177c-6.1,0-11,4.9-11,11v12c0,6.1,4.9,11,11,11h136c6.1,0,11-4.9,11-11v-12c0-6.1-4.9-11-11-11
		H300z"/>
	<path id="Rectangle_11_" class="st4" d="M300,251h53c6.6,0,12,5.4,12,12v12c0,6.6-5.4,12-12,12h-53c-6.6,0-12-5.4-12-12v-12
		C288,256.4,293.4,251,300,251z M300,252c-6.1,0-11,4.9-11,11v12c0,6.1,4.9,11,11,11h53c6.1,0,11-4.9,11-11v-12c0-6.1-4.9-11-11-11
		H300z"/>
	<path id="Rectangle_12_" class="st4" d="M492,251h53c6.6,0,12,5.4,12,12v12c0,6.6-5.4,12-12,12h-53c-6.6,0-12-5.4-12-12v-12
		C480,256.4,485.4,251,492,251z M492,252c-6.1,0-11,4.9-11,11v12c0,6.1,4.9,11,11,11h53c6.1,0,11-4.9,11-11v-12c0-6.1-4.9-11-11-11
		H492z"/>
	<path id="Rectangle_13_" class="st4" d="M383,251h53c6.6,0,12,5.4,12,12v12c0,6.6-5.4,12-12,12h-53c-6.6,0-12-5.4-12-12v-12
		C371,256.4,376.4,251,383,251z M383,252c-6.1,0-11,4.9-11,11v12c0,6.1,4.9,11,11,11h53c6.1,0,11-4.9,11-11v-12c0-6.1-4.9-11-11-11
		H383z"/>
	<path id="Rectangle_14_" class="st4" d="M575,251h53c6.6,0,12,5.4,12,12v12c0,6.6-5.4,12-12,12h-53c-6.6,0-12-5.4-12-12v-12
		C563,256.4,568.4,251,575,251z M575,252c-6.1,0-11,4.9-11,11v12c0,6.1,4.9,11,11,11h53c6.1,0,11-4.9,11-11v-12c0-6.1-4.9-11-11-11
		H575z"/>
	<path id="Combined-Shape_2_" class="st5" d="M464.1,155.7V136h0.5v19.7h0.1h86c5.7,0,10.3,4.6,10.3,10.3v10h-0.5v-10
		c0-5.4-4.4-9.8-9.8-9.8h-86h-86.4c-5.4,0-9.7,4.4-9.7,9.8v10h-0.5v-10c0-5.7,4.6-10.3,10.2-10.3H464.1z"/>
	<path id="Combined-Shape_3_" class="st5" d="M368.1,230.7V211h0.5v19.7h0.1h32c5.7,0,10.3,4.6,10.3,10.3v10h-0.5v-10
		c0-5.4-4.4-9.8-9.8-9.8h-32h-30.4c-5.4,0-9.8,4.4-9.8,9.8v10h-0.5v-10c0-5.7,4.6-10.3,10.3-10.3H368.1z"/>
	<path id="Combined-Shape_4_" class="st5" d="M560.1,230.7V211h0.5v19.7h0.1h32c5.7,0,10.3,4.6,10.3,10.3v10h-0.5v-10
		c0-5.4-4.4-9.8-9.8-9.8h-32h-30.4c-5.4,0-9.8,4.4-9.8,9.8v10h-0.5v-10c0-5.7,4.6-10.3,10.3-10.3H560.1z"/>
	<path id="Combined-Shape_5_" class="st5" d="M463.4,79.4v20.4h-0.5V79.4H154.8c-5.7,0-10.3,4.6-10.3,10.2V100H144V89.6
		c0-5.9,4.8-10.7,10.8-10.7h308.1h0.5h31.5V60h0.5v18.9h325.4c6.2,0,11.2,5,11.2,11.2V101h-0.5V90.1c0-5.9-4.8-10.7-10.7-10.7H495.4
		h-0.5H463.4z"/>
</g>
</svg>
