<?xml version="1.0" encoding="UTF-8" standalone="no"?>
<svg
   xmlns:dc="http://purl.org/dc/elements/1.1/"
   xmlns:cc="http://creativecommons.org/ns#"
   xmlns:rdf="http://www.w3.org/1999/02/22-rdf-syntax-ns#"
   xmlns:svg="http://www.w3.org/2000/svg"
   xmlns="http://www.w3.org/2000/svg"
   xmlns:xlink="http://www.w3.org/1999/xlink"
   xmlns:sodipodi="http://sodipodi.sourceforge.net/DTD/sodipodi-0.dtd"
   xmlns:inkscape="http://www.inkscape.org/namespaces/inkscape"
   width="829px"
   height="547px"
   viewBox="0 0 829 547"
   version="1.1"
   id="svg2910"
   inkscape:version="0.47 r22583"
   sodipodi:docname="user_groups_example.svg">
  <metadata
     id="metadata3000">
    <rdf:RDF>
      <cc:Work
         rdf:about="">
        <dc:format>image/svg+xml</dc:format>
        <dc:type
           rdf:resource="http://purl.org/dc/dcmitype/StillImage" />
      </cc:Work>
    </rdf:RDF>
  </metadata>
  <sodipodi:namedview
     pagecolor="#ffffff"
     bordercolor="#666666"
     borderopacity="1"
     objecttolerance="10"
     gridtolerance="10"
     guidetolerance="10"
     inkscape:pageopacity="0"
     inkscape:pageshadow="2"
     inkscape:window-width="1600"
     inkscape:window-height="838"
     id="namedview2998"
     showgrid="false"
     inkscape:zoom="0.86288848"
     inkscape:cx="408.29646"
     inkscape:cy="313.86415"
     inkscape:window-x="-8"
     inkscape:window-y="-8"
     inkscape:window-maximized="1"
     inkscape:current-layer="svg2910" />
  <!-- Generator: Sketch 49.3 (51167) - http://www.bohemiancoding.com/sketch -->
  <title
     id="title2912">3-user_groups</title>
  <desc
     id="desc2914">Created with Sketch.</desc>
  <defs
     id="defs2916">
    <inkscape:perspective
       sodipodi:type="inkscape:persp3d"
       inkscape:vp_x="0 : 273.5 : 1"
       inkscape:vp_y="0 : 1000 : 0"
       inkscape:vp_z="829 : 273.5 : 1"
       inkscape:persp3d-origin="414.5 : 182.33333 : 1"
       id="perspective3002" />
    <path
       d="M0,0 L800,0 L800,523 L0,523 L0,0 Z"
       id="path-1" />
    <mask
       id="mask-2"
       maskContentUnits="userSpaceOnUse"
       maskUnits="objectBoundingBox"
       x="0"
       y="0"
       width="800"
       height="523"
       fill="white">
      <use
         xlink:href="#path-1"
         id="use2920" />
    </mask>
  </defs>
  <g
     id="3-user_groups"
     stroke="none"
     stroke-width="1"
     fill="none"
     fill-rule="evenodd">
    <g
       id="-user_groups"
       transform="translate(15.000000, 12.000000)">
      <use
         id="dotted-box"
         stroke="#DFE3E6"
         mask="url(#mask-2)"
         stroke-width="6"
         stroke-dasharray="10"
         xlink:href="#path-1" />
      <text
         id="Single-Organization"
         font-size="24"
         font-weight="normal"
         style="font-size:24px;font-weight:normal;fill:#5a6872;font-family:'IBMPlexSans, IBM Plex Sans'">
        <tspan
           x="35"
           y="53"
           id="tspan2926"
           style="-inkscape-font-specification:SimHei;font-family:SimHei">单个组织</tspan>
      </text>
      <g
         id="project-a"
         transform="translate(35.000000, 78.000000)">
        <rect
           id="Rectangle-2-Copy-2"
           stroke="#8C9BA5"
           stroke-width="2"
           x="1"
           y="1"
           width="351"
           height="415" />
        <g
           id="middle-content"
           transform="translate(53.000000, 26.000000)">
          <text
             id="Project-X"
             font-size="20"
             font-weight="bold"
             style="font-size:20px;font-weight:bold;fill:#5a6872;font-family:'IBMPlexSans-Bold, IBM Plex Sans'">
            <tspan
               x="0"
               y="21"
               id="tspan2932"><tspan
   style="-inkscape-font-specification:SimHei;font-family:SimHei"
   id="tspan3192">项目</tspan>
 X</tspan>
          </text>
          <text
             id="Prod_AppX_V1"
             font-family="IBMPlexSans, IBM Plex Sans"
             font-size="20"
             font-weight="normal"
             fill="#5A6872">
            <tspan
               x="100"
               y="94"
               id="tspan2935">Prod_AppX_V1</tspan>
          </text>
          <text
             id="Stage_AppX_V1"
             font-family="IBMPlexSans, IBM Plex Sans"
             font-size="20"
             font-weight="normal"
             fill="#5A6872">
            <tspan
               x="100"
               y="174"
               id="tspan2938">Stage_AppX_V1</tspan>
          </text>
          <text
             id="Test_AppX_V1"
             font-family="IBMPlexSans, IBM Plex Sans"
             font-size="20"
             font-weight="normal"
             fill="#5A6872">
            <tspan
               x="100"
               y="254"
               id="tspan2941">Test_AppX_V1</tspan>
          </text>
          <text
             id="Dev_AppX_V1"
             font-family="IBMPlexSans, IBM Plex Sans"
             font-size="20"
             font-weight="normal"
             fill="#5A6872">
            <tspan
               x="100"
               y="334"
               id="tspan2944">Dev_AppX_V1</tspan>
          </text>
          <g
             id="Hexy"
             transform="translate(0.000000, 46.000000)">
            <polygon
               id="polygon13"
               fill="#79C6FF"
               fill-rule="nonzero"
               points="37 0 0 20 0 60 37 80 74 60 74 20" />
            <polygon
               id="polygon15"
               fill="#56A8FD"
               fill-rule="nonzero"
               points="37 80 0 100 0 140 37 160 74 140 74 100" />
            <polygon
               id="polygon17"
               fill="#5294E9"
               fill-rule="nonzero"
               points="37 160 0 180 0 220 37 240 74 220 74 180" />
            <polygon
               id="polygon19"
               fill="#3A6EB4"
               fill-rule="nonzero"
               points="37 240 0 260 0 300 37 320 74 300 74 260" />
            <path
               d="M37.5,45.5 L37.5,274.5"
               id="Line-Copy-2"
               stroke="#0F212E"
               stroke-width="3"
               stroke-linecap="square" />
            <circle
               id="Oval-Copy-2"
               stroke="#0F212E"
               stroke-width="3"
               fill="#FFFFFF"
               cx="37.5"
               cy="40.5"
               r="6.5"
               d="M 44,40.5 C 44,44.089851 41.089851,47 37.5,47 33.910149,47 31,44.089851 31,40.5 31,36.910149 33.910149,34 37.5,34 c 3.589851,0 6.5,2.910149 6.5,6.5 z" />
            <circle
               id="circle2953"
               stroke="#0F212E"
               stroke-width="3"
               fill="#FFFFFF"
               cx="37.5"
               cy="120.5"
               r="6.5"
               d="m 44,120.5 c 0,3.58985 -2.910149,6.5 -6.5,6.5 -3.589851,0 -6.5,-2.91015 -6.5,-6.5 0,-3.58985 2.910149,-6.5 6.5,-6.5 3.589851,0 6.5,2.91015 6.5,6.5 z" />
            <circle
               id="circle2955"
               stroke="#0F212E"
               stroke-width="3"
               fill="#FFFFFF"
               cx="37.5"
               cy="200.5"
               r="6.5"
               d="m 44,200.5 c 0,3.58985 -2.910149,6.5 -6.5,6.5 -3.589851,0 -6.5,-2.91015 -6.5,-6.5 0,-3.58985 2.910149,-6.5 6.5,-6.5 3.589851,0 6.5,2.91015 6.5,6.5 z" />
            <circle
               id="Oval-Copy-3"
               stroke="#0F212E"
               stroke-width="3"
               fill="#FFFFFF"
               cx="37.5"
               cy="280.5"
               r="6.5"
               d="m 44,280.5 c 0,3.58985 -2.910149,6.5 -6.5,6.5 -3.589851,0 -6.5,-2.91015 -6.5,-6.5 0,-3.58985 2.910149,-6.5 6.5,-6.5 3.589851,0 6.5,2.91015 6.5,6.5 z" />
          </g>
        </g>
      </g>
      <g
         id="project-b"
         transform="translate(412.000000, 78.000000)">
        <rect
           id="rect2959"
           stroke="#8C9BA5"
           stroke-width="2"
           x="1"
           y="1"
           width="351"
           height="415" />
        <g
           id="g2961"
           transform="translate(53.000000, 26.000000)">
          <text
             id="Project-Y"
             font-size="20"
             font-weight="bold"
             style="font-size:20px;font-weight:bold;fill:#5a6872;font-family:'IBMPlexSans-Bold, IBM Plex Sans'">
            <tspan
               x="0"
               y="21"
               id="tspan2964"><tspan
   style="-inkscape-font-specification:SimHei;font-family:SimHei"
   id="tspan3194">项目</tspan>
 Y</tspan>
          </text>
          <text
             id="Prod_AppY_V1"
             font-family="IBMPlexSans, IBM Plex Sans"
             font-size="20"
             font-weight="normal"
             fill="#5A6872">
            <tspan
               x="100"
               y="94"
               id="tspan2967">Prod_AppY_V1</tspan>
          </text>
          <text
             id="Stage_AppY_V1"
             font-family="IBMPlexSans, IBM Plex Sans"
             font-size="20"
             font-weight="normal"
             fill="#5A6872">
            <tspan
               x="100"
               y="174"
               id="tspan2970">Stage_AppY_V1</tspan>
          </text>
          <text
             id="Test_AppY_V1"
             font-family="IBMPlexSans, IBM Plex Sans"
             font-size="20"
             font-weight="normal"
             fill="#5A6872">
            <tspan
               x="100"
               y="254"
               id="tspan2973">Test_AppY_V1</tspan>
          </text>
          <text
             id="Dev_AppY_V1"
             font-family="IBMPlexSans, IBM Plex Sans"
             font-size="20"
             font-weight="normal"
             fill="#5A6872">
            <tspan
               x="100"
               y="334"
               id="tspan2976">Dev_AppY_V1</tspan>
          </text>
          <g
             id="g2978"
             transform="translate(0.000000, 46.000000)">
            <polygon
               id="polygon2980"
               fill="#DFE3E6"
               fill-rule="nonzero"
               points="37 0 0 20 0 60 37 80 74 60 74 20" />
            <polygon
               id="polygon2982"
               fill="#8C9BA6"
               fill-rule="nonzero"
               points="37 80 0 100 0 140 37 160 74 140 74 100" />
            <polygon
               id="polygon2984"
               fill="#5A6873"
               fill-rule="nonzero"
               points="37 160 0 180 0 220 37 240 74 220 74 180" />
            <polygon
               id="polygon2986"
               fill="#2C3F4A"
               fill-rule="nonzero"
               points="37 240 0 260 0 300 37 320 74 300 74 260" />
            <path
               d="M37.5,45.5 L37.5,274.5"
               id="path2988"
               stroke="#0F212E"
               stroke-width="3"
               stroke-linecap="square" />
            <circle
               id="circle2990"
               stroke="#0F212E"
               stroke-width="3"
               fill="#FFFFFF"
               cx="37.5"
               cy="40.5"
               r="6.5"
               d="M 44,40.5 C 44,44.089851 41.089851,47 37.5,47 33.910149,47 31,44.089851 31,40.5 31,36.910149 33.910149,34 37.5,34 c 3.589851,0 6.5,2.910149 6.5,6.5 z" />
            <circle
               id="circle2992"
               stroke="#0F212E"
               stroke-width="3"
               fill="#FFFFFF"
               cx="37.5"
               cy="120.5"
               r="6.5"
               d="m 44,120.5 c 0,3.58985 -2.910149,6.5 -6.5,6.5 -3.589851,0 -6.5,-2.91015 -6.5,-6.5 0,-3.58985 2.910149,-6.5 6.5,-6.5 3.589851,0 6.5,2.91015 6.5,6.5 z" />
            <circle
               id="circle2994"
               stroke="#0F212E"
               stroke-width="3"
               fill="#FFFFFF"
               cx="37.5"
               cy="200.5"
               r="6.5"
               d="m 44,200.5 c 0,3.58985 -2.910149,6.5 -6.5,6.5 -3.589851,0 -6.5,-2.91015 -6.5,-6.5 0,-3.58985 2.910149,-6.5 6.5,-6.5 3.589851,0 6.5,2.91015 6.5,6.5 z" />
            <circle
               id="circle2996"
               stroke="#0F212E"
               stroke-width="3"
               fill="#FFFFFF"
               cx="37.5"
               cy="280.5"
               r="6.5"
               d="m 44,280.5 c 0,3.58985 -2.910149,6.5 -6.5,6.5 -3.589851,0 -6.5,-2.91015 -6.5,-6.5 0,-3.58985 2.910149,-6.5 6.5,-6.5 3.589851,0 6.5,2.91015 6.5,6.5 z" />
          </g>
        </g>
      </g>
    </g>
  </g>
</svg>
