<?xml version="1.0" encoding="utf-8"?>
<!-- Generator: Adobe Illustrator 22.0.1, SVG Export Plug-In . SVG Version: 6.00 Build 0)  -->
<svg version="1.1" id="Ebene_1" xmlns="http://www.w3.org/2000/svg" xmlns:xlink="http://www.w3.org/1999/xlink" x="0px" y="0px"
	 viewBox="0 0 1671 873" style="enable-background:new 0 0 1671 873;" xml:space="preserve">
<style type="text/css">
	.st0{fill:none;stroke:#FF2F2F;stroke-width:6;}
	.st1{fill:none;stroke:#5596E6;stroke-width:6;}
	.st2{enable-background:new    ;}
	.st3{fill:#3C3232;}
	.st4{font-family:'HelvNeueBoldforIBM';}
	.st5{font-size:32px;}
	.st6{fill:#FF2F2F;}
	.st7{fill:#5596E6;}
	.st8{filter:url(#Adobe_OpacityMaskFilter);}
	.st9{fill:#FFFFFF;}
	.st10{mask:url(#mask-2_1_);}
	.st11{font-family:'HelveticaNeue';}
	.st12{font-size:30px;}
	.st13{fill:none;stroke:#AF6EE8;stroke-width:6;}
	.st14{fill:#1A1314;}
	.st15{fill:none;stroke:#5596E6;stroke-dasharray:15,5;}
	.st16{fill:none;stroke:#AF6EE8;}
	.st17{fill:none;stroke:#FF2F2F;stroke-dasharray:15,5;}
</style>
<title>18</title>
<desc>Created with Sketch.</desc>
<g id="Page-1_6_">
	<g id="_x31_8">
		<g transform="translate(40.000000, 66.000000)">
			<polyline id="Stroke-36" class="st0" points="166,545 418.7,544 430.5,504 			"/>
			<polyline id="Stroke-38" class="st1" points="166,253 418.7,254 430.5,294 			"/>
			<text transform="matrix(1 0 0 1 33.424 307)" class="st2"><tspan x="0" y="0" class="st3 st4 st5">IBM Cloud-</tspan><tspan x="0" y="38.4" class="st3 st4 st5">Rechnung</tspan></text>
			<text transform="matrix(1 0 0 1 24.952 597)" class="st2"><tspan x="0" y="0" class="st3 st4 st5">Infrastruktur-</tspan><tspan x="0" y="38.4" class="st3 st4 st5">rechnung</tspan></text>
			<g id="Page-1" transform="translate(78.000000, 444.000000)">
				<path id="Fill-1" class="st6" d="M0,1v120h80V33L48,1H0L0,1z M4,5h40v32h32v80H4V5L4,5z"/>
				<polygon id="Fill-2" class="st6" points="16,53 64,53 64,49 16,49 				"/>
				<polygon id="Fill-3" class="st6" points="16,61 64,61 64,57 16,57 				"/>
				<polygon id="Fill-4" class="st6" points="16,69 40,69 40,65 16,65 				"/>
			</g>
			<text transform="matrix(1 0 0 1 824.028 594)" class="st3 st4 st5">Infrastrukturrechnung</text>
			<g id="Page-1_1_" transform="translate(926.000000, 433.000000)">
				<path id="Fill-1_1_" class="st6" d="M0,1v120h80V33L48,1H0L0,1z M4,5h40v32h32v80H4V5L4,5z"/>
				<polygon id="Fill-2_1_" class="st6" points="16,53 64,53 64,49 16,49 				"/>
				<polygon id="Fill-3_1_" class="st6" points="16,61 64,61 64,57 16,57 				"/>
				<polygon id="Fill-4_1_" class="st6" points="16,69 40,69 40,65 16,65 				"/>
			</g>
			<g id="Page-1_2_" transform="translate(78.000000, 156.000000)">
				<path id="Fill-1_2_" class="st7" d="M0,0.1V119h80V31.8L48,0.1H0L0,0.1z M4,4.1h40v31.7h32V115H4V4.1L4,4.1z"/>
				<polygon id="Fill-2_2_" class="st7" points="16,51.6 64,51.6 64,47.7 16,47.7 				"/>
				<polygon id="Fill-3_2_" class="st7" points="16,59.6 64,59.6 64,55.6 16,55.6 				"/>
				<polygon id="Fill-4_2_" class="st7" points="16,67.5 40,67.5 40,63.5 16,63.5 				"/>
			</g>
			<text transform="matrix(1 0 0 1 569.924 161)" class="st3 st4 st5">IBM Cloud-Rechnung</text>
			<g id="Page-1_3_" transform="translate(673.000000, 0.000000)">
				<path id="Fill-1_3_" class="st7" d="M0,1v120h80V33L48,1H0L0,1z M4,5h40v32h32v80H4V5L4,5z"/>
				<polygon id="Fill-2_3_" class="st7" points="16,53 64,53 64,49 16,49 				"/>
				<polygon id="Fill-3_3_" class="st7" points="16,61 64,61 64,57 16,57 				"/>
				<polygon id="Fill-4_3_" class="st7" points="16,69 40,69 40,65 16,65 				"/>
			</g>
			<g id="Page-1_4_" transform="translate(1293.000000, 212.000000)">
				<path id="Fill-1_4_" class="st7" d="M0,1v120h80V33L48,1H0L0,1z M4,5h40v32h32v80H4V5L4,5z"/>
				<polygon id="Fill-2_4_" class="st7" points="16,53 64,53 64,49 16,49 				"/>
				<polygon id="Fill-3_4_" class="st7" points="16,61 64,61 64,57 16,57 				"/>
				<polygon id="Fill-4_4_" class="st7" points="16,69 40,69 40,65 16,65 				"/>
			</g>
			<g id="Page-1_5_" transform="translate(386.000000, 317.000000)">
				<g id="Fill-1-Clipped">
					<g>
						<g id="path-1_1_">
						</g>
						<defs>
							<filter id="Adobe_OpacityMaskFilter" filterUnits="userSpaceOnUse" x="0" y="0" width="90" height="90">
								<feColorMatrix  type="matrix" values="1 0 0 0 0  0 1 0 0 0  0 0 1 0 0  0 0 0 1 0"/>
							</filter>
						</defs>
						<mask maskUnits="userSpaceOnUse" x="0" y="0" width="90" height="90" id="mask-2_1_">
							<g class="st8">
								<polygon id="path-1_2_" class="st9" points="90,0 0,0 0,90 90,90 								"/>
							</g>
						</mask>
						<path id="Fill-1_5_" class="st10" d="M79.6,31.6l-9,9C67.8,43.4,64,45,60,45c-1.9,0-3.8-0.3-5.5-1l12.8-12.8l-8.5-8.5L46,35.5
							c-0.6-1.7-1-3.6-1-5.5c0-4,1.6-7.8,4.4-10.6l9-9C61.2,7.6,65,6,69,6s7.8,1.6,10.6,4.4C82.4,13.2,84,17,84,21
							S82.4,28.8,79.6,31.6 M45,60c0,4-1.6,7.8-4.4,10.6l-9,9C28.8,82.4,25,84,21,84s-7.8-1.6-10.6-4.4C7.6,76.8,6,73,6,69
							s1.6-7.8,4.4-10.6l9-9C22.2,46.6,26,45,30,45c1.9,0,3.8,0.3,5.5,1L22.8,58.8l8.5,8.5L44,54.5C44.7,56.2,45,58.1,45,60
							 M83.8,6.2C80,2.4,74.8,0,69,0c-5.8,0-11,2.4-14.8,6.2l-9,9C41.4,19,39,24.2,39,30c0,3.6,0.9,7.1,2.4,10.1l-1.3,1.3
							c-3-1.6-6.5-2.4-10.1-2.4c-5.8,0-11,2.4-14.8,6.2l-9,9C2.4,58,0,63.2,0,69c0,5.8,2.4,11,6.2,14.8C10,87.6,15.2,90,21,90
							s11-2.4,14.9-6.2l9-9C48.6,71,51,65.8,51,60c0-3.6-0.9-7.1-2.4-10.1l1.3-1.3c3,1.6,6.5,2.4,10.1,2.4c5.8,0,11-2.4,14.9-6.1
							l9-9C87.6,32,90,26.8,90,21S87.6,10,83.8,6.2"/>
					</g>
				</g>
			</g>
			<text transform="matrix(1 0 0 1 303.956 441)" class="st3 st4 st5">Konten für IBM Cloud und</text>
			<text transform="matrix(1 0 0 1 308.916 480)" class="st3 st4 st5">Infrastruktur verknüpfen</text>
			<text transform="matrix(1 0 0 1 1189.285 414)" class="st2"><tspan x="0" y="0" class="st3 st11 st12">Für den nächsten Abrechnungs-</tspan><tspan x="0" y="36" class="st3 st11 st12">zyklus erhalten Sie eine einzige </tspan><tspan x="0" y="72" class="st3 st11 st12">IBM Cloud-Rechnung, die Ihre </tspan><tspan x="0" y="108" class="st3 st11 st12">Infrastruktur- und IBM Cloud-</tspan><tspan x="0" y="144" class="st3 st11 st12">Gebühren enthält.</tspan></text>
			<text transform="matrix(1 0 0 1 1246.864 377)" class="st3 st4 st5">IBM Cloud-Rechnung</text>
			
				<g id="Group" transform="translate(842.500000, 368.500000) scale(-1, 1) rotate(-180.000000) translate(-842.500000, -368.500000) translate(477.000000, 365.000000)">
				<path id="Line" class="st13" d="M0.3,3.5H730"/>
				<path id="Line-decoration-1" class="st13" d="M730,0.5v6"/>
			</g>
			<text transform="matrix(1 0 0 1 499.04 203)" class="st14 st11 st12">Nach dem Verknüpfen der Konten</text>
			<text transform="matrix(1 0 0 1 458 235)" class="st14 st11 st12">erhalten Sie eine separate Rechnung</text>
			<text transform="matrix(1 0 0 1 497.385 267)" class="st14 st11 st12">für Ihre IBM Cloud-Nutzung im</text>
			<text transform="matrix(1 0 0 1 569.04 299)" class="st14 st11 st12">laufenden Monat.</text>
			<text transform="matrix(1 0 0 1 708.77 639)" class="st2"><tspan x="0" y="0" class="st3 st11 st12">Möglicherweise erhalten Sie eine separate </tspan><tspan x="0" y="36" class="st3 st11 st12">Rechnung für die Infrastrukturnutzung für den </tspan><tspan x="0" y="72" class="st3 st11 st12">aktuellen Abrechnungszyklus, je nachdem, </tspan><tspan x="0" y="108" class="st3 st11 st12">wann Sie Ihre Konten verknüpft haben.</tspan></text>
			<g id="Group-2" transform="translate(600.000000, 325.000000)">
				<path id="Line_1_" class="st15" d="M2.6,1h217.9"/>
				<path id="Line_2_" class="st16" d="M0,41V0"/>
				<path id="Line-Copy" class="st16" d="M226,41V0"/>
			</g>
			
				<g id="Group-2_1_" transform="translate(965.500000, 388.500000) rotate(180.000000) translate(-965.500000, -388.500000) translate(863.000000, 368.000000)">
				<path id="Line_3_" class="st17" d="M2.1,1h196.1"/>
				<path id="Line_4_" class="st16" d="M0,41V0.8"/>
				<path id="Line-Copy_1_" class="st16" d="M204,41V0.8"/>
			</g>
		</g>
	</g>
</g>
</svg>
