<?xml version="1.0" encoding="utf-8"?>
<!-- Generator: Adobe Illustrator 27.0.1, SVG Export Plug-In . SVG Version: 6.00 Build 0)  -->
<svg version="1.1" id="Layer_1" xmlns="http://www.w3.org/2000/svg" xmlns:xlink="http://www.w3.org/1999/xlink" x="0px" y="0px"
	 viewBox="0 0 1633.7 738.2" style="enable-background:new 0 0 1633.7 738.2;" xml:space="preserve">
<style type="text/css">
	.st0{fill-rule:evenodd;clip-rule:evenodd;stroke:#000000;stroke-linecap:square;stroke-dasharray:1,5,1,1;}
	.st1{fill-rule:evenodd;clip-rule:evenodd;stroke:#000000;stroke-linecap:square;}
	.st2{fill:#8C9BA5;}
	.st3{font-family:'IBMPlexSans-Medm';}
	.st4{font-size:18px;}
	.st5{letter-spacing:1;}
	.st6{letter-spacing:2;}
	.st7{fill:#F0F3F6;}
	.st8{fill:#5AAAFA;}
	.st9{font-family:'IBMPlexSans';}
	.st10{font-size:14px;}
	.st11{opacity:0.75;fill:#3D70B2;enable-background:new    ;}
	.st12{display:none;}
	.st13{font-size:16px;}
	.st14{fill:none;stroke:#979797;stroke-linecap:square;}
	.st15{fill:none;stroke:#000000;stroke-linecap:square;}
	.st16{fill:none;stroke:#000000;stroke-linecap:square;stroke-dasharray:1,5,1,1;}
	.st17{fill:#46535E;}
	.st18{font-size:12px;}
	.st19{display:inline;fill:#46535E;}
	.st20{display:none;fill:#46535E;enable-background:new    ;}
	.st21{display:inline;}
	.st22{fill:#5A6872;}
	.st23{fill:none;stroke:#DFE3E6;stroke-width:2;stroke-linecap:square;}
	.st24{font-family:'IBMPlexSans-Bold';}
</style>
<g id="CF-IAM-IMS_Diagram">
	<g id="diagram">
		<g id="Group">
			<g id="arrows">
				<path id="Line-13" class="st0" d="M571.5,263.5h-192"/>
				<path id="Line-23" class="st1" d="M378.5,263H371"/>
				<path id="Line-23-decoration-1" class="st1" d="M371,263l10.8,3v-6L371,263z"/>
			</g>
			<g id="Group-27">
				<path id="Line-10" class="st0" d="M736.5,286.5v98"/>
				<path id="Line-9" class="st1" d="M736.5,388.6v-1"/>
				<path id="Line-9-decoration-1" class="st1" d="M736.5,388.6l-3-10.8h6L736.5,388.6z"/>
			</g>
			<rect id="Rectangle-1" x="808" class="st2" width="193" height="56"/>
			<g id="Account">
				<text transform="matrix(1 0 0 1 864.04 35)" class="st3 st4 st5">A</text>
				<text transform="matrix(1 0 0 1 877.88 35)" class="st3 st4 st5">cc</text>
				<text transform="matrix(1 0 0 1 899.88 35)" class="st3 st4 st5">ount</text>
			</g>
			<rect x="572" y="230" class="st2" width="193" height="56"/>
			<g id="Access-groups">
				<text transform="matrix(1 0 0 1 596.06 265)" class="st3 st4 st5">A</text>
				<text transform="matrix(1 0 0 1 609.9 265)" class="st3 st4 st5">cc</text>
				<text transform="matrix(1 0 0 1 631.9 265)" class="st3 st4 st5">e</text>
				<text transform="matrix(1 0 0 1 643.83 265)" class="st3 st4 st5">s</text>
				<text transform="matrix(1 0 0 1 654.54 265)" class="st3 st4 st5">s g</text>
				<text transform="matrix(1 0 0 1 683.12 265)" class="st3 st4 st5">r</text>
				<text transform="matrix(1 0 0 1 691.85 265)" class="st3 st4 st5">oups</text>
			</g>
			<rect x="174" y="235" class="st2" width="193" height="56"/>
			<g id="Services">
				<text transform="matrix(1 0 0 1 227.37 270)" class="st3 st4 st5">Se</text>
				<text transform="matrix(1 0 0 1 251.99 270)" class="st3 st4 st6">r</text>
				<text transform="matrix(1 0 0 1 260.98 270)" class="st3 st4 st5">vi</text>
				<text transform="matrix(1 0 0 1 278.81 270)" class="st3 st4 st5">c</text>
				<text transform="matrix(1 0 0 1 289.81 270)" class="st3 st4 st5">es</text>
			</g>
			<rect x="708" y="393" class="st7" width="397" height="271"/>
			<rect x="1193" y="392" class="st7" width="257.2" height="271"/>
			<g id="Group-9">
				<rect x="745" y="495" class="st8" width="82" height="32"/>
				<g>
					<text transform="matrix(1 0 0 1 749.41 516)" class="st9 st10 st5">R</text>
					<text transform="matrix(1 0 0 1 760.08 516)" class="st9 st10 st5">esou</text>
					<text transform="matrix(1 0 0 1 798.05 516)" class="st9 st10 st5">r</text>
					<text transform="matrix(1 0 0 1 805.03 516)" class="st9 st10 st5">c</text>
					<text transform="matrix(1 0 0 1 813.91 516)" class="st9 st10 st5">e</text>
				</g>
			</g>
			<g id="Group-10">
				<rect x="745" y="546" class="st8" width="82" height="32"/>
				<g>
					<text transform="matrix(1 0 0 1 749.41 567)" class="st9 st10 st5">R</text>
					<text transform="matrix(1 0 0 1 760.08 567)" class="st9 st10 st5">esou</text>
					<text transform="matrix(1 0 0 1 798.05 567)" class="st9 st10 st5">r</text>
					<text transform="matrix(1 0 0 1 805.03 567)" class="st9 st10 st5">c</text>
					<text transform="matrix(1 0 0 1 813.91 567)" class="st9 st10 st5">e</text>
				</g>
			</g>
			<g id="Group-11">
				<rect x="745" y="596" class="st8" width="82" height="32"/>
				<g>
					<text transform="matrix(1 0 0 1 749.41 617)" class="st9 st10 st5">R</text>
					<text transform="matrix(1 0 0 1 760.08 617)" class="st9 st10 st5">esou</text>
					<text transform="matrix(1 0 0 1 798.05 617)" class="st9 st10 st5">r</text>
					<text transform="matrix(1 0 0 1 805.03 617)" class="st9 st10 st5">c</text>
					<text transform="matrix(1 0 0 1 813.91 617)" class="st9 st10 st5">e</text>
				</g>
			</g>
			<g id="Group-14">
				<rect x="864" y="495" class="st8" width="82" height="32"/>
				<g>
					<text transform="matrix(1 0 0 1 868.41 516)" class="st9 st10 st5">R</text>
					<text transform="matrix(1 0 0 1 879.08 516)" class="st9 st10 st5">esou</text>
					<text transform="matrix(1 0 0 1 917.05 516)" class="st9 st10 st5">r</text>
					<text transform="matrix(1 0 0 1 924.03 516)" class="st9 st10 st5">c</text>
					<text transform="matrix(1 0 0 1 932.91 516)" class="st9 st10 st5">e</text>
				</g>
			</g>
			<g id="Group-13">
				<rect x="864" y="546" class="st8" width="82" height="32"/>
				<g>
					<text transform="matrix(1 0 0 1 868.41 567)" class="st9 st10 st5">R</text>
					<text transform="matrix(1 0 0 1 879.08 567)" class="st9 st10 st5">esou</text>
					<text transform="matrix(1 0 0 1 917.05 567)" class="st9 st10 st5">r</text>
					<text transform="matrix(1 0 0 1 924.03 567)" class="st9 st10 st5">c</text>
					<text transform="matrix(1 0 0 1 932.91 567)" class="st9 st10 st5">e</text>
				</g>
			</g>
			<g id="Group-12">
				<rect x="864" y="596" class="st8" width="82" height="32"/>
				<g>
					<text transform="matrix(1 0 0 1 868.41 617)" class="st9 st10 st5">R</text>
					<text transform="matrix(1 0 0 1 879.08 617)" class="st9 st10 st5">esou</text>
					<text transform="matrix(1 0 0 1 917.05 617)" class="st9 st10 st5">r</text>
					<text transform="matrix(1 0 0 1 924.03 617)" class="st9 st10 st5">c</text>
					<text transform="matrix(1 0 0 1 932.91 617)" class="st9 st10 st5">e</text>
				</g>
			</g>
			<g id="Group-8">
				<rect x="745" y="445" class="st8" width="82" height="32"/>
				<g>
					<text transform="matrix(1 0 0 1 749.41 466)" class="st9 st10 st5">R</text>
					<text transform="matrix(1 0 0 1 760.08 466)" class="st9 st10 st5">esou</text>
					<text transform="matrix(1 0 0 1 798.05 466)" class="st9 st10 st5">r</text>
					<text transform="matrix(1 0 0 1 805.03 466)" class="st9 st10 st5">c</text>
					<text transform="matrix(1 0 0 1 813.91 466)" class="st9 st10 st5">e</text>
				</g>
			</g>
			<g id="Group-15">
				<rect x="864" y="445" class="st8" width="82" height="32"/>
				<g>
					<text transform="matrix(1 0 0 1 868.41 466)" class="st9 st10 st5">R</text>
					<text transform="matrix(1 0 0 1 879.08 466)" class="st9 st10 st5">esou</text>
					<text transform="matrix(1 0 0 1 917.05 466)" class="st9 st10 st5">r</text>
					<text transform="matrix(1 0 0 1 924.03 466)" class="st9 st10 st5">c</text>
					<text transform="matrix(1 0 0 1 932.91 466)" class="st9 st10 st5">e</text>
				</g>
			</g>
			<g id="Group-16">
				<rect x="982" y="445" class="st8" width="82" height="32"/>
				<g>
					<text transform="matrix(1 0 0 1 985.91 466)" class="st9 st10 st5">R</text>
					<text transform="matrix(1 0 0 1 996.58 466)" class="st9 st10 st5">esou</text>
					<text transform="matrix(1 0 0 1 1034.5499 466)" class="st9 st10 st5">r</text>
					<text transform="matrix(1 0 0 1 1041.53 466)" class="st9 st10 st5">c</text>
					<text transform="matrix(1 0 0 1 1050.4099 466)" class="st9 st10 st5">e</text>
				</g>
			</g>
			<g id="Group-17">
				<rect x="982" y="495" class="st8" width="82" height="32"/>
				<g>
					<text transform="matrix(1 0 0 1 986.41 516)" class="st9 st10 st5">R</text>
					<text transform="matrix(1 0 0 1 997.08 516)" class="st9 st10 st5">esou</text>
					<text transform="matrix(1 0 0 1 1035.0499 516)" class="st9 st10 st5">r</text>
					<text transform="matrix(1 0 0 1 1042.03 516)" class="st9 st10 st5">c</text>
					<text transform="matrix(1 0 0 1 1050.9099 516)" class="st9 st10 st5">e</text>
				</g>
			</g>
			<g id="Group-18">
				<rect x="982" y="546" class="st8" width="82" height="32"/>
				<g>
					<text transform="matrix(1 0 0 1 986.41 567)" class="st9 st10 st5">R</text>
					<text transform="matrix(1 0 0 1 997.08 567)" class="st9 st10 st5">esou</text>
					<text transform="matrix(1 0 0 1 1035.0499 567)" class="st9 st10 st5">r</text>
					<text transform="matrix(1 0 0 1 1042.03 567)" class="st9 st10 st5">c</text>
					<text transform="matrix(1 0 0 1 1050.9099 567)" class="st9 st10 st5">e</text>
				</g>
			</g>
			<g id="Group-19">
				<rect x="982" y="596" class="st8" width="82" height="32"/>
				<g>
					<text transform="matrix(1 0 0 1 986.41 617)" class="st9 st10 st5">R</text>
					<text transform="matrix(1 0 0 1 997.08 617)" class="st9 st10 st5">esou</text>
					<text transform="matrix(1 0 0 1 1035.0499 617)" class="st9 st10 st5">r</text>
					<text transform="matrix(1 0 0 1 1042.03 617)" class="st9 st10 st5">c</text>
					<text transform="matrix(1 0 0 1 1050.9099 617)" class="st9 st10 st5">e</text>
				</g>
			</g>
			<rect x="1220" y="436" class="st11" width="203.1" height="56"/>
			<rect x="1220" y="509" class="st11" width="203.1" height="56"/>
			<rect x="1220" y="582" class="st11" width="203.1" height="56"/>
			<g id="Monitoring-IaaS" class="st12">
			</g>
			<g id="Configuration-of-Iaa">
			</g>
			<path id="Line" class="st1" d="M904.5,56.5v81"/>
			<path id="Line-decoration-1" class="st1" d="M904.5,137.5l3-10.8h-6L904.5,137.5z"/>
			<path class="st1" d="M1352,123.5V196"/>
			<path class="st1" d="M1352,196l3-10.8h-6L1352,196z"/>
			<g id="Resource-Group">
				<text transform="matrix(1 0 0 1 830.46 418)" class="st3 st13 st5">R</text>
				<text transform="matrix(1 0 0 1 842.89 418)" class="st3 st13 st6">esou</text>
				<text transform="matrix(1 0 0 1 886.76 418)" class="st3 st13 st6">r</text>
				<text transform="matrix(1 0 0 1 895 418)" class="st3 st13 st6">c</text>
				<text transform="matrix(1 0 0 1 905.26 418)" class="st3 st13 st6">e G</text>
				<text transform="matrix(1 0 0 1 935.79 418)" class="st3 st13 st6">r</text>
				<text transform="matrix(1 0 0 1 944.03 418)" class="st3 st13 st6">oup</text>
			</g>
			<path id="Line-7" class="st1" d="M836.5,264.5h-66"/>
			<path id="Line-7-decoration-1" class="st1" d="M770.5,264.5l10.8,3v-6L770.5,264.5z"/>
			<g id="Group-25">
				<path id="Line-8" class="st0" d="M907.5,199.5v181"/>
				<path class="st1" d="M907.5,388.6v-1"/>
				<path class="st1" d="M907.5,388.6l-3-10.8h6L907.5,388.6z"/>
			</g>
			<path id="Line-17" class="st14" d="M1631.5,725.5l1.5,1.5"/>
			<path id="Line-15" class="st15" d="M1449.5,97.5h182"/>
			<path id="Line-16" class="st15" d="M1631.5,97.5v627"/>
			<path id="Line-18" class="st15" d="M1631.5,724.5h-1005"/>
			<path id="Line-19" class="st1" d="M626.5,724.5v-433"/>
			<path id="Line-19-decoration-1" class="st1" d="M626.5,291.5l-3,10.8h6L626.5,291.5z"/>
			<g id="Group-20">
				<path class="st0" d="M933,725v-54"/>
				<path class="st1" d="M933,672v-1"/>
				<path class="st1" d="M933,671l-3,10.8h6L933,671z"/>
			</g>
			<g id="Group-21">
				<path id="Line-20" class="st0" d="M1029.5,724.5v-90"/>
				<path class="st1" d="M1029.5,633.3v-1"/>
				<path id="Line-20-decoration-1" class="st1" d="M1029.5,632.3l-3,10.8h6L1029.5,632.3z"/>
			</g>
			<path id="Line-6" class="st0" d="M267.5,185.5v36"/>
			<path class="st1" d="M267.5,230.5v1"/>
			<path id="Line-6-decoration-1" class="st1" d="M267.5,231.5l3-10.8h-6L267.5,231.5z"/>
			<path id="Line-21" class="st16" d="M807.5,185.5h-540"/>
			<path id="Line-24" class="st1" d="M172.5,259.5h-49"/>
			<path id="Line-24-decoration-1" class="st1" d="M123.5,259.5l10.8,3v-6L123.5,259.5z"/>
			<path id="Line-2" class="st1" d="M1347.5,25.5v36"/>
			<path id="Line-2-decoration-1" class="st1" d="M1347.5,61.5l3-10.8h-6L1347.5,61.5z"/>
			<path id="Line-25" class="st15" d="M1001.5,25.5h345"/>
			<g id="Group-24">
				<path class="st0" d="M1025.5,334.5v96"/>
				<path class="st1" d="M1025.5,441.6v-1"/>
				<path class="st1" d="M1025.5,441.6l-3-10.8h6L1025.5,441.6z"/>
			</g>
			<path id="Line-26" class="st16" d="M1025.5,334.5h-59"/>
			<path id="Line-27" class="st0" d="M966.5,199.5v135"/>
			<g id="Group-28">
				<path id="Line-11" class="st0" d="M667.5,459.5h65"/>
				<path class="st1" d="M738,459h1"/>
				<path class="st1" d="M739,459l-10.8-3v6L739,459z"/>
			</g>
			<path class="st0" d="M667.5,286.5v173"/>
			<path class="st1" d="M836.5,200.5v64"/>
			<path id="Line-3" class="st1" d="M1181.5,231.5h69"/>
			<path id="Line-3-decoration-1" class="st1" d="M1250.5,231.5l-10.8-3v6L1250.5,231.5z"/>
			<path class="st15" d="M1181.5,166.5h-181"/>
			<path class="st15" d="M1181.5,167.5v63"/>
			<g id="Group-26">
				<path class="st1" d="M1255.5,385.6v-1"/>
				<path class="st1" d="M1320.5,385.6l-3-10.8h6L1320.5,385.6z"/>
				<path id="Line-14" class="st0" d="M1320.5,322.5v52"/>
			</g>
			<path class="st0" d="M1127.5,184.5h-127"/>
			<path class="st16" d="M1255.5,321.5h-127"/>
			<path class="st0" d="M1128.5,184.5v137"/>
			<g id="Users-are-a-member-o">
				<g>
					<text transform="matrix(1 0 0 1 21 103)" class="st17 st9 st18">Users a</text>
					<text transform="matrix(1 0 0 1 61.06 103)" class="st17 st9 st18">r</text>
					<text transform="matrix(1 0 0 1 65.4 103)" class="st17 st9 st18">e a member </text>
					<text transform="matrix(1 0 0 1 132.38 103)" class="st17 st9 st18">o</text>
					<text transform="matrix(1 0 0 1 139.03 103)" class="st17 st9 st18">f an o</text>
					<text transform="matrix(1 0 0 1 168.53 103)" class="st17 st9 st18">r</text>
					<text transform="matrix(1 0 0 1 172.65 103)" class="st17 st9 st18">g and can be</text>
				</g>
				<g>
					<text transform="matrix(1 0 0 1 21 118)" class="st17 st9 st18">a</text>
					<text transform="matrix(1 0 0 1 27.41 118)" class="st17 st9 st18">s</text>
					<text transform="matrix(1 0 0 1 33.18 118)" class="st17 st9 st18">signed </text>
					<text transform="matrix(1 0 0 1 71.56 118)" class="st17 st9 st18">t</text>
					<text transform="matrix(1 0 0 1 75.72 118)" class="st17 st9 st18">o a spa</text>
					<text transform="matrix(1 0 0 1 113.72 118)" class="st17 st9 st18">c</text>
					<text transform="matrix(1 0 0 1 119.69 118)" class="st17 st9 st18">e within an o</text>
					<text transform="matrix(1 0 0 1 187.77 118)" class="st17 st9 st18">r</text>
					<text transform="matrix(1 0 0 1 191.9 118)" class="st17 st9 st18">g without</text>
				</g>
				<g>
					<text transform="matrix(1 0 0 1 21 133)" class="st17 st9 st18">h</text>
					<text transform="matrix(1 0 0 1 27.82 133)" class="st17 st9 st18">a</text>
					<text transform="matrix(1 0 0 1 34.13 133)" class="st17 st9 st18">ving an o</text>
					<text transform="matrix(1 0 0 1 81.79 133)" class="st17 st9 st18">r</text>
					<text transform="matrix(1 0 0 1 85.92 133)" class="st17 st9 st18">g </text>
					<text transform="matrix(1 0 0 1 95.09 133)" class="st17 st9 st18">r</text>
					<text transform="matrix(1 0 0 1 99.43 133)" class="st17 st9 st18">ol</text>
					<text transform="matrix(1 0 0 1 109.42 133)" class="st17 st9 st18">e</text>
					<text transform="matrix(1 0 0 1 115.76 133)" class="st17 st9 st18">.</text>
				</g>
			</g>
			<g id="Services-can-be-Clou">
				<g>
					<text transform="matrix(1 0 0 1 31 256)" class="st17 st9 st18">Se</text>
					<text transform="matrix(1 0 0 1 44.56 256)" class="st17 st9 st18">r</text>
					<text transform="matrix(1 0 0 1 49.08 256)" class="st17 st9 st18">vi</text>
					<text transform="matrix(1 0 0 1 57.99 256)" class="st17 st9 st18">c</text>
					<text transform="matrix(1 0 0 1 63.95 256)" class="st17 st9 st18">es can be</text>
				</g>
				<g class="st12">
					<text transform="matrix(1 0 0 1 31 256)" class="st19 st9 st18">Cloud </text>
					<text transform="matrix(1 0 0 1 65.04 256)" class="st19 st9 st18">F</text>
					<text transform="matrix(1 0 0 1 71.45 256)" class="st19 st9 st18">ound</text>
					<text transform="matrix(1 0 0 1 98.76 256)" class="st19 st9 st18">r</text>
					<text transform="matrix(1 0 0 1 103.29 256)" class="st19 st9 st18">y</text>
					<text transform="matrix(1 0 0 1 109.15 256)" class="st19 st9 st18">-</text>
				</g>
				<g>
					<text transform="matrix(1 0 0 1 17 271)" class="st20 st9 st18">or </text>
					<text transform="matrix(1 0 0 1 30.96 271)" class="st17 st9 st18">r</text>
					<text transform="matrix(1 0 0 1 35.3 271)" class="st17 st9 st18">esou</text>
					<text transform="matrix(1 0 0 1 61.27 271)" class="st17 st9 st18">r</text>
					<text transform="matrix(1 0 0 1 65.61 271)" class="st17 st9 st18">c</text>
					<text transform="matrix(1 0 0 1 71.58 271)" class="st17 st9 st18">e</text>
				</g>
				<g>
					<text transform="matrix(1 0 0 1 31 286)" class="st17 st9 st18">g</text>
					<text transform="matrix(1 0 0 1 37.34 286)" class="st17 st9 st18">r</text>
					<text transform="matrix(1 0 0 1 41.68 286)" class="st17 st9 st18">ou</text>
					<text transform="matrix(1 0 0 1 55.22 286)" class="st17 st9 st18">p</text>
					<text transform="matrix(1 0 0 1 62.3 286)" class="st17 st9 st18">-based.</text>
				</g>
			</g>
			<g id="Access-can-be-grante" class="st12">
				<g class="st21">
					<text transform="matrix(1 0 0 1 121 335)" class="st17 st9 st18">A</text>
					<text transform="matrix(1 0 0 1 128.69 335)" class="st17 st9 st18">cc</text>
					<text transform="matrix(1 0 0 1 140.62 335)" class="st17 st9 st18">e</text>
					<text transform="matrix(1 0 0 1 147.21 335)" class="st17 st9 st18">s</text>
					<text transform="matrix(1 0 0 1 152.98 335)" class="st17 st9 st18">s can be g</text>
					<text transform="matrix(1 0 0 1 206.46 335)" class="st17 st9 st18">r</text>
					<text transform="matrix(1 0 0 1 210.82 335)" class="st17 st9 st18">an</text>
					<text transform="matrix(1 0 0 1 224.04 335)" class="st17 st9 st18">t</text>
					<text transform="matrix(1 0 0 1 228.21 335)" class="st17 st9 st18">ed </text>
					<text transform="matrix(1 0 0 1 244.59 335)" class="st17 st9 st18">t</text>
					<text transform="matrix(1 0 0 1 248.75 335)" class="st17 st9 st18">o</text>
				</g>
				<g class="st21">
					<text transform="matrix(1 0 0 1 121 350)" class="st17 st9 st18">se</text>
					<text transform="matrix(1 0 0 1 133.43 350)" class="st17 st9 st18">r</text>
					<text transform="matrix(1 0 0 1 137.96 350)" class="st17 st9 st18">vi</text>
					<text transform="matrix(1 0 0 1 146.86 350)" class="st17 st9 st18">c</text>
					<text transform="matrix(1 0 0 1 152.82 350)" class="st17 st9 st18">e in</text>
					<text transform="matrix(1 0 0 1 172.06 350)" class="st17 st9 st18">s</text>
					<text transform="matrix(1 0 0 1 177.82 350)" class="st17 st9 st18">tan</text>
					<text transform="matrix(1 0 0 1 195.26 350)" class="st17 st9 st18">c</text>
					<text transform="matrix(1 0 0 1 201.22 350)" class="st17 st9 st18">es th</text>
					<text transform="matrix(1 0 0 1 227.51 350)" class="st17 st9 st18">r</text>
					<text transform="matrix(1 0 0 1 231.85 350)" class="st17 st9 st18">ough</text>
				</g>
				<g class="st21">
					<text transform="matrix(1 0 0 1 121 365)" class="st17 st9 st18">spa</text>
					<text transform="matrix(1 0 0 1 140.21 365)" class="st17 st9 st18">c</text>
					<text transform="matrix(1 0 0 1 146.18 365)" class="st17 st9 st18">e </text>
					<text transform="matrix(1 0 0 1 155.6 365)" class="st17 st9 st18">r</text>
					<text transform="matrix(1 0 0 1 159.94 365)" class="st17 st9 st18">oles on</text>
					<text transform="matrix(1 0 0 1 198.72 365)" class="st17 st9 st18">l</text>
					<text transform="matrix(1 0 0 1 201.87 365)" class="st17 st9 st18">y</text>
					<text transform="matrix(1 0 0 1 207.2 365)" class="st17 st9 st18">.</text>
				</g>
			</g>
			<g id="Users-and-service-ID">
				<g>
					<text transform="matrix(1 0 0 1 754 315)" class="st17 st9 st18">Users and se</text>
					<text transform="matrix(1 0 0 1 823.1 315)" class="st17 st9 st18">r</text>
					<text transform="matrix(1 0 0 1 827.62 315)" class="st17 st9 st18">vi</text>
					<text transform="matrix(1 0 0 1 836.52 315)" class="st17 st9 st18">c</text>
					<text transform="matrix(1 0 0 1 842.49 315)" class="st17 st9 st18">e IDs can</text>
				</g>
				<g>
					<text transform="matrix(1 0 0 1 754 330)" class="st17 st9 st18">be g</text>
					<text transform="matrix(1 0 0 1 776.72 330)" class="st17 st9 st18">r</text>
					<text transform="matrix(1 0 0 1 781.07 330)" class="st17 st9 st18">an</text>
					<text transform="matrix(1 0 0 1 794.3 330)" class="st17 st9 st18">t</text>
					<text transform="matrix(1 0 0 1 798.46 330)" class="st17 st9 st18">ed a</text>
					<text transform="matrix(1 0 0 1 821.25 330)" class="st17 st9 st18">cc</text>
					<text transform="matrix(1 0 0 1 833.17 330)" class="st17 st9 st18">e</text>
					<text transform="matrix(1 0 0 1 839.76 330)" class="st17 st9 st18">s</text>
					<text transform="matrix(1 0 0 1 845.54 330)" class="st17 st9 st18">s </text>
					<text transform="matrix(1 0 0 1 854.21 330)" class="st17 st9 st18">t</text>
					<text transform="matrix(1 0 0 1 858.38 330)" class="st17 st9 st18">o</text>
				</g>
				<g>
					<text transform="matrix(1 0 0 1 754 345)" class="st17 st9 st18">individual </text>
					<text transform="matrix(1 0 0 1 808.96 345)" class="st17 st9 st18">r</text>
					<text transform="matrix(1 0 0 1 813.3 345)" class="st17 st9 st18">esou</text>
					<text transform="matrix(1 0 0 1 839.27 345)" class="st17 st9 st18">r</text>
					<text transform="matrix(1 0 0 1 843.61 345)" class="st17 st9 st18">c</text>
					<text transform="matrix(1 0 0 1 849.58 345)" class="st17 st9 st18">es or a</text>
					<text transform="matrix(1 0 0 1 885.21 345)" class="st17 st9 st18">l</text>
					<text transform="matrix(1 0 0 1 888.41 345)" class="st17 st9 st18">l</text>
				</g>
				<g>
					<text transform="matrix(1 0 0 1 754 360)" class="st17 st9 st18">r</text>
					<text transform="matrix(1 0 0 1 758.34 360)" class="st17 st9 st18">esou</text>
					<text transform="matrix(1 0 0 1 784.31 360)" class="st17 st9 st18">r</text>
					<text transform="matrix(1 0 0 1 788.66 360)" class="st17 st9 st18">c</text>
					<text transform="matrix(1 0 0 1 794.62 360)" class="st17 st9 st18">es within a</text>
				</g>
				<g>
					<text transform="matrix(1 0 0 1 754 375)" class="st17 st9 st18">r</text>
					<text transform="matrix(1 0 0 1 758.34 375)" class="st17 st9 st18">esou</text>
					<text transform="matrix(1 0 0 1 784.31 375)" class="st17 st9 st18">r</text>
					<text transform="matrix(1 0 0 1 788.66 375)" class="st17 st9 st18">c</text>
					<text transform="matrix(1 0 0 1 794.62 375)" class="st17 st9 st18">e g</text>
					<text transform="matrix(1 0 0 1 810.38 375)" class="st17 st9 st18">r</text>
					<text transform="matrix(1 0 0 1 814.72 375)" class="st17 st9 st18">ou</text>
					<text transform="matrix(1 0 0 1 828.26 375)" class="st17 st9 st18">p</text>
					<text transform="matrix(1 0 0 1 834.98 375)" class="st17 st9 st18">.</text>
				</g>
			</g>
			<g id="Service-IDs-can-be-g">
				<g>
					<text transform="matrix(1 0 0 1 1464 118)" class="st17 st9 st18">Se</text>
					<text transform="matrix(1 0 0 1 1477.5601 118)" class="st17 st9 st18">r</text>
					<text transform="matrix(1 0 0 1 1482.08 118)" class="st17 st9 st18">vi</text>
					<text transform="matrix(1 0 0 1 1490.99 118)" class="st17 st9 st18">c</text>
					<text transform="matrix(1 0 0 1 1496.95 118)" class="st17 st9 st18">e IDs can be</text>
				</g>
				<g>
					<text transform="matrix(1 0 0 1 1464 133)" class="st17 st9 st18">g</text>
					<text transform="matrix(1 0 0 1 1470.34 133)" class="st17 st9 st18">r</text>
					<text transform="matrix(1 0 0 1 1474.6899 133)" class="st17 st9 st18">an</text>
					<text transform="matrix(1 0 0 1 1487.92 133)" class="st17 st9 st18">t</text>
					<text transform="matrix(1 0 0 1 1492.08 133)" class="st17 st9 st18">ed the same</text>
				</g>
				<g>
					<text transform="matrix(1 0 0 1 1464 148)" class="st17 st9 st18">a</text>
					<text transform="matrix(1 0 0 1 1470.41 148)" class="st17 st9 st18">cc</text>
					<text transform="matrix(1 0 0 1 1482.34 148)" class="st17 st9 st18">e</text>
					<text transform="matrix(1 0 0 1 1488.92 148)" class="st17 st9 st18">s</text>
					<text transform="matrix(1 0 0 1 1494.7 148)" class="st17 st9 st18">s as users </text>
					<text transform="matrix(1 0 0 1 1550.78 148)" class="st17 st9 st18">f</text>
					<text transform="matrix(1 0 0 1 1554.62 148)" class="st17 st9 st18">or</text>
				</g>
				<g>
					<text transform="matrix(1 0 0 1 1464 163)" class="st17 st9 st18">r</text>
					<text transform="matrix(1 0 0 1 1468.34 163)" class="st17 st9 st18">esou</text>
					<text transform="matrix(1 0 0 1 1494.3101 163)" class="st17 st9 st18">r</text>
					<text transform="matrix(1 0 0 1 1498.66 163)" class="st17 st9 st18">c</text>
					<text transform="matrix(1 0 0 1 1504.62 163)" class="st17 st9 st18">e g</text>
					<text transform="matrix(1 0 0 1 1520.38 163)" class="st17 st9 st18">r</text>
					<text transform="matrix(1 0 0 1 1524.72 163)" class="st17 st9 st18">ou</text>
					<text transform="matrix(1 0 0 1 1538.26 163)" class="st17 st9 st18">p</text>
					<text transform="matrix(1 0 0 1 1545.34 163)" class="st17 st9 st18">-based</text>
				</g>
				<g>
					<text transform="matrix(1 0 0 1 1464 178)" class="st17 st9 st18">se</text>
					<text transform="matrix(1 0 0 1 1476.4301 178)" class="st17 st9 st18">r</text>
					<text transform="matrix(1 0 0 1 1480.96 178)" class="st17 st9 st18">vi</text>
					<text transform="matrix(1 0 0 1 1489.86 178)" class="st17 st9 st18">c</text>
					<text transform="matrix(1 0 0 1 1495.8199 178)" class="st17 st9 st18">e</text>
					<text transform="matrix(1 0 0 1 1502.41 178)" class="st17 st9 st18">s</text>
					<text transform="matrix(1 0 0 1 1508.2 178)" class="st17 st9 st18">.</text>
				</g>
			</g>
		</g>
		<rect x="808" y="144" class="st2" width="193" height="56"/>
		<g id="Users">
			<text transform="matrix(1 0 0 1 876.43 179)" class="st3 st4 st5">Users</text>
		</g>
		<rect x="1258" y="200" class="st2" width="193" height="56"/>
		<g id="API-keys">
			<text transform="matrix(1 0 0 1 1310.09 235)" class="st3 st4 st5">API </text>
			<text transform="matrix(1 0 0 1 1352.73 235)" class="st3 st4 st5">k</text>
			<text transform="matrix(1 0 0 1 1364.13 235)" class="st3 st4 st5">ey</text>
			<text transform="matrix(1 0 0 1 1387.02 235)" class="st3 st4 st5">s</text>
		</g>
		<rect x="1256" y="68" class="st2" width="193" height="56"/>
		<g id="Service-IDs">
			<text transform="matrix(1 0 0 1 1294.35 103)" class="st3 st4 st5">Se</text>
			<text transform="matrix(1 0 0 1 1318.97 103)" class="st3 st4 st6">r</text>
			<text transform="matrix(1 0 0 1 1327.96 103)" class="st3 st4 st5">vi</text>
			<text transform="matrix(1 0 0 1 1345.7899 103)" class="st3 st4 st5">c</text>
			<text transform="matrix(1 0 0 1 1356.7899 103)" class="st3 st4 st5">e IDs</text>
		</g>
	</g>
	<g id="key">
		<g id="access">
			<text transform="matrix(1 0 0 1 195 632)" class="st22 st9 st10">a</text>
			<text transform="matrix(1 0 0 1 202.48 632)" class="st22 st9 st10">cc</text>
			<text transform="matrix(1 0 0 1 216.39 632)" class="st22 st9 st10">e</text>
			<text transform="matrix(1 0 0 1 224.08 632)" class="st22 st9 st10">s</text>
			<text transform="matrix(1 0 0 1 230.81 632)" class="st22 st9 st10">s</text>
		</g>
		<g id="membership">
			<text transform="matrix(1 0 0 1 195 602)" class="st22 st9 st10">membership</text>
		</g>
		<path class="st23" d="M119,553.3v120.4"/>
		<g id="Key-2">
			<text transform="matrix(1 0 0 1 144 568)" class="st22 st24 st13">K</text>
			<text transform="matrix(1 0 0 1 154.74 568)" class="st22 st24 st13">e</text>
			<text transform="matrix(1 0 0 1 163.62 568)" class="st22 st24 st13">y</text>
		</g>
		<path class="st1" d="M144,601h24"/>
		<path id="Line-14-Copy" class="st0" d="M144,631h24"/>
	</g>
</g>
<text transform="matrix(1 0 0 1 1224 418)" class="st3 st13 st5">Cla</text>
<text transform="matrix(1 0 0 1 1252.29 418)" class="st3 st13 st5">s</text>
<text transform="matrix(1 0 0 1 1261.7 418)" class="st3 st13 st5">sic Inf</text>
<text transform="matrix(1 0 0 1 1318.35 418)" class="st3 st13 st5">r</text>
<text transform="matrix(1 0 0 1 1325.95 418)" class="st3 st13 st5">a</text>
<text transform="matrix(1 0 0 1 1336.33 418)" class="st3 st13 st5">s</text>
<text transform="matrix(1 0 0 1 1345.73 418)" class="st3 st13 st5">tructu</text>
<text transform="matrix(1 0 0 1 1399.85 418)" class="st3 st13 st5">r</text>
<text transform="matrix(1 0 0 1 1407.5 418)" class="st3 st13 st5">e</text>
<text transform="matrix(1 0 0 1 1240.6899 462.19)" class="st9 st10 st5">Cla</text>
<text transform="matrix(1 0 0 1 1264.87 462.19)" class="st9 st10 st5">s</text>
<text transform="matrix(1 0 0 1 1273 462.19)" class="st9 st10 st5">sic inf</text>
<text transform="matrix(1 0 0 1 1319.45 462.19)" class="st9 st10 st5">r</text>
<text transform="matrix(1 0 0 1 1325.9399 462.19)" class="st9 st10 st5">a</text>
<text transform="matrix(1 0 0 1 1334.8099 462.19)" class="st9 st10 st5">s</text>
<text transform="matrix(1 0 0 1 1342.9299 462.19)" class="st9 st10 st5">tructu</text>
<text transform="matrix(1 0 0 1 1389.24 462.19)" class="st9 st10 st5">r</text>
<text transform="matrix(1 0 0 1 1395.71 462.19)" class="st9 st10 st5">e </text>
<text transform="matrix(1 0 0 1 1291.33 478.99)" class="st9 st10 st5">se</text>
<text transform="matrix(1 0 0 1 1308.6299 478.99)" class="st9 st10 st5">r</text>
<text transform="matrix(1 0 0 1 1315.3099 478.99)" class="st9 st10 st5">vi</text>
<text transform="matrix(1 0 0 1 1328.5 478.99)" class="st9 st10 st5">c</text>
<text transform="matrix(1 0 0 1 1336.86 478.99)" class="st9 st10 st5">es</text>
<text transform="matrix(1 0 0 1 1289.5 542)" class="st9 st10 st5">D</text>
<text transform="matrix(1 0 0 1 1300.29 542)" class="st9 st10 st5">e</text>
<text transform="matrix(1 0 0 1 1309.27 542)" class="st9 st10 st5">vi</text>
<text transform="matrix(1 0 0 1 1322.46 542)" class="st9 st10 st5">c</text>
<text transform="matrix(1 0 0 1 1330.8101 542)" class="st9 st10 st5">es</text>
<text transform="matrix(1 0 0 1 1272.41 614)" class="st9 st10 st5">VPN subnets</text>
<line class="st16" x1="1255.5" y1="321.5" x2="1320.5" y2="321.5"/>
<path class="st17" d="M1342.1,330.1v-3.3l-2.9-5.1h1.2l2.2,4l0,0l2.2-4h1.2l-2.9,5v3.4L1342.1,330.1z"/>
<path class="st17" d="M1346.2,327c0-2,1.1-3.2,2.8-3.2s2.8,1.3,2.8,3.2s-1.1,3.2-2.8,3.2S1346.2,329,1346.2,327z M1350.7,327.5v-0.9
	c0.1-1-0.6-1.8-1.6-1.9c-1-0.1-1.8,0.6-1.9,1.6c0,0.1,0,0.3,0,0.4v0.9c-0.1,1,0.6,1.8,1.6,1.9c1,0.1,1.8-0.6,1.9-1.6
	C1350.7,327.7,1350.7,327.6,1350.7,327.5z"/>
<path class="st17" d="M1357.1,329.1L1357.1,329.1c-0.3,0.7-1,1.2-1.7,1.1c-1.3,0-2.1-0.9-2.1-2.4v-4h1v3.8c0,1.1,0.5,1.7,1.4,1.7
	c0.8,0,1.5-0.4,1.5-1.2v-4.3h1v6.2h-1L1357.1,329.1z"/>
<path class="st17" d="M1362.5,327c0-2,1-3.2,2.8-3.2c1-0.1,1.9,0.5,2.3,1.5l-0.8,0.4c-0.2-0.6-0.8-1-1.5-1c-0.9,0-1.7,0.7-1.7,1.6
	c0,0.1,0,0.2,0,0.3v1c-0.1,0.9,0.5,1.7,1.4,1.8c0.1,0,0.2,0,0.3,0c0.7,0,1.4-0.4,1.7-1.1l0.7,0.5c-0.4,0.9-1.4,1.5-2.4,1.5
	C1363.5,330.3,1362.5,329,1362.5,327z"/>
<path class="st17" d="M1373.5,330.1c-0.6,0-1-0.4-1.1-0.9c0,0,0,0,0-0.1l0,0c-0.3,0.7-1,1.2-1.8,1.1c-1,0.1-1.9-0.6-2.1-1.6
	c0-0.1,0-0.2,0-0.3c0-1.2,0.8-1.8,2.6-1.8h1.2V326c0-0.9-0.5-1.4-1.5-1.4c-0.7,0-1.3,0.3-1.6,0.9l-0.6-0.5c0.4-0.8,1.3-1.3,2.2-1.2
	c1.5,0,2.4,0.8,2.4,2.1v3.4h0.7v0.8L1373.5,330.1z M1372.4,328.3v-1h-1.3c-1.1,0-1.6,0.3-1.6,0.9v0.2c0,0.6,0.5,1,1.2,1
	C1371.7,329.5,1372.4,329,1372.4,328.3L1372.4,328.3z"/>
<path class="st17" d="M1375.4,330.1v-6.2h1v1h0.1c0.3-0.7,1-1.2,1.8-1.1c1.3,0,2.1,0.9,2.1,2.4v4h-1v-3.8c0-1.1-0.5-1.7-1.4-1.7
	c-0.8,0-1.5,0.4-1.5,1.2v4.3L1375.4,330.1z"/>
<path class="st17" d="M1387.3,332.7c-1.9,0-2.7-0.5-2.7-1.5c0-0.6,0.4-1.1,1-1.2v-0.1c-0.3-0.1-0.6-0.5-0.6-0.9
	c0-0.6,0.4-0.9,1.1-1.1l0,0c-0.7-0.3-1.2-1.1-1.2-1.9c0-1.2,0.9-2.1,2.1-2.1c0.1,0,0.2,0,0.2,0c0.4,0,0.8,0.1,1.2,0.2V324
	c0-0.5,0.2-0.8,0.7-0.8h0.9v0.8h-1.2v0.4c0.5,0.4,0.7,1,0.7,1.6c0,1.2-0.9,2.1-2.1,2.2c-0.1,0-0.2,0-0.2,0c-0.2,0-0.4,0-0.6-0.1
	c-0.4,0.1-0.8,0.3-0.8,0.7s0.4,0.5,0.9,0.5h1.3c1.5,0,2.2,0.6,2.2,1.6C1390.3,332.1,1389.3,332.7,1387.3,332.7z M1388.1,330.1h-2.1
	c-0.4,0.1-0.6,0.5-0.6,0.8c0,0.5,0.4,1,1.3,1h0.9c1.1,0,1.7-0.3,1.7-1C1389.4,330.4,1389.1,330.1,1388.1,330.1L1388.1,330.1z
	 M1388.6,326.1v-0.3c0-0.8-0.5-1.2-1.3-1.2s-1.3,0.4-1.3,1.2v0.3c0,0.8,0.5,1.2,1.3,1.2S1388.6,326.9,1388.6,326.1L1388.6,326.1z"/>
<path class="st17" d="M1391.4,330.1v-6.2h1v1.1h0.1c0.3-0.7,1-1.2,1.8-1.1h0.4v1h-0.6c-1,0-1.7,0.4-1.7,1v4.2L1391.4,330.1z"/>
<path class="st17" d="M1400.2,330.1c-0.6,0-1-0.4-1.1-0.9c0,0,0,0,0-0.1h-0.1c-0.3,0.7-1,1.2-1.8,1.1c-1,0.1-1.9-0.6-2.1-1.6
	c0-0.1,0-0.2,0-0.3c0-1.2,0.8-1.8,2.6-1.8h1.2V326c0-0.9-0.5-1.4-1.5-1.4c-0.7,0-1.3,0.3-1.6,0.9l-0.6-0.5c0.4-0.8,1.3-1.3,2.2-1.2
	c1.5,0,2.4,0.8,2.4,2.1v3.4h0.7v0.8L1400.2,330.1z M1399.1,328.3v-1h-1.3c-1.1,0-1.6,0.3-1.6,0.9v0.2c0,0.6,0.5,1,1.2,1
	C1398.4,329.5,1399.1,329,1399.1,328.3L1399.1,328.3z"/>
<path class="st17" d="M1402.2,330.1v-6.2h1v1h0.1c0.3-0.7,1-1.2,1.8-1.1c1.3,0,2.1,0.9,2.1,2.4v4h-1v-3.8c0-1.1-0.5-1.7-1.4-1.7
	s-1.5,0.4-1.5,1.2v4.3L1402.2,330.1z"/>
<path class="st17" d="M1410.3,330.1c-0.5,0-1-0.4-1-0.9c0,0,0-0.1,0-0.1v-4.3h-1V324h0.6c0.4,0,0.5-0.1,0.5-0.6v-1.1h0.9v1.7h1.3
	v0.8h-1.3v4.5h1.2v0.8L1410.3,330.1z"/>
<path class="st17" d="M1419.8,329.1L1419.8,329.1c-0.3,0.7-1,1.2-1.7,1.1c-1.3,0-2.1-0.9-2.1-2.4v-4h1v3.8c0,1.1,0.5,1.7,1.4,1.7
	c0.8,0,1.5-0.4,1.5-1.2v-4.3h1v6.2h-1L1419.8,329.1z"/>
<path class="st17" d="M1422.2,329.1l0.7-0.5c0.4,0.6,1.1,0.9,1.8,1c0.8,0,1.3-0.4,1.3-1c0-0.5-0.3-0.9-1.1-1l-0.5-0.1
	c-1.1-0.2-2-0.6-2-1.8s1-1.8,2.2-1.8c0.8,0,1.6,0.3,2.2,1l-0.6,0.6c-0.4-0.5-1-0.8-1.6-0.8c-0.8,0-1.2,0.4-1.2,1s0.4,0.8,1.2,1
	l0.5,0.1c1.4,0.2,1.9,0.8,1.9,1.7c0,1.2-0.9,1.9-2.3,1.9C1423.7,330.4,1422.8,329.9,1422.2,329.1z"/>
<path class="st17" d="M1428.2,327c0-2,1.1-3.2,2.8-3.2s2.7,1.3,2.7,3v0.5h-4.4v0.3c-0.1,1,0.7,1.8,1.6,1.9c0.1,0,0.1,0,0.2,0
	c0.7,0,1.4-0.4,1.7-1.1l0.7,0.5c-0.5,0.9-1.4,1.5-2.4,1.4C1429.3,330.3,1428.2,329,1428.2,327z M1429.2,326.4L1429.2,326.4l3.4,0.1
	v-0.1c0.1-0.9-0.5-1.7-1.5-1.8c-0.1,0-0.1,0-0.2,0c-1,0-1.8,0.8-1.8,1.7C1429.2,326.4,1429.2,326.4,1429.2,326.4L1429.2,326.4z"/>
<path class="st17" d="M1435.3,330.1v-6.2h1v1.1h0.1c0.3-0.7,1-1.2,1.8-1.1h0.4v1h-0.6c-1,0-1.7,0.4-1.7,1v4.2L1435.3,330.1z"/>
<path class="st17" d="M1439.1,329.1l0.7-0.5c0.4,0.6,1.1,0.9,1.8,1c0.8,0,1.3-0.4,1.3-1c0-0.5-0.3-0.9-1.1-1l-0.5-0.1
	c-1.1-0.2-2-0.6-2-1.8s0.9-1.8,2.2-1.8c0.8,0,1.6,0.3,2.2,1l-0.6,0.6c-0.4-0.5-1-0.8-1.6-0.8c-0.8,0-1.2,0.4-1.2,1s0.4,0.8,1.2,1
	l0.5,0.1c1.4,0.2,1.9,0.8,1.9,1.7c0,1.2-0.9,1.9-2.3,1.9C1440.5,330.4,1439.6,329.9,1439.1,329.1z"/>
<path class="st17" d="M1452.8,330.1c-0.6,0-1-0.4-1.1-0.9c0,0,0,0,0-0.1h-0.1c-0.3,0.7-1,1.2-1.8,1.1c-1,0.1-1.9-0.6-2.1-1.6
	c0-0.1,0-0.2,0-0.3c0-1.2,0.8-1.8,2.6-1.8h1.2V326c0-0.9-0.5-1.4-1.5-1.4c-0.7,0-1.3,0.3-1.6,0.9l-0.6-0.5c0.4-0.8,1.3-1.3,2.2-1.2
	c1.5,0,2.4,0.8,2.4,2.1v3.4h0.7v0.8L1452.8,330.1z M1451.7,328.3v-1h-1.3c-1.1,0-1.6,0.3-1.6,0.9v0.2c0,0.6,0.5,1,1.2,1
	C1451,329.5,1451.7,329,1451.7,328.3L1451.7,328.3z"/>
<path class="st17" d="M1454.3,327c0-2,1-3.2,2.8-3.2c1-0.1,1.9,0.5,2.3,1.5l-0.8,0.4c-0.2-0.6-0.8-1-1.5-1c-0.9,0-1.7,0.7-1.7,1.6
	c0,0.1,0,0.2,0,0.3v1c-0.1,0.9,0.5,1.7,1.4,1.8c0.1,0,0.2,0,0.3,0c0.7,0,1.4-0.4,1.7-1.1l0.7,0.5c-0.4,0.9-1.4,1.5-2.4,1.5
	C1455.3,330.3,1454.3,329,1454.3,327z"/>
<path class="st17" d="M1460.3,327c0-2,1-3.2,2.8-3.2c1-0.1,1.9,0.5,2.3,1.5l-0.8,0.4c-0.2-0.6-0.8-1-1.5-1c-0.9,0-1.7,0.7-1.7,1.6
	c0,0.1,0,0.2,0,0.3v1c-0.1,0.9,0.5,1.7,1.4,1.8c0.1,0,0.2,0,0.3,0c0.7,0,1.4-0.4,1.7-1.1l0.7,0.5c-0.4,0.9-1.4,1.5-2.4,1.5
	C1461.3,330.3,1460.3,329,1460.3,327z"/>
<path class="st17" d="M1466.2,327c0-2,1.1-3.2,2.8-3.2c1.5,0,2.7,1.2,2.7,2.7c0,0.1,0,0.2,0,0.3v0.5h-4.4v0.3
	c-0.1,1,0.7,1.8,1.6,1.9c0.1,0,0.1,0,0.2,0c0.7,0,1.4-0.4,1.7-1.1l0.7,0.5c-0.5,0.9-1.4,1.5-2.4,1.4
	C1467.3,330.3,1466.2,329,1466.2,327z M1467.2,326.4L1467.2,326.4l3.4,0.1v-0.1c0.1-0.9-0.5-1.7-1.5-1.8c-0.1,0-0.1,0-0.2,0
	c-1,0-1.8,0.8-1.8,1.8C1467.2,326.4,1467.2,326.4,1467.2,326.4L1467.2,326.4z"/>
<path class="st17" d="M1472.7,329.1l0.7-0.5c0.4,0.6,1.1,0.9,1.8,1c0.8,0,1.3-0.4,1.3-1c0-0.5-0.3-0.9-1.1-1l-0.5-0.1
	c-1.1-0.2-2-0.6-2-1.8s0.9-1.8,2.2-1.8c0.8,0,1.6,0.3,2.2,1l-0.6,0.6c-0.4-0.5-1-0.8-1.6-0.8c-0.8,0-1.2,0.4-1.2,1s0.4,0.8,1.2,1
	l0.5,0.1c1.4,0.2,1.9,0.8,1.9,1.7c0,1.2-0.9,1.9-2.3,1.9C1474.1,330.4,1473.2,329.9,1472.7,329.1z"/>
<path class="st17" d="M1478.5,329.1l0.7-0.5c0.4,0.6,1.1,0.9,1.8,1c0.8,0,1.3-0.4,1.3-1c0-0.5-0.3-0.9-1.1-1l-0.5-0.1
	c-1.1-0.2-2-0.6-2-1.8s1-1.8,2.2-1.8c0.8,0,1.6,0.3,2.2,1l-0.6,0.6c-0.4-0.5-1-0.8-1.6-0.8c-0.8,0-1.2,0.4-1.2,1s0.4,0.8,1.2,1
	l0.5,0.1c1.4,0.2,1.9,0.8,1.9,1.7c0,1.2-0.9,1.9-2.3,1.9C1479.9,330.4,1479,329.9,1478.5,329.1z"/>
<path class="st17" d="M1489.1,330.1c-0.6,0-1-0.4-1-1v-4.3h-1V324h0.6c0.4,0,0.5-0.1,0.5-0.6v-1.1h0.9v1.7h1.3v0.8h-1.4v4.5h1.3v0.8
	L1489.1,330.1z"/>
<path class="st17" d="M1491.4,327c0-2,1.1-3.2,2.8-3.2s2.8,1.3,2.8,3.2s-1.1,3.2-2.8,3.2S1491.4,329,1491.4,327z M1496,327.5v-0.9
	c0.1-1-0.7-1.8-1.6-1.9c-1-0.1-1.8,0.7-1.9,1.6c0,0.1,0,0.2,0,0.3v0.9c-0.1,1,0.7,1.8,1.6,1.9c1,0.1,1.8-0.7,1.9-1.6
	C1496,327.6,1496,327.5,1496,327.5z"/>
<path class="st17" d="M1501,327c0-2,1-3.2,2.8-3.2c1-0.1,1.9,0.5,2.3,1.5l-0.8,0.4c-0.2-0.6-0.8-1-1.5-1c-0.9,0-1.7,0.7-1.7,1.6
	c0,0.1,0,0.2,0,0.3v1c-0.1,0.9,0.5,1.7,1.4,1.8c0.1,0,0.2,0,0.3,0c0.7,0,1.4-0.4,1.7-1.1l0.7,0.5c-0.4,0.9-1.4,1.5-2.4,1.5
	C1502,330.3,1501,329,1501,327z"/>
<path class="st17" d="M1508.5,330.1c-0.5,0-1-0.4-1-0.9c0,0,0-0.1,0-0.1v-7.9h1v8h0.9v0.8L1508.5,330.1z"/>
<path class="st17" d="M1515.2,330.1c-0.6,0-1-0.4-1.1-0.9c0,0,0,0,0-0.1h-0.1c-0.3,0.7-1,1.2-1.8,1.1c-1,0.1-1.9-0.6-2.1-1.6
	c0-0.1,0-0.2,0-0.3c0-1.2,0.8-1.8,2.6-1.8h1.2V326c0-0.9-0.5-1.4-1.5-1.4c-0.7,0-1.3,0.3-1.6,0.9l-0.6-0.5c0.4-0.8,1.3-1.3,2.2-1.2
	c1.5,0,2.4,0.8,2.4,2.1v3.4h0.7v0.8L1515.2,330.1z M1514.1,328.3v-1h-1.3c-1.1,0-1.6,0.3-1.6,0.9v0.2c0,0.6,0.5,1,1.2,1
	C1513.4,329.5,1514.1,329,1514.1,328.3L1514.1,328.3z"/>
<path class="st17" d="M1516.6,329.1l0.7-0.5c0.4,0.6,1.1,0.9,1.8,1c0.8,0,1.3-0.4,1.3-1c0-0.5-0.3-0.9-1.1-1l-0.5-0.1
	c-1.1-0.2-2-0.6-2-1.8s0.9-1.8,2.2-1.8c0.8,0,1.6,0.3,2.2,1l-0.6,0.6c-0.4-0.5-1-0.8-1.6-0.8c-0.8,0-1.2,0.4-1.2,1s0.4,0.8,1.2,1
	l0.5,0.1c1.4,0.2,1.9,0.8,1.9,1.7c0,1.2-0.9,1.9-2.3,1.9C1518,330.4,1517.1,329.9,1516.6,329.1z"/>
<path class="st17" d="M1522.3,329.1l0.7-0.5c0.4,0.6,1.1,0.9,1.8,1c0.8,0,1.3-0.4,1.3-1c0-0.5-0.3-0.9-1.1-1l-0.5-0.1
	c-1.1-0.2-2-0.6-2-1.8s1-1.8,2.2-1.8c0.8,0,1.6,0.3,2.2,1l-0.6,0.6c-0.4-0.5-1-0.8-1.6-0.8c-0.8,0-1.2,0.4-1.2,1s0.4,0.8,1.2,1
	l0.5,0.1c1.4,0.2,1.9,0.8,1.9,1.7c0,1.2-0.9,1.9-2.3,1.9C1523.8,330.4,1522.9,329.9,1522.3,329.1z"/>
<path class="st17" d="M1528.7,322v-0.2c0-0.3,0.2-0.5,0.6-0.5s0.6,0.2,0.6,0.5v0.2c0,0.3-0.2,0.5-0.6,0.5S1528.7,322.3,1528.7,322z
	 M1528.8,324h1v6.2h-1V324z"/>
<path class="st17" d="M1531.3,327c0-2,1-3.2,2.8-3.2c1-0.1,1.9,0.5,2.3,1.5l-0.8,0.4c-0.2-0.6-0.8-1-1.5-1c-0.9,0-1.7,0.7-1.7,1.6
	c0,0.1,0,0.2,0,0.3v1c-0.1,0.9,0.5,1.7,1.4,1.8c0.1,0,0.2,0,0.3,0c0.7,0,1.4-0.4,1.7-1.1l0.7,0.5c-0.4,0.9-1.4,1.5-2.4,1.5
	C1532.3,330.3,1531.3,329,1531.3,327z"/>
<path class="st17" d="M1340,336.4v-0.2c0-0.3,0.2-0.5,0.5-0.5c0,0,0.1,0,0.1,0c0.4,0,0.6,0.2,0.6,0.5v0.2c0,0.3-0.2,0.5-0.6,0.5
	c-0.3,0-0.5-0.2-0.6-0.4C1340,336.4,1340,336.4,1340,336.4z M1340.1,338.4h1v6.2h-1V338.4z"/>
<path class="st17" d="M1343.1,344.5v-6.2h1v1l0,0c0.3-0.7,1-1.2,1.8-1.1c1.3,0,2.1,0.9,2.1,2.4v4h-1v-3.8c0-1.1-0.5-1.7-1.4-1.7
	c-0.8,0-1.5,0.4-1.5,1.2v4.3L1343.1,344.5z"/>
<path class="st17" d="M1350.2,339.2h-1v-0.8h1v-1.2c-0.1-0.7,0.4-1.3,1.1-1.4c0.1,0,0.2,0,0.2,0h0.9v0.8h-1.3v1.9h1.3v0.8h-1.3v5.4
	h-1L1350.2,339.2z"/>
<path class="st17" d="M1353.8,344.5v-6.2h1v1.1h0.1c0.3-0.7,1-1.2,1.8-1.1h0.4v1h-0.6c-1,0-1.7,0.4-1.7,1v4.2L1353.8,344.5z"/>
<path class="st17" d="M1362.6,344.5c-0.6,0-1-0.4-1.1-0.9c0,0,0,0,0-0.1h-0.1c-0.3,0.7-1,1.2-1.8,1.1c-1,0.1-1.9-0.6-2.1-1.6
	c0-0.1,0-0.2,0-0.3c0-1.2,0.8-1.8,2.6-1.8h1.2v-0.6c0-0.9-0.5-1.4-1.5-1.4c-0.7,0-1.3,0.3-1.6,0.9l-0.6-0.5c0.4-0.8,1.3-1.3,2.2-1.2
	c1.5,0,2.4,0.8,2.4,2.1v3.4h0.7v0.8L1362.6,344.5z M1361.5,342.7v-1h-1.3c-1.1,0-1.6,0.3-1.6,0.9v0.2c0,0.6,0.5,1,1.2,1
	C1360.8,343.9,1361.5,343.4,1361.5,342.7z"/>
<path class="st17" d="M1364,343.5l0.7-0.5c0.4,0.6,1.1,0.9,1.8,1c0.8,0,1.3-0.4,1.3-1c0-0.5-0.3-0.9-1.1-1l-0.5-0.1
	c-1.1-0.2-2-0.6-2-1.8s0.9-1.8,2.2-1.8c0.8,0,1.6,0.3,2.2,1l-0.6,0.6c-0.4-0.5-1-0.8-1.6-0.8c-0.8,0-1.2,0.4-1.2,1s0.4,0.8,1.2,1
	l0.5,0.1c1.4,0.2,1.9,0.8,1.9,1.7c0,1.2-0.9,1.9-2.3,1.9C1365.5,344.8,1364.5,344.3,1364,343.5z"/>
<path class="st17" d="M1371.7,344.5c-0.6,0-1-0.4-1-1v-4.3h-1v-0.8h0.6c0.4,0,0.5-0.1,0.5-0.6v-1.2h0.9v1.7h1.3v0.8h-1.3v4.5h1.3
	v0.8L1371.7,344.5z"/>
<path class="st17" d="M1374.5,344.5v-6.2h1v1.1h0.1c0.3-0.7,1-1.2,1.8-1.1h0.4v1h-0.6c-1,0-1.7,0.4-1.7,1v4.2L1374.5,344.5z"/>
<path class="st17" d="M1382.7,343.5L1382.7,343.5c-0.2,0.7-1,1.2-1.7,1.1c-1.3,0-2.1-0.9-2.1-2.4v-4h1v3.8c0,1.1,0.5,1.7,1.4,1.7
	c0.8,0,1.5-0.4,1.5-1.2v-4.3h1v6.2h-1L1382.7,343.5z"/>
<path class="st17" d="M1385.3,341.4c0-2,1-3.2,2.8-3.2c1-0.1,1.9,0.5,2.3,1.5l-0.8,0.4c-0.2-0.6-0.8-1-1.5-1c-0.9,0-1.7,0.7-1.7,1.6
	c0,0.1,0,0.2,0,0.3v1c-0.1,0.9,0.5,1.7,1.4,1.8c0.1,0,0.2,0,0.3,0c0.7,0,1.4-0.4,1.7-1.1l0.7,0.5c-0.4,0.9-1.4,1.5-2.4,1.5
	C1386.3,344.7,1385.3,343.4,1385.3,341.4z"/>
<path class="st17" d="M1393.2,344.5c-0.6,0-1-0.4-1-1v-4.3h-1v-0.8h0.6c0.4,0,0.5-0.1,0.5-0.6v-1.2h0.9v1.7h1.3v0.8h-1.3v4.5h1.3
	v0.8L1393.2,344.5z"/>
<path class="st17" d="M1399.8,343.5L1399.8,343.5c-0.3,0.7-1,1.2-1.7,1.1c-1.3,0-2.1-0.9-2.1-2.4v-4h1v3.8c0,1.1,0.5,1.7,1.4,1.7
	c0.8,0,1.5-0.4,1.5-1.2v-4.3h1v6.2h-1L1399.8,343.5z"/>
<path class="st17" d="M1402.8,344.5v-6.2h1v1.1h0.1c0.3-0.7,1-1.2,1.8-1.1h0.4v1h-0.6c-1,0-1.7,0.4-1.7,1v4.2L1402.8,344.5z"/>
<path class="st17" d="M1406.7,341.4c0-2,1.1-3.2,2.8-3.2c1.5,0,2.7,1.2,2.7,2.7c0,0.1,0,0.2,0,0.3v0.5h-4.4v0.4
	c-0.1,1,0.7,1.8,1.6,1.9c0.1,0,0.1,0,0.2,0c0.7,0,1.4-0.4,1.7-1.1l0.7,0.5c-0.5,0.9-1.4,1.5-2.4,1.4
	C1407.8,344.7,1406.7,343.4,1406.7,341.4z M1407.7,340.9v0.1h3.4v-0.1c0.1-0.9-0.5-1.7-1.5-1.8c-0.1,0-0.1,0-0.2,0
	C1408.5,339,1407.7,339.8,1407.7,340.9C1407.7,340.8,1407.7,340.8,1407.7,340.9L1407.7,340.9z"/>
<path class="st17" d="M1416,343.5l0.7-0.5c0.4,0.6,1.1,0.9,1.8,1c0.8,0,1.3-0.4,1.3-1c0-0.5-0.3-0.9-1.1-1l-0.5-0.1
	c-1.1-0.2-2-0.6-2-1.8s1-1.8,2.2-1.8c0.8,0,1.6,0.3,2.2,1l-0.6,0.6c-0.4-0.5-1-0.8-1.6-0.8c-0.8,0-1.2,0.4-1.2,1s0.4,0.8,1.2,1
	l0.5,0.1c1.4,0.2,1.9,0.8,1.9,1.7c0,1.2-0.9,1.9-2.3,1.9C1417.5,344.8,1416.5,344.3,1416,343.5z"/>
<path class="st17" d="M1422,341.4c0-2,1.1-3.2,2.8-3.2c1.5,0,2.7,1.2,2.7,2.7c0,0.1,0,0.2,0,0.3v0.5h-4.5v0.4
	c-0.1,1,0.7,1.8,1.6,1.9c0.1,0,0.1,0,0.2,0c0.7,0,1.4-0.4,1.7-1.1l0.7,0.5c-0.5,0.9-1.4,1.5-2.4,1.4
	C1423.1,344.7,1422,343.4,1422,341.4z M1423,340.9v0.1h3.4v-0.1c0.1-0.9-0.6-1.7-1.5-1.8c-0.1,0-0.1,0-0.2,0
	C1423.8,339,1423,339.8,1423,340.9C1423,340.8,1423,340.8,1423,340.9z"/>
<path class="st17" d="M1429,344.5v-6.2h1v1.1h0.1c0.3-0.7,1-1.2,1.8-1.1h0.4v1h-0.6c-1,0-1.7,0.4-1.7,1v4.2L1429,344.5z"/>
<path class="st17" d="M1434.9,344.5l-2.2-6.2h1l1.1,3.1l0.7,2.1h0.1l0.7-2.1l1.1-3.1h0.9l-2.2,6.2H1434.9z"/>
<path class="st17" d="M1439.3,336.4v-0.2c0-0.3,0.2-0.5,0.5-0.5c0,0,0.1,0,0.1,0c0.4,0,0.6,0.2,0.6,0.5v0.2c0,0.3-0.2,0.5-0.6,0.5
	c-0.3,0-0.5-0.2-0.6-0.4C1439.3,336.4,1439.3,336.4,1439.3,336.4z M1439.4,338.4h1v6.2h-1V338.4z"/>
<path class="st17" d="M1442,341.4c0-2,1-3.2,2.8-3.2c1-0.1,1.9,0.5,2.3,1.5l-0.8,0.4c-0.2-0.6-0.8-1-1.5-1c-0.9,0-1.7,0.7-1.7,1.6
	c0,0.1,0,0.2,0,0.3v1c-0.1,0.9,0.5,1.7,1.4,1.8c0.1,0,0.2,0,0.3,0c0.7,0,1.4-0.4,1.7-1.1l0.7,0.5c-0.4,0.9-1.4,1.5-2.4,1.5
	C1443,344.7,1442,343.4,1442,341.4z"/>
<path class="st17" d="M1447.9,341.4c0-2,1.1-3.2,2.8-3.2c1.5,0,2.7,1.2,2.7,2.7c0,0.1,0,0.2,0,0.3v0.5h-4.4v0.4
	c-0.1,1,0.7,1.8,1.6,1.9c0.1,0,0.1,0,0.2,0c0.7,0,1.4-0.4,1.7-1.1l0.7,0.5c-0.5,0.9-1.4,1.5-2.4,1.4
	C1449.1,344.7,1447.9,343.4,1447.9,341.4z M1448.9,340.9v0.1h3.4v-0.1c0.1-0.9-0.6-1.7-1.5-1.8c-0.1,0-0.1,0-0.2,0
	C1449.7,339.1,1449,339.9,1448.9,340.9C1449,340.9,1449,340.9,1448.9,340.9L1448.9,340.9z"/>
<path class="st17" d="M1454.4,343.5l0.7-0.5c0.4,0.6,1.1,0.9,1.8,1c0.8,0,1.3-0.4,1.3-1c0-0.5-0.3-0.9-1.1-1l-0.5-0.1
	c-1.1-0.2-2-0.6-2-1.8s0.9-1.8,2.2-1.8c0.8,0,1.6,0.3,2.2,1l-0.6,0.6c-0.4-0.5-1-0.8-1.6-0.8c-0.8,0-1.2,0.4-1.2,1s0.4,0.8,1.2,1
	l0.5,0.1c1.4,0.2,1.9,0.8,1.9,1.7c0,1.2-0.9,1.9-2.3,1.9C1455.9,344.8,1454.9,344.3,1454.4,343.5z"/>
<path class="st17" d="M1462.1,343.8v0.2c-0.1,0.8-0.4,1.6-1.1,2.1h-0.8c0.4-0.4,0.7-0.9,0.9-1.5c-0.3-0.1-0.5-0.3-0.5-0.6v-0.2
	c0-0.4,0.3-0.7,0.7-0.7C1461.8,343.1,1462.1,343.4,1462.1,343.8L1462.1,343.8z"/>
<path class="st17" d="M1466.3,343.5l0.7-0.5c0.4,0.6,1.1,0.9,1.8,1c0.8,0,1.3-0.4,1.3-1c0-0.5-0.3-0.9-1.1-1l-0.5-0.1
	c-1.1-0.2-2-0.6-2-1.8s1-1.8,2.2-1.8c0.8,0,1.6,0.3,2.2,1l-0.6,0.6c-0.4-0.5-1-0.8-1.6-0.8c-0.8,0-1.2,0.4-1.2,1s0.4,0.8,1.2,1
	l0.5,0.1c1.4,0.2,1.9,0.8,1.9,1.7c0,1.2-0.9,1.9-2.3,1.9C1467.7,344.8,1466.8,344.3,1466.3,343.5z"/>
<path class="st17" d="M1472.7,338.3h1v1l0,0c0.3-0.7,1-1.2,1.8-1.1c1.5,0,2.5,1.3,2.5,3.2s-1,3.2-2.5,3.2c-0.8,0-1.5-0.4-1.8-1.1
	l0,0v3.4h-1V338.3z M1477,342v-1c0.1-0.9-0.6-1.8-1.5-1.8c-0.1,0-0.2,0-0.2,0c-0.9,0-1.6,0.5-1.6,1.2v2.3c0,0.8,0.7,1.3,1.6,1.3
	c0.9,0,1.7-0.7,1.8-1.6C1477,342.2,1477,342.1,1477,342z"/>
<path class="st17" d="M1479.2,341.4c0-2,1.1-3.2,2.8-3.2s2.7,1.3,2.7,3v0.5h-4.4v0.4c-0.1,1,0.7,1.8,1.6,1.9c0.1,0,0.1,0,0.2,0
	c0.7,0,1.4-0.4,1.7-1.1l0.7,0.5c-0.5,0.9-1.4,1.5-2.4,1.4C1480.3,344.7,1479.2,343.4,1479.2,341.4z M1480.2,340.9v0.1h3.4v-0.1
	c0.1-0.9-0.5-1.7-1.4-1.9c-0.1,0-0.2,0-0.2,0c-1,0-1.8,0.8-1.8,1.7C1480.2,340.8,1480.2,340.8,1480.2,340.9L1480.2,340.9z"/>
<path class="st17" d="M1485.8,341.4c0-2,1-3.2,2.8-3.2c1-0.1,1.9,0.5,2.3,1.5l-0.8,0.4c-0.2-0.6-0.8-1-1.5-1c-0.9,0-1.7,0.7-1.7,1.6
	c0,0.1,0,0.2,0,0.3v1c-0.1,0.9,0.5,1.7,1.4,1.8c0.1,0,0.2,0,0.3,0c0.7,0,1.4-0.4,1.7-1.1l0.7,0.5c-0.4,0.9-1.4,1.5-2.4,1.5
	C1486.8,344.7,1485.8,343.4,1485.8,341.4z"/>
<path class="st17" d="M1492.2,336.4v-0.2c0-0.3,0.2-0.5,0.5-0.5c0,0,0.1,0,0.1,0c0.4,0,0.6,0.2,0.6,0.5v0.2c0,0.3-0.2,0.5-0.6,0.5
	c-0.3,0-0.5-0.1-0.6-0.4C1492.2,336.4,1492.2,336.4,1492.2,336.4z M1492.3,338.4h1v6.2h-1V338.4z"/>
<path class="st17" d="M1495.6,339.2h-1v-0.8h1v-1.2c-0.1-0.7,0.4-1.3,1.1-1.4c0.1,0,0.2,0,0.2,0h0.9v0.8h-1.3v1.9h3.5v6.2h-1v-5.4
	h-2.5v5.4h-1L1495.6,339.2z M1499,336.4v-0.2c0-0.3,0.2-0.5,0.5-0.5c0,0,0.1,0,0.1,0c0.4,0,0.6,0.2,0.6,0.5v0.2
	c0,0.3-0.2,0.5-0.6,0.5C1499.3,336.9,1499,336.7,1499,336.4C1499,336.4,1499,336.4,1499,336.4L1499,336.4z"/>
<path class="st17" d="M1501.6,341.4c0-2,1-3.2,2.8-3.2c1-0.1,1.9,0.5,2.3,1.5l-0.8,0.4c-0.2-0.6-0.8-1-1.5-1c-0.9,0-1.7,0.7-1.7,1.6
	c0,0.1,0,0.2,0,0.3v1c-0.1,0.9,0.5,1.7,1.4,1.8c0.1,0,0.2,0,0.3,0c0.7,0,1.4-0.4,1.7-1.1l0.7,0.5c-0.4,0.9-1.4,1.5-2.4,1.5
	C1502.7,344.7,1501.6,343.4,1501.6,341.4z"/>
<path class="st17" d="M1514.9,343.5L1514.9,343.5c-0.3,0.7-1,1.2-1.8,1.1c-1.5,0-2.5-1.3-2.5-3.2s1-3.2,2.5-3.2
	c0.8-0.1,1.5,0.4,1.8,1.1l0,0v-3.7h1v8.9h-1V343.5z M1514.9,342.5v-2.3c0-0.7-0.7-1.2-1.6-1.2c-0.9,0-1.7,0.7-1.8,1.6
	c0,0.1,0,0.2,0,0.2v1c-0.1,0.9,0.6,1.8,1.5,1.8c0.1,0,0.2,0,0.2,0C1514.2,343.8,1514.9,343.4,1514.9,342.5L1514.9,342.5z"/>
<path class="st17" d="M1517.5,341.4c0-2,1.1-3.2,2.8-3.2c1.5,0,2.7,1.2,2.7,2.7c0,0.1,0,0.2,0,0.3v0.5h-4.4v0.4
	c-0.1,1,0.7,1.8,1.6,1.9c0.1,0,0.1,0,0.2,0c0.7,0,1.4-0.4,1.7-1.1l0.7,0.5c-0.5,0.9-1.4,1.5-2.4,1.4
	C1518.6,344.7,1517.5,343.4,1517.5,341.4z M1518.5,340.9v0.1h3.4v-0.1c0.1-0.9-0.6-1.7-1.5-1.8c-0.1,0-0.1,0-0.2,0
	C1519.3,339,1518.5,339.8,1518.5,340.9C1518.5,340.8,1518.5,340.8,1518.5,340.9L1518.5,340.9z"/>
<path class="st17" d="M1525.8,344.5l-2.2-6.2h1l1.1,3.1l0.7,2.1h0.1l0.7-2.1l1.1-3.1h0.9l-2.2,6.2H1525.8z"/>
<path class="st17" d="M1530.2,336.4v-0.2c0-0.3,0.2-0.5,0.6-0.5s0.6,0.2,0.6,0.5v0.2c0,0.3-0.2,0.5-0.6,0.5
	S1530.2,336.7,1530.2,336.4z M1530.3,338.4h1v6.2h-1V338.4z"/>
<path class="st17" d="M1532.9,341.4c0-2,1-3.2,2.8-3.2c1-0.1,1.9,0.5,2.3,1.5l-0.8,0.4c-0.2-0.6-0.8-1-1.5-1c-0.9,0-1.7,0.7-1.7,1.6
	c0,0.1,0,0.2,0,0.3v1c-0.1,0.9,0.5,1.7,1.4,1.8c0.1,0,0.2,0,0.3,0c0.7,0,1.4-0.4,1.7-1.1l0.7,0.5c-0.4,0.9-1.4,1.5-2.4,1.5
	C1533.9,344.7,1532.9,343.4,1532.9,341.4z"/>
<path class="st17" d="M1538.8,341.4c0-2,1.1-3.2,2.8-3.2c1.5,0,2.7,1.2,2.7,2.7c0,0.1,0,0.2,0,0.3v0.5h-4.4v0.4
	c-0.1,1,0.7,1.8,1.6,1.9c0.1,0,0.1,0,0.2,0c0.7,0,1.4-0.4,1.7-1.1l0.7,0.5c-0.5,0.9-1.4,1.5-2.4,1.4
	C1539.9,344.7,1538.8,343.4,1538.8,341.4z M1539.8,340.9v0.1h3.4v-0.1c0.1-0.9-0.6-1.7-1.5-1.8c-0.1,0-0.1,0-0.2,0
	C1540.6,339,1539.8,339.8,1539.8,340.9C1539.8,340.8,1539.8,340.8,1539.8,340.9L1539.8,340.9z"/>
<path class="st17" d="M1545.3,343.5l0.7-0.5c0.4,0.6,1.1,0.9,1.8,1c0.8,0,1.3-0.4,1.3-1c0-0.5-0.3-0.9-1.1-1l-0.5-0.1
	c-1.1-0.2-2-0.6-2-1.8s1-1.8,2.2-1.8c0.8,0,1.6,0.3,2.2,1l-0.6,0.6c-0.4-0.5-1-0.8-1.6-0.8c-0.8,0-1.2,0.4-1.2,1s0.4,0.8,1.2,1
	l0.5,0.1c1.4,0.2,1.9,0.8,1.9,1.7c0,1.2-0.9,1.9-2.3,1.9C1546.7,344.8,1545.8,344.3,1545.3,343.5z"/>
<path class="st17" d="M1339.6,355.8c0-2,1.1-3.2,2.8-3.2s2.8,1.3,2.8,3.2s-1.1,3.2-2.8,3.2S1339.6,357.8,1339.6,355.8z
	 M1344.2,356.3v-0.9c0.1-1-0.7-1.8-1.6-1.9c-1-0.1-1.8,0.7-1.9,1.6c0,0.1,0,0.2,0,0.3v0.9c-0.1,1,0.7,1.8,1.6,1.9
	c1,0.1,1.8-0.7,1.9-1.6C1344.2,356.5,1344.2,356.4,1344.2,356.3z"/>
<path class="st17" d="M1346.8,358.9v-6.2h1v1.1h0.1c0.3-0.7,1-1.2,1.8-1.1h0.4v1h-0.6c-1,0-1.7,0.4-1.7,1v4.2L1346.8,358.9z"/>
<path class="st17" d="M1358,357.9L1358,357.9c-0.3,0.7-1,1.2-1.8,1.1c-1.6,0-2.5-1.3-2.5-3.2s1-3.2,2.5-3.2c0.8-0.1,1.5,0.4,1.8,1.1
	l0,0V350h1v8.9h-1V357.9z M1358,356.9v-2.3c0-0.7-0.7-1.2-1.6-1.2c-0.9,0-1.7,0.7-1.8,1.6c0,0.1,0,0.2,0,0.2v1
	c-0.1,0.9,0.6,1.8,1.5,1.8c0.1,0,0.2,0,0.2,0C1357.3,358.2,1358,357.8,1358,356.9L1358,356.9z"/>
<path class="st17" d="M1360.5,355.8c0-2,1.1-3.2,2.8-3.2s2.7,1.3,2.7,3v0.5h-4.4v0.3c-0.1,1,0.7,1.8,1.6,1.9c0.1,0,0.1,0,0.2,0
	c0.7,0,1.4-0.4,1.7-1.1l0.7,0.5c-0.5,0.9-1.4,1.5-2.4,1.4C1361.7,359.1,1360.5,357.8,1360.5,355.8z M1361.5,355.3L1361.5,355.3
	l3.5,0.1v-0.1c0.1-0.9-0.5-1.7-1.5-1.8c-0.1,0-0.1,0-0.2,0c-1,0-1.8,0.7-1.8,1.7C1361.5,355.2,1361.5,355.2,1361.5,355.3
	L1361.5,355.3z"/>
<path class="st17" d="M1368.9,358.9l-2.2-6.2h1l1.1,3.1l0.7,2.1h0.1l0.7-2.1l1.1-3.1h0.9l-2.2,6.2H1368.9z"/>
<path class="st17" d="M1373.3,350.8v-0.2c0-0.3,0.2-0.5,0.6-0.5s0.6,0.2,0.6,0.5v0.2c0,0.3-0.2,0.5-0.6,0.5
	S1373.3,351.1,1373.3,350.8z M1373.4,352.8h1v6.2h-1V352.8z"/>
<path class="st17" d="M1375.9,355.8c0-2,1-3.2,2.8-3.2c1-0.1,1.9,0.5,2.3,1.5l-0.8,0.4c-0.2-0.6-0.8-1-1.5-1c-0.9,0-1.7,0.7-1.7,1.6
	c0,0.1,0,0.2,0,0.3v1c-0.1,0.9,0.5,1.7,1.4,1.8c0.1,0,0.2,0,0.3,0c0.7,0,1.4-0.4,1.7-1.1l0.7,0.5c-0.4,0.9-1.4,1.5-2.4,1.5
	C1377,359.1,1375.9,357.8,1375.9,355.8z"/>
<path class="st17" d="M1381.9,355.8c0-2,1.1-3.2,2.8-3.2s2.7,1.3,2.7,3v0.5h-4.4v0.3c-0.1,1,0.7,1.8,1.6,1.9c0.1,0,0.1,0,0.2,0
	c0.7,0,1.4-0.4,1.7-1.1l0.7,0.5c-0.5,0.9-1.4,1.5-2.4,1.4C1383,359.1,1381.9,357.8,1381.9,355.8z M1382.9,355.3L1382.9,355.3
	l3.4,0.1v-0.1c0.1-0.9-0.5-1.7-1.5-1.8c-0.1,0-0.1,0-0.2,0c-1,0-1.8,0.8-1.8,1.7C1382.9,355.2,1382.9,355.2,1382.9,355.3z"/>
<path class="st17" d="M1393.2,358.9c-0.6,0-1-0.4-1-1v-4.3h-1v-0.8h0.6c0.4,0,0.5-0.1,0.5-0.6V351h0.9v1.7h1.3v0.8h-1.3v4.5h1.3v0.8
	L1393.2,358.9z"/>
<path class="st17" d="M1399.8,352.7h0.9l-2.8,7.6c-0.3,0.7-0.5,1-1.4,1h-0.5v-0.8h1l0.5-1.3l-2.3-6.4h1l1.5,4.2l0.3,1h0.1l0.3-1
	L1399.8,352.7z"/>
<path class="st17" d="M1402,352.7h1v1l0,0c0.3-0.7,1-1.2,1.8-1.1c1.6,0,2.5,1.3,2.5,3.2s-1,3.2-2.5,3.2c-0.8,0-1.5-0.4-1.8-1.1l0,0
	v3.4h-1V352.7z M1406.3,356.4v-1c0.1-0.9-0.6-1.8-1.5-1.8c-0.1,0-0.2,0-0.2,0c-0.9,0-1.6,0.5-1.6,1.2v2.4c0,0.8,0.7,1.3,1.6,1.3
	c0.9,0,1.7-0.7,1.7-1.6C1406.3,356.5,1406.3,356.4,1406.3,356.4L1406.3,356.4z"/>
<path class="st17" d="M1408.5,355.8c0-2,1.1-3.2,2.8-3.2s2.7,1.3,2.7,3v0.5h-4.4v0.3c-0.1,1,0.7,1.8,1.6,1.9c0.1,0,0.1,0,0.2,0
	c0.7,0,1.4-0.4,1.7-1.1l0.7,0.5c-0.5,0.9-1.4,1.5-2.4,1.4C1409.6,359.1,1408.5,357.8,1408.5,355.8z M1409.5,355.3L1409.5,355.3
	l3.4,0.1v-0.1c0.1-0.9-0.5-1.7-1.5-1.8c-0.1,0-0.1,0-0.2,0c-1,0-1.8,0.8-1.8,1.7C1409.5,355.2,1409.5,355.2,1409.5,355.3z"/>
<path class="st17" d="M1414.9,357.9l0.7-0.5c0.4,0.6,1.1,0.9,1.8,1c0.8,0,1.3-0.4,1.3-1c0-0.5-0.3-0.9-1.1-1l-0.5-0.1
	c-1.1-0.2-2-0.6-2-1.8s1-1.8,2.2-1.8c0.8,0,1.6,0.3,2.2,1l-0.6,0.6c-0.4-0.5-1-0.8-1.6-0.8c-0.8,0-1.2,0.4-1.2,1s0.4,0.8,1.2,1
	l0.5,0.1c1.4,0.2,1.9,0.8,1.9,1.7c0,1.2-0.9,1.9-2.3,1.9C1416.4,359.2,1415.5,358.7,1414.9,357.9z"/>
<path class="st17" d="M1422.7,358.2v0.2c-0.1,0.8-0.5,1.6-1.1,2.1h-0.8c0.4-0.4,0.7-0.9,0.9-1.5c-0.3-0.1-0.5-0.3-0.5-0.6v-0.2
	c0-0.4,0.4-0.7,0.8-0.6C1422.4,357.6,1422.6,357.9,1422.7,358.2L1422.7,358.2z"/>
<path class="st17" d="M1431.9,358.9c-0.6,0-1-0.4-1.1-0.9c0,0,0,0,0-0.1h-0.1c-0.3,0.7-1,1.2-1.8,1.1c-1,0.1-1.9-0.6-2.1-1.6
	c0-0.1,0-0.2,0-0.3c0-1.2,0.8-1.8,2.6-1.8h1.2v-0.6c0-0.9-0.5-1.4-1.5-1.4c-0.7,0-1.3,0.3-1.6,0.9l-0.6-0.5c0.4-0.8,1.3-1.3,2.2-1.2
	c1.5,0,2.4,0.8,2.4,2.1v3.4h0.7v0.8L1431.9,358.9z M1430.8,357.1v-1h-1.3c-1.1,0-1.6,0.3-1.6,0.9v0.2c0,0.6,0.5,1,1.2,1
	C1430.1,358.3,1430.8,357.8,1430.8,357.1z"/>
<path class="st17" d="M1433.8,358.9v-6.2h1v1l0,0c0.3-0.7,1-1.2,1.8-1.1c1.3,0,2.1,0.9,2.1,2.4v4h-1v-3.8c0-1.1-0.5-1.7-1.4-1.7
	c-0.8,0-1.5,0.4-1.5,1.2v4.3L1433.8,358.9z"/>
<path class="st17" d="M1444.6,357.9L1444.6,357.9c-0.3,0.7-1,1.2-1.8,1.1c-1.5,0-2.5-1.3-2.5-3.2s1-3.2,2.5-3.2
	c0.8-0.1,1.5,0.4,1.8,1.1l0,0V350h1v8.9h-1V357.9z M1444.6,356.9v-2.3c0-0.7-0.7-1.2-1.6-1.2c-0.9,0-1.7,0.7-1.8,1.6
	c0,0.1,0,0.2,0,0.2v1c-0.1,0.9,0.6,1.8,1.5,1.8c0.1,0,0.2,0,0.2,0C1443.9,358.2,1444.6,357.8,1444.6,356.9L1444.6,356.9z"/>
<path class="st17" d="M1449.8,357.9l0.7-0.5c0.4,0.6,1.1,0.9,1.8,1c0.8,0,1.3-0.4,1.3-1c0-0.5-0.3-0.9-1.1-1l-0.5-0.1
	c-1.1-0.2-2-0.6-2-1.8s1-1.8,2.2-1.8c0.8,0,1.6,0.3,2.2,1l-0.6,0.6c-0.4-0.5-1-0.8-1.6-0.8c-0.8,0-1.2,0.4-1.2,1s0.4,0.8,1.2,1
	l0.5,0.1c1.4,0.2,1.9,0.8,1.9,1.7c0,1.2-0.9,1.9-2.3,1.9C1451.3,359.2,1450.4,358.7,1449.8,357.9z"/>
<path class="st17" d="M1460.1,357.9L1460.1,357.9c-0.3,0.7-1,1.2-1.7,1.1c-1.3,0-2.1-0.9-2.1-2.4v-4h1v3.8c0,1.1,0.5,1.7,1.4,1.7
	c0.8,0,1.5-0.4,1.5-1.2v-4.3h1v6.2h-1L1460.1,357.9z"/>
<path class="st17" d="M1463.1,350h1v3.7l0,0c0.3-0.7,1-1.2,1.8-1.1c1.6,0,2.5,1.3,2.5,3.2s-1,3.2-2.5,3.2c-0.8,0-1.5-0.4-1.8-1.1
	l0,0v1h-1V350z M1467.4,356.4v-1c0.1-0.9-0.6-1.8-1.5-1.8c-0.1,0-0.2,0-0.2,0c-0.9,0-1.6,0.5-1.6,1.2v2.4c0,0.8,0.7,1.3,1.6,1.3
	c0.9,0,1.7-0.7,1.8-1.6C1467.4,356.5,1467.4,356.5,1467.4,356.4z"/>
<path class="st17" d="M1470,358.9v-6.2h1v1l0,0c0.3-0.7,1-1.2,1.8-1.1c1.3,0,2.1,0.9,2.1,2.4v4h-1v-3.8c0-1.1-0.5-1.7-1.4-1.7
	c-0.8,0-1.5,0.4-1.5,1.2v4.3L1470,358.9z"/>
<path class="st17" d="M1476.4,355.8c0-2,1.1-3.2,2.8-3.2s2.7,1.3,2.7,3v0.5h-4.4v0.3c-0.1,1,0.7,1.8,1.6,1.9c0.1,0,0.1,0,0.2,0
	c0.7,0,1.4-0.4,1.7-1.1l0.7,0.5c-0.5,0.9-1.4,1.5-2.4,1.4C1477.5,359.1,1476.4,357.8,1476.4,355.8z M1477.4,355.3L1477.4,355.3
	l3.4,0.1v-0.1c0.1-0.9-0.5-1.7-1.5-1.8c-0.1,0-0.1,0-0.2,0c-1,0-1.8,0.8-1.8,1.7C1477.4,355.2,1477.4,355.2,1477.4,355.3
	L1477.4,355.3z"/>
<path class="st17" d="M1484.8,358.9c-0.6,0-1-0.4-1-1v-4.3h-1v-0.8h0.6c0.4,0,0.5-0.1,0.5-0.6V351h0.9v1.7h1.3v0.8h-1.3v4.5h1.2v0.8
	L1484.8,358.9z"/>
<path class="st17" d="M1487.1,357.9l0.7-0.5c0.4,0.6,1.1,0.9,1.8,1c0.8,0,1.3-0.4,1.3-1c0-0.5-0.3-0.9-1.1-1l-0.5-0.1
	c-1.1-0.2-2-0.6-2-1.8s1-1.8,2.2-1.8c0.8,0,1.6,0.3,2.2,1l-0.6,0.6c-0.4-0.5-1-0.8-1.6-0.8c-0.8,0-1.2,0.4-1.2,1s0.4,0.8,1.2,1
	l0.5,0.1c1.4,0.2,1.9,0.8,1.9,1.7c0,1.2-0.9,1.9-2.3,1.9C1488.5,359.2,1487.6,358.7,1487.1,357.9z"/>
<path class="st17" d="M1493.3,358.4v-0.2c0-0.4,0.4-0.7,0.8-0.6c0.3,0,0.6,0.3,0.6,0.6v0.2c0,0.4-0.4,0.7-0.8,0.6
	C1493.6,359,1493.4,358.7,1493.3,358.4z"/>
</svg>
