<?xml version="1.0" encoding="utf-8"?>
<!-- Generator: Adobe Illustrator 22.1.0, SVG Export Plug-In . SVG Version: 6.00 Build 0)  -->
<svg version="1.1" id="Layer_1" xmlns="http://www.w3.org/2000/svg" xmlns:xlink="http://www.w3.org/1999/xlink" x="0px" y="0px"
	 viewBox="0 0 1056 468" style="enable-background:new 0 0 1056 468;" xml:space="preserve">
<style type="text/css">
	.st0{fill:#FFFFFF;}
	.st1{fill:#F0F0F0;}
	.st2{fill:#A66EFA;}
	.st3{fill:#009C98;}
	.st4{fill:#0530AD;}
	.st5{fill:#565656;}
</style>
<title>account access</title>
<desc>Created with Sketch.</desc>
<g id="account-access">
	<rect x="337" class="st0" width="385" height="468"/>
	<rect id="Rectangle" x="433" y="46" class="st1" width="224" height="402"/>
	<circle id="Oval" class="st2" cx="547" cy="217" r="24"/>
	<g id="pictograms_x2F_trash_x2F_delete" transform="translate(196.000000, 203.000000)">
		<path id="Fill-1" class="st0" d="M341.7,1.5c-0.8,0-1.6,0.3-2.3,0.9c-1.2,1.2-1.2,3.3,0,4.5l6.8,6.8c0.1,0.1,0.1,0.3,0,0.5
			l-6.8,6.8c-1.2,1.2-1.2,3.3,0,4.5c1.2,1.2,3.3,1.2,4.5,0l6.8-6.8c0.1-0.1,0.3-0.1,0.4,0l6.8,6.8c0.6,0.6,1.4,0.9,2.3,0.9
			c0.9,0,1.7-0.3,2.3-0.9c1.2-1.2,1.2-3.3,0-4.5l-6.8-6.8c-0.1-0.1-0.1-0.3,0-0.4l6.8-6.8c1.2-1.2,1.2-3.3,0-4.5
			c-0.6-0.6-1.4-0.9-2.3-0.9c-0.9,0-1.7,0.3-2.3,0.9l-6.8,6.8c-0.1,0.1-0.3,0.1-0.4,0l-6.8-6.9C343.3,1.8,342.5,1.5,341.7,1.5
			 M341.7,27.1c-1,0-2-0.4-2.7-1.1c-1.5-1.5-1.5-3.9,0-5.4l6.6-6.6L339,7.4c-1.5-1.5-1.5-3.9,0-5.4s3.9-1.5,5.4,0l6.6,6.6l6.6-6.6
			c0.7-0.7,1.7-1.1,2.7-1.1s2,0.4,2.7,1.1c1.5,1.5,1.5,3.9,0,5.4l-6.6,6.6l6.6,6.6c1.5,1.5,1.5,3.9,0,5.4c-0.7,0.7-1.7,1.1-2.7,1.1
			s-2-0.4-2.7-1.1l-6.6-6.6l-6.6,6.6C343.6,26.7,342.7,27.1,341.7,27.1"/>
	</g>
	<path id="Accountgroup" d="M522.4,257l-0.6-1.9h-2.5l-0.6,1.9h-0.8l2.2-6.3h1l2.2,6.3H522.4z M520.6,251.4L520.6,251.4l-1.1,3.1
		h2.2L520.6,251.4z M525.9,257.1c-0.3,0-0.6-0.1-0.9-0.2s-0.5-0.3-0.7-0.5s-0.3-0.5-0.4-0.8c-0.1-0.3-0.1-0.6-0.1-1s0-0.7,0.1-1
		c0.1-0.3,0.2-0.6,0.4-0.8s0.4-0.4,0.7-0.5s0.5-0.2,0.9-0.2c0.5,0,0.8,0.1,1.1,0.3s0.5,0.5,0.6,0.8l-0.6,0.3
		c-0.1-0.2-0.2-0.4-0.4-0.6c-0.2-0.1-0.4-0.2-0.7-0.2c-0.2,0-0.4,0-0.6,0.1s-0.3,0.2-0.4,0.3s-0.2,0.3-0.2,0.4s-0.1,0.4-0.1,0.6v0.8
		c0,0.4,0.1,0.7,0.3,1c0.2,0.3,0.5,0.4,1,0.4c0.6,0,1-0.3,1.3-0.8l0.5,0.4c-0.1,0.3-0.4,0.6-0.7,0.8
		C526.7,256.9,526.4,257.1,525.9,257.1z M530.4,257.1c-0.3,0-0.6-0.1-0.9-0.2s-0.5-0.3-0.7-0.5s-0.3-0.5-0.4-0.8s-0.1-0.6-0.1-1
		s0-0.7,0.1-1c0.1-0.3,0.2-0.6,0.4-0.8s0.4-0.4,0.7-0.5s0.5-0.2,0.9-0.2c0.5,0,0.8,0.1,1.1,0.3s0.5,0.5,0.6,0.8l-0.6,0.3
		c-0.1-0.2-0.2-0.4-0.4-0.6c-0.2-0.1-0.4-0.2-0.7-0.2c-0.2,0-0.4,0-0.6,0.1s-0.3,0.2-0.4,0.3s-0.2,0.3-0.2,0.4s-0.1,0.4-0.1,0.6v0.8
		c0,0.4,0.1,0.7,0.3,1c0.2,0.3,0.5,0.4,1,0.4c0.6,0,1-0.3,1.3-0.8l0.5,0.4c-0.2,0.3-0.4,0.6-0.7,0.8
		C531.2,257,530.9,257.1,530.4,257.1z M534.9,257.1c-0.3,0-0.6-0.1-0.9-0.2s-0.5-0.3-0.7-0.5s-0.3-0.5-0.4-0.8
		c-0.1-0.3-0.2-0.6-0.2-1s0.1-0.7,0.2-1s0.2-0.6,0.4-0.8s0.4-0.4,0.7-0.5s0.5-0.2,0.9-0.2c0.3,0,0.6,0.1,0.9,0.2
		c0.3,0.1,0.5,0.3,0.7,0.5c0.2,0.2,0.3,0.5,0.4,0.8c0.1,0.3,0.2,0.6,0.2,1s-0.1,0.7-0.2,1c-0.1,0.3-0.2,0.6-0.4,0.8
		c-0.2,0.2-0.4,0.4-0.7,0.5C535.5,257.1,535.2,257.1,534.9,257.1z M534.9,256.5c0.4,0,0.7-0.1,1-0.4c0.2-0.2,0.4-0.6,0.4-1.1v-0.7
		c0-0.5-0.1-0.9-0.4-1.1c-0.2-0.2-0.6-0.4-1-0.4c-0.4,0-0.7,0.1-1,0.4c-0.2,0.2-0.4,0.6-0.4,1.1v0.7c0,0.5,0.1,0.9,0.4,1.1
		C534.2,256.3,534.5,256.5,534.9,256.5z M541.1,256.2L541.1,256.2c-0.1,0.1-0.1,0.2-0.2,0.3c-0.1,0.1-0.2,0.2-0.3,0.3
		c-0.1,0.1-0.2,0.1-0.4,0.2c-0.1,0-0.3,0.1-0.5,0.1c-0.5,0-0.9-0.2-1.1-0.5c-0.2-0.3-0.4-0.7-0.4-1.3v-3h0.7v2.9
		c0,0.8,0.4,1.3,1.1,1.3c0.1,0,0.3,0,0.4-0.1c0.1,0,0.3-0.1,0.4-0.2c0.1-0.1,0.2-0.2,0.3-0.3c0.1-0.1,0.1-0.2,0.1-0.4v-3.2h0.7v4.6
		h-0.7v-0.7L541.1,256.2L541.1,256.2z M543.3,257v-4.6h0.7v0.8l0,0c0.1-0.3,0.3-0.5,0.5-0.6c0.2-0.2,0.5-0.2,0.8-0.2
		c0.5,0,0.9,0.2,1.1,0.5c0.3,0.3,0.4,0.7,0.4,1.3v3h-0.7v-2.9c0-0.8-0.4-1.3-1.1-1.3c-0.1,0-0.3,0-0.4,0.1c-0.1,0-0.3,0.1-0.4,0.2
		s-0.2,0.2-0.3,0.3c-0.1,0.1-0.1,0.2-0.1,0.4v3.2h-0.5V257z M549.4,257c-0.3,0-0.4-0.1-0.6-0.2c-0.1-0.1-0.2-0.3-0.2-0.6V253h-0.8
		v-0.6h0.4c0.2,0,0.3,0,0.3-0.1c0.1-0.1,0.1-0.2,0.1-0.3v-0.9h0.6v1.3h1v0.6h-1v3.4h0.9v0.6H549.4z M557.6,257.5
		c0,0.5-0.2,0.8-0.6,1.1s-0.9,0.3-1.7,0.3c-0.7,0-1.2-0.1-1.6-0.3c-0.4-0.2-0.5-0.5-0.5-0.8s0.1-0.4,0.2-0.6
		c0.1-0.1,0.3-0.2,0.5-0.3v-0.1c-0.3-0.1-0.4-0.3-0.4-0.6c0-0.2,0.1-0.4,0.2-0.5c0.1-0.1,0.3-0.2,0.6-0.3l0,0
		c-0.3-0.1-0.5-0.3-0.6-0.6c-0.1-0.3-0.2-0.5-0.2-0.9c0-0.2,0-0.5,0.1-0.6c0.1-0.1,0.2-0.4,0.4-0.5s0.3-0.3,0.5-0.3
		c0.2-0.1,0.5-0.1,0.7-0.1c0.3,0,0.6,0.1,0.9,0.2v-0.1c0-0.2,0-0.3,0.1-0.4c0.1-0.1,0.2-0.2,0.4-0.2h0.7v0.6h-0.9v0.3
		c0.2,0.1,0.3,0.3,0.4,0.5c0.1,0.2,0.1,0.4,0.1,0.7c0,0.2,0,0.4-0.1,0.6s-0.2,0.4-0.4,0.5c-0.2,0.1-0.3,0.3-0.6,0.3
		c-0.2,0.1-0.5,0.1-0.7,0.1c-0.1,0-0.3,0-0.4,0c-0.2,0-0.3,0.1-0.4,0.2c-0.1,0.1-0.2,0.2-0.2,0.3c0,0.1,0.1,0.2,0.2,0.3
		c0.1,0.1,0.3,0.1,0.5,0.1h1c0.6,0,1,0.1,1.3,0.3C557.5,256.8,557.6,257.1,557.6,257.5z M556.9,257.6c0-0.2-0.1-0.3-0.2-0.4
		c-0.1-0.1-0.4-0.2-0.8-0.2h-1.5c-0.3,0.1-0.4,0.3-0.4,0.6c0,0.2,0.1,0.4,0.2,0.5c0.2,0.1,0.4,0.2,0.8,0.2h0.7
		c0.4,0,0.7-0.1,0.9-0.2C556.8,258,556.9,257.8,556.9,257.6z M555.3,254.9c0.3,0,0.5-0.1,0.7-0.2c0.2-0.1,0.3-0.4,0.3-0.7v-0.3
		c0-0.3-0.1-0.5-0.3-0.7c-0.2-0.1-0.4-0.2-0.7-0.2s-0.5,0.1-0.7,0.2c-0.2,0.1-0.3,0.4-0.3,0.7v0.3c0,0.3,0.1,0.5,0.3,0.7
		C554.8,254.8,555,254.9,555.3,254.9z M558.5,257v-4.6h0.7v0.9l0,0c0.1-0.2,0.2-0.4,0.4-0.6c0.2-0.2,0.5-0.3,0.9-0.3h0.3v0.7h-0.4
		c-0.4,0-0.7,0.1-0.9,0.2c-0.2,0.1-0.3,0.3-0.3,0.6v3.1L558.5,257L558.5,257z M563.5,257.1c-0.3,0-0.6-0.1-0.9-0.2
		c-0.3-0.1-0.5-0.3-0.7-0.5c-0.2-0.2-0.3-0.5-0.4-0.8s-0.2-0.6-0.2-1s0.1-0.7,0.2-1s0.2-0.6,0.4-0.8c0.2-0.2,0.4-0.4,0.7-0.5
		c0.3-0.1,0.5-0.2,0.9-0.2s0.6,0.1,0.9,0.2c0.3,0.1,0.5,0.3,0.7,0.5c0.2,0.2,0.3,0.5,0.4,0.8s0.2,0.6,0.2,1s-0.1,0.7-0.2,1
		s-0.2,0.6-0.4,0.8c-0.2,0.2-0.4,0.4-0.7,0.5C564.1,257.1,563.8,257.1,563.5,257.1z M563.5,256.5c0.4,0,0.7-0.1,1-0.4
		c0.2-0.2,0.4-0.6,0.4-1.1v-0.7c0-0.5-0.1-0.9-0.4-1.1c-0.2-0.2-0.6-0.4-1-0.4s-0.7,0.1-1,0.4c-0.2,0.2-0.4,0.6-0.4,1.1v0.7
		c0,0.5,0.1,0.9,0.4,1.1C562.8,256.3,563.1,256.5,563.5,256.5z M569.6,256.2L569.6,256.2c-0.1,0.1-0.1,0.2-0.2,0.3
		c-0.1,0.1-0.2,0.2-0.3,0.3c-0.1,0.1-0.2,0.1-0.4,0.2s-0.3,0.1-0.5,0.1c-0.5,0-0.9-0.2-1.1-0.5c-0.3-0.3-0.4-0.7-0.4-1.3v-3h0.7v2.9
		c0,0.8,0.4,1.3,1.1,1.3c0.1,0,0.3,0,0.4-0.1c0.1,0,0.3-0.1,0.4-0.2c0.1-0.1,0.2-0.2,0.3-0.3c0.1-0.1,0.1-0.2,0.1-0.4v-3.2h0.7v4.6
		h-0.7v-0.7L569.6,256.2L569.6,256.2z M571.9,252.4h0.7v0.8l0,0c0.1-0.3,0.3-0.5,0.5-0.7c0.2-0.1,0.5-0.2,0.8-0.2
		c0.3,0,0.5,0.1,0.8,0.2c0.2,0.1,0.4,0.3,0.6,0.5s0.3,0.5,0.4,0.8c0.1,0.3,0.1,0.6,0.1,1s0,0.7-0.1,1c-0.1,0.3-0.2,0.6-0.4,0.8
		s-0.4,0.4-0.6,0.5s-0.5,0.2-0.8,0.2c-0.6,0-1.1-0.3-1.4-0.9l0,0v2.6h-0.7L571.9,252.4L571.9,252.4z M573.8,256.5
		c0.4,0,0.7-0.1,1-0.4c0.2-0.3,0.4-0.6,0.4-1v-0.8c0-0.4-0.1-0.7-0.4-1c-0.2-0.3-0.6-0.4-1-0.4c-0.2,0-0.3,0-0.5,0.1
		s-0.3,0.1-0.4,0.2c-0.1,0.1-0.2,0.2-0.3,0.3c-0.1,0.1-0.1,0.2-0.1,0.4v1.7c0,0.2,0,0.3,0.1,0.4c0.1,0.1,0.1,0.2,0.3,0.3
		c0.2,0.1,0.2,0.1,0.4,0.2S573.6,256.5,573.8,256.5z"/>
	<path id="Account" d="M475.2,371l-0.6-1.9H472l-0.6,1.9h-0.8l2.2-6.3h1l2.2,6.3H475.2z M473.3,365.4L473.3,365.4l-1.1,3.1h2.2
		L473.3,365.4z M478.7,371.1c-0.3,0-0.6-0.1-0.9-0.2s-0.5-0.3-0.7-0.5s-0.3-0.5-0.4-0.8c-0.1-0.3-0.1-0.6-0.1-1s0-0.7,0.1-1
		s0.2-0.6,0.4-0.8s0.4-0.4,0.7-0.5c0.3-0.1,0.5-0.2,0.9-0.2c0.5,0,0.8,0.1,1.1,0.3c0.3,0.2,0.5,0.5,0.6,0.8l-0.6,0.3
		c-0.1-0.2-0.2-0.4-0.4-0.6c-0.2-0.1-0.4-0.2-0.7-0.2c-0.2,0-0.4,0-0.6,0.1c-0.2,0.1-0.3,0.2-0.4,0.3c-0.1,0.1-0.2,0.3-0.2,0.4
		c-0.1,0.2-0.1,0.4-0.1,0.6v0.8c0,0.4,0.1,0.7,0.3,1s0.5,0.4,1,0.4c0.6,0,1-0.3,1.3-0.8l0.5,0.4c-0.2,0.3-0.4,0.6-0.7,0.8
		C479.5,371,479.1,371.1,478.7,371.1z M483.2,371.1c-0.3,0-0.6-0.1-0.9-0.2s-0.5-0.3-0.7-0.5s-0.3-0.5-0.4-0.8
		c-0.1-0.3-0.1-0.6-0.1-1s0-0.7,0.1-1s0.2-0.6,0.4-0.8s0.4-0.4,0.7-0.5c0.3-0.1,0.5-0.2,0.9-0.2c0.5,0,0.8,0.1,1.1,0.3
		c0.3,0.2,0.5,0.5,0.6,0.8l-0.6,0.3c-0.1-0.2-0.2-0.4-0.4-0.6c-0.2-0.1-0.4-0.2-0.7-0.2c-0.2,0-0.4,0-0.6,0.1s-0.3,0.2-0.4,0.3
		c-0.1,0.1-0.2,0.3-0.2,0.4c-0.1,0.2-0.1,0.4-0.1,0.6v0.8c0,0.4,0.1,0.7,0.3,1s0.5,0.4,1,0.4c0.6,0,1-0.3,1.3-0.8l0.5,0.4
		c-0.1,0.3-0.4,0.6-0.7,0.8S483.6,371.1,483.2,371.1z M487.7,371.1c-0.3,0-0.6-0.1-0.9-0.2s-0.5-0.3-0.7-0.5s-0.3-0.5-0.4-0.8
		c-0.1-0.3-0.2-0.6-0.2-1s0.1-0.7,0.2-1c0.1-0.3,0.2-0.6,0.4-0.8c0.2-0.2,0.4-0.4,0.7-0.5c0.3-0.1,0.5-0.2,0.9-0.2
		c0.4,0,0.6,0.1,0.9,0.2c0.3,0.1,0.5,0.3,0.7,0.5s0.3,0.5,0.4,0.8s0.2,0.6,0.2,1s-0.1,0.7-0.2,1s-0.2,0.6-0.4,0.8
		c-0.2,0.2-0.4,0.4-0.7,0.5C488.3,371.1,488,371.1,487.7,371.1z M487.7,370.5c0.4,0,0.7-0.1,1-0.4c0.2-0.2,0.4-0.6,0.4-1.1v-0.7
		c0-0.5-0.1-0.9-0.4-1.1c-0.2-0.2-0.6-0.4-1-0.4c-0.4,0-0.7,0.1-1,0.4c-0.2,0.2-0.4,0.6-0.4,1.1v0.7c0,0.5,0.1,0.9,0.4,1.1
		C487,370.3,487.3,370.5,487.7,370.5z M493.8,370.2L493.8,370.2c-0.1,0.1-0.1,0.2-0.2,0.3c-0.1,0.1-0.2,0.2-0.3,0.3
		c-0.1,0.1-0.2,0.1-0.4,0.2c-0.2,0.1-0.3,0.1-0.5,0.1c-0.5,0-0.9-0.2-1.1-0.5c-0.3-0.3-0.4-0.7-0.4-1.3v-3h0.7v2.9
		c0,0.8,0.4,1.3,1.1,1.3c0.1,0,0.3,0,0.4-0.1c0.1,0,0.3-0.1,0.4-0.2c0.1-0.1,0.2-0.2,0.3-0.3c0.1-0.1,0.1-0.2,0.1-0.4v-3.2h0.7v4.6
		h-0.7v-0.7L493.8,370.2L493.8,370.2z M496.1,371v-4.6h0.7v0.8l0,0c0.1-0.3,0.3-0.5,0.5-0.6c0.2-0.1,0.5-0.2,0.8-0.2
		c0.5,0,0.9,0.2,1.1,0.5c0.3,0.3,0.4,0.7,0.4,1.3v3H499v-2.9c0-0.8-0.4-1.3-1.1-1.3c-0.1,0-0.3,0-0.4,0.1c-0.1,0-0.3,0.1-0.4,0.2
		s-0.2,0.2-0.3,0.3c-0.1,0.1-0.1,0.2-0.1,0.4v3.2h-0.6L496.1,371L496.1,371z M502.2,371c-0.3,0-0.4-0.1-0.6-0.2
		c-0.1-0.1-0.2-0.3-0.2-0.6V367h-0.8v-0.6h0.4c0.2,0,0.3,0,0.3-0.1c0.1-0.1,0.1-0.2,0.1-0.3v-0.9h0.6v1.3h1v0.6h-1v3.4h0.9v0.6
		H502.2z"/>
	<circle id="Oval_1_" class="st3" cx="489.5" cy="331" r="24"/>
	<g id="pictograms_x2F_security_x2F_unlock" transform="translate(138.500000, 317.000000)">
		<path id="Fill-10" class="st0" d="M351,19.5c-0.6-0.1-1-0.7-1-1.3c0-0.7,0.6-1.3,1.3-1.3c0.7,0,1.3,0.6,1.3,1.3
			c0,0.6-0.4,1.1-1,1.3v1.8c0,0.2-0.1,0.3-0.3,0.3c-0.2,0-0.3-0.1-0.3-0.3V19.5z M347.3,5.6v5c1.2-0.6,2.6-1,4.1-1
			c5,0,9.1,4.1,9.1,9.1s-4.1,9.1-9.1,9.1s-9.1-4.1-9.1-9.1c0-3.3,1.8-6.2,4.4-7.8V5.6c0-2.6,2.1-4.7,4.7-4.7S356,3,356,5.6h-0.6
			c0-2.2-1.8-4.1-4.1-4.1C349.1,1.5,347.3,3.3,347.3,5.6L347.3,5.6z M351.3,10.3c-4.7,0-8.4,3.8-8.4,8.4c0,4.7,3.8,8.4,8.4,8.4
			c4.6,0,8.4-3.8,8.4-8.4C359.8,14,356,10.3,351.3,10.3z"/>
	</g>
	<path id="Account_1_" d="M584.2,371l-0.6-1.9H581l-0.6,1.9h-0.8l2.2-6.3h1l2.2,6.3H584.2z M582.3,365.4L582.3,365.4l-1.1,3.1h2.2
		L582.3,365.4z M587.7,371.1c-0.3,0-0.6-0.1-0.9-0.2s-0.5-0.3-0.7-0.5c-0.2-0.2-0.3-0.5-0.4-0.8c-0.1-0.3-0.1-0.6-0.1-1s0-0.7,0.1-1
		s0.2-0.6,0.4-0.8c0.2-0.2,0.4-0.4,0.7-0.5s0.5-0.2,0.9-0.2c0.5,0,0.8,0.1,1.1,0.3c0.3,0.2,0.5,0.5,0.6,0.8l-0.6,0.3
		c-0.1-0.2-0.2-0.4-0.4-0.6c-0.2-0.1-0.4-0.2-0.7-0.2c-0.2,0-0.4,0-0.6,0.1c-0.2,0.1-0.3,0.2-0.4,0.3c-0.1,0.1-0.2,0.3-0.2,0.4
		c-0.1,0.2-0.1,0.4-0.1,0.6v0.8c0,0.4,0.1,0.7,0.3,1s0.5,0.4,1,0.4c0.6,0,1-0.3,1.3-0.8l0.5,0.4c-0.2,0.3-0.4,0.6-0.7,0.8
		C588.5,371,588.1,371.1,587.7,371.1z M592.2,371.1c-0.3,0-0.6-0.1-0.9-0.2s-0.5-0.3-0.7-0.5c-0.2-0.2-0.3-0.5-0.4-0.8
		c-0.1-0.3-0.1-0.6-0.1-1s0-0.7,0.1-1s0.2-0.6,0.4-0.8c0.2-0.2,0.4-0.4,0.7-0.5s0.5-0.2,0.9-0.2c0.5,0,0.8,0.1,1.1,0.3
		s0.5,0.5,0.6,0.8l-0.6,0.3c-0.1-0.2-0.2-0.4-0.4-0.6c-0.2-0.1-0.4-0.2-0.7-0.2c-0.2,0-0.4,0-0.6,0.1s-0.3,0.2-0.4,0.3
		c-0.1,0.1-0.2,0.3-0.2,0.4c-0.1,0.2-0.1,0.4-0.1,0.6v0.8c0,0.4,0.1,0.7,0.3,1s0.5,0.4,1,0.4c0.6,0,1-0.3,1.3-0.8l0.5,0.4
		c-0.1,0.3-0.4,0.6-0.7,0.8S592.6,371.1,592.2,371.1z M596.7,371.1c-0.3,0-0.6-0.1-0.9-0.2c-0.3-0.1-0.5-0.3-0.7-0.5
		c-0.2-0.2-0.3-0.5-0.4-0.8s-0.2-0.6-0.2-1s0.1-0.7,0.2-1s0.2-0.6,0.4-0.8c0.2-0.2,0.4-0.4,0.7-0.5c0.3-0.1,0.5-0.2,0.9-0.2
		c0.3,0,0.6,0.1,0.9,0.2c0.3,0.1,0.5,0.3,0.7,0.5c0.2,0.2,0.3,0.5,0.4,0.8s0.2,0.6,0.2,1s-0.1,0.7-0.2,1s-0.2,0.6-0.4,0.8
		c-0.2,0.2-0.4,0.4-0.7,0.5C597.3,371.1,597,371.1,596.7,371.1z M596.7,370.5c0.4,0,0.7-0.1,1-0.4c0.2-0.2,0.4-0.6,0.4-1.1v-0.7
		c0-0.5-0.1-0.9-0.4-1.1c-0.2-0.2-0.6-0.4-1-0.4s-0.7,0.1-1,0.4c-0.2,0.2-0.4,0.6-0.4,1.1v0.7c0,0.5,0.1,0.9,0.4,1.1
		C596,370.3,596.3,370.5,596.7,370.5z M602.8,370.2L602.8,370.2c-0.1,0.1-0.1,0.2-0.2,0.3c-0.1,0.1-0.2,0.2-0.3,0.3
		s-0.2,0.1-0.4,0.2c-0.1,0-0.3,0.1-0.5,0.1c-0.5,0-0.9-0.2-1.1-0.5c-0.3-0.3-0.4-0.7-0.4-1.3v-3h0.7v2.9c0,0.8,0.4,1.3,1.1,1.3
		c0.1,0,0.3,0,0.4-0.1c0.1,0,0.3-0.1,0.4-0.2s0.2-0.2,0.3-0.3c0.1-0.1,0.1-0.2,0.1-0.4v-3.2h0.7v4.6h-0.7v-0.7L602.8,370.2
		L602.8,370.2z M605.1,371v-4.6h0.7v0.8l0,0c0.1-0.3,0.3-0.5,0.5-0.6c0.2-0.1,0.5-0.2,0.8-0.2c0.5,0,0.9,0.2,1.1,0.5
		c0.3,0.3,0.4,0.7,0.4,1.3v3H608v-2.9c0-0.8-0.4-1.3-1.1-1.3c-0.1,0-0.3,0-0.4,0.1c-0.1,0-0.3,0.1-0.4,0.2c-0.1,0.1-0.2,0.2-0.3,0.3
		s-0.1,0.2-0.1,0.4v3.2h-0.6V371z M611.2,371c-0.3,0-0.4-0.1-0.6-0.2c-0.1-0.1-0.2-0.3-0.2-0.6V367h-0.8v-0.6h0.4
		c0.2,0,0.3,0,0.3-0.1c0.1-0.1,0.1-0.2,0.1-0.3v-0.9h0.6v1.3h1v0.6h-1v3.4h0.9v0.6H611.2z"/>
	<circle id="Oval_2_" class="st3" cx="598.5" cy="331" r="24"/>
	<g id="pictograms_x2F_trash_x2F_delete_1_" transform="translate(247.500000, 317.000000)">
		<path id="Fill-1_1_" class="st0" d="M341.7,1.5c-0.8,0-1.6,0.3-2.3,0.9c-1.2,1.2-1.2,3.3,0,4.5l6.8,6.8c0.1,0.1,0.1,0.3,0,0.5
			l-6.8,6.8c-1.2,1.2-1.2,3.3,0,4.5c1.2,1.2,3.3,1.2,4.5,0l6.8-6.8c0.1-0.1,0.3-0.1,0.4,0l6.8,6.8c0.6,0.6,1.4,0.9,2.3,0.9
			c0.9,0,1.7-0.3,2.3-0.9c1.2-1.2,1.2-3.3,0-4.5l-6.8-6.8c-0.1-0.1-0.1-0.3,0-0.4l6.8-6.8c1.2-1.2,1.2-3.3,0-4.5
			c-0.6-0.6-1.4-0.9-2.3-0.9c-0.9,0-1.7,0.3-2.3,0.9l-6.8,6.8c-0.1,0.1-0.3,0.1-0.4,0l-6.8-6.9C343.3,1.8,342.5,1.5,341.7,1.5
			 M341.7,27.1c-1,0-2-0.4-2.7-1.1c-1.5-1.5-1.5-3.9,0-5.4l6.6-6.6L339,7.4c-1.5-1.5-1.5-3.9,0-5.4s3.9-1.5,5.4,0l6.6,6.6l6.6-6.6
			c0.7-0.7,1.7-1.1,2.7-1.1s2,0.4,2.7,1.1c1.5,1.5,1.5,3.9,0,5.4l-6.6,6.6l6.6,6.6c1.5,1.5,1.5,3.9,0,5.4c-0.7,0.7-1.7,1.1-2.7,1.1
			s-2-0.4-2.7-1.1l-6.6-6.6l-6.6,6.6C343.6,26.7,342.7,27.1,341.7,27.1"/>
	</g>
	<path class="st4" d="M587.7,278.8h-40v-14.5h-1.5v14.5h-44.8c-6.5,0-11.8,5.3-11.8,11.8v11h1.5v-11c0-5.7,4.6-10.2,10.3-10.2h86.2
		c5.7,0,10.3,4.6,10.3,10.2v11h1.5v-11C599.5,284,594.2,278.8,587.7,278.8z"/>
	<circle id="Oval_3_" class="st3" cx="393" cy="98" r="24"/>
	<g id="pictograms_x2F_user_x2F_group" transform="translate(42.000000, 83.000000)">
		<path id="Fill-6" class="st0" d="M353.1,6.5c1.5,0.7,2.5,2.2,2.5,3.9c0,1.4-0.7,2.8-1.9,3.6c2.9,1,4.9,3.8,4.9,6.9v7.4H358v-7.4
			c0-3.1-2.1-5.8-5.1-6.5c-0.1,0-0.2-0.1-0.2-0.3c0-0.1,0.1-0.3,0.2-0.3c1.3-0.6,2.2-1.9,2.2-3.4c0-2-1.6-3.7-3.7-3.7
			c-2,0-3.7,1.6-3.7,3.7c0,1.4,0.9,2.8,2.2,3.4c0.1,0.1,0.2,0.2,0.2,0.3s-0.1,0.2-0.2,0.3c-3,0.7-5.1,3.4-5.1,6.5v7.4H344v-7.4
			c0-3.1,2-5.9,4.9-6.9c-1.2-0.8-1.9-2.1-1.9-3.6c0-1.7,1-3.2,2.5-3.9c0.2-0.4,0.3-0.9,0.3-1.4c0-2-1.6-3.7-3.7-3.7
			s-3.7,1.8-3.7,3.8c0,1.4,0.9,2.8,2.2,3.4c0.1,0.1,0.2,0.2,0.2,0.3s-0.1,0.2-0.2,0.3c-3,0.7-5.1,3.4-5.1,6.5v7.4h-0.8v-7.4
			c0-3.1,2-5.9,4.9-6.9c-1.1-0.9-1.8-2.2-1.8-3.6c0-2.4,1.9-4.3,4.3-4.3s4.3,1.9,4.3,4.3c0,0.4,0,0.7-0.1,1.1
			c0.3-0.1,0.7-0.1,1.1-0.1s0.7,0,1.1,0.1c-0.1-0.4-0.1-0.7-0.1-1.1c0-2.4,1.9-4.3,4.3-4.3c2.4,0,4.3,1.9,4.3,4.3
			c0,1.4-0.7,2.8-1.9,3.6c2.9,1,4.9,3.8,4.9,6.9v7.4h-0.6v-7.4c0-3.1-2.1-5.8-5.1-6.5c-0.1,0-0.2-0.1-0.2-0.3c0-0.1,0.1-0.3,0.2-0.3
			c1.3-0.6,2.2-1.9,2.2-3.4c0-2-1.6-3.7-3.7-3.7c-2,0-3.7,1.6-3.7,3.7C352.9,5.7,353,6.1,353.1,6.5z"/>
	</g>
	<path id="Enterprise" d="M525.9,138v-6.3h3.8v0.7h-3.1v2.1h2.9v0.7h-2.9v2.2h3.1v0.7L525.9,138L525.9,138z M531.1,138v-4.6h0.7v0.8
		l0,0c0.1-0.3,0.3-0.5,0.5-0.6c0.2-0.2,0.5-0.2,0.8-0.2c0.5,0,0.9,0.2,1.1,0.5c0.3,0.3,0.4,0.7,0.4,1.3v3H534v-2.9
		c0-0.8-0.4-1.3-1.1-1.3c-0.1,0-0.3,0-0.4,0.1c-0.1,0-0.3,0.1-0.4,0.2c-0.1,0.1-0.2,0.2-0.3,0.3c-0.1,0.1-0.1,0.2-0.1,0.4v3.2h-0.6
		V138L531.1,138z M537.2,138c-0.3,0-0.4-0.1-0.6-0.2c-0.1-0.1-0.2-0.3-0.2-0.6V134h-0.8v-0.6h0.4c0.2,0,0.3,0,0.3-0.1
		c0.1-0.1,0.1-0.2,0.1-0.3v-0.9h0.6v1.3h1v0.6h-1v3.4h0.9v0.6H537.2z M541.1,138.1c-0.3,0-0.6-0.1-0.9-0.2s-0.5-0.3-0.7-0.5
		c-0.2-0.2-0.3-0.5-0.4-0.8c-0.1-0.3-0.1-0.6-0.1-1s0-0.7,0.1-1c0.1-0.3,0.2-0.6,0.4-0.8c0.2-0.2,0.4-0.4,0.7-0.5s0.5-0.2,0.9-0.2
		c0.3,0,0.6,0.1,0.8,0.2c0.2,0.1,0.5,0.3,0.6,0.5c0.2,0.2,0.3,0.4,0.4,0.7s0.1,0.6,0.1,0.9v0.3h-3.3v0.2c0,0.2,0,0.4,0.1,0.6
		c0.1,0.2,0.2,0.3,0.3,0.4c0.1,0.1,0.3,0.2,0.4,0.3c0.2,0.1,0.4,0.1,0.6,0.1c0.3,0,0.6-0.1,0.8-0.2c0.2-0.1,0.4-0.3,0.5-0.6l0.5,0.4
		c-0.1,0.3-0.4,0.6-0.7,0.8C541.9,138,541.5,138.1,541.1,138.1z M541.1,133.9c-0.2,0-0.4,0-0.5,0.1c-0.1,0.1-0.3,0.2-0.4,0.3
		c-0.1,0.1-0.2,0.3-0.3,0.4c-0.1,0.2-0.1,0.4-0.1,0.6v0.1h2.6v-0.1c0-0.4-0.1-0.7-0.3-1C541.8,134,541.5,133.9,541.1,133.9z
		 M544.3,138v-4.6h0.7v0.9l0,0c0.1-0.2,0.2-0.4,0.4-0.6c0.2-0.2,0.5-0.3,0.9-0.3h0.3v0.7h-0.4c-0.4,0-0.7,0.1-0.9,0.2
		c-0.2,0.1-0.3,0.3-0.3,0.6v3.1L544.3,138L544.3,138z M547.6,133.4h0.7v0.8l0,0c0.1-0.3,0.3-0.5,0.5-0.7c0.2-0.1,0.5-0.2,0.8-0.2
		c0.3,0,0.5,0.1,0.8,0.2c0.2,0.1,0.4,0.3,0.6,0.5s0.3,0.5,0.4,0.8s0.1,0.6,0.1,1s0,0.7-0.1,1c-0.1,0.3-0.2,0.6-0.4,0.8
		c-0.2,0.2-0.4,0.4-0.6,0.5s-0.5,0.2-0.8,0.2c-0.6,0-1.1-0.3-1.4-0.9l0,0v2.6h-0.7L547.6,133.4L547.6,133.4z M549.5,137.5
		c0.4,0,0.7-0.1,1-0.4c0.2-0.3,0.4-0.6,0.4-1v-0.8c0-0.4-0.1-0.7-0.4-1c-0.2-0.3-0.6-0.4-1-0.4c-0.2,0-0.3,0-0.5,0.1
		s-0.3,0.1-0.4,0.2c-0.1,0.1-0.2,0.2-0.3,0.3c-0.1,0.1-0.1,0.2-0.1,0.4v1.7c0,0.2,0,0.3,0.1,0.4c0.1,0.1,0.1,0.2,0.3,0.3
		c0.1,0.1,0.2,0.1,0.4,0.2C549.2,137.4,549.3,137.5,549.5,137.5z M552.8,138v-4.6h0.7v0.9l0,0c0.1-0.2,0.2-0.4,0.4-0.6
		c0.2-0.2,0.5-0.3,0.9-0.3h0.3v0.7h-0.4c-0.4,0-0.7,0.1-0.9,0.2c-0.2,0.1-0.3,0.3-0.3,0.6v3.1L552.8,138L552.8,138z M556.5,132.3
		c-0.2,0-0.3,0-0.3-0.1c-0.1-0.1-0.1-0.2-0.1-0.3v-0.1c0-0.1,0-0.2,0.1-0.3c0.1-0.1,0.2-0.1,0.3-0.1c0.2,0,0.3,0,0.3,0.1
		s0.1,0.2,0.1,0.3v0.1c0,0.1,0,0.2-0.1,0.3C556.7,132.2,556.6,132.3,556.5,132.3z M556.1,133.4h0.7v4.6h-0.7V133.4z M559.7,138.1
		c-0.4,0-0.8-0.1-1.1-0.2c-0.3-0.2-0.5-0.4-0.8-0.7l0.5-0.4c0.2,0.2,0.4,0.4,0.6,0.5c0.2,0.1,0.5,0.2,0.8,0.2s0.5-0.1,0.7-0.2
		c0.2-0.1,0.3-0.3,0.3-0.6c0-0.2-0.1-0.3-0.2-0.5c-0.1-0.1-0.3-0.2-0.6-0.3l-0.4-0.1c-0.2,0-0.4-0.1-0.6-0.1
		c-0.2-0.1-0.3-0.1-0.5-0.3c-0.1-0.1-0.2-0.2-0.3-0.4c-0.1-0.2-0.1-0.3-0.1-0.6c0-0.2,0-0.4,0.1-0.6c0.1-0.2,0.2-0.3,0.3-0.4
		c0.1-0.1,0.3-0.2,0.5-0.3c0.2-0.1,0.4-0.1,0.7-0.1c0.4,0,0.7,0.1,0.9,0.2c0.3,0.1,0.5,0.3,0.7,0.5l-0.5,0.4
		c-0.1-0.1-0.3-0.3-0.5-0.4c-0.2-0.1-0.4-0.2-0.7-0.2c-0.3,0-0.5,0.1-0.7,0.2s-0.2,0.3-0.2,0.5s0.1,0.4,0.2,0.5s0.4,0.2,0.7,0.2
		l0.4,0.1c0.5,0.1,0.9,0.2,1.1,0.4s0.3,0.5,0.3,0.9c0,0.5-0.2,0.8-0.5,1.1C560.7,138,560.3,138.1,559.7,138.1z M564.5,138.1
		c-0.3,0-0.6-0.1-0.9-0.2c-0.3-0.1-0.5-0.3-0.7-0.5c-0.2-0.2-0.3-0.5-0.4-0.8s-0.1-0.6-0.1-1s0-0.7,0.1-1c0.1-0.3,0.2-0.6,0.4-0.8
		c0.2-0.2,0.4-0.4,0.7-0.5c0.3-0.1,0.5-0.2,0.9-0.2c0.3,0,0.6,0.1,0.8,0.2c0.2,0.1,0.5,0.3,0.6,0.5c0.2,0.2,0.3,0.4,0.4,0.7
		c0.1,0.3,0.1,0.6,0.1,0.9v0.3h-3.3v0.2c0,0.2,0,0.4,0.1,0.6s0.2,0.3,0.3,0.4c0.1,0.1,0.3,0.2,0.4,0.3c0.2,0.1,0.4,0.1,0.6,0.1
		c0.3,0,0.6-0.1,0.8-0.2c0.2-0.1,0.4-0.3,0.5-0.6l0.5,0.4c-0.2,0.3-0.4,0.6-0.7,0.8C565.3,138,564.9,138.1,564.5,138.1z
		 M564.5,133.9c-0.2,0-0.4,0-0.5,0.1s-0.3,0.2-0.4,0.3c-0.1,0.1-0.2,0.3-0.3,0.4c-0.1,0.2-0.1,0.4-0.1,0.6v0.1h2.6v-0.1
		c0-0.4-0.1-0.7-0.3-1C565.2,134,564.9,133.9,564.5,133.9z"/>
	<circle id="Oval_4_" class="st4" cx="546" cy="98" r="24"/>
	<g id="pictograms_x2F_trash_x2F_delete_2_" transform="translate(195.000000, 83.000000)">
		<path id="Fill-1_2_" class="st0" d="M341.7,1.5c-0.8,0-1.6,0.3-2.3,0.9c-1.2,1.2-1.2,3.3,0,4.5l6.8,6.8c0.1,0.1,0.1,0.3,0,0.5
			l-6.8,6.8c-1.2,1.2-1.2,3.3,0,4.5c1.2,1.2,3.3,1.2,4.5,0l6.8-6.8c0.1-0.1,0.3-0.1,0.4,0l6.8,6.8c0.6,0.6,1.4,0.9,2.3,0.9
			c0.9,0,1.7-0.3,2.3-0.9c1.2-1.2,1.2-3.3,0-4.5l-6.8-6.8c-0.1-0.1-0.1-0.3,0-0.4l6.8-6.8c1.2-1.2,1.2-3.3,0-4.5
			c-0.6-0.6-1.4-0.9-2.3-0.9c-0.9,0-1.7,0.3-2.3,0.9l-6.8,6.8c-0.1,0.1-0.3,0.1-0.4,0l-6.8-6.9C343.3,1.8,342.5,1.5,341.7,1.5
			 M341.7,27.1c-1,0-2-0.4-2.7-1.1c-1.5-1.5-1.5-3.9,0-5.4l6.6-6.6L339,7.4c-1.5-1.5-1.5-3.9,0-5.4s3.9-1.5,5.4,0l6.6,6.6l6.6-6.6
			c0.7-0.7,1.7-1.1,2.7-1.1s2,0.4,2.7,1.1c1.5,1.5,1.5,3.9,0,5.4l-6.6,6.6l6.6,6.6c1.5,1.5,1.5,3.9,0,5.4c-0.7,0.7-1.7,1.1-2.7,1.1
			s-2-0.4-2.7-1.1l-6.6-6.6l-6.6,6.6C343.6,26.7,342.7,27.1,341.7,27.1"/>
	</g>
	<path id="accesspolicy" d="M447.1,28c-0.3,0-0.5-0.1-0.6-0.2s-0.2-0.3-0.2-0.5l0,0c-0.1,0.3-0.3,0.5-0.5,0.6
		c-0.2,0.1-0.5,0.2-0.8,0.2c-0.5,0-0.9-0.1-1.1-0.4c-0.3-0.3-0.4-0.6-0.4-1s0.2-0.8,0.5-1s0.8-0.4,1.5-0.4h0.9v-0.5
		c0-0.3-0.1-0.6-0.3-0.8c-0.2-0.2-0.5-0.3-0.8-0.3c-0.3,0-0.5,0.1-0.7,0.2c-0.2,0.1-0.3,0.3-0.5,0.5l-0.4-0.4
		c0.1-0.3,0.3-0.5,0.6-0.6c0.3-0.2,0.6-0.3,1-0.3c0.6,0,1,0.1,1.3,0.4c0.3,0.3,0.5,0.7,0.5,1.2v2.6h0.5V28H447.1z M445.1,27.5
		c0.2,0,0.3,0,0.5-0.1c0.2-0.1,0.3-0.1,0.4-0.2s0.2-0.2,0.3-0.3c0.1-0.1,0.1-0.2,0.1-0.3v-0.8h-1c-0.4,0-0.7,0.1-0.9,0.2
		s-0.3,0.3-0.3,0.5v0.2c0,0.2,0.1,0.4,0.2,0.5C444.6,27.4,444.8,27.5,445.1,27.5z M450.3,28.1c-0.3,0-0.6-0.1-0.9-0.2
		c-0.3-0.1-0.5-0.3-0.7-0.5c-0.2-0.2-0.3-0.5-0.4-0.8c-0.1-0.3-0.1-0.6-0.1-1s0-0.7,0.1-1c0.1-0.3,0.2-0.6,0.4-0.8s0.4-0.4,0.7-0.5
		c0.3-0.1,0.5-0.2,0.9-0.2c0.5,0,0.8,0.1,1.1,0.3c0.3,0.2,0.5,0.5,0.6,0.8l-0.6,0.3c-0.1-0.2-0.2-0.4-0.4-0.6
		c-0.2-0.1-0.4-0.2-0.7-0.2c-0.2,0-0.4,0-0.6,0.1c-0.2,0.1-0.3,0.2-0.4,0.3c-0.1,0.1-0.2,0.3-0.2,0.4s-0.1,0.4-0.1,0.6v0.8
		c0,0.4,0.1,0.7,0.3,1c0.2,0.3,0.5,0.4,1,0.4c0.6,0,1-0.3,1.3-0.8l0.5,0.4c-0.2,0.3-0.4,0.6-0.7,0.8C451.1,28,450.7,28.1,450.3,28.1
		z M454.8,28.1c-0.3,0-0.6-0.1-0.9-0.2c-0.3-0.1-0.5-0.3-0.7-0.5c-0.2-0.2-0.3-0.5-0.4-0.8c-0.1-0.3-0.1-0.6-0.1-1s0-0.7,0.1-1
		c0.1-0.3,0.2-0.6,0.4-0.8s0.4-0.4,0.7-0.5c0.3-0.1,0.5-0.2,0.9-0.2c0.5,0,0.8,0.1,1.1,0.3c0.3,0.2,0.5,0.5,0.6,0.8l-0.6,0.3
		c-0.1-0.2-0.2-0.4-0.4-0.6c-0.2-0.1-0.4-0.2-0.7-0.2c-0.2,0-0.4,0-0.6,0.1c-0.2,0.1-0.3,0.2-0.4,0.3c-0.1,0.1-0.2,0.3-0.2,0.4
		s-0.1,0.4-0.1,0.6v0.8c0,0.4,0.1,0.7,0.3,1c0.2,0.3,0.5,0.4,1,0.4c0.6,0,1-0.3,1.3-0.8l0.5,0.4c-0.2,0.3-0.4,0.6-0.7,0.8
		C455.6,28,455.2,28.1,454.8,28.1z M459.3,28.1c-0.3,0-0.6-0.1-0.9-0.2c-0.3-0.1-0.5-0.3-0.7-0.5c-0.2-0.2-0.3-0.5-0.4-0.8
		c-0.1-0.3-0.1-0.6-0.1-1s0-0.7,0.1-1c0.1-0.3,0.2-0.6,0.4-0.8c0.2-0.2,0.4-0.4,0.7-0.5c0.3-0.1,0.5-0.2,0.9-0.2
		c0.3,0,0.6,0.1,0.8,0.2s0.5,0.3,0.6,0.5c0.2,0.2,0.3,0.4,0.4,0.7s0.1,0.6,0.1,0.9v0.3h-3.3v0.2c0,0.2,0,0.4,0.1,0.6
		s0.2,0.3,0.3,0.4c0.1,0.1,0.3,0.2,0.4,0.3c0.2,0.1,0.4,0.1,0.6,0.1c0.3,0,0.6-0.1,0.8-0.2s0.4-0.3,0.5-0.6l0.5,0.4
		c-0.2,0.3-0.4,0.6-0.7,0.8C460.1,28,459.7,28.1,459.3,28.1z M459.3,23.9c-0.2,0-0.4,0-0.5,0.1c-0.1,0.1-0.3,0.2-0.4,0.3
		c-0.1,0.1-0.2,0.3-0.3,0.4c-0.1,0.2-0.1,0.4-0.1,0.6v0.1h2.6v-0.1c0-0.4-0.1-0.7-0.3-1C459.9,24,459.6,23.9,459.3,23.9z
		 M463.9,28.1c-0.4,0-0.8-0.1-1.1-0.2c-0.3-0.1-0.5-0.4-0.8-0.7l0.5-0.4c0.2,0.2,0.4,0.4,0.6,0.5c0.2,0.1,0.5,0.2,0.8,0.2
		c0.3,0,0.5-0.1,0.7-0.2c0.2-0.1,0.3-0.3,0.3-0.6c0-0.2-0.1-0.3-0.2-0.5c-0.1-0.1-0.3-0.2-0.6-0.3l-0.4-0.1c-0.2,0-0.4-0.1-0.6-0.1
		c-0.2-0.1-0.3-0.1-0.5-0.3c-0.1-0.1-0.2-0.2-0.3-0.4c-0.1-0.2-0.1-0.3-0.1-0.6c0-0.2,0-0.4,0.1-0.6c0.1-0.2,0.2-0.3,0.3-0.4
		s0.3-0.2,0.5-0.3s0.4-0.1,0.7-0.1c0.4,0,0.7,0.1,0.9,0.2c0.3,0.1,0.5,0.3,0.7,0.5l-0.5,0.4c-0.1-0.1-0.3-0.3-0.5-0.4
		c-0.2-0.1-0.4-0.2-0.7-0.2s-0.5,0.1-0.7,0.2c-0.2,0.1-0.2,0.3-0.2,0.5s0.1,0.4,0.2,0.5c0.2,0.1,0.4,0.2,0.7,0.2l0.4,0.1
		c0.5,0.1,0.9,0.2,1.1,0.4c0.2,0.2,0.3,0.5,0.3,0.9c0,0.5-0.2,0.8-0.5,1.1C464.8,28,464.4,28.1,463.9,28.1z M468.2,28.1
		c-0.4,0-0.8-0.1-1.1-0.2c-0.3-0.1-0.5-0.4-0.8-0.7l0.5-0.4c0.2,0.2,0.4,0.4,0.6,0.5c0.2,0.1,0.5,0.2,0.8,0.2c0.3,0,0.5-0.1,0.7-0.2
		s0.3-0.3,0.3-0.6c0-0.2-0.1-0.3-0.2-0.5c-0.1-0.1-0.3-0.2-0.6-0.3L468,26c-0.2,0-0.4-0.1-0.6-0.1c-0.2-0.1-0.3-0.1-0.5-0.3
		c-0.1-0.1-0.2-0.2-0.3-0.4c-0.1-0.2-0.1-0.3-0.1-0.6c0-0.2,0-0.4,0.1-0.6c0.1-0.2,0.2-0.3,0.3-0.4s0.3-0.2,0.5-0.3
		c0.2-0.1,0.4-0.1,0.7-0.1c0.4,0,0.7,0.1,0.9,0.2c0.3,0.1,0.5,0.3,0.7,0.5l-0.5,0.4c-0.1-0.1-0.3-0.3-0.4-0.4s-0.4-0.2-0.7-0.2
		c-0.3,0-0.5,0.1-0.7,0.2s-0.2,0.3-0.2,0.5s0.1,0.4,0.2,0.5c0.2,0.1,0.4,0.2,0.7,0.2l0.4,0.1c0.5,0.1,0.9,0.2,1.1,0.4
		c0.2,0.2,0.3,0.5,0.3,0.9c0,0.5-0.2,0.8-0.5,1.1S468.7,28.1,468.2,28.1z M473.3,23.4h0.7v0.8l0,0c0.1-0.3,0.3-0.5,0.5-0.7
		c0.2-0.1,0.5-0.2,0.8-0.2c0.3,0,0.5,0.1,0.8,0.2c0.2,0.1,0.4,0.3,0.6,0.5s0.3,0.5,0.4,0.8s0.1,0.6,0.1,1s0,0.7-0.1,1
		s-0.2,0.6-0.4,0.8c-0.2,0.2-0.4,0.4-0.6,0.5c-0.2,0.1-0.5,0.2-0.8,0.2c-0.6,0-1.1-0.3-1.4-0.9l0,0V30h-0.7L473.3,23.4L473.3,23.4z
		 M475.2,27.5c0.4,0,0.7-0.1,1-0.4c0.2-0.3,0.4-0.6,0.4-1v-0.8c0-0.4-0.1-0.7-0.4-1c-0.2-0.3-0.6-0.4-1-0.4c-0.2,0-0.3,0-0.5,0.1
		c-0.1,0-0.3,0.1-0.4,0.2c-0.1,0.1-0.2,0.2-0.3,0.3c-0.1,0.1-0.1,0.2-0.1,0.4v1.7c0,0.2,0,0.3,0.1,0.4s0.1,0.2,0.3,0.3
		c0.1,0.1,0.2,0.1,0.4,0.2C474.9,27.4,475,27.5,475.2,27.5z M480.3,28.1c-0.3,0-0.6-0.1-0.9-0.2s-0.5-0.3-0.7-0.5s-0.3-0.5-0.4-0.8
		s-0.2-0.6-0.2-1s0.1-0.7,0.2-1s0.2-0.6,0.4-0.8s0.4-0.4,0.7-0.5c0.3-0.1,0.5-0.2,0.9-0.2c0.3,0,0.6,0.1,0.9,0.2s0.5,0.3,0.7,0.5
		s0.3,0.5,0.4,0.8c0.1,0.3,0.2,0.6,0.2,1s-0.1,0.7-0.2,1c-0.1,0.3-0.2,0.6-0.4,0.8c-0.2,0.2-0.4,0.4-0.7,0.5
		C480.9,28.1,480.6,28.1,480.3,28.1z M480.3,27.5c0.4,0,0.7-0.1,1-0.4c0.2-0.2,0.4-0.6,0.4-1.1v-0.7c0-0.5-0.1-0.9-0.4-1.1
		c-0.2-0.2-0.6-0.4-1-0.4c-0.4,0-0.7,0.1-1,0.4c-0.3,0.3-0.4,0.6-0.4,1.1V26c0,0.5,0.1,0.9,0.4,1.1
		C479.6,27.3,479.9,27.5,480.3,27.5z M484.3,28c-0.3,0-0.4-0.1-0.6-0.2s-0.2-0.3-0.2-0.5v-5.9h0.7v6h0.7V28H484.3z M486.4,22.3
		c-0.2,0-0.3,0-0.3-0.1c-0.1-0.1-0.1-0.2-0.1-0.3v-0.1c0-0.1,0-0.2,0.1-0.3c0.1-0.1,0.2-0.1,0.3-0.1s0.3,0,0.3,0.1
		c0.1,0.1,0.1,0.2,0.1,0.3v0.1c0,0.1,0,0.2-0.1,0.3C486.6,22.2,486.5,22.3,486.4,22.3z M486,23.4h0.7V28H486V23.4z M490,28.1
		c-0.3,0-0.6-0.1-0.9-0.2c-0.3-0.1-0.5-0.3-0.7-0.5c-0.2-0.2-0.3-0.5-0.4-0.8c-0.1-0.3-0.1-0.6-0.1-1s0-0.7,0.1-1
		c0.1-0.3,0.2-0.6,0.4-0.8c0.2-0.2,0.4-0.4,0.7-0.5s0.5-0.2,0.9-0.2c0.5,0,0.8,0.1,1.1,0.3c0.3,0.2,0.5,0.5,0.6,0.8l-0.6,0.3
		c-0.1-0.2-0.2-0.4-0.4-0.6c-0.2-0.1-0.4-0.2-0.7-0.2c-0.2,0-0.4,0-0.6,0.1s-0.3,0.2-0.4,0.3c-0.1,0.1-0.2,0.3-0.2,0.4
		s-0.1,0.4-0.1,0.6v0.8c0,0.4,0.1,0.7,0.3,1c0.2,0.3,0.5,0.4,1,0.4c0.6,0,1-0.3,1.3-0.8l0.5,0.4c-0.1,0.3-0.4,0.6-0.7,0.8
		C490.8,28,490.4,28.1,490,28.1z M495.6,23.4h0.7l-2.1,5.7c-0.1,0.1-0.1,0.3-0.2,0.3c-0.1,0.1-0.1,0.2-0.2,0.2
		c-0.1,0.1-0.2,0.1-0.3,0.1s-0.3,0-0.4,0h-0.4v-0.6h0.7l0.4-1l-1.7-4.8h0.7l1.1,3.2l0.2,0.8l0,0l0.3-0.8L495.6,23.4z"/>
	<g>
		<path class="st5" d="M388.7,25.2h-1.5h-0.5h-1.5c-0.1,0-0.2,0.1-0.2,0.2s0.1,0.2,0.2,0.2h1.5h0.5h1.5c0.1,0,0.2-0.1,0.2-0.2
			S388.9,25.2,388.7,25.2z"/>
		<path class="st5" d="M395.7,25.2h-1.5h-0.5h-1.5c-0.1,0-0.2,0.1-0.2,0.2s0.1,0.2,0.2,0.2h1.5h0.5h1.5c0.1,0,0.2-0.1,0.2-0.2
			S395.9,25.2,395.7,25.2z"/>
		<path class="st5" d="M374.7,25.2h-1.5h-0.5h-1.5c-0.1,0-0.2,0.1-0.2,0.2s0.1,0.2,0.2,0.2h1.5h0.5h1.5c0.1,0,0.2-0.1,0.2-0.2
			S374.9,25.2,374.7,25.2z"/>
		<path class="st5" d="M381.7,25.2h-1.5h-0.5h-1.5c-0.1,0-0.2,0.1-0.2,0.2s0.1,0.2,0.2,0.2h1.5h0.5h1.5c0.1,0,0.2-0.1,0.2-0.2
			S381.9,25.2,381.7,25.2z"/>
		<path class="st5" d="M431.2,25.2h-1.5h-0.5h-1.5c-0.1,0-0.2,0.1-0.2,0.2s0.1,0.2,0.2,0.2h1.5h0.5h1.5c0.1,0,0.2-0.1,0.2-0.2
			S431.4,25.2,431.2,25.2z"/>
		<path class="st5" d="M417.2,25.2h-1.5h-0.5h-1.5c-0.1,0-0.2,0.1-0.2,0.2s0.1,0.2,0.2,0.2h1.5h0.5h1.5c0.1,0,0.2-0.1,0.2-0.2
			S417.4,25.2,417.2,25.2z"/>
		<path class="st5" d="M424.2,25.2h-1.5h-0.5h-1.5c-0.1,0-0.2,0.1-0.2,0.2s0.1,0.2,0.2,0.2h1.5h0.5h1.5c0.1,0,0.2-0.1,0.2-0.2
			S424.4,25.2,424.2,25.2z"/>
		<path class="st5" d="M403.2,25.2h-4c-0.1,0-0.2,0.1-0.2,0.2s0.1,0.2,0.2,0.2h4c0.1,0,0.2-0.1,0.2-0.2S403.4,25.2,403.2,25.2z"/>
		<path class="st5" d="M410.2,25.2h-1.5h-0.5h-1.5c-0.1,0-0.2,0.1-0.2,0.2s0.1,0.2,0.2,0.2h1.5h0.5h1.5c0.1,0,0.2-0.1,0.2-0.2
			S410.4,25.2,410.2,25.2z"/>
	</g>
	<path class="st5" d="M450,338l4-3l-4-3v1c0,0.5,0,1.1,0,1.8h-47c-9.2,0-16.7-7.5-16.7-16.8V161c0-0.1-0.1-0.2-0.2-0.2
		s-0.2,0.1-0.2,0.2v157c0,9.5,7.7,17.3,17.2,17.3h47c0,0.6,0,1.3,0,1.8L450,338L450,338z"/>
	<g>
		<path class="st5" d="M392,229.2c0.1,0,0.2-0.1,0.2-0.2v-2c0-0.1-0.1-0.2-0.2-0.2s-0.2,0.1-0.2,0.2v2
			C391.8,229.1,391.9,229.2,392,229.2z"/>
		<path class="st5" d="M392,271.2c0.1,0,0.2-0.1,0.2-0.2v-2c0-0.1-0.1-0.2-0.2-0.2s-0.2,0.1-0.2,0.2v2
			C391.8,271.1,391.9,271.2,392,271.2z"/>
		<path class="st5" d="M392,223.2c0.1,0,0.2-0.1,0.2-0.2v-2c0-0.1-0.1-0.2-0.2-0.2s-0.2,0.1-0.2,0.2v2
			C391.8,223.1,391.9,223.2,392,223.2z"/>
		<path class="st5" d="M392,265.2c0.1,0,0.2-0.1,0.2-0.2v-2c0-0.1-0.1-0.2-0.2-0.2s-0.2,0.1-0.2,0.2v2
			C391.8,265.1,391.9,265.2,392,265.2z"/>
		<path class="st5" d="M392,217.2c0.1,0,0.2-0.1,0.2-0.2v-2c0-0.1-0.1-0.2-0.2-0.2s-0.2,0.1-0.2,0.2v2
			C391.8,217.1,391.9,217.2,392,217.2z"/>
		<path class="st5" d="M392,247.2c0.1,0,0.2-0.1,0.2-0.2v-2c0-0.1-0.1-0.2-0.2-0.2s-0.2,0.1-0.2,0.2v2
			C391.8,247.1,391.9,247.2,392,247.2z"/>
		<path class="st5" d="M392,259.2c0.1,0,0.2-0.1,0.2-0.2v-2c0-0.1-0.1-0.2-0.2-0.2s-0.2,0.1-0.2,0.2v2
			C391.8,259.1,391.9,259.2,392,259.2z"/>
		<path class="st5" d="M392,253.2c0.1,0,0.2-0.1,0.2-0.2v-2c0-0.1-0.1-0.2-0.2-0.2s-0.2,0.1-0.2,0.2v2
			C391.8,253.1,391.9,253.2,392,253.2z"/>
		<path class="st5" d="M392,235.2c0.1,0,0.2-0.1,0.2-0.2v-2c0-0.1-0.1-0.2-0.2-0.2s-0.2,0.1-0.2,0.2v2
			C391.8,235.1,391.9,235.2,392,235.2z"/>
		<path class="st5" d="M392,169.2c0.1,0,0.2-0.1,0.2-0.2v-2c0-0.1-0.1-0.2-0.2-0.2s-0.2,0.1-0.2,0.2v2
			C391.8,169.1,391.9,169.2,392,169.2z"/>
		<path class="st5" d="M392,175.2c0.1,0,0.2-0.1,0.2-0.2v-2c0-0.1-0.1-0.2-0.2-0.2s-0.2,0.1-0.2,0.2v2
			C391.8,175.1,391.9,175.2,392,175.2z"/>
		<path class="st5" d="M392,211.2c0.1,0,0.2-0.1,0.2-0.2v-2c0-0.1-0.1-0.2-0.2-0.2s-0.2,0.1-0.2,0.2v2
			C391.8,211.1,391.9,211.2,392,211.2z"/>
		<path class="st5" d="M392,181.2c0.1,0,0.2-0.1,0.2-0.2v-2c0-0.1-0.1-0.2-0.2-0.2s-0.2,0.1-0.2,0.2v2
			C391.8,181.1,391.9,181.2,392,181.2z"/>
		<path class="st5" d="M392,163.2c0.1,0,0.2-0.1,0.2-0.2v-2c0-0.1-0.1-0.2-0.2-0.2s-0.2,0.1-0.2,0.2v2
			C391.8,163.1,391.9,163.2,392,163.2z"/>
		<path class="st5" d="M392,199.2c0.1,0,0.2-0.1,0.2-0.2v-2c0-0.1-0.1-0.2-0.2-0.2s-0.2,0.1-0.2,0.2v2
			C391.8,199.1,391.9,199.2,392,199.2z"/>
		<path class="st5" d="M392,187.2c0.1,0,0.2-0.1,0.2-0.2v-2c0-0.1-0.1-0.2-0.2-0.2s-0.2,0.1-0.2,0.2v2
			C391.8,187.1,391.9,187.2,392,187.2z"/>
		<path class="st5" d="M392,205.2c0.1,0,0.2-0.1,0.2-0.2v-2c0-0.1-0.1-0.2-0.2-0.2s-0.2,0.1-0.2,0.2v2
			C391.8,205.1,391.9,205.2,392,205.2z"/>
		<path class="st5" d="M392,193.2c0.1,0,0.2-0.1,0.2-0.2v-2c0-0.1-0.1-0.2-0.2-0.2s-0.2,0.1-0.2,0.2v2
			C391.8,193.1,391.9,193.2,392,193.2z"/>
		<path class="st5" d="M392,241.2c0.1,0,0.2-0.1,0.2-0.2v-2c0-0.1-0.1-0.2-0.2-0.2s-0.2,0.1-0.2,0.2v2
			C391.8,241.1,391.9,241.2,392,241.2z"/>
		<path class="st5" d="M414.5,327.8h-2c-0.1,0-0.2,0.1-0.2,0.2s0.1,0.2,0.2,0.2h2c0.1,0,0.2-0.1,0.2-0.2S414.6,327.8,414.5,327.8z"
			/>
		<path class="st5" d="M426.5,327.8h-2c-0.1,0-0.2,0.1-0.2,0.2s0.1,0.2,0.2,0.2h2c0.1,0,0.2-0.1,0.2-0.2S426.6,327.8,426.5,327.8z"
			/>
		<path class="st5" d="M420.5,327.8h-2c-0.1,0-0.2,0.1-0.2,0.2s0.1,0.2,0.2,0.2h2c0.1,0,0.2-0.1,0.2-0.2S420.6,327.8,420.5,327.8z"
			/>
		<path class="st5" d="M408.4,327.7c-0.7,0-1.3-0.1-2-0.2c-0.1,0-0.3,0.1-0.3,0.2s0.1,0.3,0.2,0.3c0.7,0.1,1.3,0.2,2,0.2
			c0.1,0,0.3-0.1,0.3-0.2S408.6,327.7,408.4,327.7z"/>
		<path class="st5" d="M402.6,326.5c-0.6-0.3-1.2-0.5-1.8-0.9c-0.1-0.1-0.3,0-0.3,0.1c-0.1,0.1,0,0.3,0.1,0.3
			c0.6,0.3,1.2,0.6,1.8,0.9c0.1,0.1,0.3,0,0.3-0.1C402.8,326.7,402.7,326.5,402.6,326.5z"/>
		<path class="st5" d="M444.5,327.8h-2c-0.1,0-0.2,0.1-0.2,0.2s0.1,0.2,0.2,0.2h2c0.1,0,0.2-0.1,0.2-0.2S444.6,327.8,444.5,327.8z"
			/>
		<path class="st5" d="M438.5,327.8h-2c-0.1,0-0.2,0.1-0.2,0.2s0.1,0.2,0.2,0.2h2c0.1,0,0.2-0.1,0.2-0.2S438.6,327.8,438.5,327.8z"
			/>
		<path class="st5" d="M432.5,327.8h-2c-0.1,0-0.2,0.1-0.2,0.2s0.1,0.2,0.2,0.2h2c0.1,0,0.2-0.1,0.2-0.2S432.6,327.8,432.5,327.8z"
			/>
		<path class="st5" d="M392,295.2c0.1,0,0.2-0.1,0.2-0.2v-2c0-0.1-0.1-0.2-0.2-0.2s-0.2,0.1-0.2,0.2v2
			C391.8,295.1,391.9,295.2,392,295.2z"/>
		<path class="st5" d="M392,277.2c0.1,0,0.2-0.1,0.2-0.2v-2c0-0.1-0.1-0.2-0.2-0.2s-0.2,0.1-0.2,0.2v2
			C391.8,277.1,391.9,277.2,392,277.2z"/>
		<path class="st5" d="M392,301.2c0.1,0,0.2-0.1,0.2-0.2v-2c0-0.1-0.1-0.2-0.2-0.2s-0.2,0.1-0.2,0.2v2
			C391.8,301.1,391.9,301.2,392,301.2z"/>
		<path class="st5" d="M392,289.2c0.1,0,0.2-0.1,0.2-0.2v-2c0-0.1-0.1-0.2-0.2-0.2s-0.2,0.1-0.2,0.2v2
			C391.8,289.1,391.9,289.2,392,289.2z"/>
		<path class="st5" d="M392,283.2c0.1,0,0.2-0.1,0.2-0.2v-2c0-0.1-0.1-0.2-0.2-0.2s-0.2,0.1-0.2,0.2v2
			C391.8,283.1,391.9,283.2,392,283.2z"/>
		<path class="st5" d="M392,307.2c0.1,0,0.2-0.1,0.2-0.2v-2c0-0.1-0.1-0.2-0.2-0.2s-0.2,0.1-0.2,0.2v2
			C391.8,307.1,391.9,307.2,392,307.2z"/>
		<path class="st5" d="M393.3,316.8c0-0.1-0.2-0.2-0.3-0.1s-0.2,0.2-0.1,0.3c0.2,0.6,0.5,1.3,0.8,1.9c0.1,0.1,0.2,0.2,0.3,0.1
			s0.2-0.2,0.1-0.3C393.8,318,393.5,317.4,393.3,316.8z"/>
		<path class="st5" d="M396.3,321.9c-0.1-0.1-0.2-0.1-0.4,0c-0.1,0.1-0.1,0.2,0,0.4c0.4,0.5,0.9,1,1.4,1.5c0.1,0.1,0.3,0.1,0.4,0
			c0.1-0.1,0.1-0.3,0-0.4C397.2,322.9,396.7,322.4,396.3,321.9z"/>
		<path class="st5" d="M392,310.8c-0.1,0-0.2,0.1-0.2,0.3c0,0.7,0,1.4,0.1,2c0,0.1,0.1,0.2,0.3,0.2c0.1,0,0.2-0.1,0.2-0.3
			c-0.1-0.6-0.1-1.3-0.1-2C392.2,310.9,392.1,310.7,392,310.8z"/>
		<path class="st5" d="M450,331l4-3l-4-3v1c0,0.5,0,1.1,0,1.8h-1.5c-0.1,0-0.2,0.1-0.2,0.2s0.1,0.2,0.2,0.2h1.5c0,0.6,0,1.3,0,1.8
			V331z"/>
	</g>
	<polygon id="Line-4" class="st4" points="545.2,146.5 545.2,184.8 546.8,184.8 546.8,146.5 	"/>
	<path id="membership" d="M443.8,14V9.4h0.7v0.8l0,0c0.1-0.1,0.1-0.2,0.2-0.3c0.1-0.1,0.2-0.2,0.3-0.3s0.2-0.1,0.3-0.2
		c0.1-0.1,0.3-0.1,0.5-0.1c0.3,0,0.6,0.1,0.8,0.2c0.3,0.1,0.5,0.4,0.6,0.7l0,0c0.1-0.3,0.2-0.5,0.5-0.7c0.3-0.2,0.5-0.3,0.9-0.3
		c0.5,0,0.8,0.2,1.1,0.5s0.4,0.7,0.4,1.3v3h-0.7v-2.9c0-0.4-0.1-0.7-0.2-0.9c-0.2-0.2-0.4-0.3-0.8-0.3c-0.1,0-0.3,0-0.4,0.1
		c-0.1,0-0.2,0.1-0.3,0.2c-0.1,0.1-0.2,0.2-0.2,0.3c-0.1,0.1-0.1,0.2-0.1,0.4V14h-0.7v-2.9c0-0.4-0.1-0.7-0.2-0.9
		c-0.2-0.2-0.4-0.3-0.8-0.3c-0.1,0-0.3,0-0.4,0.1c-0.1,0-0.2,0.1-0.4,0.2c-0.1,0.1-0.2,0.2-0.2,0.3c-0.1,0.1-0.1,0.2-0.1,0.4V14
		H443.8z M453.4,14.1c-0.3,0-0.6-0.1-0.9-0.2c-0.3-0.1-0.5-0.3-0.7-0.5c-0.2-0.2-0.3-0.5-0.4-0.8s-0.1-0.6-0.1-1s0-0.7,0.1-1
		s0.2-0.6,0.4-0.8c0.2-0.2,0.4-0.4,0.7-0.5s0.5-0.2,0.9-0.2c0.3,0,0.6,0.1,0.8,0.2c0.2,0.1,0.5,0.3,0.6,0.5c0.2,0.2,0.3,0.4,0.4,0.7
		c0.1,0.3,0.1,0.6,0.1,0.9v0.3H452v0.2c0,0.2,0,0.4,0.1,0.6c0.1,0.2,0.2,0.3,0.3,0.4c0.1,0.1,0.3,0.2,0.4,0.3
		c0.2,0.1,0.4,0.1,0.6,0.1c0.3,0,0.6-0.1,0.8-0.2s0.4-0.3,0.5-0.6l0.5,0.4c-0.2,0.3-0.4,0.6-0.7,0.8C454.2,14,453.8,14.1,453.4,14.1
		z M453.4,9.9c-0.2,0-0.4,0-0.5,0.1c-0.2,0.1-0.3,0.2-0.4,0.3s-0.2,0.3-0.3,0.4c-0.1,0.2-0.1,0.4-0.1,0.6v0.1h2.6v-0.1
		c0-0.4-0.1-0.7-0.3-1C454,10,453.7,9.9,453.4,9.9z M456.6,14V9.4h0.7v0.8l0,0c0.1-0.1,0.1-0.2,0.2-0.3c0.1-0.1,0.2-0.2,0.3-0.3
		s0.2-0.1,0.3-0.2c0.1,0,0.3-0.1,0.5-0.1c0.3,0,0.6,0.1,0.8,0.2c0.3,0.1,0.4,0.4,0.6,0.7l0,0c0.1-0.3,0.2-0.5,0.5-0.7
		s0.5-0.3,0.9-0.3c0.5,0,0.8,0.2,1.1,0.5s0.4,0.7,0.4,1.3v3h-0.7v-2.9c0-0.4-0.1-0.7-0.2-0.9c-0.2-0.2-0.4-0.3-0.8-0.3
		c-0.1,0-0.3,0-0.4,0.1c-0.1,0-0.2,0.1-0.3,0.2c-0.1,0.1-0.2,0.2-0.2,0.3c-0.1,0.1-0.1,0.2-0.1,0.4V14h-0.7v-2.9
		c0-0.4-0.1-0.7-0.2-0.9c-0.2-0.2-0.4-0.3-0.8-0.3c-0.1,0-0.3,0-0.4,0.1c-0.1,0-0.2,0.1-0.4,0.2c-0.1,0.1-0.2,0.2-0.2,0.3
		c-0.1,0.1-0.1,0.2-0.1,0.4V14H456.6z M464.4,7.3h0.7v2.8l0,0c0.1-0.3,0.3-0.5,0.5-0.7s0.5-0.2,0.8-0.2c0.3,0,0.5,0.1,0.8,0.2
		c0.2,0.1,0.4,0.3,0.6,0.5c0.2,0.2,0.3,0.5,0.4,0.8c0.1,0.3,0.1,0.6,0.1,1s0,0.7-0.1,1s-0.2,0.6-0.4,0.8s-0.4,0.4-0.6,0.5
		s-0.5,0.2-0.8,0.2c-0.6,0-1.1-0.3-1.4-0.9l0,0V14h-0.7L464.4,7.3L464.4,7.3z M466.3,13.5c0.4,0,0.7-0.1,1-0.4
		c0.2-0.3,0.4-0.6,0.4-1v-0.8c0-0.4-0.1-0.7-0.4-1c-0.2-0.3-0.6-0.4-1-0.4c-0.2,0-0.3,0-0.5,0.1c-0.2,0.1-0.3,0.1-0.4,0.2
		c-0.1,0.1-0.2,0.2-0.3,0.3s-0.1,0.2-0.1,0.4v1.7c0,0.2,0,0.3,0.1,0.4s0.1,0.2,0.3,0.3c0.2,0.1,0.2,0.1,0.4,0.2
		C466,13.4,466.2,13.5,466.3,13.5z M471.4,14.1c-0.3,0-0.6-0.1-0.9-0.2c-0.3-0.1-0.5-0.3-0.7-0.5c-0.2-0.2-0.3-0.5-0.4-0.8
		c-0.1-0.3-0.1-0.6-0.1-1s0-0.7,0.1-1c0.1-0.3,0.2-0.6,0.4-0.8c0.2-0.2,0.4-0.4,0.7-0.5s0.5-0.2,0.9-0.2c0.3,0,0.6,0.1,0.8,0.2
		c0.2,0.1,0.5,0.3,0.6,0.5c0.2,0.2,0.3,0.4,0.4,0.7c0.1,0.3,0.1,0.6,0.1,0.9v0.3H470v0.2c0,0.2,0,0.4,0.1,0.6
		c0.1,0.2,0.2,0.3,0.3,0.4c0.1,0.1,0.3,0.2,0.4,0.3c0.2,0.1,0.4,0.1,0.6,0.1c0.3,0,0.6-0.1,0.8-0.2s0.4-0.3,0.5-0.6l0.5,0.4
		c-0.1,0.3-0.4,0.6-0.7,0.8C472.2,14,471.8,14.1,471.4,14.1z M471.4,9.9c-0.2,0-0.4,0-0.5,0.1c-0.2,0.1-0.3,0.2-0.4,0.3
		c-0.1,0.1-0.2,0.3-0.3,0.4c-0.1,0.2-0.1,0.4-0.1,0.6v0.1h2.6v-0.1c0-0.4-0.1-0.7-0.3-1C472.1,10,471.8,9.9,471.4,9.9z M474.6,14
		V9.4h0.7v0.9l0,0c0.1-0.2,0.2-0.4,0.5-0.6c0.2-0.2,0.5-0.3,0.9-0.3h0.3v0.7h-0.4c-0.4,0-0.7,0.1-0.9,0.2c-0.2,0.1-0.3,0.3-0.3,0.6
		V14H474.6z M479.3,14.1c-0.4,0-0.8-0.1-1.1-0.2c-0.3-0.1-0.5-0.4-0.8-0.7l0.5-0.4c0.2,0.2,0.4,0.4,0.6,0.5s0.5,0.2,0.8,0.2
		c0.3,0,0.5-0.1,0.7-0.2c0.2-0.1,0.3-0.3,0.3-0.6c0-0.2-0.1-0.3-0.2-0.5s-0.3-0.2-0.6-0.3l-0.4-0.1c-0.2,0-0.4-0.1-0.6-0.1
		c-0.2-0.1-0.3-0.1-0.5-0.3c-0.1-0.1-0.2-0.2-0.3-0.4c-0.1-0.2-0.1-0.3-0.1-0.6c0-0.2,0-0.4,0.1-0.6c0.1-0.2,0.2-0.3,0.3-0.4
		c0.1-0.1,0.3-0.2,0.5-0.3s0.4-0.1,0.7-0.1c0.4,0,0.7,0.1,0.9,0.2c0.2,0.1,0.5,0.3,0.7,0.5l-0.5,0.4c-0.1-0.1-0.3-0.3-0.4-0.4
		s-0.4-0.2-0.7-0.2c-0.3,0-0.5,0.1-0.7,0.2s-0.2,0.3-0.2,0.5s0.1,0.4,0.2,0.5s0.4,0.2,0.7,0.2l0.4,0.1c0.5,0.1,0.9,0.2,1.1,0.4
		c0.2,0.2,0.3,0.5,0.3,0.9c0,0.5-0.2,0.8-0.5,1.1S479.8,14.1,479.3,14.1z M482.3,7.3h0.7v2.8l0,0c0.1-0.3,0.3-0.5,0.5-0.6
		c0.2-0.2,0.5-0.2,0.8-0.2c0.5,0,0.9,0.2,1.1,0.5c0.3,0.3,0.4,0.7,0.4,1.3v3h-0.7v-2.9c0-0.8-0.4-1.3-1.1-1.3c-0.1,0-0.3,0-0.4,0.1
		s-0.3,0.1-0.4,0.2c-0.1,0.1-0.2,0.2-0.3,0.3c-0.1,0.1-0.1,0.2-0.1,0.4V14h-0.7V7.3H482.3z M487.7,8.3c-0.2,0-0.3,0-0.3-0.1
		s-0.1-0.2-0.1-0.3V7.7c0-0.1,0-0.2,0.1-0.3s0.2-0.1,0.3-0.1c0.1,0,0.3,0,0.3,0.1c0.1,0.1,0.1,0.2,0.1,0.3v0.1c0,0.1,0,0.2-0.1,0.3
		C488,8.2,487.9,8.3,487.7,8.3z M487.4,9.4h0.7V14h-0.7V9.4z M489.6,9.4h0.7v0.8l0,0c0.1-0.3,0.3-0.5,0.5-0.7
		c0.2-0.2,0.5-0.2,0.8-0.2s0.5,0.1,0.8,0.2c0.2,0.1,0.4,0.3,0.6,0.5s0.3,0.5,0.4,0.8c0.1,0.3,0.1,0.6,0.1,1s0,0.7-0.1,1
		c-0.1,0.3-0.2,0.6-0.4,0.8c-0.2,0.2-0.4,0.4-0.6,0.5s-0.5,0.2-0.8,0.2c-0.6,0-1.1-0.3-1.4-0.9l0,0V16h-0.7L489.6,9.4L489.6,9.4z
		 M491.5,13.5c0.4,0,0.7-0.1,1-0.4c0.2-0.3,0.4-0.6,0.4-1v-0.8c0-0.4-0.1-0.7-0.4-1c-0.2-0.3-0.6-0.4-1-0.4c-0.2,0-0.3,0-0.5,0.1
		s-0.3,0.1-0.4,0.2c-0.1,0.1-0.2,0.2-0.3,0.3c-0.1,0.1-0.1,0.2-0.1,0.4v1.7c0,0.2,0,0.3,0.1,0.4c0.1,0.1,0.1,0.2,0.3,0.3
		s0.2,0.1,0.4,0.2C491.2,13.4,491.4,13.5,491.5,13.5z"/>
	<path id="Accountusers" d="M380.2,138l-0.6-1.9H377l-0.6,1.9h-0.8l2.2-6.3h1l2.2,6.3H380.2z M378.3,132.4L378.3,132.4l-1.1,3.1h2.2
		L378.3,132.4z M383.7,138.1c-0.3,0-0.6-0.1-0.9-0.2c-0.3-0.1-0.5-0.3-0.7-0.5c-0.2-0.2-0.3-0.5-0.4-0.8c-0.1-0.3-0.1-0.6-0.1-1
		s0-0.7,0.1-1c0.1-0.3,0.2-0.6,0.4-0.8c0.2-0.2,0.4-0.4,0.7-0.5c0.3-0.1,0.5-0.2,0.9-0.2c0.5,0,0.8,0.1,1.1,0.3
		c0.3,0.2,0.5,0.5,0.6,0.8l-0.6,0.3c-0.1-0.2-0.2-0.4-0.4-0.6c-0.2-0.1-0.4-0.2-0.7-0.2c-0.2,0-0.4,0-0.6,0.1
		c-0.2,0.1-0.3,0.2-0.4,0.3c-0.1,0.1-0.2,0.3-0.2,0.4s-0.1,0.4-0.1,0.6v0.8c0,0.4,0.1,0.7,0.3,1c0.2,0.3,0.5,0.4,1,0.4
		c0.6,0,1-0.3,1.3-0.8l0.5,0.4c-0.1,0.3-0.4,0.6-0.7,0.8C384.5,137.9,384.1,138.1,383.7,138.1z M388.2,138.1c-0.3,0-0.6-0.1-0.9-0.2
		c-0.3-0.1-0.5-0.3-0.7-0.5c-0.2-0.2-0.3-0.5-0.4-0.8c-0.1-0.3-0.1-0.6-0.1-1s0-0.7,0.1-1c0.1-0.3,0.2-0.6,0.4-0.8
		c0.2-0.2,0.4-0.4,0.7-0.5c0.3-0.1,0.5-0.2,0.9-0.2c0.5,0,0.8,0.1,1.1,0.3c0.3,0.2,0.5,0.5,0.6,0.8l-0.6,0.3
		c-0.1-0.2-0.2-0.4-0.4-0.6c-0.2-0.1-0.4-0.2-0.7-0.2c-0.2,0-0.4,0-0.6,0.1c-0.2,0.1-0.3,0.2-0.4,0.3c-0.1,0.1-0.2,0.3-0.2,0.4
		s-0.1,0.4-0.1,0.6v0.8c0,0.4,0.1,0.7,0.3,1c0.2,0.3,0.5,0.4,1,0.4c0.6,0,1-0.3,1.3-0.8l0.5,0.4c-0.2,0.3-0.4,0.6-0.7,0.8
		C389,137.9,388.6,138.1,388.2,138.1z M392.7,138.1c-0.3,0-0.6-0.1-0.9-0.2c-0.3-0.1-0.5-0.3-0.7-0.5c-0.2-0.2-0.3-0.5-0.4-0.8
		c-0.1-0.3-0.2-0.6-0.2-1s0.1-0.7,0.2-1c0.1-0.3,0.2-0.6,0.4-0.8c0.2-0.2,0.4-0.4,0.7-0.5c0.3-0.1,0.5-0.2,0.9-0.2
		c0.4,0,0.6,0.1,0.9,0.2c0.3,0.1,0.5,0.3,0.7,0.5c0.2,0.2,0.3,0.5,0.4,0.8s0.2,0.6,0.2,1s-0.1,0.7-0.2,1s-0.2,0.6-0.4,0.8
		c-0.2,0.2-0.4,0.4-0.7,0.5C393.3,138,393,138.1,392.7,138.1z M392.7,137.5c0.4,0,0.7-0.1,1-0.4c0.2-0.2,0.4-0.6,0.4-1.1v-0.7
		c0-0.5-0.1-0.9-0.4-1.1c-0.2-0.2-0.6-0.4-1-0.4c-0.4,0-0.7,0.1-1,0.4c-0.2,0.2-0.4,0.6-0.4,1.1v0.7c0,0.5,0.1,0.9,0.4,1.1
		C392,137.3,392.3,137.5,392.7,137.5z M398.8,137.2L398.8,137.2c-0.1,0.1-0.1,0.2-0.2,0.3s-0.2,0.2-0.3,0.3
		c-0.1,0.1-0.2,0.1-0.4,0.2c-0.1,0-0.3,0.1-0.5,0.1c-0.5,0-0.9-0.2-1.1-0.5c-0.2-0.3-0.4-0.7-0.4-1.3v-3h0.7v2.9
		c0,0.8,0.4,1.3,1.1,1.3c0.1,0,0.3,0,0.4-0.1c0.1,0,0.3-0.1,0.4-0.2c0.1-0.1,0.2-0.2,0.3-0.3c0.1-0.1,0.1-0.2,0.1-0.4v-3.2h0.7v4.6
		h-0.7L398.8,137.2L398.8,137.2z M401.1,138v-4.6h0.7v0.8l0,0c0.1-0.3,0.3-0.5,0.5-0.6c0.2-0.2,0.5-0.2,0.8-0.2
		c0.5,0,0.9,0.2,1.1,0.5c0.2,0.3,0.4,0.7,0.4,1.3v3H404v-2.9c0-0.8-0.4-1.3-1.1-1.3c-0.1,0-0.3,0-0.4,0.1c-0.1,0-0.3,0.1-0.4,0.2
		c-0.1,0.1-0.2,0.2-0.3,0.3c-0.1,0.1-0.1,0.2-0.1,0.4v3.2h-0.6V138z M407.2,138c-0.3,0-0.4-0.1-0.6-0.2c-0.1-0.1-0.2-0.3-0.2-0.6
		V134h-0.8v-0.6h0.4c0.2,0,0.3,0,0.3-0.1c0.1-0.1,0.1-0.2,0.1-0.3v-0.9h0.6v1.3h1v0.6h-1v3.4h0.9v0.6H407.2z M384.6,148.2
		L384.6,148.2c-0.1,0.1-0.1,0.2-0.2,0.3s-0.2,0.2-0.3,0.3s-0.2,0.1-0.4,0.2c-0.1,0-0.3,0.1-0.5,0.1c-0.5,0-0.9-0.2-1.1-0.5
		c-0.2-0.3-0.4-0.7-0.4-1.3v-3h0.7v2.9c0,0.8,0.4,1.3,1.1,1.3c0.1,0,0.3,0,0.4-0.1c0.1,0,0.3-0.1,0.4-0.2c0.1-0.1,0.2-0.2,0.3-0.3
		s0.1-0.2,0.1-0.4v-3.2h0.7v4.6h-0.7L384.6,148.2L384.6,148.2z M388.2,149.1c-0.4,0-0.8-0.1-1.1-0.2c-0.3-0.2-0.5-0.4-0.8-0.7
		l0.5-0.4c0.2,0.2,0.4,0.4,0.6,0.5c0.2,0.1,0.5,0.2,0.8,0.2c0.3,0,0.5-0.1,0.7-0.2c0.2-0.1,0.3-0.3,0.3-0.6c0-0.2-0.1-0.3-0.2-0.5
		c-0.1-0.1-0.3-0.2-0.6-0.3l-0.4-0.1c-0.2,0-0.4-0.1-0.6-0.1c-0.2-0.1-0.3-0.1-0.5-0.3c-0.1-0.1-0.2-0.2-0.3-0.4s-0.1-0.3-0.1-0.6
		c0-0.2,0-0.4,0.1-0.6c0.1-0.2,0.2-0.3,0.3-0.4c0.1-0.1,0.3-0.2,0.5-0.3c0.2-0.1,0.4-0.1,0.7-0.1c0.4,0,0.7,0.1,0.9,0.2
		s0.5,0.3,0.7,0.5l-0.5,0.4c-0.1-0.1-0.3-0.3-0.5-0.4c-0.2-0.1-0.4-0.2-0.7-0.2s-0.5,0.1-0.7,0.2c-0.2,0.1-0.2,0.3-0.2,0.5
		s0.1,0.4,0.2,0.5c0.1,0.1,0.4,0.2,0.7,0.2l0.4,0.1c0.5,0.1,0.9,0.2,1.1,0.4c0.2,0.2,0.3,0.5,0.3,0.9c0,0.5-0.2,0.8-0.5,1.1
		C389.2,149,388.7,149.1,388.2,149.1z M392.9,149.1c-0.3,0-0.6-0.1-0.9-0.2s-0.5-0.3-0.7-0.5c-0.2-0.2-0.3-0.5-0.4-0.8
		s-0.1-0.6-0.1-1s0-0.7,0.1-1s0.2-0.6,0.4-0.8c0.2-0.2,0.4-0.4,0.7-0.5s0.5-0.2,0.9-0.2c0.3,0,0.6,0.1,0.8,0.2
		c0.2,0.1,0.5,0.3,0.6,0.5c0.2,0.2,0.3,0.4,0.4,0.7c0.1,0.3,0.1,0.6,0.1,0.9v0.3h-3.3v0.2c0,0.2,0,0.4,0.1,0.6s0.2,0.3,0.3,0.4
		c0.1,0.1,0.3,0.2,0.4,0.3c0.2,0.1,0.4,0.1,0.6,0.1c0.3,0,0.6-0.1,0.8-0.2c0.2-0.1,0.4-0.3,0.5-0.6l0.5,0.4
		c-0.1,0.3-0.4,0.6-0.7,0.8C393.8,149,393.4,149.1,392.9,149.1z M392.9,144.9c-0.2,0-0.4,0-0.5,0.1c-0.2,0.1-0.3,0.2-0.4,0.3
		s-0.2,0.3-0.3,0.4c-0.1,0.2-0.1,0.4-0.1,0.6v0.1h2.6v-0.1c0-0.4-0.1-0.7-0.3-1C393.6,145,393.3,144.9,392.9,144.9z M396.1,149v-4.6
		h0.7v0.9l0,0c0.1-0.2,0.2-0.4,0.5-0.6c0.2-0.2,0.5-0.3,0.9-0.3h0.3v0.7h-0.4c-0.4,0-0.7,0.1-0.9,0.2c-0.2,0.1-0.3,0.3-0.3,0.6v3.1
		L396.1,149L396.1,149z M400.8,149.1c-0.4,0-0.8-0.1-1.1-0.2c-0.3-0.2-0.5-0.4-0.8-0.7l0.5-0.4c0.2,0.2,0.4,0.4,0.6,0.5
		s0.5,0.2,0.8,0.2c0.3,0,0.5-0.1,0.7-0.2c0.2-0.1,0.3-0.3,0.3-0.6c0-0.2-0.1-0.3-0.2-0.5c-0.1-0.1-0.3-0.2-0.6-0.3l-0.4-0.1
		c-0.2,0-0.4-0.1-0.6-0.1c-0.2-0.1-0.3-0.1-0.5-0.3c-0.1-0.1-0.2-0.2-0.3-0.4s-0.1-0.3-0.1-0.6c0-0.2,0-0.4,0.1-0.6
		c0.1-0.2,0.2-0.3,0.3-0.4c0.1-0.1,0.3-0.2,0.5-0.3c0.2-0.1,0.4-0.1,0.7-0.1c0.4,0,0.7,0.1,0.9,0.2c0.3,0.1,0.5,0.3,0.7,0.5
		l-0.5,0.4c-0.1-0.1-0.3-0.3-0.4-0.4c-0.2-0.1-0.4-0.2-0.7-0.2c-0.3,0-0.5,0.1-0.7,0.2c-0.2,0.1-0.2,0.3-0.2,0.5s0.1,0.4,0.2,0.5
		c0.2,0.1,0.4,0.2,0.7,0.2l0.4,0.1c0.5,0.1,0.9,0.2,1.1,0.4c0.2,0.2,0.3,0.5,0.3,0.9c0,0.5-0.2,0.8-0.5,1.1
		C401.8,149,401.4,149.1,400.8,149.1z"/>
</g>
<path class="st5" d="M430.2,12.2h-60c-0.1,0-0.2,0.1-0.2,0.2s0.1,0.2,0.2,0.2h60c0.1,0,0.2-0.1,0.2-0.2S430.4,12.2,430.2,12.2z"/>
</svg>
