<?xml version="1.0" encoding="utf-8"?>
<!-- Generator: Adobe Illustrator 27.0.1, SVG Export Plug-In . SVG Version: 6.00 Build 0)  -->
<svg version="1.1" xmlns="http://www.w3.org/2000/svg" xmlns:xlink="http://www.w3.org/1999/xlink" x="0px" y="0px"
	 viewBox="0 0 1496.7 748" style="enable-background:new 0 0 1496.7 748;" xml:space="preserve">
<style type="text/css">
	.st0{fill:#D0E2FF;}
	.st1{font-family:'IBMPlexSans';}
	.st2{font-size:20px;}
	.st3{font-family:'IBMPlexSans-Light';}
	.st4{font-size:12px;}
	.st5{font-size:15px;}
	.st6{font-size:18px;}
	.st7{fill:none;stroke:#000000;stroke-miterlimit:10;}
	.st8{fill:none;stroke:#000000;stroke-miterlimit:10;stroke-dasharray:5.2429,5.2429;}
	.st9{fill:none;stroke:#000000;stroke-miterlimit:10;stroke-dasharray:5.2429,5.2429,5.2429,5.2429;}
	.st10{fill:#D4BBFF;}
	.st11{fill:none;stroke:#000000;stroke-miterlimit:10;stroke-dasharray:5.5937,5.5937;}
	.st12{fill:none;stroke:#000000;stroke-miterlimit:10;stroke-dasharray:5.5937,5.5937,5.5937,5.5937;}
	.st13{fill:none;stroke:#000000;stroke-miterlimit:10;stroke-dasharray:5,5;}
	.st14{fill:none;stroke:#000000;stroke-miterlimit:10;stroke-dasharray:5,5,5,5;}
	.st15{fill:none;stroke:#000000;stroke-miterlimit:10;stroke-dasharray:4.0758,4.0758;}
	.st16{fill:none;stroke:#000000;stroke-miterlimit:10;stroke-dasharray:4.0758,4.0758,4.0758,4.0758;}
	.st17{stroke:#000000;stroke-miterlimit:10;}
	.st18{fill:none;stroke:#000000;stroke-miterlimit:10;stroke-dasharray:5.1723,5.1723;}
	.st19{fill:none;stroke:#000000;stroke-miterlimit:10;stroke-dasharray:5.1723,5.1723,5.1723,5.1723;}
	.st20{fill:none;stroke:#000000;stroke-miterlimit:10;stroke-dasharray:4.8,4.8;}
	.st21{fill:none;stroke:#000000;stroke-miterlimit:10;stroke-dasharray:4.8,4.8,4.8,4.8;}
	.st22{fill:none;stroke:#000000;stroke-miterlimit:10;stroke-dasharray:5.7273,5.7273;}
	.st23{fill:none;stroke:#000000;stroke-miterlimit:10;stroke-dasharray:5.7273,5.7273,5.7273,5.7273;}
	.st24{fill:none;stroke:#000000;stroke-miterlimit:10;stroke-dasharray:4.9457,4.9457;}
	.st25{fill:none;stroke:#000000;stroke-miterlimit:10;stroke-dasharray:4.9457,4.9457,4.9457,4.9457;}
	.st26{fill:none;stroke:#000000;stroke-miterlimit:10;stroke-dasharray:4.7286,4.7286;}
	.st27{fill:none;stroke:#000000;stroke-miterlimit:10;stroke-dasharray:4.7286,4.7286,4.7286,4.7286;}
	.st28{fill:none;stroke:#000000;stroke-miterlimit:10;stroke-dasharray:5.2755,5.2755;}
	.st29{fill:none;stroke:#000000;stroke-miterlimit:10;stroke-dasharray:5.2755,5.2755,5.2755,5.2755;}
	.st30{fill:none;stroke:#000000;stroke-miterlimit:10;stroke-dasharray:4.89,4.89;}
	.st31{fill:none;stroke:#000000;stroke-miterlimit:10;stroke-dasharray:4.89,4.89,4.89,4.89;}
	.st32{fill:none;stroke:#000000;stroke-miterlimit:10;stroke-dasharray:4.9242,4.9242;}
	.st33{fill:none;stroke:#000000;stroke-miterlimit:10;stroke-dasharray:4.9242,4.9242,4.9242,4.9242;}
	.st34{fill:none;stroke:#000000;stroke-miterlimit:10;stroke-dasharray:2.6429,2.6429;}
	.st35{fill:none;stroke:#000000;stroke-miterlimit:10;stroke-dasharray:2.6429,2.6429,2.6429,2.6429;}
	.st36{fill:none;stroke:#000000;stroke-miterlimit:10;stroke-dasharray:5.7755,5.7755;}
	.st37{fill:none;stroke:#000000;stroke-miterlimit:10;stroke-dasharray:5.7755,5.7755,5.7755,5.7755;}
	.st38{fill:#9EF0F0;}
</style>
<g id="Layer_1">
	<rect x="599" y="67.2" class="st0" width="150" height="47"/>
</g>
<g id="Layer_2">
	<text transform="matrix(1 0 0 1 637.2705 97.5201)" class="st1 st2">Account</text>
</g>
<g id="Layer_12">
	<rect x="602" y="187.2" class="st0" width="150" height="47"/>
</g>
<g id="Layer_54">
	<rect x="352" y="258.2" class="st0" width="181" height="47"/>
</g>
<g id="Layer_55">
	<text transform="matrix(1 0 0 1 377.8705 286.5201)" class="st1 st2">Access groups</text>
</g>
<g id="Layer_58">
	<rect x="17" y="258.2" class="st0" width="181" height="47"/>
</g>
<g id="Layer_57">
	<text transform="matrix(1 0 0 1 69.8603 288.94)" class="st1 st2">Services</text>
</g>
<g id="Layer_56">
	<text transform="matrix(1 0 0 1 485.4781 331.9091)"><tspan x="0" y="0" class="st3 st4">Users and service IDs can </tspan><tspan x="0" y="14.4" class="st3 st4">be granted access to individual </tspan><tspan x="0" y="28.8" class="st3 st4">resources or all resources </tspan><tspan x="0" y="43.2" class="st3 st4">within a resource group. </tspan></text>
</g>
<g id="Layer_59">
	<text transform="matrix(1 0 0 1 47.6927 574.5009)"><tspan x="0" y="0" class="st1 st5">Key</tspan><tspan x="25.2" y="0" class="st1 st4"> </tspan></text>
</g>
<g id="Layer_60">
	<text transform="matrix(1 0 0 1 91.9413 596.8998)" class="st3 st4">Membership</text>
</g>
<g id="Layer_61">
	<text transform="matrix(1 0 0 1 92.7825 615.6442)" class="st3 st4">Access</text>
</g>
<g id="Layer_13">
	<text transform="matrix(1 0 0 1 651.0005 217.5201)" class="st1 st2">Users</text>
</g>
<g id="Layer_5">
	<rect x="1001" y="117.2" class="st0" width="150" height="47"/>
</g>
<g id="Layer_4">
	<text transform="matrix(1 0 0 1 1025.2905 147.94)" class="st1 st2">Service IDs</text>
</g>
<g id="Layer_8">
	<rect x="1001" y="211.2" class="st0" width="150" height="47"/>
</g>
<g id="Layer_7">
	<text transform="matrix(1 0 0 1 1036.8804 240.0599)" class="st1 st2">API keys</text>
</g>
<g id="Layer_20">
	<text transform="matrix(1 0 0 1 936.0057 399.8779)" class="st1 st6">Classic infrastructure</text>
</g>
<g id="Layer_21">
	<text transform="matrix(1 0 0 1 1038.0773 317.2657)"><tspan x="0" y="0" class="st3 st4">You can grant users access to classic infrastructure </tspan><tspan x="0" y="14.4" class="st3 st4">services, specific devices or device types, and subnets. </tspan></text>
</g>
<g id="Layer_18">
	<g>
		<g>
			<line class="st7" x1="833" y1="307.7" x2="835.5" y2="307.7"/>
			<line class="st8" x1="840.7" y1="307.7" x2="848.6" y2="307.7"/>
			<line class="st9" x1="851.2" y1="307.7" x2="1016.4" y2="307.7"/>
			<line class="st7" x1="1019" y1="307.7" x2="1021.5" y2="307.7"/>
		</g>
	</g>
</g>
<g id="Layer_10">
	<text transform="matrix(1 0 0 1 1177.1926 168.9174)"><tspan x="0" y="0" class="st3 st4">Service IDs can be granted </tspan><tspan x="0" y="14.4" class="st3 st4">the same access as users for </tspan><tspan x="0" y="28.8" class="st3 st4">resource group-based services. </tspan></text>
</g>
<g id="Layer_22">
	<rect x="937" y="414.2" class="st10" width="170" height="47"/>
</g>
<g id="Layer_23">
	<text transform="matrix(1 0 0 1 950.3381 434.1197)"><tspan x="0" y="0" class="st1 st5">Classic infrastructure </tspan><tspan x="45.7" y="18" class="st1 st5">services</tspan></text>
</g>
<g id="Layer_24">
	<rect x="937" y="470.2" class="st10" width="170" height="47"/>
</g>
<g id="Layer_25">
	<text transform="matrix(1 0 0 1 995.4648 499.1198)" class="st1 st5">Devices</text>
</g>
<g id="Layer_26">
	<rect x="937" y="526.2" class="st10" width="170" height="47"/>
</g>
<g id="Layer_27">
	<text transform="matrix(1 0 0 1 979.161 555.1199)" class="st1 st5">VPN subnets</text>
</g>
<g id="Layer_28">
	<text transform="matrix(1 0 0 1 617.0559 448.368)" class="st1 st6">Resource group</text>
</g>
<g id="Layer_29">
	<g id="Layer_19">
		<g>
			<g>
				<line class="st7" x1="1021.5" y1="373.7" x2="1021.5" y2="371.2"/>
				<line class="st11" x1="1021.5" y1="365.6" x2="1021.5" y2="357.2"/>
				<line class="st12" x1="1021.5" y1="354.4" x2="1021.5" y2="312.5"/>
				<line class="st7" x1="1021.5" y1="309.7" x2="1021.5" y2="307.2"/>
				<g>
					<polygon points="1025.2,370.9 1021.5,372.5 1017.8,370.9 1021.5,379.7 					"/>
				</g>
			</g>
		</g>
	</g>
	<g id="Layer_17">
		<g>
			<g>
				<line class="st7" x1="832.5" y1="307.2" x2="832.5" y2="304.7"/>
				<line class="st13" x1="832.5" y1="299.7" x2="832.5" y2="292.2"/>
				<line class="st14" x1="832.5" y1="289.7" x2="832.5" y2="232.2"/>
				<line class="st7" x1="832.5" y1="229.7" x2="832.5" y2="227.2"/>
			</g>
		</g>
		<g>
			<g>
				<line class="st7" x1="107.5" y1="244.7" x2="107.5" y2="242.2"/>
				<line class="st15" x1="107.5" y1="238.1" x2="107.5" y2="232"/>
				<line class="st16" x1="107.5" y1="230" x2="107.5" y2="215.7"/>
				<line class="st7" x1="107.5" y1="213.7" x2="107.5" y2="211.2"/>
				<g>
					<polygon points="111.2,241.9 107.5,243.5 103.8,241.9 107.5,250.7 					"/>
				</g>
			</g>
		</g>
	</g>
	<g id="Layer_16">
		<g>
			<line x1="912.5" y1="235.1" x2="995.5" y2="234.7"/>
			<g>
				<line class="st7" x1="912.5" y1="235.1" x2="989.5" y2="234.7"/>
				<g>
					<polygon points="986.7,238.4 988.3,234.7 986.7,231 995.5,234.7 					"/>
				</g>
			</g>
		</g>
		<g>
			<g>
				<line class="st7" x1="752.5" y1="226.7" x2="755" y2="226.7"/>
				<line class="st13" x1="760" y1="226.7" x2="767.5" y2="226.7"/>
				<line class="st14" x1="770" y1="226.7" x2="827.5" y2="226.7"/>
				<line class="st7" x1="830" y1="226.7" x2="832.5" y2="226.7"/>
			</g>
		</g>
	</g>
	<g id="Layer_3">
		<line class="st17" x1="749" y1="90.2" x2="1076" y2="90.2"/>
		<g>
			<g>
				<line class="st7" x1="1076.5" y1="89.7" x2="1076.5" y2="107.7"/>
				<g>
					<polygon points="1072.8,104.9 1076.5,106.5 1080.2,104.9 1076.5,113.7 					"/>
				</g>
			</g>
		</g>
	</g>
	<g id="Layer_14">
		<line class="st17" x1="752" y1="210.7" x2="912.5" y2="210.7"/>
	</g>
	<g id="Layer_15">
		<line class="st7" x1="912.9" y1="210.6" x2="912.5" y2="234.7"/>
	</g>
	<g id="Layer_6">
		<g>
			<g>
				<line class="st7" x1="1076.5" y1="164.2" x2="1076.5" y2="200.7"/>
				<g>
					<polygon points="1072.8,197.9 1076.5,199.5 1080.2,197.9 1076.5,206.7 					"/>
				</g>
			</g>
		</g>
	</g>
	<g id="Layer_11">
		<g>
			<g>
				<line class="st7" x1="676.5" y1="115.7" x2="676.9" y2="172.2"/>
				<g>
					<polygon points="673.2,169.4 676.9,170.9 680.6,169.3 676.9,178.1 					"/>
				</g>
			</g>
		</g>
	</g>
	<g id="Layer_9">
		<line class="st17" x1="1151" y1="137.7" x2="1478" y2="137.7"/>
		<line class="st17" x1="1476.5" y1="680.7" x2="1477.5" y2="138.2"/>
		<line class="st17" x1="387.5" y1="680.7" x2="1476.5" y2="680.7"/>
		<g>
			<line x1="387.5" y1="680.7" x2="387.5" y2="312.7"/>
			<g>
				<line class="st7" x1="387.5" y1="680.7" x2="387.5" y2="318.6"/>
				<g>
					<polygon points="391.2,321.4 387.5,319.9 383.8,321.4 387.5,312.7 					"/>
				</g>
			</g>
		</g>
		<line class="st17" x1="48" y1="593.7" x2="72.5" y2="593.7"/>
	</g>
	<g>
		<g>
			<line class="st7" x1="676.5" y1="420.7" x2="676.5" y2="418.2"/>
			<line class="st18" x1="676.5" y1="413" x2="676.5" y2="405.3"/>
			<line class="st19" x1="676.5" y1="402.7" x2="676.5" y2="239.7"/>
			<line class="st7" x1="676.5" y1="237.2" x2="676.5" y2="234.7"/>
			<g>
				<polygon points="680.2,417.9 676.5,419.5 672.8,417.9 676.5,426.7 				"/>
			</g>
		</g>
	</g>
	<g>
		<g>
			<line class="st7" x1="717.5" y1="311.7" x2="717.5" y2="309.2"/>
			<line class="st20" x1="717.5" y1="304.4" x2="717.5" y2="297.2"/>
			<line class="st21" x1="717.5" y1="294.8" x2="717.5" y2="239.6"/>
			<line class="st7" x1="717.5" y1="237.2" x2="717.5" y2="234.7"/>
		</g>
	</g>
	<g>
		<g>
			<line class="st7" x1="717.5" y1="312.7" x2="720" y2="312.7"/>
			<line class="st22" x1="725.7" y1="312.7" x2="734.3" y2="312.7"/>
			<line class="st23" x1="737.2" y1="312.7" x2="780.1" y2="312.7"/>
			<line class="st7" x1="783" y1="312.7" x2="785.5" y2="312.7"/>
		</g>
	</g>
	<g>
		<g>
			<line class="st7" x1="785.5" y1="453.2" x2="785.6" y2="450.7"/>
			<line class="st24" x1="785.6" y1="445.7" x2="785.6" y2="438.3"/>
			<line class="st25" x1="785.7" y1="435.9" x2="786.5" y2="319.6"/>
			<line class="st7" x1="786.5" y1="317.2" x2="786.5" y2="314.7"/>
			<g>
				<polygon points="789.3,450.4 785.5,452 781.9,450.4 785.5,459.2 				"/>
			</g>
		</g>
	</g>
	<line class="st7" x1="624.8" y1="234.6" x2="625.5" y2="281.7"/>
	<g>
		<g>
			<line class="st7" x1="549.5" y1="282.6" x2="625.5" y2="281.7"/>
			<g>
				<polygon points="552.3,286.3 550.7,282.6 552.2,278.9 543.5,282.7 				"/>
			</g>
		</g>
	</g>
	<g>
		<g>
			<line class="st7" x1="442.5" y1="475.7" x2="442.5" y2="473.2"/>
			<line class="st26" x1="442.5" y1="468.4" x2="442.5" y2="461.3"/>
			<line class="st27" x1="442.5" y1="459" x2="442.5" y2="310"/>
			<line class="st7" x1="442.5" y1="307.7" x2="442.5" y2="305.2"/>
		</g>
	</g>
	<g>
		<g>
			<line class="st7" x1="784.5" y1="678.2" x2="784.5" y2="675.7"/>
			<line class="st28" x1="784.5" y1="670.4" x2="784.5" y2="662.5"/>
			<line class="st29" x1="784.5" y1="659.8" x2="784.5" y2="620.3"/>
			<line class="st7" x1="784.5" y1="617.6" x2="784.5" y2="615.1"/>
			<g>
				<polygon points="788.2,617.9 784.5,616.4 780.8,617.9 784.5,609.2 				"/>
			</g>
		</g>
	</g>
	<g>
		<g>
			<line class="st7" x1="677.5" y1="678.2" x2="677.5" y2="675.7"/>
			<line class="st28" x1="677.5" y1="670.4" x2="677.5" y2="662.5"/>
			<line class="st29" x1="677.5" y1="659.8" x2="677.5" y2="620.3"/>
			<line class="st7" x1="677.5" y1="617.6" x2="677.5" y2="615.1"/>
			<g>
				<polygon points="681.2,617.9 677.5,616.4 673.8,617.9 677.5,609.2 				"/>
			</g>
		</g>
	</g>
	<g>
		<g>
			<line class="st7" x1="214.5" y1="281.7" x2="217" y2="281.7"/>
			<line class="st30" x1="221.9" y1="281.7" x2="229.2" y2="281.7"/>
			<line class="st31" x1="231.6" y1="281.7" x2="346.6" y2="281.7"/>
			<line class="st7" x1="349" y1="281.7" x2="351.5" y2="281.7"/>
			<g>
				<polygon points="217.3,285.4 215.7,281.7 217.3,278 208.5,281.7 				"/>
			</g>
		</g>
	</g>
	<g>
		<g>
			<line class="st7" x1="107.5" y1="210.7" x2="110" y2="210.7"/>
			<line class="st32" x1="114.9" y1="210.7" x2="122.3" y2="210.7"/>
			<line class="st33" x1="124.8" y1="210.7" x2="595" y2="210.7"/>
			<line class="st7" x1="597.5" y1="210.7" x2="600" y2="210.7"/>
		</g>
	</g>
	<g>
		<g>
			<line class="st7" x1="49" y1="611.5" x2="51.5" y2="611.5"/>
			<line class="st34" x1="54.1" y1="611.5" x2="58.1" y2="611.5"/>
			<line class="st35" x1="59.4" y1="611.5" x2="68.7" y2="611.5"/>
			<line class="st7" x1="70" y1="611.5" x2="72.5" y2="611.5"/>
		</g>
	</g>
	<g>
		<g>
			<line class="st7" x1="442" y1="477.7" x2="444.5" y2="477.7"/>
			<line class="st36" x1="450.3" y1="477.7" x2="458.9" y2="477.7"/>
			<line class="st37" x1="461.8" y1="477.7" x2="505.1" y2="477.7"/>
			<line class="st7" x1="508" y1="477.7" x2="510.5" y2="477.7"/>
			<g>
				<polygon points="507.7,481.4 509.3,477.7 507.7,474 516.5,477.7 				"/>
			</g>
		</g>
	</g>
</g>
<g id="Layer_30">
	<rect x="522" y="464.2" class="st38" width="100" height="27"/>
</g>
<g id="Layer_31">
	<text transform="matrix(1 0 0 1 539.9827 482.8048)" class="st1 st5">Resource</text>
</g>
<g id="Layer_33">
	<rect x="631" y="464.2" class="st38" width="100" height="27"/>
</g>
<g id="Layer_32">
	<text transform="matrix(1 0 0 1 648.9827 482.8051)" class="st1 st5">Resource</text>
</g>
<g id="Layer_34">
	<rect x="738" y="464.2" class="st38" width="100" height="27"/>
</g>
<g id="Layer_35">
	<text transform="matrix(1 0 0 1 755.9827 482.8051)" class="st1 st5">Resource</text>
</g>
<g id="Layer_36">
	<rect x="739.1" y="573.3" class="st38" width="100" height="27"/>
</g>
<g id="Layer_37">
	<text transform="matrix(1 0 0 1 757.0719 591.9476)" class="st1 st5">Resource</text>
</g>
<g id="Layer_38">
	<rect x="631" y="573.2" class="st38" width="100" height="27"/>
</g>
<g id="Layer_39">
	<text transform="matrix(1 0 0 1 648.9828 591.8046)" class="st1 st5">Resource</text>
</g>
<g id="Layer_40">
	<rect x="522" y="573.2" class="st38" width="100" height="27"/>
</g>
<g id="Layer_41">
	<text transform="matrix(1 0 0 1 539.9828 591.8054)" class="st1 st5">Resource</text>
</g>
<g id="Layer_42">
	<rect x="738.1" y="536.3" class="st38" width="100" height="27"/>
</g>
<g id="Layer_43">
	<text transform="matrix(1 0 0 1 756.0718 554.9476)" class="st1 st5">Resource</text>
</g>
<g id="Layer_44">
	<rect x="630" y="536.2" class="st38" width="100" height="27"/>
</g>
<g id="Layer_45">
	<text transform="matrix(1 0 0 1 647.9828 554.8046)" class="st1 st5">Resource</text>
</g>
<g id="Layer_46">
	<rect x="522" y="536.2" class="st38" width="100" height="27"/>
</g>
<g id="Layer_47">
	<text transform="matrix(1 0 0 1 539.9828 554.8054)" class="st1 st5">Resource</text>
</g>
<g id="Layer_48">
	<rect x="738" y="500.2" class="st38" width="100" height="27"/>
</g>
<g id="Layer_49">
	<text transform="matrix(1 0 0 1 755.9828 518.8052)" class="st1 st5">Resource</text>
</g>
<g id="Layer_50">
	<rect x="630" y="499.7" class="st38" width="100" height="27"/>
</g>
<g id="Layer_51">
	<text transform="matrix(1 0 0 1 647.9828 518.3325)" class="st1 st5">Resource</text>
</g>
<g id="Layer_52">
	<rect x="522" y="499.2" class="st38" width="100" height="27"/>
</g>
<g id="Layer_53">
	<text transform="matrix(1 0 0 1 539.9828 517.8054)" class="st1 st5">Resource</text>
</g>
</svg>
