<?xml version="1.0" encoding="UTF-8"?>
<svg width="740px" height="364px" viewBox="0 0 740 364" version="1.1" xmlns="http://www.w3.org/2000/svg" xmlns:xlink="http://www.w3.org/1999/xlink">
    <title>CBR diagram</title>
    <g id="CBR-diagram" stroke="none" stroke-width="1" fill="none" fill-rule="evenodd">
        <g id="Group">
            <polygon id="Fill-45" fill="#6F6F6F" points="173.561027 150 178.755973 153 173.561027 156"></polygon>
            <polygon id="Fill-45-Copy" fill="#6F6F6F" transform="translate(87.665500, 81.493000) rotate(-270.000000) translate(-87.665500, -81.493000) " points="85.0680271 78.493 90.2629729 81.493 85.0680271 84.493"></polygon>
            <rect id="Rectangle" fill="#FFFFFF" x="0" y="0" width="740" height="364"></rect>
            <rect id="Rectangle" fill="#000000" transform="translate(471.000000, 28.500000) scale(1, -1) translate(-471.000000, -28.500000) " x="231" y="28" width="480" height="1"></rect>
            <text id="Context-based-restri" font-family="IBMPlexSans-SemiBold, IBM Plex Sans" font-size="12" font-weight="500" letter-spacing="0.32" fill="#000000">
                <tspan x="231.076066" y="46">Context-based restrictions</tspan>
            </text>
            <g id="Group-3" transform="translate(290.000000, 107.000000)" fill="#000000">
                <g id="Tools-/-Technology-/-laptop-/-16" transform="translate(0.000000, 25.000000)">
                    <path d="M19.5,18.00375 L4.5,18.00375 C3.67191561,18.0029232 3.00082684,17.3318344 3,16.50375 L3,6.00375 C3.00082684,5.17566561 3.67191561,4.50457684 4.5,4.50375 L19.5,4.50375 C20.3280844,4.50457684 20.9991732,5.17566561 21,6.00375 L21,16.50375 C20.9987609,17.3316633 20.3279133,18.0025109 19.5,18.00375 L19.5,18.00375 Z M4.5,6.00375 L4.5,16.50375 L19.5,16.50375 L19.5,6.00375 L4.5,6.00375 Z M1.5,19.50375 L22.5,19.50375 L22.5,21.00375 L1.5,21.00375 L1.5,19.50375 Z" id="Fill"></path>
                </g>
                <g id="Tools-/-Technology-/-laptop-/-16-Copy" transform="translate(32.000000, 25.000000)">
                    <path d="M7.5,22.5 L3,22.5 C2.17157288,22.5 1.5,21.8284271 1.5,21 L1.5,12 C1.5,11.1715729 2.17157288,10.5 3,10.5 L7.5,10.5 C8.32842712,10.5 9,11.1715729 9,12 L9,21 C9,21.8284271 8.32842712,22.5 7.5,22.5 Z M3,12 L3,21 L7.5,21 L7.5,12 L3,12 Z M21,3 L4.5,3 C3.67157288,3 3,3.67157288 3,4.5 L3,9 L4.5,9 L4.5,4.5 L21,4.5 L21,15 L10.5,15 L10.5,16.5 L12,16.5 L12,19.5 L10.5,19.5 L10.5,21 L17.25,21 L17.25,19.5 L13.5,19.5 L13.5,16.5 L21,16.5 C21.8284271,16.5 22.5,15.8284271 22.5,15 L22.5,4.5 C22.5,3.67157288 21.8284271,3 21,3 Z" id="Fill"></path>
                </g>
                <g id="Tools-/-Technology-/-laptop-/-16-Copy-2" transform="translate(16.000000, 0.000000)">
                    <path d="M10,6.25 C11.0355339,6.25 11.875,7.08946609 11.875,8.125 C11.875,9.16053391 11.0355339,10 10,10 C8.96446609,10 8.125,9.16053391 8.125,8.125 C8.125,7.08946609 8.96446609,6.25 10,6.25 L10,6.25 Z M10,5 C8.27411016,5 6.875,6.39911016 6.875,8.125 C6.875,9.85088984 8.27411016,11.25 10,11.25 C11.7258898,11.25 13.125,9.85088984 13.125,8.125 C13.125,6.39911016 11.7258898,5 10,5 L10,5 Z M10,2.5 C13.0532916,2.45818129 15.5668282,4.89072622 15.6250002,7.94375 C15.6253422,9.12350464 15.2315892,10.2695678 14.50625,11.2 L10,17.7875 L5.53125,11.25 C4.78184085,10.3110422 4.37409363,9.14510552 4.37499849,7.94375 C4.43317177,4.89072622 6.94670844,2.45818129 10,2.5 L10,2.5 Z M10,1.25 C6.25365069,1.2013474 3.17643362,4.19743784 3.125,7.94375 C3.12657996,9.39848335 3.61010656,10.8116997 4.5,11.9625 L10,20 L15.5,11.9625 C16.3898934,10.8116997 16.87342,9.39848335 16.875,7.94375 C16.8235664,4.19743784 13.7463493,1.2013474 10,1.25 Z" id="Fill"></path>
                </g>
            </g>
            <g id="Group-2" transform="translate(290.000000, 218.000000)" fill="#000000">
                <g id="Tools-/-Technology-/-laptop-/-16-Copy-4" transform="translate(32.000000, 25.000000)">
                    <path d="M7.5,22.5 L3,22.5 C2.17157288,22.5 1.5,21.8284271 1.5,21 L1.5,12 C1.5,11.1715729 2.17157288,10.5 3,10.5 L7.5,10.5 C8.32842712,10.5 9,11.1715729 9,12 L9,21 C9,21.8284271 8.32842712,22.5 7.5,22.5 Z M3,12 L3,21 L7.5,21 L7.5,12 L3,12 Z M21,3 L4.5,3 C3.67157288,3 3,3.67157288 3,4.5 L3,9 L4.5,9 L4.5,4.5 L21,4.5 L21,15 L10.5,15 L10.5,16.5 L12,16.5 L12,19.5 L10.5,19.5 L10.5,21 L17.25,21 L17.25,19.5 L13.5,19.5 L13.5,16.5 L21,16.5 C21.8284271,16.5 22.5,15.8284271 22.5,15 L22.5,4.5 C22.5,3.67157288 21.8284271,3 21,3 Z" id="Fill"></path>
                </g>
                <g id="Tools-/-Technology-/-laptop-/-16-Copy-4" transform="translate(0.000000, 25.000000)">
                    <path d="M7.5,22.5 L3,22.5 C2.17157288,22.5 1.5,21.8284271 1.5,21 L1.5,12 C1.5,11.1715729 2.17157288,10.5 3,10.5 L7.5,10.5 C8.32842712,10.5 9,11.1715729 9,12 L9,21 C9,21.8284271 8.32842712,22.5 7.5,22.5 Z M3,12 L3,21 L7.5,21 L7.5,12 L3,12 Z M21,3 L4.5,3 C3.67157288,3 3,3.67157288 3,4.5 L3,9 L4.5,9 L4.5,4.5 L21,4.5 L21,15 L10.5,15 L10.5,16.5 L12,16.5 L12,19.5 L10.5,19.5 L10.5,21 L17.25,21 L17.25,19.5 L13.5,19.5 L13.5,16.5 L21,16.5 C21.8284271,16.5 22.5,15.8284271 22.5,15 L22.5,4.5 C22.5,3.67157288 21.8284271,3 21,3 Z" id="Fill"></path>
                </g>
                <g id="Tools-/-Technology-/-laptop-/-16-Copy-2" transform="translate(17.000000, 0.000000)">
                    <path d="M10,6.25 C11.0355339,6.25 11.875,7.08946609 11.875,8.125 C11.875,9.16053391 11.0355339,10 10,10 C8.96446609,10 8.125,9.16053391 8.125,8.125 C8.125,7.08946609 8.96446609,6.25 10,6.25 L10,6.25 Z M10,5 C8.27411016,5 6.875,6.39911016 6.875,8.125 C6.875,9.85088984 8.27411016,11.25 10,11.25 C11.7258898,11.25 13.125,9.85088984 13.125,8.125 C13.125,6.39911016 11.7258898,5 10,5 L10,5 Z M10,2.5 C13.0532916,2.45818129 15.5668282,4.89072622 15.6250002,7.94375 C15.6253422,9.12350464 15.2315892,10.2695678 14.50625,11.2 L10,17.7875 L5.53125,11.25 C4.78184085,10.3110422 4.37409363,9.14510552 4.37499849,7.94375 C4.43317177,4.89072622 6.94670844,2.45818129 10,2.5 L10,2.5 Z M10,1.25 C6.25365069,1.2013474 3.17643362,4.19743784 3.125,7.94375 C3.12657996,9.39848335 3.61010656,10.8116997 4.5,11.9625 L10,20 L15.5,11.9625 C16.3898934,10.8116997 16.87342,9.39848335 16.875,7.94375 C16.8235664,4.19743784 13.7463493,1.2013474 10,1.25 Z" id="Fill"></path>
                </g>
            </g>
            <path d="M236,100 L526,100 C528.761424,100 531,102.238576 531,105 L531,189 C531,191.761424 528.761424,194 526,194 L236,194 C233.238576,194 231,191.761424 231,189 L231,105 C231,102.238576 233.238576,100 236,100 Z" id="Rectangle-Copy-3" stroke="#979797" stroke-width="0.5" stroke-linejoin="round" stroke-dasharray="2,2"></path>
            <path d="M236,210 L526,210 C528.761424,210 531,212.238576 531,215 L531,299 C531,301.761424 528.761424,304 526,304 L236,304 C233.238576,304 231,301.761424 231,299 L231,215 C231,212.238576 233.238576,210 236,210 Z" id="Rectangle-Copy-5" stroke="#979797" stroke-width="0.5" stroke-linejoin="bevel" stroke-dasharray="2,2"></path>
            <text id="Context" transform="translate(243.500000, 141.500000) rotate(-90.000000) translate(-243.500000, -141.500000) " font-family="IBMPlexSans-SemiBold, IBM Plex Sans" font-size="10" font-weight="500" letter-spacing="0.266666667" fill="#000000">
                <tspan x="224" y="145">Context</tspan>
            </text>
            <text id="Context" transform="translate(243.500000, 252.500000) rotate(-90.000000) translate(-243.500000, -252.500000) " font-family="IBMPlexSans-SemiBold, IBM Plex Sans" font-size="10" font-weight="500" letter-spacing="0.266666667" fill="#000000">
                <tspan x="224" y="256">Context</tspan>
            </text>
            <text id="Zone-A" font-family="IBMPlexSans-Bold, IBM Plex Sans" font-size="10" font-weight="bold" letter-spacing="0.266666667" fill="#282828">
                <tspan x="300" y="181">Zone A</tspan>
            </text>
            <text id="Network-zones" font-family="IBMPlexSans-SemiBold, IBM Plex Sans" font-size="10" font-weight="500" letter-spacing="0.266666667" fill="#000000">
                <tspan x="281" y="87">Network zones</tspan>
            </text>
            <text id="Endpoint-type" font-family="IBMPlexSans-SemiBold, IBM Plex Sans" font-size="10" font-weight="500" letter-spacing="0.266666667" fill="#000000">
                <tspan x="416" y="87">Endpoint type</tspan>
            </text>
            <text id="Private" font-family="IBMPlexSans, IBM Plex Sans" font-size="10" font-weight="normal" letter-spacing="0.266666667" fill="#282828">
                <tspan x="418" y="129">Private</tspan>
            </text>
            <text id="Public-endpoint" font-family="IBMPlexSans, IBM Plex Sans" font-size="10" font-weight="normal" letter-spacing="0.266666667" fill="#282828">
                <tspan x="582" y="136">Public </tspan>
                <tspan x="582" y="149">endpoint</tspan>
            </text>
            <text id="Private-Copy" font-family="IBMPlexSans, IBM Plex Sans" font-size="10" font-weight="normal" letter-spacing="0.266666667" fill="#282828">
                <tspan x="418" y="240">Private</tspan>
            </text>
            <text id="Public" font-family="IBMPlexSans, IBM Plex Sans" font-size="10" font-weight="normal" letter-spacing="0.266666667" fill="#282828">
                <tspan x="418" y="151">Public</tspan>
            </text>
            <text id="Private-endpoint" font-family="IBMPlexSans, IBM Plex Sans" font-size="10" font-weight="normal" letter-spacing="0.266666667" fill="#282828">
                <tspan x="582" y="183">Private </tspan>
                <tspan x="582" y="196">endpoint</tspan>
            </text>
            <text id="Resource" font-family="IBMPlexSans-SemiBold, IBM Plex Sans" font-size="10" font-weight="500" letter-spacing="0.266666667" fill="#000000">
                <tspan x="658" y="230">Resource</tspan>
            </text>
            <text id="Public-Copy" font-family="IBMPlexSans, IBM Plex Sans" font-size="10" font-weight="normal" letter-spacing="0.266666667" fill="#282828">
                <tspan x="418" y="263">Public</tspan>
            </text>
            <text id="Direct" font-family="IBMPlexSans, IBM Plex Sans" font-size="10" font-weight="normal" letter-spacing="0.266666667" fill="#282828">
                <tspan x="418" y="173">Direct</tspan>
            </text>
            <text id="Direct-endpoint" font-family="IBMPlexSans, IBM Plex Sans" font-size="10" font-weight="normal" letter-spacing="0.266666667" fill="#282828">
                <tspan x="582" y="230">Direct </tspan>
                <tspan x="582" y="243">endpoint</tspan>
            </text>
            <text id="Direct-Copy" font-family="IBMPlexSans, IBM Plex Sans" font-size="10" font-weight="normal" letter-spacing="0.266666667" fill="#282828">
                <tspan x="418" y="285">Direct</tspan>
            </text>
            <text id="Zone-B" font-family="IBMPlexSans-Bold, IBM Plex Sans" font-size="10" font-weight="bold" letter-spacing="0.266666667" fill="#282828">
                <tspan x="301" y="292">Zone B</tspan>
            </text>
            <g transform="translate(356.000000, 139.000000)" id="Organization-/-Status-/-checkmark--filled-/-16-Copy-2">
                <path d="M8,1 C4.1,1 1,4.1 1,8 C1,11.9 4.1,15 8,15 C11.9,15 15,11.9 15,8 C15,4.1 11.9,1 8,1 Z M7,11 L4.3,8.3 L5.2,7.5 L7,9.3 L11,5.4 L11.9,6.2 L7,11 Z" id="Fill" fill="#000000"></path>
                <polygon id="Inner-Fill" fill="#FFFFFF" points="7 11 4.3 8.3 5.2 7.5 7 9.3 11 5.4 11.9 6.2"></polygon>
            </g>
            <g transform="translate(356.000000, 228.000000)" id="Organization-/-Status-/-checkmark--filled-/-16-Copy-2">
                <path d="M8,1 C4.1,1 1,4.1 1,8 C1,11.9 4.1,15 8,15 C11.9,15 15,11.9 15,8 C15,4.1 11.9,1 8,1 Z M7,11 L4.3,8.3 L5.2,7.5 L7,9.3 L11,5.4 L11.9,6.2 L7,11 Z" id="Fill" fill="#000000"></path>
                <polygon id="Inner-Fill" fill="#FFFFFF" points="7 11 4.3 8.3 5.2 7.5 7 9.3 11 5.4 11.9 6.2"></polygon>
            </g>
            <g transform="translate(356.000000, 274.000000)" id="Organization-/-Status-/-checkmark--filled-/-16-Copy-2">
                <path d="M8,1 C4.1,1 1,4.1 1,8 C1,11.9 4.1,15 8,15 C11.9,15 15,11.9 15,8 C15,4.1 11.9,1 8,1 Z M7,11 L4.3,8.3 L5.2,7.5 L7,9.3 L11,5.4 L11.9,6.2 L7,11 Z" id="Fill" fill="#000000"></path>
                <polygon id="Inner-Fill" fill="#FFFFFF" points="7 11 4.3 8.3 5.2 7.5 7 9.3 11 5.4 11.9 6.2"></polygon>
            </g>
            <g transform="translate(491.000000, 139.000000)" id="Organization-/-Status-/-checkmark--filled-/-16-Copy-2">
                <path d="M8,1 C4.1,1 1,4.1 1,8 C1,11.9 4.1,15 8,15 C11.9,15 15,11.9 15,8 C15,4.1 11.9,1 8,1 Z M7,11 L4.3,8.3 L5.2,7.5 L7,9.3 L11,5.4 L11.9,6.2 L7,11 Z" id="Fill" fill="#000000"></path>
                <polygon id="Inner-Fill" fill="#FFFFFF" points="7 11 4.3 8.3 5.2 7.5 7 9.3 11 5.4 11.9 6.2"></polygon>
            </g>
            <g transform="translate(491.000000, 228.000000)" id="Organization-/-Status-/-checkmark--filled-/-16-Copy-2">
                <path d="M8,1 C4.1,1 1,4.1 1,8 C1,11.9 4.1,15 8,15 C11.9,15 15,11.9 15,8 C15,4.1 11.9,1 8,1 Z M7,11 L4.3,8.3 L5.2,7.5 L7,9.3 L11,5.4 L11.9,6.2 L7,11 Z" id="Fill" fill="#000000"></path>
                <polygon id="Inner-Fill" fill="#FFFFFF" points="7 11 4.3 8.3 5.2 7.5 7 9.3 11 5.4 11.9 6.2"></polygon>
            </g>
            <g transform="translate(491.000000, 274.000000)" id="Organization-/-Status-/-checkmark--filled-/-16-Copy-2">
                <path d="M8,1 C4.1,1 1,4.1 1,8 C1,11.9 4.1,15 8,15 C11.9,15 15,11.9 15,8 C15,4.1 11.9,1 8,1 Z M7,11 L4.3,8.3 L5.2,7.5 L7,9.3 L11,5.4 L11.9,6.2 L7,11 Z" id="Fill" fill="#000000"></path>
                <polygon id="Inner-Fill" fill="#FFFFFF" points="7 11 4.3 8.3 5.2 7.5 7 9.3 11 5.4 11.9 6.2"></polygon>
            </g>
            <g transform="translate(491.000000, 116.000000)" fill="#000000" id="Fill">
                <path d="M8,1 C4.1,1 1,4.1 1,8 C1,11.9 4.1,15 8,15 C11.9,15 15,11.9 15,8 C15,4.1 11.9,1 8,1 Z M8,14 C4.7,14 2,11.3 2,8 C2,4.7 4.7,2 8,2 C11.3,2 14,4.7 14,8 C14,11.3 11.3,14 8,14 Z M10.7,11.5 L8,8.8 L5.3,11.5 L4.5,10.7 L7.2,8 L4.5,5.3 L5.3,4.5 L8,7.2 L10.7,4.5 L11.5,5.3 L8.8,8 L11.5,10.7 L10.7,11.5 Z"></path>
            </g>
            <g transform="translate(491.000000, 161.000000)" fill="#000000" id="Fill">
                <path d="M8,1 C4.1,1 1,4.1 1,8 C1,11.9 4.1,15 8,15 C11.9,15 15,11.9 15,8 C15,4.1 11.9,1 8,1 Z M8,14 C4.7,14 2,11.3 2,8 C2,4.7 4.7,2 8,2 C11.3,2 14,4.7 14,8 C14,11.3 11.3,14 8,14 Z M10.7,11.5 L8,8.8 L5.3,11.5 L4.5,10.7 L7.2,8 L4.5,5.3 L5.3,4.5 L8,7.2 L10.7,4.5 L11.5,5.3 L8.8,8 L11.5,10.7 L10.7,11.5 Z"></path>
            </g>
            <g transform="translate(491.000000, 251.000000)" fill="#000000" id="Fill">
                <path d="M8,1 C4.1,1 1,4.1 1,8 C1,11.9 4.1,15 8,15 C11.9,15 15,11.9 15,8 C15,4.1 11.9,1 8,1 Z M8,14 C4.7,14 2,11.3 2,8 C2,4.7 4.7,2 8,2 C11.3,2 14,4.7 14,8 C14,11.3 11.3,14 8,14 Z M10.7,11.5 L8,8.8 L5.3,11.5 L4.5,10.7 L7.2,8 L4.5,5.3 L5.3,4.5 L8,7.2 L10.7,4.5 L11.5,5.3 L8.8,8 L11.5,10.7 L10.7,11.5 Z"></path>
            </g>
            <line x1="376" y1="147" x2="412" y2="147" id="Path-6" stroke="#0062FF" stroke-width="0.5"></line>
            <line x1="376" y1="236" x2="412" y2="236" id="Path-6-Copy-2" stroke="#00BAB6" stroke-width="0.5"></line>
            <line x1="376" y1="282" x2="412" y2="282" id="Path-6-Copy-4" stroke="#A11950" stroke-width="0.5"></line>
            <line x1="458" y1="147" x2="481" y2="147" id="Path-6-Copy" stroke="#0062FF" stroke-width="0.5"></line>
            <path d="M539,147 L558,147 C560.209139,147 562,145.209139 562,143 L562,136 C562,133.790861 563.790861,132 566,132 L576.191205,132 L576.191205,132" id="Path-6-Copy-6" stroke="#0062FF" stroke-width="0.5"></path>
            <line x1="458" y1="236" x2="481" y2="236" id="Path-6-Copy-3" stroke="#00BAB6" stroke-width="0.5"></line>
            <path d="M539,236 L548.751168,236 C550.960307,236 552.751168,234.209139 552.751168,232 L552.751168,184.024401 C552.751168,181.815262 554.542029,180.024401 556.751168,180.024401 L576.191205,180.024401 L576.191205,180.024401" id="Path-6-Copy-7" stroke="#00BAB6" stroke-width="0.5"></path>
            <line x1="458" y1="282" x2="481" y2="282" id="Path-6-Copy-5" stroke="#A11950" stroke-width="0.5"></line>
            <path d="M539,282 L558,282 C560.209139,282 562,280.209139 562,278 L562,232 C562,229.790861 563.790861,228 566,228 L578.491001,228 L578.491001,228" id="Path-6-Copy-8" stroke="#A11950" stroke-width="0.5"></path>
            <polyline id="Path-7" stroke="#282828" stroke-width="0.5" stroke-linecap="square" points="634.679784 132.5 645.445458 132.5 645.445458 226.5 634.679784 226.5"></polyline>
            <line x1="634.679784" y1="181.024401" x2="645.445458" y2="181.024401" id="Path-8" stroke="#282828" stroke-width="0.5" stroke-linecap="square"></line>
            <circle id="Oval" stroke="#282828" stroke-width="0.5" fill="#000000" stroke-linecap="square" cx="678" cy="182" r="32"></circle>
            <g transform="translate(663.000000, 166.000000)" fill="#FFFFFF" id="Brand-/-IBM-/-ibm-cloud-/-24">
                <path d="M23.2545455,12.796875 C21.3979713,9.21094615 17.4650564,7.32399558 13.6093597,8.16926683 C9.75366294,9.01453808 6.90516882,12.3881538 6.62363636,16.4428125 C3.38342758,16.8035365 0.9818806,19.7134069 1.15450406,23.0695686 C1.32712751,26.4257304 4.01369637,29.0572824 7.27272727,29.0625059 L21.8181818,29.0625059 C25.9335709,29.0675545 29.3725661,25.8332492 29.7457951,21.6067404 C30.1190242,17.3802316 27.3031229,13.5585158 23.2545455,12.796875 L23.2545455,12.796875 Z M21.8181818,27.656298 L7.27272727,27.656298 C4.75908051,27.6676095 2.66996553,25.6617839 2.50164145,23.0753793 C2.33331737,20.4889746 4.14378785,18.2132533 6.63636364,17.878125 C6.73248358,19.1191943 7.07404601,20.3268159 7.64,21.4265625 C7.75529935,21.6479555 7.97637297,21.7890974 8.21994456,21.7968214 C8.46351616,21.8045453 8.69258142,21.6776779 8.82085366,21.4640089 C8.94912591,21.2503398 8.95711754,20.9823305 8.84181818,20.7609375 C6.97330597,17.1548268 8.14921303,12.6719073 11.5257536,10.5289499 C14.9022941,8.38599259 19.3129165,9.32336185 21.5927273,12.6684375 C19.3903657,12.731058 17.3117265,13.7324214 15.8518182,15.4340625 C15.6807959,15.6208038 15.6221271,15.8888571 15.6987871,16.1332496 C15.7754471,16.3776422 15.9752351,16.5594778 16.2199118,16.6075473 C16.4645886,16.6556169 16.7152125,16.5622701 16.8736364,16.3640625 C18.8804524,14.0170682 22.1817618,13.3862587 24.8707481,14.8359859 C27.5597344,16.2857131 28.9414943,19.4413302 28.2179316,22.4801716 C27.4943689,25.519013 24.8524708,27.655764 21.8181818,27.656298 L21.8181818,27.656298 Z M29.9072727,9.6140625 C29.815976,9.45061455 29.6654113,9.33130393 29.4887519,9.28241779 C29.3120925,9.23353165 29.123834,9.2590813 28.9654545,9.3534375 L26.22,10.9884375 C25.9966563,11.1101586 25.855667,11.3480125 25.8524541,11.6085001 C25.8492412,11.8689878 25.9843185,12.1104628 26.2045877,12.2380028 C26.424857,12.3655428 26.6951019,12.3587569 26.9090909,12.2203125 L29.6545455,10.5853125 C29.9841856,10.3889012 30.0972794,9.95427332 29.9072727,9.6140625 L29.9072727,9.6140625 Z M21.5236364,7.378125 C21.6820975,7.47277923 21.8705762,7.49849568 22.0474551,7.449596 C22.224334,7.40069632 22.3750642,7.28120267 22.4663636,7.1175 L24.0518182,4.28625 C24.2252251,3.94787201 24.108025,3.52865761 23.7865518,3.33741593 C23.4650786,3.14617426 23.054504,3.25141992 22.8572727,3.575625 L21.2718182,6.406875 C21.0816587,6.74684055 21.1943261,7.18139283 21.5236364,7.378125 L21.5236364,7.378125 Z M15.4545455,5.7009375 C15.6375448,5.7009375 15.813049,5.62596952 15.9424491,5.49252567 C16.0718492,5.35908181 16.1445455,5.17809311 16.1445455,4.989375 L16.1445455,1.7203125 C16.1445455,1.32732738 15.8356219,1.00875 15.4545455,1.00875 C15.073469,1.00875 14.7645449,1.32732738 14.7645449,1.7203125 L14.7645449,4.989375 C14.7643041,5.17825549 14.8368938,5.35948513 14.9663201,5.49313182 C15.0957463,5.62677851 15.2713885,5.701875 15.4545455,5.701875 L15.4545455,5.7009375 Z M8.44272727,7.1175 C8.63832863,7.4461031 9.05213572,7.55426041 9.3758966,7.36140371 C9.69965747,7.168547 9.8155628,6.74485253 9.63727273,6.4059375 L8.05181818,3.5746875 C7.92938403,3.35258714 7.70088701,3.21522153 7.45314885,3.21478426 C7.20541068,3.21434908 6.97646012,3.35090921 6.85329121,3.5725771 C6.7301223,3.794245 6.73164195,4.06699381 6.85727273,4.2871875 L8.44272727,7.1175 Z M4.69,10.9884375 L1.94454545,9.3534375 C1.7310243,9.22388076 1.4665406,9.22231363 1.25158992,9.34933156 C1.03663923,9.47634949 0.904217292,9.71245477 0.904639286,9.96793475 C0.905063301,10.2234147 1.03826632,10.4590523 1.25363636,10.5853125 L4,12.2203125 C4.21383797,12.3556795 4.4820784,12.3606681 4.70051017,12.23334 C4.91894193,12.106012 5.05313192,11.8664391 5.05097373,11.6076952 C5.04876299,11.3489513 4.91054844,11.1118242 4.69,10.9884375 Z" id="Fill"></path>
            </g>
            <rect id="Rectangle" fill="#282828" x="33" y="27" width="135" height="34"></rect>
            <text id="Cloud-identity" font-family="IBMPlexSans-SemiBold, IBM Plex Sans" font-size="12" font-weight="500" letter-spacing="0.32" fill="#FFFFFF">
                <tspan x="57.0760655" y="48">Cloud identity</tspan>
            </text>
            <rect id="Rectangle-Copy" fill="#282828" x="33" y="85" width="135" height="34"></rect>
            <text id="IAM-Policy" font-family="IBMPlexSans-SemiBold, IBM Plex Sans" font-size="12" font-weight="500" letter-spacing="0.32" fill="#FFFFFF">
                <tspan x="57" y="106">IAM Policy</tspan>
            </text>
            <polyline id="Path-3" stroke="#6F6F6F" stroke-width="0.5" stroke-linejoin="round" points="100.923934 119 100.923934 149 187.923934 149"></polyline>
            <g transform="translate(145.000000, 94.000000)" id="Organization-/-Status-/-checkmark--filled-/-16">
                <path d="M8,1 C4.1,1 1,4.1 1,8 C1,11.9 4.1,15 8,15 C11.9,15 15,11.9 15,8 C15,4.1 11.9,1 8,1 Z M7,11 L4.3,8.3 L5.2,7.5 L7,9.3 L11,5.4 L11.9,6.2 L7,11 Z" id="Fill" fill="#FFFFFF"></path>
                <polygon id="Inner-Fill" fill="#000000" opacity="0" points="7 11 4.3 8.3 5.2 7.5 7 9.3 11 5.4 11.9 6.2"></polygon>
            </g>
            <line x1="99.5" y1="83.5" x2="99.5" y2="60.5" id="Path-5" stroke="#6F6F6F" stroke-width="0.5" stroke-linejoin="round"></line>
            <polygon id="Fill-45" fill="#6F6F6F" points="185.561027 146 190.755973 149 185.561027 152"></polygon>
            <polygon id="Fill-45-Copy" fill="#6F6F6F" transform="translate(99.665500, 82.493000) rotate(-270.000000) translate(-99.665500, -82.493000) " points="97.0680271 79.493 102.262973 82.493 97.0680271 85.493"></polygon>
            <polygon id="Fill-45-Copy-2" fill="#0062FF" points="407 144 412.194946 147 407 150"></polygon>
            <polygon id="Fill-45-Copy-5" fill="#00BAB6" points="407 233 412.194946 236 407 239"></polygon>
            <polygon id="Fill-45-Copy-7" fill="#A11950" points="407 279 412.194946 282 407 285"></polygon>
            <polygon id="Fill-45-Copy-4" fill="#0062FF" points="479 144 484.194946 147 479 150"></polygon>
            <polygon id="Fill-45-Copy-9" fill="#0062FF" points="574 129 579.194946 132 574 135"></polygon>
            <polygon id="Fill-45-Copy-6" fill="#00BAB6" points="479 233 484.194946 236 479 239"></polygon>
            <polygon id="Fill-45-Copy-10" fill="#00BAB6" points="574 177 579.194946 180 574 183"></polygon>
            <polygon id="Fill-45-Copy-11" fill="#A11950" points="574 225 579.194946 228 574 231"></polygon>
            <polygon id="Fill-45-Copy-8" fill="#A11950" points="479 279 484.194946 282 479 285"></polygon>
        </g>
    </g>
</svg>