<?xml version="1.0" encoding="UTF-8" standalone="no"?>
<svg xmlns="http://www.w3.org/2000/svg" viewBox="0 0 573.85 242.93"><defs><style>.cls-1{fill:#734098;}.cls-1,.cls-17,.cls-18,.cls-2,.cls-23,.cls-3,.cls-8,.cls-9{stroke:#000;stroke-miterlimit:10;}.cls-1,.cls-2,.cls-3,.cls-8,.cls-9{stroke-width:3px;}.cls-2{fill:#efc100;}.cls-3{fill:#5aa700;}.cls-4{font-size:12px;}.cls-13,.cls-19,.cls-24,.cls-27,.cls-4{font-family:MyriadPro-Regular, Myriad Pro;}.cls-5{letter-spacing:0.01em;}.cls-6{letter-spacing:0.02em;}.cls-7{letter-spacing:-0.01em;}.cls-8{fill:#f7aac3;}.cls-9{fill:#56acf2;}.cls-10{letter-spacing:0em;}.cls-11{letter-spacing:-0.01em;}.cls-12{letter-spacing:0em;}.cls-13{font-size:19.07px;}.cls-14{letter-spacing:0em;}.cls-15{letter-spacing:-0.01em;}.cls-16{letter-spacing:-0.01em;}.cls-17{fill:none;}.cls-18{fill:#3d70b2;}.cls-18,.cls-23{stroke-width:4px;}.cls-19{font-size:22.4px;}.cls-20{letter-spacing:-0.01em;}.cls-21{letter-spacing:0em;}.cls-22{letter-spacing:0em;}.cls-23{fill:#00b4a0;}.cls-24{font-size:13.23px;}.cls-25{letter-spacing:-0.01em;}.cls-26{letter-spacing:0em;}.cls-27{font-size:13.19px;}.cls-28{letter-spacing:-0.01em;}.cls-29{letter-spacing:0em;}</style></defs><title>OrgandRG</title><g id="Layer_1" data-name="Layer 1"><polygon class="cls-1" points="511.47 7.43 390.18 7.43 329.53 112.47 390.18 217.51 511.47 217.51 572.12 112.47 511.47 7.43"/><polygon class="cls-2" points="391.28 49.54 350.64 119.93 431.92 119.93 391.28 49.54"/><rect class="cls-3" x="417.61" y="127.53" width="13.98" height="13.98" transform="translate(196.09 -304.91) rotate(45)"/><rect class="cls-3" x="408.61" y="110.53" width="13.98" height="13.98" transform="translate(181.44 -303.52) rotate(45)"/><rect class="cls-3" x="397.61" y="127.53" width="13.98" height="13.98" transform="translate(190.24 -290.77) rotate(45)"/><text class="cls-4" transform="translate(371.28 113.59)"><tspan class="cls-5">S</tspan><tspan x="5.99" y="0">e</tspan><tspan class="cls-6" x="12" y="0">r</tspan><tspan x="16.22" y="0">vi</tspan><tspan class="cls-7" x="24.8" y="0">c</tspan><tspan x="30.11" y="0">e</tspan></text><polygon class="cls-8" points="507.28 70.54 466.64 140.93 547.92 140.93 507.28 70.54"/><rect class="cls-3" x="533.61" y="148.53" width="13.98" height="13.98" transform="translate(244.92 -380.78) rotate(45)"/><rect class="cls-3" x="524.61" y="131.53" width="13.98" height="13.98" transform="translate(230.26 -379.4) rotate(45)"/><rect class="cls-3" x="513.61" y="148.53" width="13.98" height="13.98" transform="translate(239.06 -366.64) rotate(45)"/><text class="cls-4" transform="translate(487.28 134.59)"><tspan class="cls-5">S</tspan><tspan x="5.99" y="0">e</tspan><tspan class="cls-6" x="12" y="0">r</tspan><tspan x="16.22" y="0">vi</tspan><tspan class="cls-7" x="24.8" y="0">c</tspan><tspan x="30.11" y="0">e</tspan></text><polygon class="cls-9" points="444.28 127.54 403.64 197.93 484.92 197.93 444.28 127.54"/><rect class="cls-3" x="470.61" y="205.53" width="13.98" height="13.98" transform="translate(266.77 -319.54) rotate(45)"/><rect class="cls-3" x="461.61" y="188.53" width="13.98" height="13.98" transform="translate(252.12 -318.16) rotate(45)"/><rect class="cls-3" x="450.61" y="205.53" width="13.98" height="13.98" transform="translate(260.91 -305.4) rotate(45)"/><text class="cls-4" transform="translate(424.28 191.59)"><tspan class="cls-5">S</tspan><tspan x="5.99" y="0">e</tspan><tspan class="cls-6" x="12" y="0">r</tspan><tspan x="16.22" y="0">vi</tspan><tspan class="cls-7" x="24.8" y="0">c</tspan><tspan x="30.11" y="0">e</tspan></text><text class="cls-4" transform="translate(281.28 93.59)"><tspan class="cls-10">R</tspan><tspan x="6.5" y="0">esou</tspan><tspan class="cls-11" x="30.47" y="0">r</tspan><tspan class="cls-7" x="34.27" y="0">c</tspan><tspan class="cls-12" x="39.58" y="0">e</tspan></text><text class="cls-13" transform="translate(386.96 39.17)"><tspan class="cls-14">R</tspan><tspan x="10.33" y="0">esou</tspan><tspan class="cls-15" x="48.41" y="0">r</tspan><tspan class="cls-16" x="54.45" y="0">c</tspan><tspan x="62.88" y="0">e G</tspan><tspan class="cls-15" x="88.79" y="0">r</tspan><tspan x="94.83" y="0">oup</tspan></text><line class="cls-17" x1="329.12" y1="90.43" x2="376.62" y2="90.43"/></g><g id="Layer_2" data-name="Layer 2"><circle class="cls-18" cx="121.46" cy="121.46" r="119.46"/><text class="cls-19" transform="translate(61.94 56.33)">O<tspan class="cls-20" x="15.43" y="0">r</tspan><tspan class="cls-21" x="22.58" y="0">ganiz</tspan><tspan class="cls-22" x="73.15" y="0">a</tspan><tspan x="83.85" y="0">tion</tspan></text><rect class="cls-23" x="103.67" y="101.98" width="42.81" height="42.94"/><text class="cls-24" transform="translate(108.79 127.2)">Spa<tspan class="cls-25" x="20.43" y="0">c</tspan><tspan class="cls-26" x="26.28" y="0">e</tspan></text><rect class="cls-23" x="170.67" y="72.98" width="42.81" height="42.81"/><text class="cls-27" transform="translate(175.79 98.12)">Spa<tspan class="cls-28" x="20.37" y="0">c</tspan><tspan class="cls-29" x="26.2" y="0">e</tspan></text><rect class="cls-23" x="37.64" y="76.98" width="42.81" height="42.81"/><text class="cls-27" transform="translate(42.76 102.12)">Spa<tspan class="cls-28" x="20.37" y="0">c</tspan><tspan class="cls-29" x="26.2" y="0">e</tspan></text><rect class="cls-23" x="149.46" y="161.12" width="42.81" height="42.81"/><text class="cls-27" transform="translate(154.59 186.26)">Spa<tspan class="cls-28" x="20.37" y="0">c</tspan><tspan class="cls-29" x="26.2" y="0">e</tspan></text><rect class="cls-23" x="59.43" y="161.12" width="42.81" height="42.81"/><text class="cls-27" transform="translate(64.55 186.26)">Spa<tspan class="cls-28" x="20.37" y="0">c</tspan><tspan class="cls-29" x="26.2" y="0">e</tspan></text></g></svg>
