<?xml version="1.0" encoding="UTF-8"?>
<svg width="1451px" height="172px" viewBox="0 0 1451 172" version="1.1" xmlns="http://www.w3.org/2000/svg" xmlns:xlink="http://www.w3.org/1999/xlink">
    <!-- Generator: Sketch 53.2 (72643) - https://sketchapp.com -->
    <title>Group 3</title>
    <desc>Created with Sketch.</desc>
    <defs>
        <path d="M16.5,0 L1.5,0 C0.671572875,0 0,0.671572875 0,1.5 L0,16.5 C0,17.3284271 0.671572875,18 1.5,18 L16.5,18 C17.3284271,18 18,17.3284271 18,16.5 L18,1.5 C18,0.671572875 17.3284271,0 16.5,0 Z M1.5,16.5 L1.5,1.5 L16.5,1.5 L16.5,16.5 L1.5,16.5 Z M14.25,6.3075 L13.1925,5.25 L7.5,10.95 L4.8075,8.25 L3.75,9.315 L7.5,13.065 L14.25,6.3075 Z" id="path-1"></path>
        <path d="M16.5,0 L1.5,0 C0.671572875,0 0,0.671572875 0,1.5 L0,16.5 C0,17.3284271 0.671572875,18 1.5,18 L16.5,18 C17.3284271,18 18,17.3284271 18,16.5 L18,1.5 C18,0.671572875 17.3284271,0 16.5,0 Z M1.5,16.5 L1.5,1.5 L16.5,1.5 L16.5,16.5 L1.5,16.5 Z M14.25,6.3075 L13.1925,5.25 L7.5,10.95 L4.8075,8.25 L3.75,9.315 L7.5,13.065 L14.25,6.3075 Z" id="path-3"></path>
        <path d="M16.5,0 L1.5,0 C0.671572875,0 0,0.671572875 0,1.5 L0,16.5 C0,17.3284271 0.671572875,18 1.5,18 L16.5,18 C17.3284271,18 18,17.3284271 18,16.5 L18,1.5 C18,0.671572875 17.3284271,0 16.5,0 Z M1.5,16.5 L1.5,1.5 L16.5,1.5 L16.5,16.5 L1.5,16.5 Z M14.25,6.3075 L13.1925,5.25 L7.5,10.95 L4.8075,8.25 L3.75,9.315 L7.5,13.065 L14.25,6.3075 Z" id="path-5"></path>
        <path d="M16.5,0 L1.5,0 C0.671572875,0 0,0.671572875 0,1.5 L0,16.5 C0,17.3284271 0.671572875,18 1.5,18 L16.5,18 C17.3284271,18 18,17.3284271 18,16.5 L18,1.5 C18,0.671572875 17.3284271,0 16.5,0 Z M1.5,16.5 L1.5,1.5 L16.5,1.5 L16.5,16.5 L1.5,16.5 Z M14.25,6.3075 L13.1925,5.25 L7.5,10.95 L4.8075,8.25 L3.75,9.315 L7.5,13.065 L14.25,6.3075 Z" id="path-7"></path>
        <rect id="path-9" x="0" y="0" width="381" height="80"></rect>
        <filter x="-1.2%" y="-4.4%" width="102.4%" height="111.2%" filterUnits="objectBoundingBox" id="filter-10">
            <feMorphology radius="1" operator="dilate" in="SourceAlpha" result="shadowSpreadOuter1"></feMorphology>
            <feOffset dx="0" dy="1" in="shadowSpreadOuter1" result="shadowOffsetOuter1"></feOffset>
            <feGaussianBlur stdDeviation="1" in="shadowOffsetOuter1" result="shadowBlurOuter1"></feGaussianBlur>
            <feComposite in="shadowBlurOuter1" in2="SourceAlpha" operator="out" result="shadowBlurOuter1"></feComposite>
            <feColorMatrix values="0 0 0 0 0   0 0 0 0 0   0 0 0 0 0  0 0 0 0.1 0" type="matrix" in="shadowBlurOuter1"></feColorMatrix>
        </filter>
        <rect id="path-11" x="0" y="0" width="381" height="50"></rect>
        <filter x="-1.2%" y="-7.0%" width="102.4%" height="118.0%" filterUnits="objectBoundingBox" id="filter-12">
            <feMorphology radius="1" operator="dilate" in="SourceAlpha" result="shadowSpreadOuter1"></feMorphology>
            <feOffset dx="0" dy="1" in="shadowSpreadOuter1" result="shadowOffsetOuter1"></feOffset>
            <feGaussianBlur stdDeviation="1" in="shadowOffsetOuter1" result="shadowBlurOuter1"></feGaussianBlur>
            <feComposite in="shadowBlurOuter1" in2="SourceAlpha" operator="out" result="shadowBlurOuter1"></feComposite>
            <feColorMatrix values="0 0 0 0 0   0 0 0 0 0   0 0 0 0 0  0 0 0 0.1 0" type="matrix" in="shadowBlurOuter1"></feColorMatrix>
        </filter>
        <rect id="path-13" x="163" y="39" width="176" height="50"></rect>
        <filter x="-2.6%" y="-7.0%" width="105.1%" height="118.0%" filterUnits="objectBoundingBox" id="filter-14">
            <feMorphology radius="1" operator="dilate" in="SourceAlpha" result="shadowSpreadOuter1"></feMorphology>
            <feOffset dx="0" dy="1" in="shadowSpreadOuter1" result="shadowOffsetOuter1"></feOffset>
            <feGaussianBlur stdDeviation="1" in="shadowOffsetOuter1" result="shadowBlurOuter1"></feGaussianBlur>
            <feComposite in="shadowBlurOuter1" in2="SourceAlpha" operator="out" result="shadowBlurOuter1"></feComposite>
            <feColorMatrix values="0 0 0 0 0   0 0 0 0 0   0 0 0 0 0  0 0 0 0.1 0" type="matrix" in="shadowBlurOuter1"></feColorMatrix>
        </filter>
        <path d="M14,8.8817842e-16 C6.2680135,-4.4408921e-16 8.8817842e-16,6.2680135 0,14 C-8.8817842e-16,21.7319865 6.2680135,28 14,28 C21.7319865,28 28,21.7319865 28,14 C28,10.2869691 26.5250042,6.72601436 23.8994949,4.10050506 C21.2739856,1.47499577 17.7130309,4.4408921e-16 14,8.8817842e-16 Z M8,24.38 L8,22.38 C7.90310211,20.6210031 9.24193729,19.1125821 11,19 L17,19 C18.7621862,19.1125345 20.1026051,20.6272078 20,22.39 L20,24.39 C16.2927991,26.5544365 11.7072009,26.5544365 8,24.39 L8,24.38 Z M22,22.92 L22,22.31 C22.0621247,19.4719356 19.83667,17.1085026 17,17 L11,17 C8.16333004,17.1085026 5.93787529,19.4719356 6,22.31 L6,22.93 C2.29156128,19.6130716 1.01460169,14.3517373 2.78993169,9.70386301 C4.56526169,5.05598873 9.02460736,1.98572809 14,1.98572809 C18.9753926,1.98572809 23.4347383,5.05598873 25.2100683,9.70386301 C26.9853983,14.3517373 25.7084387,19.6130716 22,22.93 L22,22.92 Z M14,5 C11.2385763,5 9,7.23857625 9,10 C9,12.7614237 11.2385763,15 14,15 C16.7614237,15 19,12.7614237 19,10 C19,8.67391755 18.4732158,7.40214799 17.5355339,6.46446609 C16.597852,5.5267842 15.3260824,5 14,5 Z M14,13 C12.3431458,13 11,11.6568542 11,10 C11,8.34314575 12.3431458,7 14,7 C15.6568542,7 17,8.34314575 17,10 C17,10.7956495 16.6839295,11.5587112 16.1213203,12.1213203 C15.5587112,12.6839295 14.7956495,13 14,13 Z" id="path-15"></path>
    </defs>
    <g id="Page-1" stroke="none" stroke-width="1" fill="none" fill-rule="evenodd">
        <g id="ClassicIaaS" transform="translate(-55.000000, -58.000000)">
            <g id="Group-3" transform="translate(54.000000, 51.000000)">
                <text id="Custom-permissions" font-family="IBMPlexSans-Italic, IBM Plex Sans" font-size="18" font-style="italic" font-weight="normal" fill="#13171A">
                    <tspan x="1170" y="24">Custom permissions</tspan>
                </text>
                <g id="icon-default" transform="translate(1334.000000, 82.000000)">
                    <g id="check--box--unchecked" transform="translate(3.000000, 3.000000)">
                        <mask id="mask-2" fill="white">
                            <use xlink:href="#path-1"></use>
                        </mask>
                        <use id="Mask" fill="#000000" fill-rule="nonzero" xlink:href="#path-1"></use>
                        <g id="color/purple/60" mask="url(#mask-2)">
                            <g transform="translate(-3.000000, -3.000000)"></g>
                        </g>
                    </g>
                    <rect id="transparent-rectangle" x="0" y="0" width="24" height="24"></rect>
                </g>
                <g id="label-default" transform="translate(1362.000000, 81.000000)" fill="#13171A" font-family="IBMPlexSans, IBM Plex Sans" font-size="24" font-weight="normal" line-spacing="24">
                    <g id="component-default-text-––-B-tight">
                        <text id="B-tight-—-Body-copy">
                            <tspan x="0" y="25">Services</tspan>
                        </text>
                    </g>
                </g>
                <g id="icon-default" transform="translate(1334.000000, 46.000000)">
                    <g id="check--box--unchecked" transform="translate(3.000000, 3.000000)">
                        <mask id="mask-4" fill="white">
                            <use xlink:href="#path-3"></use>
                        </mask>
                        <use id="Mask" fill="#000000" fill-rule="nonzero" xlink:href="#path-3"></use>
                        <g id="color/purple/60" mask="url(#mask-4)">
                            <g transform="translate(-3.000000, -3.000000)"></g>
                        </g>
                    </g>
                    <rect id="transparent-rectangle" x="0" y="0" width="24" height="24"></rect>
                </g>
                <g id="label-default" transform="translate(1362.000000, 45.000000)" fill="#13171A" font-family="IBMPlexSans, IBM Plex Sans" font-size="24" font-weight="normal" line-spacing="24">
                    <g id="component-default-text-––-B-tight">
                        <text id="B-tight-—-Body-copy">
                            <tspan x="0" y="25">Devices</tspan>
                        </text>
                    </g>
                </g>
                <g id="icon-default" transform="translate(1170.000000, 82.000000)">
                    <g id="check--box--unchecked" transform="translate(3.000000, 3.000000)">
                        <mask id="mask-6" fill="white">
                            <use xlink:href="#path-5"></use>
                        </mask>
                        <use id="Mask" fill="#000000" fill-rule="nonzero" xlink:href="#path-5"></use>
                        <g id="color/purple/60" mask="url(#mask-6)">
                            <g transform="translate(-3.000000, -3.000000)"></g>
                        </g>
                    </g>
                    <rect id="transparent-rectangle" x="0" y="0" width="24" height="24"></rect>
                </g>
                <g id="label-default" transform="translate(1198.000000, 81.000000)" fill="#13171A" font-family="IBMPlexSans, IBM Plex Sans" font-size="24" font-weight="normal" line-spacing="24">
                    <g id="component-default-text-––-B-tight">
                        <text id="B-tight-—-Body-copy">
                            <tspan x="0" y="25">Network</tspan>
                        </text>
                    </g>
                </g>
                <g id="icon-default" transform="translate(1170.000000, 46.000000)">
                    <g id="check--box--unchecked" transform="translate(3.000000, 3.000000)">
                        <mask id="mask-8" fill="white">
                            <use xlink:href="#path-7"></use>
                        </mask>
                        <use id="Mask" fill="#000000" fill-rule="nonzero" xlink:href="#path-7"></use>
                        <g id="color/purple/60" mask="url(#mask-8)">
                            <g transform="translate(-3.000000, -3.000000)"></g>
                        </g>
                    </g>
                    <rect id="transparent-rectangle" x="0" y="0" width="24" height="24"></rect>
                </g>
                <g id="label-default" transform="translate(1198.000000, 45.000000)" fill="#13171A" font-family="IBMPlexSans, IBM Plex Sans" font-size="24" font-weight="normal" line-spacing="24">
                    <g id="component-default-text-––-B-tight">
                        <text id="B-tight-—-Body-copy">
                            <tspan x="0" y="25">Account</tspan>
                        </text>
                    </g>
                </g>
                <g id="Group-2" transform="translate(478.000000, 39.000000)">
                    <g id="Active">
                        <use fill="black" fill-opacity="1" filter="url(#filter-10)" xlink:href="#path-9"></use>
                        <rect stroke="#A970FF" stroke-width="1" fill="#F7F1FF" fill-rule="evenodd" x="-0.5" y="-0.5" width="382" height="81"></rect>
                    </g>
                    <text id="Classic-Infrastructu" font-family="IBMPlexSans, IBM Plex Sans" font-size="24" font-weight="normal" fill="#13171A">
                        <tspan x="16" y="33">Classic Infrastructure Service</tspan>
                    </text>
                </g>
                <g id="Group-2" transform="translate(478.000000, 125.000000)">
                    <g id="Active">
                        <use fill="black" fill-opacity="1" filter="url(#filter-12)" xlink:href="#path-11"></use>
                        <rect stroke="#A970FF" stroke-width="1" fill="#F7F1FF" fill-rule="evenodd" x="-0.5" y="-0.5" width="382" height="51"></rect>
                    </g>
                    <text id="Classic-Infrastructu" font-family="IBMPlexSans, IBM Plex Sans" font-size="24" font-weight="normal" fill="#13171A">
                        <tspan x="49" y="33">Classic Infrastructure Device</tspan>
                    </text>
                    <g id="Group" transform="translate(16.000000, 15.000000)" fill="#13171A">
                        <path d="M18.3984375,1.234375 C19.2268646,1.234375 19.8984375,1.90594788 19.8984375,2.734375 C19.8984375,3.56280212 19.2268646,4.234375 18.3984375,4.234375 L3.3984375,4.234375 C2.57001038,4.234375 1.8984375,3.56280212 1.8984375,2.734375 C1.8984375,1.90594788 2.57001038,1.234375 3.3984375,1.234375 L18.3984375,1.234375 L18.3984375,1.234375 Z M18.3984375,0.234375 L3.3984375,0.234375 C2.01772563,0.234375 0.8984375,1.35366313 0.8984375,2.734375 C0.8984375,4.11508687 2.01772563,5.234375 3.3984375,5.234375 L18.3984375,5.234375 C19.7791494,5.234375 20.8984375,4.11508687 20.8984375,2.734375 C20.8984375,1.35366313 19.7791494,0.234375 18.3984375,0.234375 L18.3984375,0.234375 L18.3984375,0.234375 Z" id="Shape"></path>
                        <path d="M18.3984375,8.234375 C19.2268646,8.234375 19.8984375,8.90594788 19.8984375,9.734375 C19.8984375,10.5628021 19.2268646,11.234375 18.3984375,11.234375 L3.3984375,11.234375 C2.57001038,11.234375 1.8984375,10.5628021 1.8984375,9.734375 C1.8984375,8.90594788 2.57001038,8.234375 3.3984375,8.234375 L18.3984375,8.234375 L18.3984375,8.234375 Z M18.3984375,7.234375 L3.3984375,7.234375 C2.72840728,7.23428923 2.08638467,7.50316509 1.61637674,7.98069315 C1.14636881,8.45822121 0.887717011,9.10443055 0.8984375,9.774375 L0.8984375,9.774375 C0.920281338,11.1394408 2.03319694,12.2345498 3.3984375,12.234375 L18.3984375,12.234375 C19.7636781,12.2345498 20.8765937,11.1394408 20.8984375,9.774375 L20.8984375,9.774375 C20.909158,9.10443055 20.6505062,8.45822121 20.1804983,7.98069315 C19.7104903,7.50316509 19.0684677,7.23428923 18.3984375,7.234375 L18.3984375,7.234375 L18.3984375,7.234375 Z" id="Shape"></path>
                        <path d="M18.3984375,15.234375 C19.2268646,15.234375 19.8984375,15.9059479 19.8984375,16.734375 C19.8984375,17.5628021 19.2268646,18.234375 18.3984375,18.234375 L3.3984375,18.234375 C2.57001038,18.234375 1.8984375,17.5628021 1.8984375,16.734375 C1.8984375,15.9059479 2.57001038,15.234375 3.3984375,15.234375 L18.3984375,15.234375 L18.3984375,15.234375 Z M18.3984375,14.234375 L3.3984375,14.234375 C2.01772563,14.234375 0.8984375,15.3536631 0.8984375,16.734375 C0.8984375,18.1150869 2.01772563,19.234375 3.3984375,19.234375 L18.3984375,19.234375 C19.7791494,19.234375 20.8984375,18.1150869 20.8984375,16.734375 C20.8984375,15.3536631 19.7791494,14.234375 18.3984375,14.234375 L18.3984375,14.234375 L18.3984375,14.234375 Z" id="Shape"></path>
                        <path d="M17.4084375,3.234375 L4.4084375,3.234375 C4.13229513,3.234375 3.9084375,3.01051737 3.9084375,2.734375 C3.9084375,2.45823263 4.13229513,2.234375 4.4084375,2.234375 L17.4084375,2.234375 C17.6845799,2.234375 17.9084375,2.45823263 17.9084375,2.734375 C17.9084375,3.01051737 17.6845799,3.234375 17.4084375,3.234375 L17.4084375,3.234375 Z" id="Shape"></path>
                        <path d="M17.4084375,10.234375 L4.4084375,10.234375 C4.13229513,10.234375 3.9084375,10.0105174 3.9084375,9.734375 C3.9084375,9.45823263 4.13229513,9.234375 4.4084375,9.234375 L17.4084375,9.234375 C17.6845799,9.234375 17.9084375,9.45823263 17.9084375,9.734375 C17.9084375,10.0105174 17.6845799,10.234375 17.4084375,10.234375 L17.4084375,10.234375 Z" id="Shape"></path>
                        <path d="M17.4084375,17.234375 L4.4084375,17.234375 C4.13229513,17.234375 3.9084375,17.0105174 3.9084375,16.734375 C3.9084375,16.4582326 4.13229513,16.234375 4.4084375,16.234375 L17.4084375,16.234375 C17.6845799,16.234375 17.9084375,16.4582326 17.9084375,16.734375 C17.9084375,17.0105174 17.6845799,17.234375 17.4084375,17.234375 L17.4084375,17.234375 Z" id="Shape"></path>
                    </g>
                </g>
                <g id="Active">
                    <use fill="black" fill-opacity="1" filter="url(#filter-14)" xlink:href="#path-13"></use>
                    <rect stroke="#A970FF" stroke-width="1" fill="#F7F1FF" fill-rule="evenodd" x="162.5" y="38.5" width="177" height="51"></rect>
                </g>
                <g id="icon/user/avatar/32" transform="translate(174.000000, 48.000000)">
                    <g id="user--avatar" stroke-width="1" fill-rule="evenodd" transform="translate(2.000000, 2.000000)">
                        <mask id="mask-16" fill="white">
                            <use xlink:href="#path-15"></use>
                        </mask>
                        <use id="Mask" fill="#000000" fill-rule="nonzero" xlink:href="#path-15"></use>
                        <g id="color/black" mask="url(#mask-16)">
                            <g transform="translate(-2.000000, -2.000000)"></g>
                        </g>
                    </g>
                    <rect id="transparent-rectangle" x="0" y="0" width="32" height="32"></rect>
                </g>
                <text id="User" font-family="IBMPlexSans, IBM Plex Sans" font-size="24" font-weight="normal" fill="#13171A">
                    <tspan x="212" y="72">User</tspan>
                </text>
                <text id="I-want-to-give" font-family="IBMPlexSans-Medium, IBM Plex Sans" font-size="24" font-weight="400" fill="#13171A">
                    <tspan x="0" y="25">I want to give</tspan>
                </text>
                <text id="access-to" font-family="IBMPlexSans-Medium, IBM Plex Sans" font-size="24" font-weight="400" fill="#13171A">
                    <tspan x="360" y="25">access to </tspan>
                </text>
                <text id="with-specific-permis" font-family="IBMPlexSans-Medium, IBM Plex Sans" font-size="24" font-weight="400" fill="#13171A">
                    <tspan x="878" y="25">with specific permissions</tspan>
                </text>
                <path d="M509.375,90.6 C509.913478,90.6 510.35,91.0029437 510.35,91.5 C510.35,91.9970563 509.913478,92.4 509.375,92.4 L499.625,92.4 C499.086522,92.4 498.65,91.9970563 498.65,91.5 C498.65,91.0029437 499.086522,90.6 499.625,90.6 L509.375,90.6 L509.375,90.6 Z M509.375,90 L499.625,90 C498.727537,90 498,90.6715729 498,91.5 C498,92.3284271 498.727537,93 499.625,93 L509.375,93 C510.272463,93 511,92.3284271 511,91.5 C511,90.6715729 510.272463,90 509.375,90 L509.375,90 L509.375,90 Z" id="Shape" fill="#13171A"></path>
                <path d="M509.374844,95.6 C509.913304,95.6 510.349813,96.0029437 510.349813,96.5 C510.349813,96.9970563 509.913304,97.4 509.374844,97.4 L499.625156,97.4 C499.086696,97.4 498.650187,96.9970563 498.650187,96.5 C498.650187,96.0029437 499.086696,95.6 499.625156,95.6 L509.374844,95.6 L509.374844,95.6 Z M509.374844,95 L499.625156,95 C499.189651,94.9999486 498.772349,95.1612741 498.466854,95.4477909 C498.161358,95.7343077 497.99324,96.1220333 498.000208,96.524 L498.000208,96.524 C498.014406,97.3430395 498.737778,98.0001049 499.625156,98 L509.374844,98 C510.262222,98.0001049 510.985594,97.3430395 510.999792,96.524 L510.999792,96.524 C511.00676,96.1220333 510.838642,95.7343077 510.533146,95.4477909 C510.227651,95.1612741 509.810349,94.9999486 509.374844,95 L509.374844,95 L509.374844,95 Z" id="Shape" fill="#13171A"></path>
                <path d="M509.375,99.6 C509.913478,99.6 510.35,100.002944 510.35,100.5 C510.35,100.997056 509.913478,101.4 509.375,101.4 L499.625,101.4 C499.086522,101.4 498.65,100.997056 498.65,100.5 C498.65,100.002944 499.086522,99.6 499.625,99.6 L509.375,99.6 L509.375,99.6 Z M509.375,99 L499.625,99 C498.727537,99 498,99.6715729 498,100.5 C498,101.328427 498.727537,102 499.625,102 L509.375,102 C510.272463,102 511,101.328427 511,100.5 C511,99.6715729 510.272463,99 509.375,99 L509.375,99 L509.375,99 Z" id="Shape" fill="#13171A"></path>
                <path d="M508.678571,92 L500.321429,92 C500.143908,92 500,91.7761424 500,91.5 C500,91.2238576 500.143908,91 500.321429,91 L508.678571,91 C508.856092,91 509,91.2238576 509,91.5 C509,91.7761424 508.856092,92 508.678571,92 L508.678571,92 Z" id="Shape" fill="#13171A"></path>
                <path d="M508.678571,97 L500.321429,97 C500.143908,97 500,96.7761424 500,96.5 C500,96.2238576 500.143908,96 500.321429,96 L508.678571,96 C508.856092,96 509,96.2238576 509,96.5 C509,96.7761424 508.856092,97 508.678571,97 L508.678571,97 Z" id="Shape" fill="#13171A"></path>
                <path d="M508.678571,101 L500.321429,101 C500.143908,101 500,100.776142 500,100.5 C500,100.223858 500.143908,100 500.321429,100 L508.678571,100 C508.856092,100 509,100.223858 509,100.5 C509,100.776142 508.856092,101 508.678571,101 L508.678571,101 Z" id="Shape" fill="#13171A"></path>
                <path d="M530.375,90.6 C530.913478,90.6 531.35,91.0029437 531.35,91.5 C531.35,91.9970563 530.913478,92.4 530.375,92.4 L520.625,92.4 C520.086522,92.4 519.65,91.9970563 519.65,91.5 C519.65,91.0029437 520.086522,90.6 520.625,90.6 L530.375,90.6 L530.375,90.6 Z M530.375,90 L520.625,90 C519.727537,90 519,90.6715729 519,91.5 C519,92.3284271 519.727537,93 520.625,93 L530.375,93 C531.272463,93 532,92.3284271 532,91.5 C532,90.6715729 531.272463,90 530.375,90 L530.375,90 L530.375,90 Z" id="Shape" fill="#13171A"></path>
                <path d="M530.374844,95.6 C530.913304,95.6 531.349813,96.0029437 531.349813,96.5 C531.349813,96.9970563 530.913304,97.4 530.374844,97.4 L520.625156,97.4 C520.086696,97.4 519.650187,96.9970563 519.650187,96.5 C519.650187,96.0029437 520.086696,95.6 520.625156,95.6 L530.374844,95.6 L530.374844,95.6 Z M530.374844,95 L520.625156,95 C520.189651,94.9999486 519.772349,95.1612741 519.466854,95.4477909 C519.161358,95.7343077 518.99324,96.1220333 519.000208,96.524 L519.000208,96.524 C519.014406,97.3430395 519.737778,98.0001049 520.625156,98 L530.374844,98 C531.262222,98.0001049 531.985594,97.3430395 531.999792,96.524 L531.999792,96.524 C532.00676,96.1220333 531.838642,95.7343077 531.533146,95.4477909 C531.227651,95.1612741 530.810349,94.9999486 530.374844,95 L530.374844,95 L530.374844,95 Z" id="Shape" fill="#13171A"></path>
                <path d="M530.375,99.6 C530.913478,99.6 531.35,100.002944 531.35,100.5 C531.35,100.997056 530.913478,101.4 530.375,101.4 L520.625,101.4 C520.086522,101.4 519.65,100.997056 519.65,100.5 C519.65,100.002944 520.086522,99.6 520.625,99.6 L530.375,99.6 L530.375,99.6 Z M530.375,99 L520.625,99 C519.727537,99 519,99.6715729 519,100.5 C519,101.328427 519.727537,102 520.625,102 L530.375,102 C531.272463,102 532,101.328427 532,100.5 C532,99.6715729 531.272463,99 530.375,99 L530.375,99 L530.375,99 Z" id="Shape" fill="#13171A"></path>
                <path d="M529.678571,92 L521.321429,92 C521.143908,92 521,91.7761424 521,91.5 C521,91.2238576 521.143908,91 521.321429,91 L529.678571,91 C529.856092,91 530,91.2238576 530,91.5 C530,91.7761424 529.856092,92 529.678571,92 L529.678571,92 Z" id="Shape" fill="#13171A"></path>
                <path d="M529.678571,97 L521.321429,97 C521.143908,97 521,96.7761424 521,96.5 C521,96.2238576 521.143908,96 521.321429,96 L529.678571,96 C529.856092,96 530,96.2238576 530,96.5 C530,96.7761424 529.856092,97 529.678571,97 L529.678571,97 Z" id="Shape" fill="#13171A"></path>
                <path d="M529.678571,101 L521.321429,101 C521.143908,101 521,100.776142 521,100.5 C521,100.223858 521.143908,100 521.321429,100 L529.678571,100 C529.856092,100 530,100.223858 530,100.5 C530,100.776142 529.856092,101 529.678571,101 L529.678571,101 Z" id="Shape" fill="#13171A"></path>
                <path d="M551.375,90.6 C551.913478,90.6 552.35,91.0029437 552.35,91.5 C552.35,91.9970563 551.913478,92.4 551.375,92.4 L541.625,92.4 C541.086522,92.4 540.65,91.9970563 540.65,91.5 C540.65,91.0029437 541.086522,90.6 541.625,90.6 L551.375,90.6 L551.375,90.6 Z M551.375,90 L541.625,90 C540.727537,90 540,90.6715729 540,91.5 C540,92.3284271 540.727537,93 541.625,93 L551.375,93 C552.272463,93 553,92.3284271 553,91.5 C553,90.6715729 552.272463,90 551.375,90 L551.375,90 L551.375,90 Z" id="Shape" fill="#13171A"></path>
                <path d="M551.374844,95.6 C551.913304,95.6 552.349813,96.0029437 552.349813,96.5 C552.349813,96.9970563 551.913304,97.4 551.374844,97.4 L541.625156,97.4 C541.086696,97.4 540.650187,96.9970563 540.650187,96.5 C540.650187,96.0029437 541.086696,95.6 541.625156,95.6 L551.374844,95.6 L551.374844,95.6 Z M551.374844,95 L541.625156,95 C541.189651,94.9999486 540.772349,95.1612741 540.466854,95.4477909 C540.161358,95.7343077 539.99324,96.1220333 540.000208,96.524 L540.000208,96.524 C540.014406,97.3430395 540.737778,98.0001049 541.625156,98 L551.374844,98 C552.262222,98.0001049 552.985594,97.3430395 552.999792,96.524 L552.999792,96.524 C553.00676,96.1220333 552.838642,95.7343077 552.533146,95.4477909 C552.227651,95.1612741 551.810349,94.9999486 551.374844,95 L551.374844,95 L551.374844,95 Z" id="Shape" fill="#13171A"></path>
                <path d="M551.375,99.6 C551.913478,99.6 552.35,100.002944 552.35,100.5 C552.35,100.997056 551.913478,101.4 551.375,101.4 L541.625,101.4 C541.086522,101.4 540.65,100.997056 540.65,100.5 C540.65,100.002944 541.086522,99.6 541.625,99.6 L551.375,99.6 L551.375,99.6 Z M551.375,99 L541.625,99 C540.727537,99 540,99.6715729 540,100.5 C540,101.328427 540.727537,102 541.625,102 L551.375,102 C552.272463,102 553,101.328427 553,100.5 C553,99.6715729 552.272463,99 551.375,99 L551.375,99 L551.375,99 Z" id="Shape" fill="#13171A"></path>
                <path d="M550.678571,92 L542.321429,92 C542.143908,92 542,91.7761424 542,91.5 C542,91.2238576 542.143908,91 542.321429,91 L550.678571,91 C550.856092,91 551,91.2238576 551,91.5 C551,91.7761424 550.856092,92 550.678571,92 L550.678571,92 Z" id="Shape" fill="#13171A"></path>
                <path d="M550.678571,97 L542.321429,97 C542.143908,97 542,96.7761424 542,96.5 C542,96.2238576 542.143908,96 542.321429,96 L550.678571,96 C550.856092,96 551,96.2238576 551,96.5 C551,96.7761424 550.856092,97 550.678571,97 L550.678571,97 Z" id="Shape" fill="#13171A"></path>
                <path d="M550.678571,101 L542.321429,101 C542.143908,101 542,100.776142 542,100.5 C542,100.223858 542.143908,100 542.321429,100 L550.678571,100 C550.856092,100 551,100.223858 551,100.5 C551,100.776142 550.856092,101 550.678571,101 L550.678571,101 Z" id="Shape" fill="#13171A"></path>
                <path d="M571.375,90.6 C571.913478,90.6 572.35,91.0029437 572.35,91.5 C572.35,91.9970563 571.913478,92.4 571.375,92.4 L561.625,92.4 C561.086522,92.4 560.65,91.9970563 560.65,91.5 C560.65,91.0029437 561.086522,90.6 561.625,90.6 L571.375,90.6 L571.375,90.6 Z M571.375,90 L561.625,90 C560.727537,90 560,90.6715729 560,91.5 C560,92.3284271 560.727537,93 561.625,93 L571.375,93 C572.272463,93 573,92.3284271 573,91.5 C573,90.6715729 572.272463,90 571.375,90 L571.375,90 L571.375,90 Z" id="Shape" fill="#13171A"></path>
                <path d="M571.374844,95.6 C571.913304,95.6 572.349813,96.0029437 572.349813,96.5 C572.349813,96.9970563 571.913304,97.4 571.374844,97.4 L561.625156,97.4 C561.086696,97.4 560.650187,96.9970563 560.650187,96.5 C560.650187,96.0029437 561.086696,95.6 561.625156,95.6 L571.374844,95.6 L571.374844,95.6 Z M571.374844,95 L561.625156,95 C561.189651,94.9999486 560.772349,95.1612741 560.466854,95.4477909 C560.161358,95.7343077 559.99324,96.1220333 560.000208,96.524 L560.000208,96.524 C560.014406,97.3430395 560.737778,98.0001049 561.625156,98 L571.374844,98 C572.262222,98.0001049 572.985594,97.3430395 572.999792,96.524 L572.999792,96.524 C573.00676,96.1220333 572.838642,95.7343077 572.533146,95.4477909 C572.227651,95.1612741 571.810349,94.9999486 571.374844,95 L571.374844,95 L571.374844,95 Z" id="Shape" fill="#13171A"></path>
                <path d="M571.375,99.6 C571.913478,99.6 572.35,100.002944 572.35,100.5 C572.35,100.997056 571.913478,101.4 571.375,101.4 L561.625,101.4 C561.086522,101.4 560.65,100.997056 560.65,100.5 C560.65,100.002944 561.086522,99.6 561.625,99.6 L571.375,99.6 L571.375,99.6 Z M571.375,99 L561.625,99 C560.727537,99 560,99.6715729 560,100.5 C560,101.328427 560.727537,102 561.625,102 L571.375,102 C572.272463,102 573,101.328427 573,100.5 C573,99.6715729 572.272463,99 571.375,99 L571.375,99 L571.375,99 Z" id="Shape" fill="#13171A"></path>
                <path d="M570.678571,92 L562.321429,92 C562.143908,92 562,91.7761424 562,91.5 C562,91.2238576 562.143908,91 562.321429,91 L570.678571,91 C570.856092,91 571,91.2238576 571,91.5 C571,91.7761424 570.856092,92 570.678571,92 L570.678571,92 Z" id="Shape" fill="#13171A"></path>
                <path d="M570.678571,97 L562.321429,97 C562.143908,97 562,96.7761424 562,96.5 C562,96.2238576 562.143908,96 562.321429,96 L570.678571,96 C570.856092,96 571,96.2238576 571,96.5 C571,96.7761424 570.856092,97 570.678571,97 L570.678571,97 Z" id="Shape" fill="#13171A"></path>
                <path d="M570.678571,101 L562.321429,101 C562.143908,101 562,100.776142 562,100.5 C562,100.223858 562.143908,100 562.321429,100 L570.678571,100 C570.856092,100 571,100.223858 571,100.5 C571,100.776142 570.856092,101 570.678571,101 L570.678571,101 Z" id="Shape" fill="#13171A"></path>
                <path d="M592.375,90.6 C592.913478,90.6 593.35,91.0029437 593.35,91.5 C593.35,91.9970563 592.913478,92.4 592.375,92.4 L582.625,92.4 C582.086522,92.4 581.65,91.9970563 581.65,91.5 C581.65,91.0029437 582.086522,90.6 582.625,90.6 L592.375,90.6 L592.375,90.6 Z M592.375,90 L582.625,90 C581.727537,90 581,90.6715729 581,91.5 C581,92.3284271 581.727537,93 582.625,93 L592.375,93 C593.272463,93 594,92.3284271 594,91.5 C594,90.6715729 593.272463,90 592.375,90 L592.375,90 L592.375,90 Z" id="Shape" fill="#13171A"></path>
                <path d="M592.374844,95.6 C592.913304,95.6 593.349813,96.0029437 593.349813,96.5 C593.349813,96.9970563 592.913304,97.4 592.374844,97.4 L582.625156,97.4 C582.086696,97.4 581.650187,96.9970563 581.650187,96.5 C581.650187,96.0029437 582.086696,95.6 582.625156,95.6 L592.374844,95.6 L592.374844,95.6 Z M592.374844,95 L582.625156,95 C582.189651,94.9999486 581.772349,95.1612741 581.466854,95.4477909 C581.161358,95.7343077 580.99324,96.1220333 581.000208,96.524 L581.000208,96.524 C581.014406,97.3430395 581.737778,98.0001049 582.625156,98 L592.374844,98 C593.262222,98.0001049 593.985594,97.3430395 593.999792,96.524 L593.999792,96.524 C594.00676,96.1220333 593.838642,95.7343077 593.533146,95.4477909 C593.227651,95.1612741 592.810349,94.9999486 592.374844,95 L592.374844,95 L592.374844,95 Z" id="Shape" fill="#13171A"></path>
                <path d="M592.375,99.6 C592.913478,99.6 593.35,100.002944 593.35,100.5 C593.35,100.997056 592.913478,101.4 592.375,101.4 L582.625,101.4 C582.086522,101.4 581.65,100.997056 581.65,100.5 C581.65,100.002944 582.086522,99.6 582.625,99.6 L592.375,99.6 L592.375,99.6 Z M592.375,99 L582.625,99 C581.727537,99 581,99.6715729 581,100.5 C581,101.328427 581.727537,102 582.625,102 L592.375,102 C593.272463,102 594,101.328427 594,100.5 C594,99.6715729 593.272463,99 592.375,99 L592.375,99 L592.375,99 Z" id="Shape" fill="#13171A"></path>
                <path d="M591.678571,92 L583.321429,92 C583.143908,92 583,91.7761424 583,91.5 C583,91.2238576 583.143908,91 583.321429,91 L591.678571,91 C591.856092,91 592,91.2238576 592,91.5 C592,91.7761424 591.856092,92 591.678571,92 L591.678571,92 Z" id="Shape" fill="#13171A"></path>
                <path d="M591.678571,97 L583.321429,97 C583.143908,97 583,96.7761424 583,96.5 C583,96.2238576 583.143908,96 583.321429,96 L591.678571,96 C591.856092,96 592,96.2238576 592,96.5 C592,96.7761424 591.856092,97 591.678571,97 L591.678571,97 Z" id="Shape" fill="#13171A"></path>
                <path d="M591.678571,101 L583.321429,101 C583.143908,101 583,100.776142 583,100.5 C583,100.223858 583.143908,100 583.321429,100 L591.678571,100 C591.856092,100 592,100.223858 592,100.5 C592,100.776142 591.856092,101 591.678571,101 L591.678571,101 Z" id="Shape" fill="#13171A"></path>
                <path d="M613.375,90.6 C613.913478,90.6 614.35,91.0029437 614.35,91.5 C614.35,91.9970563 613.913478,92.4 613.375,92.4 L603.625,92.4 C603.086522,92.4 602.65,91.9970563 602.65,91.5 C602.65,91.0029437 603.086522,90.6 603.625,90.6 L613.375,90.6 L613.375,90.6 Z M613.375,90 L603.625,90 C602.727537,90 602,90.6715729 602,91.5 C602,92.3284271 602.727537,93 603.625,93 L613.375,93 C614.272463,93 615,92.3284271 615,91.5 C615,90.6715729 614.272463,90 613.375,90 L613.375,90 L613.375,90 Z" id="Shape" fill="#13171A"></path>
                <path d="M613.374844,95.6 C613.913304,95.6 614.349813,96.0029437 614.349813,96.5 C614.349813,96.9970563 613.913304,97.4 613.374844,97.4 L603.625156,97.4 C603.086696,97.4 602.650187,96.9970563 602.650187,96.5 C602.650187,96.0029437 603.086696,95.6 603.625156,95.6 L613.374844,95.6 L613.374844,95.6 Z M613.374844,95 L603.625156,95 C603.189651,94.9999486 602.772349,95.1612741 602.466854,95.4477909 C602.161358,95.7343077 601.99324,96.1220333 602.000208,96.524 L602.000208,96.524 C602.014406,97.3430395 602.737778,98.0001049 603.625156,98 L613.374844,98 C614.262222,98.0001049 614.985594,97.3430395 614.999792,96.524 L614.999792,96.524 C615.00676,96.1220333 614.838642,95.7343077 614.533146,95.4477909 C614.227651,95.1612741 613.810349,94.9999486 613.374844,95 L613.374844,95 L613.374844,95 Z" id="Shape" fill="#13171A"></path>
                <path d="M613.375,99.6 C613.913478,99.6 614.35,100.002944 614.35,100.5 C614.35,100.997056 613.913478,101.4 613.375,101.4 L603.625,101.4 C603.086522,101.4 602.65,100.997056 602.65,100.5 C602.65,100.002944 603.086522,99.6 603.625,99.6 L613.375,99.6 L613.375,99.6 Z M613.375,99 L603.625,99 C602.727537,99 602,99.6715729 602,100.5 C602,101.328427 602.727537,102 603.625,102 L613.375,102 C614.272463,102 615,101.328427 615,100.5 C615,99.6715729 614.272463,99 613.375,99 L613.375,99 L613.375,99 Z" id="Shape" fill="#13171A"></path>
                <path d="M612.678571,92 L604.321429,92 C604.143908,92 604,91.7761424 604,91.5 C604,91.2238576 604.143908,91 604.321429,91 L612.678571,91 C612.856092,91 613,91.2238576 613,91.5 C613,91.7761424 612.856092,92 612.678571,92 L612.678571,92 Z" id="Shape" fill="#13171A"></path>
                <path d="M612.678571,97 L604.321429,97 C604.143908,97 604,96.7761424 604,96.5 C604,96.2238576 604.143908,96 604.321429,96 L612.678571,96 C612.856092,96 613,96.2238576 613,96.5 C613,96.7761424 612.856092,97 612.678571,97 L612.678571,97 Z" id="Shape" fill="#13171A"></path>
                <path d="M612.678571,101 L604.321429,101 C604.143908,101 604,100.776142 604,100.5 C604,100.223858 604.143908,100 604.321429,100 L612.678571,100 C612.856092,100 613,100.223858 613,100.5 C613,100.776142 612.856092,101 612.678571,101 L612.678571,101 Z" id="Shape" fill="#13171A"></path>
                <text id="Subject" font-family="IBMPlexSans-Italic, IBM Plex Sans" font-size="18" font-style="italic" font-weight="normal" fill="#13171A">
                    <tspan x="163" y="24">Subject</tspan>
                </text>
                <text id="Target" font-family="IBMPlexSans-Italic, IBM Plex Sans" font-size="18" font-style="italic" font-weight="normal" fill="#13171A">
                    <tspan x="478" y="24">Target</tspan>
                </text>
            </g>
        </g>
    </g>
</svg>