<?xml version="1.0" encoding="utf-8"?>
<!-- Generator: Adobe Illustrator 22.0.0, SVG Export Plug-In . SVG Version: 6.00 Build 0)  -->
<svg version="1.1" xmlns="http://www.w3.org/2000/svg" xmlns:xlink="http://www.w3.org/1999/xlink" x="0px" y="0px"
	 viewBox="0 0 1218.5 1470.4" style="enable-background:new 0 0 1218.5 1470.4;" xml:space="preserve">
<style type="text/css">
	.st0{font-family:'IBMPlexMono';}
	.st1{font-size:15px;}
	.st2{fill:#002D9C;}
	.st3{font-family:'IBMPlexSans';}
	.st4{font-size:17px;}
</style>
<g id="Layer_3">
</g>
<g id="Shapes">
	<text transform="matrix(1.0295 0 0 1 31.9321 49.8354)"><tspan x="0" y="0" class="st0 st1">&quot;report&quot;: {</tspan><tspan x="0" y="18" class="st0 st1">  &quot;docType&quot;: &quot;iam.identity-access-map&quot;,</tspan><tspan x="0" y="36" class="st0 st1">  &quot;version&quot;: &quot;1.0.0&quot;,</tspan><tspan x="0" y="54" class="st0 st1">  &quot;date&quot;: &quot;2019.09.16.21.00.47&quot;,</tspan><tspan x="0" y="72" class="st0 st1">  &quot;createByID&quot;: &quot;IBMid-3100012345&quot;</tspan><tspan x="0" y="90" class="st0 st1">  “displayName”: “Ralph Wiggum”,</tspan><tspan x="0" y="108" class="st0 st1">  &quot;contact&quot;: &quot;ralph.wiggum@company.com&quot;</tspan><tspan x="0" y="126" class="st0 st1">  &quot;fullReport&quot;: true</tspan><tspan x="0" y="144" class="st0 st1">},</tspan><tspan x="0" y="162" class="st0 st1">&quot;responses&quot;: [</tspan><tspan x="0" y="180" class="st0 st1">  {</tspan><tspan x="0" y="198" class="st0 st1">    &quot;resource&quot;: &quot;crn:v1:bluemix:public:toolchain:us-south:a/1234bad61410658a189782e5aae7fa3c8:9ea4500d-bec3-4879917-2&quot;,</tspan><tspan x="0" y="216" class="st0 st1">    &quot;displayname&quot;: &quot;myToolchain&quot;,</tspan><tspan x="0" y="234" class="st0 st1">    &quot;serviceName&quot;: &quot;toolchain&quot;,</tspan><tspan x="0" y="252" class="st0 st1">    &quot;resourceGroupId&quot;: b444aaa0211a86f060abc7def90111h&quot;,</tspan><tspan x="0" y="270" class="st0 st1">    &quot;resourceGroupName&quot;: &quot;RG12345&quot;</tspan><tspan x="0" y="288" class="st0 st1">  },</tspan><tspan x="0" y="306" class="st0 st1">  &quot;access&quot;: {</tspan><tspan x="0" y="324" class="st0 st1">    &quot;subject&quot;: {</tspan><tspan x="0" y="342" class="st0 st1">      &quot;user&quot;: {</tspan><tspan x="0" y="360" class="st0 st1">        &quot;id&quot;: &quot;IBMid-4531234&quot;,</tspan><tspan x="0" y="378" class="st0 st1">        &quot;displayName&quot;: &quot;John Doe&quot;,</tspan><tspan x="0" y="396" class="st0 st1">        &quot;contact&quot;: &quot;JohnDoe@company.com&quot;</tspan><tspan x="0" y="414" class="st0 st1">      }</tspan><tspan x="0" y="432" class="st0 st1">    },</tspan><tspan x="0" y="450" class="st0 st1">    &quot;roleActions&quot;: [</tspan><tspan x="0" y="468" class="st0 st1">      {</tspan><tspan x="0" y="486" class="st0 st1">        &quot;role&quot;: {</tspan><tspan x="0" y="504" class="st0 st1">        &quot;crn&quot;: &quot;crn:v1:bluemix:public:iam::::role:Viewer&quot;,</tspan><tspan x="0" y="522" class="st0 st1">        &quot;displayName&quot;: &quot;Viewer&quot;,</tspan><tspan x="0" y="540" class="st0 st1">        &quot;description&quot;: &quot;As a viewer, you can view service instances, but you can&apos;t modify them.&quot;</tspan><tspan x="0" y="558" class="st0 st1">        },</tspan><tspan x="0" y="576" class="st0 st1">        &quot;actions&quot;: [</tspan><tspan x="0" y="594" class="st0 st1">          {</tspan><tspan x="0" y="612" class="st0 st1">            &quot;action&quot;: &quot;toolchain.dashboard.view&quot;,</tspan><tspan x="0" y="630" class="st0 st1">            &quot;displayName&quot;: &quot;View Dashboard&quot;,</tspan><tspan x="0" y="648" class="st0 st1">            &quot;description&quot;: &quot;View instances of the Toolchain service.&quot;</tspan><tspan x="0" y="666" class="st0 st1">          },</tspan><tspan x="0" y="684" class="st0 st1">          {</tspan><tspan x="0" y="702" class="st0 st1">            &quot;action&quot;: &quot;toolchain.instance.read-properties&quot;,</tspan><tspan x="0" y="720" class="st0 st1">            &quot;displayName&quot;: &quot;Read toolchain properties&quot;,</tspan><tspan x="0" y="738" class="st0 st1">            &quot;description&quot;: &quot;View the toolchain properties.&quot;</tspan><tspan x="0" y="756" class="st0 st1">          }</tspan><tspan x="0" y="774" class="st0 st1">        ],</tspan><tspan x="0" y="792" class="st0 st1">        &quot;policyIds&quot;: [</tspan><tspan x="0" y="810" class="st0 st1">          &quot;12300045-086a-46c9-818c-835ed71d71bf&quot;,</tspan><tspan x="0" y="828" class="st0 st1">          &quot;45600045-086a-46c9-818c-835ed71d71bf&quot;</tspan><tspan x="0" y="846" class="st0 st1">        ]</tspan><tspan x="0" y="864" class="st0 st1">      }</tspan><tspan x="0" y="882" class="st0 st1">    ],</tspan><tspan x="0" y="900" class="st0 st1">    &quot;platformExtensions&quot;: {</tspan><tspan x="0" y="918" class="st0 st1">      &quot;roleActions&quot;: [</tspan><tspan x="0" y="936" class="st0 st1">        {</tspan><tspan x="0" y="954" class="st0 st1">          &quot;role&quot;: {</tspan><tspan x="0" y="972" class="st0 st1">            &quot;crn&quot;: &quot;crn:v1:bluemix:public:iam::::role:Viewer&quot;,</tspan><tspan x="0" y="990" class="st0 st1">            &quot;displayName&quot;: &quot;Viewer&quot;,</tspan><tspan x="0" y="1008" class="st0 st1">            &quot;description&quot;: &quot;Viewers can take actions that do not change state.&quot;</tspan><tspan x="0" y="1026" class="st0 st1">          },</tspan><tspan x="0" y="1044" class="st0 st1">          &quot;actions&quot;: [</tspan><tspan x="0" y="1062" class="st0 st1">            {</tspan><tspan x="0" y="1080" class="st0 st1">              &quot;action&quot;: &quot;iam.policy.read&quot;,</tspan><tspan x="0" y="1098" class="st0 st1">              &quot;displayName&quot;: &quot;IAM Policy Read&quot;,</tspan><tspan x="0" y="1116" class="st0 st1">              &quot;description&quot;: &quot;View access policies&quot;</tspan><tspan x="0" y="1134" class="st0 st1">            },</tspan><tspan x="0" y="1152" class="st0 st1">            {</tspan><tspan x="0" y="1170" class="st0 st1">              &quot;action&quot;: &quot;resource-controller.quota.retrieve&quot;,</tspan><tspan x="0" y="1188" class="st0 st1">              &quot;displayName&quot;: &quot;Quota Definitions Retrieve&quot;,</tspan><tspan x="0" y="1206" class="st0 st1">              &quot;description&quot;: &quot;Retrieve quota definitions&quot;</tspan><tspan x="0" y="1224" class="st0 st1">            }</tspan><tspan x="0" y="1242" class="st0 st1">          ],</tspan><tspan x="0" y="1260" class="st0 st1">          &quot;policyIds&quot;: [</tspan><tspan x="0" y="1278" class="st0 st1">            &quot;12300045-086a-46c9-818c-835ed71d71bf&quot;,</tspan><tspan x="0" y="1296" class="st0 st1">            &quot;45600045-086a-46c9-818c-835ed71d71bf&quot;</tspan><tspan x="0" y="1314" class="st0 st1">          ]</tspan><tspan x="0" y="1332" class="st0 st1">        }</tspan><tspan x="0" y="1350" class="st0 st1">      ]</tspan><tspan x="0" y="1368" class="st0 st1">    }</tspan><tspan x="0" y="1386" class="st0 st1">  }</tspan><tspan x="0" y="1404" class="st0 st1">]</tspan></text>
</g>
<g id="Text">
	<text transform="matrix(1.0295 0 0 1 340.3664 141.0534)" class="st2 st3 st4">The user who exported the report.</text>
	<text transform="matrix(1.0295 0 0 1 240.0626 177.7712)" class="st2 st3 st4">When set to true, your access is sufficient to populate all of the details of the report.</text>
	<text transform="matrix(1.0295 0 0 1 186.2134 373.5425)" class="st2 st3 st4">The subject with access to the resource.</text>
	<text transform="matrix(1.0295 0 0 1 199.2649 536.6854)" class="st2 st3 st4">The roles that the subject is assigned on the resource.</text>
	<text transform="matrix(1.0295 0 0 1 243.3575 842.5196)" class="st2 st3 st4">The access policy IDs that grant the access.</text>
	<text transform="matrix(1.0295 0 0 1 214.5415 1001.9025)" class="st2 st3 st4">The roles that the subject is assigned on the resource.</text>
	<text transform="matrix(1.0295 0 0 1 241.9495 1093.2625)" class="st2 st3 st4">The actions that are mapped to the role by the platform.</text>
	<text transform="matrix(1.0295 0 0 1 226.5165 628.0581)" class="st2 st3 st4">The actions that are mapped to the role by the resource service type.</text>
	<text transform="matrix(1.0295 0 0 1 259.145 1310.1334)" class="st2 st3 st4">The access policy IDs that grant the access.</text>
</g>
</svg>
