<?xml version="1.0" encoding="UTF-8"?>
<svg width="18px" height="24px" viewBox="0 0 18 24" version="1.1" xmlns="http://www.w3.org/2000/svg" xmlns:xlink="http://www.w3.org/1999/xlink">
    <!-- Generator: Sketch 49.3 (51167) - http://www.bohemiancoding.com/sketch -->
    <title>locked@2x</title>
    <desc>Created with Sketch.</desc>
    <defs></defs>
    <g id="Symbols" stroke="none" stroke-width="1" fill="none" fill-rule="evenodd">
        <g id="UI-Icon/Icon/locked/$ui-05" fill="#8C9BA5">
            <path d="M15.2,6.5 C15.2,3 12.2,0 8.7,0 C5.2,0 2.2,3 2.2,6.5 L2.2,9.5 C0.8,11 0,13 0,15.3 C0,20.1 3.9,24 8.7,24 C13.5,24 17.4,20.1 17.4,15.3 C17.4,13.1 16.6,11.1 15.2,9.5 L15.2,6.5 L15.2,6.5 Z M4.3,6.5 C4.3,4.2 6.3,2.1 8.7,2.1 C11.1,2.1 13.1,4.1 13.1,6.5 L13.1,7.7 C11.8,7 10.3,6.5 8.7,6.5 C7.1,6.5 5.6,6.9 4.3,7.7 L4.3,6.5 L4.3,6.5 Z M7.1,20.1 L3.1,16.1 L4.6,14.6 L7.1,17.1 L12.9,11.3 L14.4,12.8 L7.1,20.1 L7.1,20.1 Z" id="locked"></path>
        </g>
    </g>
</svg>