<svg width="1051" height="546" viewBox="0 0 1051 546" fill="none" xmlns="http://www.w3.org/2000/svg">
<rect width="1051" height="546" fill="#F4F4F4"/>
<rect x="396.5" y="265.5" width="207" height="127" fill="white" fill-opacity="0.01" style="mix-blend-mode:multiply"/>
<rect x="396.5" y="265.5" width="207" height="127" stroke="#009D9A"/>
<rect x="397" y="266" width="206" height="126" fill="white"/>
<g clip-path="url(#clip0_20_432)">
<path d="M416.186 294.168C414.52 294.168 413.372 293.51 412.546 292.544L413.792 291.34C414.464 292.124 415.29 292.544 416.298 292.544C417.432 292.544 418.02 291.998 418.02 291.172C418.02 290.514 417.712 290.108 416.69 289.926L415.766 289.786C413.792 289.478 412.84 288.54 412.84 286.944C412.84 285.194 414.198 284.06 416.382 284.06C417.852 284.06 418.944 284.564 419.728 285.502L418.468 286.692C417.992 286.09 417.32 285.684 416.284 285.684C415.234 285.684 414.688 286.104 414.688 286.832C414.688 287.574 415.108 287.882 416.046 288.05L416.956 288.218C418.93 288.568 419.854 289.45 419.854 291.06C419.854 292.908 418.524 294.168 416.186 294.168ZM424.709 294.168C422.553 294.168 421.265 292.67 421.265 290.332C421.265 288.022 422.511 286.524 424.653 286.524C426.935 286.524 427.985 288.204 427.985 290.206V290.794H423.127V290.976C423.127 292.026 423.729 292.74 424.905 292.74C425.787 292.74 426.319 292.32 426.767 291.746L427.733 292.824C427.131 293.65 426.067 294.168 424.709 294.168ZM424.681 287.868C423.743 287.868 423.127 288.568 423.127 289.576V289.688H426.123V289.562C426.123 288.554 425.605 287.868 424.681 287.868ZM431.513 294H429.721V286.692H431.513V288.204H431.583C431.765 287.434 432.353 286.692 433.515 286.692H433.907V288.386H433.347C432.143 288.386 431.513 288.722 431.513 289.52V294ZM439.183 294H437.055L434.619 286.692H436.383L437.405 289.842L438.119 292.446H438.217L438.931 289.842L439.925 286.692H441.633L439.183 294ZM443.884 285.628C443.142 285.628 442.834 285.25 442.834 284.732V284.452C442.834 283.934 443.142 283.556 443.884 283.556C444.612 283.556 444.934 283.934 444.934 284.452V284.732C444.934 285.25 444.612 285.628 443.884 285.628ZM442.988 294V286.692H444.78V294H442.988ZM449.902 294.168C447.746 294.168 446.528 292.684 446.528 290.332C446.528 287.994 447.746 286.524 449.902 286.524C451.372 286.524 452.338 287.224 452.772 288.372L451.302 289.03C451.134 288.414 450.672 287.966 449.902 287.966C448.908 287.966 448.404 288.666 448.404 289.688V291.018C448.404 292.04 448.908 292.726 449.902 292.726C450.756 292.726 451.176 292.236 451.442 291.578L452.814 292.236C452.338 293.524 451.316 294.168 449.902 294.168ZM457.241 294.168C455.085 294.168 453.797 292.67 453.797 290.332C453.797 288.022 455.043 286.524 457.185 286.524C459.467 286.524 460.517 288.204 460.517 290.206V290.794H455.659V290.976C455.659 292.026 456.261 292.74 457.437 292.74C458.319 292.74 458.851 292.32 459.299 291.746L460.265 292.824C459.663 293.65 458.599 294.168 457.241 294.168ZM457.213 287.868C456.275 287.868 455.659 288.568 455.659 289.576V289.688H458.655V289.562C458.655 288.554 458.137 287.868 457.213 287.868ZM465.722 296.8V286.692H467.514V287.896H467.57C467.836 287.056 468.62 286.524 469.586 286.524C471.434 286.524 472.456 287.896 472.456 290.332C472.456 292.782 471.434 294.168 469.586 294.168C468.62 294.168 467.85 293.608 467.57 292.782H467.514V296.8H465.722ZM469.012 292.684C469.936 292.684 470.58 292.012 470.58 290.976V289.716C470.58 288.68 469.936 287.994 469.012 287.994C468.158 287.994 467.514 288.456 467.514 289.17V291.494C467.514 292.25 468.158 292.684 469.012 292.684ZM476.069 294H474.277V286.692H476.069V288.204H476.139C476.321 287.434 476.909 286.692 478.071 286.692H478.463V288.386H477.903C476.699 288.386 476.069 288.722 476.069 289.52V294ZM482.763 294.168C480.677 294.168 479.375 292.684 479.375 290.332C479.375 287.994 480.677 286.524 482.763 286.524C484.863 286.524 486.165 287.994 486.165 290.332C486.165 292.684 484.863 294.168 482.763 294.168ZM482.763 292.726C483.701 292.726 484.289 292.124 484.289 291.018V289.66C484.289 288.568 483.701 287.966 482.763 287.966C481.839 287.966 481.251 288.568 481.251 289.66V291.018C481.251 292.124 481.839 292.726 482.763 292.726ZM491.5 294H489.372L486.936 286.692H488.7L489.722 289.842L490.436 292.446H490.534L491.248 289.842L492.242 286.692H493.95L491.5 294ZM496.202 285.628C495.46 285.628 495.152 285.25 495.152 284.732V284.452C495.152 283.934 495.46 283.556 496.202 283.556C496.93 283.556 497.252 283.934 497.252 284.452V284.732C497.252 285.25 496.93 285.628 496.202 285.628ZM495.306 294V286.692H497.098V294H495.306ZM503.871 294V292.782H503.801C503.535 293.608 502.751 294.168 501.785 294.168C499.951 294.168 498.929 292.782 498.929 290.332C498.929 287.896 499.951 286.524 501.785 286.524C502.751 286.524 503.549 287.056 503.801 287.896H503.871V283.64H505.663V294H503.871ZM502.359 292.684C503.213 292.684 503.871 292.25 503.871 291.494V289.17C503.871 288.456 503.213 287.994 502.359 287.994C501.435 287.994 500.805 288.68 500.805 289.716V290.976C500.805 292.012 501.435 292.684 502.359 292.684ZM510.843 294.168C508.687 294.168 507.399 292.67 507.399 290.332C507.399 288.022 508.645 286.524 510.787 286.524C513.069 286.524 514.119 288.204 514.119 290.206V290.794H509.261V290.976C509.261 292.026 509.863 292.74 511.039 292.74C511.921 292.74 512.453 292.32 512.901 291.746L513.867 292.824C513.265 293.65 512.201 294.168 510.843 294.168ZM510.815 287.868C509.877 287.868 509.261 288.568 509.261 289.576V289.688H512.257V289.562C512.257 288.554 511.739 287.868 510.815 287.868ZM517.648 294H515.856V286.692H517.648V288.204H517.718C517.9 287.434 518.488 286.692 519.65 286.692H520.042V288.386H519.482C518.278 288.386 517.648 288.722 517.648 289.52V294Z" fill="black"/>
<line x1="398" y1="265" x2="398" y2="313" stroke="#009D9A" stroke-width="4"/>
</g>
<path d="M412 321H580C584.418 321 588 324.582 588 329V361C588 365.418 584.418 369 580 369H412V321Z" fill="white" fill-opacity="0.01" style="mix-blend-mode:multiply"/>
<path d="M412 321H580C584.418 321 588 324.582 588 329V361C588 365.418 584.418 369 580 369H412V321Z" fill="white"/>
<path d="M412 321H580C584.418 321 588 324.582 588 329V361C588 365.418 584.418 369 580 369H412V321Z" fill="#D9FBFB"/>
<g clip-path="url(#clip1_20_432)">
<path d="M433.18 350H428.742V348.516H430.03V341.712H428.742V340.228H433.18V341.712H431.878V348.516H433.18V350ZM435.228 350V340.228H439.75C441.36 340.228 442.34 341.222 442.34 342.734C442.34 344.218 441.486 344.778 440.59 344.834V344.918C441.444 344.932 442.704 345.534 442.704 347.2C442.704 348.768 441.626 350 440.184 350H435.228ZM437.076 345.814V348.432H439.652C440.352 348.432 440.772 348.054 440.772 347.368V346.892C440.772 346.206 440.352 345.814 439.652 345.814H437.076ZM437.076 341.796V344.302H439.358C440.03 344.302 440.422 343.91 440.422 343.266V342.832C440.422 342.174 440.03 341.796 439.358 341.796H437.076ZM444.671 350V340.228H446.757L449.263 345.002H449.319L451.797 340.228H453.799V350H452.049V342.986H451.993L451.237 344.54L449.235 348.236L447.233 344.54L446.477 342.986H446.421V350H444.671ZM463.523 350.168C460.947 350.168 459.309 348.474 459.309 345.184C459.309 341.894 460.947 340.06 463.523 340.06C465.273 340.06 466.407 340.802 467.093 342.314L465.511 343.154C465.231 342.286 464.615 341.698 463.523 341.698C462.151 341.698 461.269 342.692 461.269 344.358V345.898C461.269 347.578 462.151 348.53 463.523 348.53C464.629 348.53 465.315 347.858 465.637 346.976L467.135 347.858C466.435 349.314 465.273 350.168 463.523 350.168ZM471.518 350H470.552C469.334 350 468.76 349.356 468.76 348.236V339.64H470.552V348.572H471.518V350ZM475.933 350.168C473.847 350.168 472.545 348.684 472.545 346.332C472.545 343.994 473.847 342.524 475.933 342.524C478.033 342.524 479.335 343.994 479.335 346.332C479.335 348.684 478.033 350.168 475.933 350.168ZM475.933 348.726C476.871 348.726 477.459 348.124 477.459 347.018V345.66C477.459 344.568 476.871 343.966 475.933 343.966C475.009 343.966 474.421 344.568 474.421 345.66V347.018C474.421 348.124 475.009 348.726 475.933 348.726ZM485.452 350V348.782H485.382C485.13 349.51 484.542 350.168 483.338 350.168C481.84 350.168 481 349.132 481 347.312V342.692H482.792V347.13C482.792 348.138 483.17 348.684 484.024 348.684C484.738 348.684 485.452 348.306 485.452 347.522V342.692H487.244V350H485.452ZM494.01 350V348.782H493.94C493.674 349.608 492.89 350.168 491.924 350.168C490.09 350.168 489.068 348.782 489.068 346.332C489.068 343.896 490.09 342.524 491.924 342.524C492.89 342.524 493.688 343.056 493.94 343.896H494.01V339.64H495.802V350H494.01ZM492.498 348.684C493.352 348.684 494.01 348.25 494.01 347.494V345.17C494.01 344.456 493.352 343.994 492.498 343.994C491.574 343.994 490.944 344.68 490.944 345.716V346.976C490.944 348.012 491.574 348.684 492.498 348.684Z" fill="black"/>
<line x1="414" y1="321" x2="414" y2="369" stroke="#009D9A" stroke-width="4"/>
</g>
<path d="M578 368.5V369H574V368.5H570V369H566V368.5H562V369H558V368.5H554V369H550V368.5H546V369H542V368.5H538V369H534V368.5H530V369H526V368.5H522V369H518V368.5H514V369H510V368.5H506V369H502V368.5H498V369H494V368.5H490V369H486V368.5H482V369H478V368.5H474V369H470V368.5H466V369H462V368.5H458V369H454V368.5H450V369H446V368.5H442V369H438V368.5H434V369H430V368.5H426V369H422V368.5H418V369H414V368.5H412.5V367H412V363H412.5V359H412V355H412.5V351H412V347H412.5V343H412V339H412.5V335H412V331H412.5V327H412V323H412.5V321.5H414V321H418V321.5H422V321H426V321.5H430V321H434V321.5H438V321H442V321.5H446V321H450V321.5H454V321H458V321.5H462V321H466V321.5H470V321H474V321.5H478V321H482V321.5H486V321H490V321.5H494V321H498V321.5H502V321H506V321.5H510V321H514V321.5H518V321H522V321.5H526V321H530V321.5H534V321H538V321.5H542V321H546V321.5H550V321H554V321.5H558V321H562V321.5H566V321H570V321.5H574V321H578V321.5H580C580.502 321.5 580.991 321.549 581.464 321.643L581.561 321.152C582.611 321.36 583.587 321.773 584.445 322.347L584.167 322.763C584.985 323.311 585.689 324.015 586.237 324.833L586.653 324.555C587.227 325.413 587.64 326.389 587.848 327.439L587.357 327.536C587.451 328.009 587.5 328.498 587.5 329V331H588V335H587.5V339H588V343H587.5V347H588V351H587.5V355H588V359H587.5V361C587.5 361.502 587.451 361.991 587.357 362.464L587.848 362.561C587.64 363.611 587.227 364.587 586.653 365.445L586.237 365.167C585.689 365.985 584.985 366.689 584.167 367.237L584.445 367.653C583.587 368.227 582.611 368.64 581.561 368.848L581.464 368.357C580.991 368.451 580.502 368.5 580 368.5H578Z" stroke="#009D9A" stroke-dasharray="4 4"/>
<rect width="157" height="48" transform="translate(215 153)" fill="white" fill-opacity="0.01" style="mix-blend-mode:multiply"/>
<rect width="48" height="48" transform="translate(215 153)" fill="white" fill-opacity="0.01" style="mix-blend-mode:multiply"/>
<circle cx="239" cy="177" r="24" fill="black"/>
<rect width="24" height="24" transform="translate(227 165)" fill="white" fill-opacity="0.01" style="mix-blend-mode:multiply"/>
<path d="M239 168C239.742 168 240.467 168.22 241.083 168.632C241.7 169.044 242.181 169.63 242.465 170.315C242.748 171 242.823 171.754 242.678 172.482C242.533 173.209 242.176 173.877 241.652 174.402C241.127 174.926 240.459 175.283 239.732 175.428C239.004 175.573 238.25 175.498 237.565 175.215C236.88 174.931 236.294 174.45 235.882 173.833C235.47 173.217 235.25 172.492 235.25 171.75C235.25 170.755 235.645 169.802 236.348 169.098C237.052 168.395 238.005 168 239 168ZM239 166.5C237.962 166.5 236.947 166.808 236.083 167.385C235.22 167.962 234.547 168.782 234.15 169.741C233.752 170.7 233.648 171.756 233.851 172.774C234.053 173.793 234.553 174.728 235.288 175.462C236.022 176.197 236.957 176.697 237.976 176.899C238.994 177.102 240.05 176.998 241.009 176.6C241.968 176.203 242.788 175.53 243.365 174.667C243.942 173.803 244.25 172.788 244.25 171.75C244.25 170.358 243.697 169.022 242.712 168.038C241.728 167.053 240.392 166.5 239 166.5Z" fill="white"/>
<path d="M246.5 187.5H245V183.75C245 183.258 244.903 182.77 244.715 182.315C244.526 181.86 244.25 181.447 243.902 181.098C243.553 180.75 243.14 180.474 242.685 180.285C242.23 180.097 241.742 180 241.25 180H236.75C235.755 180 234.802 180.395 234.098 181.098C233.395 181.802 233 182.755 233 183.75V187.5H231.5V183.75C231.5 182.358 232.053 181.022 233.038 180.038C234.022 179.053 235.358 178.5 236.75 178.5H241.25C242.642 178.5 243.978 179.053 244.962 180.038C245.947 181.022 246.5 182.358 246.5 183.75V187.5Z" fill="white"/>
<path d="M272.078 163.228H273.898V169.234C273.898 170.76 274.43 171.53 275.83 171.53C277.23 171.53 277.762 170.76 277.762 169.234V163.228H279.582V168.996C279.582 171.866 278.56 173.168 275.816 173.168C273.072 173.168 272.078 171.866 272.078 168.996V163.228ZM284.256 173.168C282.87 173.168 281.96 172.664 281.232 171.824L282.324 170.76C282.856 171.376 283.5 171.754 284.326 171.754C285.18 171.754 285.544 171.432 285.544 170.914C285.544 170.494 285.292 170.228 284.648 170.144L283.92 170.046C282.352 169.85 281.484 169.164 281.484 167.834C281.484 166.42 282.59 165.524 284.256 165.524C285.684 165.524 286.412 165.944 287.112 166.672L286.062 167.722C285.642 167.274 285.026 166.938 284.312 166.938C283.542 166.938 283.206 167.246 283.206 167.694C283.206 168.184 283.472 168.408 284.158 168.52L284.9 168.618C286.496 168.842 287.266 169.556 287.266 170.774C287.266 172.188 286.076 173.168 284.256 173.168ZM291.962 173.168C289.806 173.168 288.518 171.67 288.518 169.332C288.518 167.022 289.764 165.524 291.906 165.524C294.188 165.524 295.238 167.204 295.238 169.206V169.794H290.38V169.976C290.38 171.026 290.982 171.74 292.158 171.74C293.04 171.74 293.572 171.32 294.02 170.746L294.986 171.824C294.384 172.65 293.32 173.168 291.962 173.168ZM291.934 166.868C290.996 166.868 290.38 167.568 290.38 168.576V168.688H293.376V168.562C293.376 167.554 292.858 166.868 291.934 166.868ZM298.767 173H296.975V165.692H298.767V167.204H298.837C299.019 166.434 299.607 165.692 300.769 165.692H301.161V167.386H300.601C299.397 167.386 298.767 167.722 298.767 168.52V173Z" fill="black"/>
<rect width="380" height="8" transform="translate(271 180)" fill="white" fill-opacity="0.01" style="mix-blend-mode:multiply"/>
<rect width="366" height="0" transform="translate(278 184)" fill="white" fill-opacity="0.01" style="mix-blend-mode:multiply"/>
<path d="M278 184H644" stroke="black"/>
<rect width="8" height="8" transform="translate(643 180)" fill="white" fill-opacity="0.01" style="mix-blend-mode:multiply"/>
<path d="M643 180L651 184L643 188V180Z" fill="black"/>
<rect width="8" height="8" transform="matrix(-1 0 0 1 279 180)" fill="white" fill-opacity="0.01" style="mix-blend-mode:multiply"/>
<path d="M279 180L271 184L279 188V180Z" fill="black"/>
<rect width="133" height="137" transform="translate(239 201)" fill="white" fill-opacity="0.01" style="mix-blend-mode:multiply"/>
<rect width="133" height="137" transform="matrix(1 0 0 -1 239 338)" fill="white" fill-opacity="0.01" style="mix-blend-mode:multiply"/>
<path d="M372 338H239V201" stroke="black"/>
<rect width="8" height="8" transform="matrix(1 0 0 -1 372 342)" fill="white" fill-opacity="0.01" style="mix-blend-mode:multiply"/>
<path d="M372 342L380 338L372 334V342Z" fill="black"/>
<rect width="54" height="48" transform="translate(661 153)" fill="white" fill-opacity="0.01" style="mix-blend-mode:multiply"/>
<path d="M702.344 166.513L698.538 163.131L699.399 162.367L702.344 164.986L708.663 159.369L709.524 160.132L702.344 166.513ZM701.89 188.217C703.518 186.237 704.492 183.013 704.492 179.595C704.492 178.476 704.426 176.985 703.91 175.354C703.819 175.066 703.491 174.895 703.16 174.979C702.838 175.06 702.649 175.357 702.74 175.645C703.213 177.139 703.275 178.48 703.275 179.593C703.275 182.791 702.391 185.775 700.908 187.576C700.71 187.818 700.769 188.155 701.039 188.332C701.147 188.403 701.274 188.436 701.399 188.436C701.586 188.437 701.77 188.359 701.89 188.217ZM666.445 164.271C670.927 160.194 676.729 158.04 683.314 158.04C685.393 158.046 687.48 158.317 689.517 158.844C689.841 158.929 690.177 158.761 690.27 158.476C690.364 158.19 690.177 157.89 689.856 157.807C687.71 157.252 685.509 156.967 683.223 156.961C676.393 156.961 670.291 159.228 665.575 163.518C665.342 163.729 665.347 164.071 665.587 164.28C665.705 164.382 665.858 164.434 666.01 164.434C666.169 164.434 666.327 164.379 666.445 164.271ZM664.075 172.711C667.363 168.276 672.909 162.379 683.059 162.379C685.254 162.379 687.421 162.682 689.5 163.281C689.821 163.371 690.162 163.216 690.266 162.933C690.369 162.649 690.194 162.345 689.875 162.252C687.676 161.62 685.383 161.299 683.061 161.299C672.325 161.299 666.505 167.473 663.06 172.116C662.876 172.365 662.954 172.701 663.234 172.864C663.337 172.924 663.454 172.953 663.568 172.953C663.764 172.954 663.958 172.869 664.075 172.711ZM701.093 191.511C701.227 191.236 701.086 190.918 700.778 190.8C698.354 189.864 697.654 188.806 697.654 186.084C697.654 184.474 697.863 183.66 698.088 182.794C698.356 181.747 698.663 180.561 698.663 178.032C698.663 171.996 692.698 165.481 683.059 165.481C675.816 165.481 672.367 168.637 669.454 171.868C669.154 172.201 668.823 172.593 668.459 173.025C666.935 174.829 664.846 177.301 662.46 178.161C662.149 178.273 661.999 178.588 662.125 178.863C662.25 179.14 662.603 179.269 662.917 179.161C665.615 178.189 667.821 175.579 669.441 173.661C669.787 173.251 670.109 172.869 670.403 172.543C673.131 169.516 676.356 166.56 683.061 166.56C691.949 166.56 697.448 172.513 697.448 178.03C697.448 180.438 697.16 181.561 696.905 182.556C696.665 183.478 696.441 184.35 696.441 186.084C696.441 189.237 697.413 190.677 700.295 191.79C700.374 191.821 700.457 191.835 700.538 191.835C700.769 191.836 700.994 191.715 701.093 191.511ZM698.14 194.848C698.263 194.569 698.108 194.256 697.798 194.148C693.599 192.681 692.716 189.646 692.716 187.359C692.716 186.307 692.963 185.265 693.226 184.162C693.559 182.752 693.937 181.152 693.937 179.134C693.937 174.568 689.566 169.678 683.061 169.678C677.176 169.678 673.695 173.59 672.142 175.923C669.611 179.733 666.005 182.694 662.495 183.847C662.179 183.951 662.019 184.261 662.136 184.542C662.252 184.822 662.601 184.962 662.915 184.861C666.678 183.625 670.519 180.489 673.189 176.473C674.608 174.339 677.779 170.758 683.061 170.758C688.839 170.758 692.722 175.09 692.722 179.134C692.722 181.041 692.359 182.58 692.038 183.939C691.777 185.047 691.503 186.193 691.503 187.357C691.503 189.981 692.519 193.462 697.355 195.151C697.428 195.178 697.504 195.189 697.578 195.189C697.816 195.192 698.046 195.061 698.14 194.848ZM672.115 197.566C676.591 194.931 680.215 192.372 683.867 189.267C685.941 187.503 689.422 183.933 689.422 179.854C689.422 176.931 687.043 173.907 683.059 173.907C679.463 173.907 677.191 176.937 674.989 179.877C674.017 181.173 673.099 182.398 672.159 183.216C669.388 185.623 666.464 187.083 663.2 188.608C662.903 188.746 662.789 189.073 662.946 189.337C663.101 189.6 663.469 189.7 663.766 189.562C667.114 187.998 670.121 186.498 673.008 183.988C674.041 183.091 674.993 181.821 676.009 180.465C678.027 177.771 680.114 174.985 683.059 174.985C686.282 174.985 688.207 177.46 688.207 179.854C688.207 183.532 684.961 186.841 683.027 188.488C679.431 191.545 675.858 194.07 671.446 196.668C671.165 196.831 671.089 197.167 671.273 197.416C671.39 197.572 671.584 197.658 671.781 197.658C671.896 197.656 672.013 197.628 672.115 197.566ZM667.311 193.998C672.458 191.181 679.38 186.511 683.133 180.25C683.29 179.988 683.179 179.659 682.883 179.521C682.583 179.376 682.219 179.479 682.062 179.743C678.437 185.788 671.694 190.332 666.675 193.078C666.39 193.234 666.3 193.567 666.476 193.821C666.591 193.986 666.79 194.079 666.994 194.079C667.104 194.079 667.213 194.052 667.311 193.998ZM684.632 200.037C684.966 200.01 685.212 199.749 685.182 199.45C684.991 197.562 683.594 195.531 680.977 195.531C678.661 195.531 677.299 196.701 675.97 198.456C675.782 198.703 675.855 199.039 676.133 199.206C676.414 199.371 676.79 199.306 676.977 199.059C678.153 197.508 679.184 196.611 680.978 196.611C682.831 196.611 683.83 198.133 683.974 199.546C684.002 199.828 684.267 200.038 684.578 200.038C684.595 200.04 684.615 200.038 684.632 200.037ZM692.043 198.006C692.219 197.752 692.129 197.419 691.842 197.265C689.367 195.918 687.828 193.804 687.828 191.751C687.828 191.164 687.946 190.275 688.277 189.532C688.4 189.255 688.248 188.94 687.936 188.83C687.625 188.725 687.269 188.856 687.148 189.133C686.753 190.018 686.613 191.065 686.613 191.751C686.613 194.178 688.373 196.644 691.21 198.184C691.309 198.238 691.417 198.265 691.527 198.265C691.731 198.265 691.93 198.172 692.043 198.006ZM713.92 162.75C713.92 157.903 709.483 153.96 704.031 153.96C698.579 153.96 694.142 157.902 694.142 162.75C694.142 167.598 698.579 171.54 704.031 171.54C709.483 171.54 713.92 167.596 713.92 162.75ZM712.705 162.75C712.705 167.001 708.814 170.46 704.031 170.46C699.249 170.46 695.357 167.001 695.357 162.75C695.357 158.499 699.249 155.04 704.031 155.04C708.814 155.04 712.705 158.499 712.705 162.75Z" fill="#161616"/>
<path d="M729.18 173H724.742V171.516H726.03V164.712H724.742V163.228H729.18V164.712H727.878V171.516H729.18V173ZM735.584 173V171.782H735.514C735.248 172.608 734.464 173.168 733.498 173.168C731.664 173.168 730.642 171.782 730.642 169.332C730.642 166.896 731.664 165.524 733.498 165.524C734.464 165.524 735.262 166.056 735.514 166.896H735.584V162.64H737.376V173H735.584ZM734.072 171.684C734.926 171.684 735.584 171.25 735.584 170.494V168.17C735.584 167.456 734.926 166.994 734.072 166.994C733.148 166.994 732.518 167.68 732.518 168.716V169.976C732.518 171.012 733.148 171.684 734.072 171.684ZM742.556 173.168C740.4 173.168 739.112 171.67 739.112 169.332C739.112 167.022 740.358 165.524 742.5 165.524C744.782 165.524 745.832 167.204 745.832 169.206V169.794H740.974V169.976C740.974 171.026 741.576 171.74 742.752 171.74C743.634 171.74 744.166 171.32 744.614 170.746L745.58 171.824C744.978 172.65 743.914 173.168 742.556 173.168ZM742.528 166.868C741.59 166.868 740.974 167.568 740.974 168.576V168.688H743.97V168.562C743.97 167.554 743.452 166.868 742.528 166.868ZM749.361 173H747.569V165.692H749.361V166.91H749.431C749.725 166.126 750.341 165.524 751.475 165.524C752.973 165.524 753.813 166.56 753.813 168.38V173H752.021V168.562C752.021 167.526 751.671 166.994 750.817 166.994C750.075 166.994 749.361 167.386 749.361 168.17V173ZM758.241 173C757.009 173 756.351 172.328 756.351 171.138V167.12H755.273V165.692H755.833C756.365 165.692 756.533 165.44 756.533 164.936V163.69H758.143V165.692H759.641V167.12H758.143V171.572H759.529V173H758.241ZM762.252 164.628C761.51 164.628 761.202 164.25 761.202 163.732V163.452C761.202 162.934 761.51 162.556 762.252 162.556C762.98 162.556 763.302 162.934 763.302 163.452V163.732C763.302 164.25 762.98 164.628 762.252 164.628ZM761.356 173V165.692H763.148V173H761.356ZM767.667 173C766.435 173 765.777 172.328 765.777 171.138V167.12H764.699V165.692H765.259C765.791 165.692 765.959 165.44 765.959 164.936V163.69H767.569V165.692H769.067V167.12H767.569V171.572H768.955V173H767.667ZM773.987 169.556L775.261 165.692H776.941L774.001 174.302C773.637 175.352 773.119 175.8 771.915 175.8H770.837V174.372H772.153L772.489 173.35L769.871 165.692H771.649L772.923 169.556L773.399 171.404H773.483L773.987 169.556ZM781.751 175.8V165.692H783.543V166.896H783.599C783.865 166.056 784.649 165.524 785.615 165.524C787.463 165.524 788.485 166.896 788.485 169.332C788.485 171.782 787.463 173.168 785.615 173.168C784.649 173.168 783.879 172.608 783.599 171.782H783.543V175.8H781.751ZM785.041 171.684C785.965 171.684 786.609 171.012 786.609 169.976V168.716C786.609 167.68 785.965 166.994 785.041 166.994C784.187 166.994 783.543 167.456 783.543 168.17V170.494C783.543 171.25 784.187 171.684 785.041 171.684ZM792.098 173H790.306V165.692H792.098V167.204H792.168C792.35 166.434 792.938 165.692 794.1 165.692H794.492V167.386H793.932C792.728 167.386 792.098 167.722 792.098 168.52V173ZM798.792 173.168C796.706 173.168 795.404 171.684 795.404 169.332C795.404 166.994 796.706 165.524 798.792 165.524C800.892 165.524 802.194 166.994 802.194 169.332C802.194 171.684 800.892 173.168 798.792 173.168ZM798.792 171.726C799.73 171.726 800.318 171.124 800.318 170.018V168.66C800.318 167.568 799.73 166.966 798.792 166.966C797.868 166.966 797.28 167.568 797.28 168.66V170.018C797.28 171.124 797.868 171.726 798.792 171.726ZM807.529 173H805.401L802.965 165.692H804.729L805.751 168.842L806.465 171.446H806.563L807.277 168.842L808.271 165.692H809.979L807.529 173ZM812.231 164.628C811.489 164.628 811.181 164.25 811.181 163.732V163.452C811.181 162.934 811.489 162.556 812.231 162.556C812.959 162.556 813.281 162.934 813.281 163.452V163.732C813.281 164.25 812.959 164.628 812.231 164.628ZM811.335 173V165.692H813.127V173H811.335ZM819.9 173V171.782H819.83C819.564 172.608 818.78 173.168 817.814 173.168C815.98 173.168 814.958 171.782 814.958 169.332C814.958 166.896 815.98 165.524 817.814 165.524C818.78 165.524 819.578 166.056 819.83 166.896H819.9V162.64H821.692V173H819.9ZM818.388 171.684C819.242 171.684 819.9 171.25 819.9 170.494V168.17C819.9 167.456 819.242 166.994 818.388 166.994C817.464 166.994 816.834 167.68 816.834 168.716V169.976C816.834 171.012 817.464 171.684 818.388 171.684ZM826.872 173.168C824.716 173.168 823.428 171.67 823.428 169.332C823.428 167.022 824.674 165.524 826.816 165.524C829.098 165.524 830.148 167.204 830.148 169.206V169.794H825.29V169.976C825.29 171.026 825.892 171.74 827.068 171.74C827.95 171.74 828.482 171.32 828.93 170.746L829.896 171.824C829.294 172.65 828.23 173.168 826.872 173.168ZM826.844 166.868C825.906 166.868 825.29 167.568 825.29 168.576V168.688H828.286V168.562C828.286 167.554 827.768 166.868 826.844 166.868ZM833.677 173H831.885V165.692H833.677V167.204H833.747C833.929 166.434 834.517 165.692 835.679 165.692H836.071V167.386H835.511C834.307 167.386 833.677 167.722 833.677 168.52V173ZM724.7 186.632C724.7 183.93 725.764 181.578 727.164 180.36H728.858C727.346 181.76 726.38 183.86 726.38 186.128V187.164C726.38 189.488 727.36 191.574 728.858 192.932H727.164C725.792 191.756 724.7 189.362 724.7 186.632ZM734.057 191H729.619V189.516H730.907V182.712H729.619V181.228H734.057V182.712H732.755V189.516H734.057V191ZM740.46 191V189.782H740.39C740.124 190.608 739.34 191.168 738.374 191.168C736.54 191.168 735.518 189.782 735.518 187.332C735.518 184.896 736.54 183.524 738.374 183.524C739.34 183.524 740.138 184.056 740.39 184.896H740.46V180.64H742.252V191H740.46ZM738.948 189.684C739.802 189.684 740.46 189.25 740.46 188.494V186.17C740.46 185.456 739.802 184.994 738.948 184.994C738.024 184.994 737.394 185.68 737.394 186.716V187.976C737.394 189.012 738.024 189.684 738.948 189.684ZM746.439 191H744.591V181.228H748.987C750.793 181.228 751.885 182.446 751.885 184.252C751.885 186.072 750.793 187.276 748.987 187.276H746.439V191ZM746.439 182.838V185.68H748.819C749.533 185.68 749.967 185.288 749.967 184.574V183.93C749.967 183.216 749.533 182.838 748.819 182.838H746.439ZM756.59 186.632C756.59 189.362 755.498 191.756 754.126 192.932H752.432C753.93 191.574 754.91 189.488 754.91 187.164V186.128C754.91 183.86 753.944 181.76 752.432 180.36H754.126C755.526 181.578 756.59 183.93 756.59 186.632Z" fill="black"/>
<rect x="216" y="270" width="45" height="24" fill="#F4F4F4"/>
<path d="M227.468 286.144C226.124 286.144 225.176 285.592 224.504 284.68L225.248 284.056C225.836 284.836 226.532 285.256 227.504 285.256C228.704 285.256 229.352 284.632 229.352 283.672C229.352 282.88 228.908 282.484 227.804 282.232L227.12 282.076C225.596 281.728 224.756 281.056 224.756 279.772C224.756 278.284 225.884 277.48 227.528 277.48C228.788 277.48 229.676 277.96 230.3 278.848L229.544 279.4C229.088 278.764 228.452 278.368 227.48 278.368C226.412 278.368 225.752 278.836 225.752 279.736C225.752 280.528 226.268 280.888 227.324 281.128L228.008 281.284C229.64 281.656 230.348 282.376 230.348 283.624C230.348 285.16 229.268 286.144 227.468 286.144ZM238.549 286H237.493L236.653 283.528H233.269L232.429 286H231.409L234.337 277.624H235.621L238.549 286ZM236.401 282.64L234.985 278.56H234.925L233.509 282.64H236.401ZM240.096 286V277.624H241.44L243.84 282.136H243.9L246.312 277.624H247.608V286H246.624V278.944H246.564L245.856 280.348L243.852 283.996L241.848 280.348L241.14 278.944H241.08V286H240.096ZM254.566 286H249.994V277.624H251.002V285.112H254.566V286Z" fill="black"/>
<rect x="442" y="170" width="45" height="28" fill="#F4F4F4"/>
<path d="M453.468 190.144C452.124 190.144 451.176 189.592 450.504 188.68L451.248 188.056C451.836 188.836 452.532 189.256 453.504 189.256C454.704 189.256 455.352 188.632 455.352 187.672C455.352 186.88 454.908 186.484 453.804 186.232L453.12 186.076C451.596 185.728 450.756 185.056 450.756 183.772C450.756 182.284 451.884 181.48 453.528 181.48C454.788 181.48 455.676 181.96 456.3 182.848L455.544 183.4C455.088 182.764 454.452 182.368 453.48 182.368C452.412 182.368 451.752 182.836 451.752 183.736C451.752 184.528 452.268 184.888 453.324 185.128L454.008 185.284C455.64 185.656 456.348 186.376 456.348 187.624C456.348 189.16 455.268 190.144 453.468 190.144ZM464.549 190H463.493L462.653 187.528H459.269L458.429 190H457.409L460.337 181.624H461.621L464.549 190ZM462.401 186.64L460.985 182.56H460.925L459.509 186.64H462.401ZM466.096 190V181.624H467.44L469.84 186.136H469.9L472.312 181.624H473.608V190H472.624V182.944H472.564L471.856 184.348L469.852 187.996L467.848 184.348L467.14 182.944H467.08V190H466.096ZM480.566 190H475.994V181.624H477.002V189.112H480.566V190Z" fill="black"/>
<rect width="56" height="121" transform="translate(628 217)" fill="white" fill-opacity="0.01" style="mix-blend-mode:multiply"/>
<rect width="8" height="8" transform="matrix(0 -1 1 0 680 217)" fill="white" fill-opacity="0.01" style="mix-blend-mode:multiply"/>
<path d="M680 217L684 209L688 217H680Z" fill="black"/>
<rect width="56" height="121" transform="matrix(-1 0 0 -1 684 338)" fill="white" fill-opacity="0.01" style="mix-blend-mode:multiply"/>
<path d="M628 338H684V217" stroke="black"/>
<rect width="8" height="8" transform="matrix(-1 0 0 1 628 334)" fill="white" fill-opacity="0.01" style="mix-blend-mode:multiply"/>
<path d="M628 334L620 338L628 342V334Z" fill="black"/>
<rect x="607" y="241" width="157" height="43" fill="#F4F4F4"/>
<path d="M616.6 250.512H613.936V258H612.928V250.512H610.264V249.624H616.6V250.512ZM618.468 258H617.508V251.808H618.468V252.948H618.528C618.744 252.36 619.308 251.808 620.316 251.808H620.688V252.768H620.124C619.092 252.768 618.468 253.212 618.468 253.8V258ZM625.89 258V256.992H625.842C625.602 257.58 625.134 258.144 624.102 258.144C622.83 258.144 622.014 257.28 622.014 255.78V251.808H622.974V255.612C622.974 256.716 623.466 257.28 624.39 257.28C625.146 257.28 625.89 256.908 625.89 256.092V251.808H626.85V258H625.89ZM630.915 258.144C629.775 258.144 629.019 257.664 628.467 256.932L629.151 256.38C629.631 256.98 630.207 257.328 630.987 257.328C631.803 257.328 632.283 256.956 632.283 256.32C632.283 255.84 632.019 255.468 631.203 255.348L630.711 255.276C629.571 255.108 628.719 254.64 628.719 253.488C628.719 252.264 629.667 251.664 630.927 251.664C631.923 251.664 632.583 252.036 633.087 252.66L632.451 253.236C632.175 252.852 631.647 252.48 630.855 252.48C630.063 252.48 629.643 252.852 629.643 253.44C629.643 254.04 630.063 254.28 630.831 254.4L631.311 254.472C632.679 254.676 633.207 255.276 633.207 256.212C633.207 257.412 632.331 258.144 630.915 258.144ZM637.548 258H636.348C635.688 258 635.328 257.58 635.328 256.98V252.648H634.308V251.808H634.884C635.292 251.808 635.424 251.664 635.424 251.244V250.092H636.288V251.808H637.644V252.648H636.288V257.16H637.548V258ZM641.628 258.144C639.948 258.144 638.844 256.872 638.844 254.904C638.844 252.936 639.948 251.664 641.628 251.664C643.284 251.664 644.304 252.936 644.304 254.688V255.144H639.852V255.432C639.852 256.5 640.536 257.304 641.688 257.304C642.468 257.304 643.068 256.92 643.392 256.236L644.076 256.728C643.68 257.568 642.792 258.144 641.628 258.144ZM641.628 252.468C640.584 252.468 639.852 253.26 639.852 254.34V254.424H643.272V254.292C643.272 253.2 642.612 252.468 641.628 252.468ZM650.006 258V256.992H649.958C649.586 257.76 648.998 258.144 648.146 258.144C646.598 258.144 645.626 256.884 645.626 254.904C645.626 252.924 646.598 251.664 648.146 251.664C648.998 251.664 649.634 252.036 649.958 252.816H650.006V249.12H650.966V258H650.006ZM648.41 257.28C649.286 257.28 650.006 256.824 650.006 256.02V253.716C650.006 253.032 649.286 252.528 648.41 252.528C647.33 252.528 646.658 253.272 646.658 254.376V255.432C646.658 256.536 647.33 257.28 648.41 257.28ZM658.467 258.144C656.727 258.144 655.707 256.884 655.707 254.904C655.707 252.924 656.727 251.664 658.467 251.664C659.691 251.664 660.423 252.264 660.783 253.116L659.979 253.524C659.751 252.888 659.223 252.516 658.467 252.516C657.327 252.516 656.739 253.296 656.739 254.376V255.432C656.739 256.512 657.327 257.292 658.467 257.292C659.247 257.292 659.811 256.92 660.147 256.212L660.843 256.68C660.447 257.568 659.643 258.144 658.467 258.144ZM664.628 258.144C662.972 258.144 661.832 256.872 661.832 254.904C661.832 252.936 662.972 251.664 664.628 251.664C666.284 251.664 667.424 252.936 667.424 254.904C667.424 256.872 666.284 258.144 664.628 258.144ZM664.628 257.292C665.66 257.292 666.392 256.656 666.392 255.348V254.46C666.392 253.152 665.66 252.516 664.628 252.516C663.596 252.516 662.864 253.152 662.864 254.46V255.348C662.864 256.656 663.596 257.292 664.628 257.292ZM670.123 258H669.163V251.808H670.123V252.816H670.171C670.471 252.12 670.999 251.664 671.923 251.664C673.195 251.664 673.999 252.528 673.999 254.028V258H673.039V254.196C673.039 253.092 672.559 252.528 671.635 252.528C670.867 252.528 670.123 252.912 670.123 253.704V258ZM677.103 258H676.143V251.808H677.103V252.816H677.151C677.451 252.12 677.979 251.664 678.903 251.664C680.175 251.664 680.979 252.528 680.979 254.028V258H680.019V254.196C680.019 253.092 679.539 252.528 678.615 252.528C677.847 252.528 677.103 252.912 677.103 253.704V258ZM685.452 258.144C683.772 258.144 682.668 256.872 682.668 254.904C682.668 252.936 683.772 251.664 685.452 251.664C687.108 251.664 688.128 252.936 688.128 254.688V255.144H683.676V255.432C683.676 256.5 684.36 257.304 685.512 257.304C686.292 257.304 686.892 256.92 687.216 256.236L687.9 256.728C687.504 257.568 686.616 258.144 685.452 258.144ZM685.452 252.468C684.408 252.468 683.676 253.26 683.676 254.34V254.424H687.096V254.292C687.096 253.2 686.436 252.468 685.452 252.468ZM692.174 258.144C690.434 258.144 689.414 256.884 689.414 254.904C689.414 252.924 690.434 251.664 692.174 251.664C693.398 251.664 694.13 252.264 694.49 253.116L693.686 253.524C693.458 252.888 692.93 252.516 692.174 252.516C691.034 252.516 690.446 253.296 690.446 254.376V255.432C690.446 256.512 691.034 257.292 692.174 257.292C692.954 257.292 693.518 256.92 693.854 256.212L694.55 256.68C694.154 257.568 693.35 258.144 692.174 258.144ZM698.633 258H697.433C696.773 258 696.413 257.58 696.413 256.98V252.648H695.393V251.808H695.969C696.377 251.808 696.509 251.664 696.509 251.244V250.092H697.373V251.808H698.729V252.648H697.373V257.16H698.633V258ZM700.912 250.356C700.504 250.356 700.324 250.14 700.324 249.816V249.66C700.324 249.336 700.504 249.12 700.912 249.12C701.32 249.12 701.5 249.336 701.5 249.66V249.816C701.5 250.14 701.32 250.356 700.912 250.356ZM700.432 258V251.808H701.392V258H700.432ZM705.932 258.144C704.276 258.144 703.136 256.872 703.136 254.904C703.136 252.936 704.276 251.664 705.932 251.664C707.588 251.664 708.728 252.936 708.728 254.904C708.728 256.872 707.588 258.144 705.932 258.144ZM705.932 257.292C706.964 257.292 707.696 256.656 707.696 255.348V254.46C707.696 253.152 706.964 252.516 705.932 252.516C704.9 252.516 704.168 253.152 704.168 254.46V255.348C704.168 256.656 704.9 257.292 705.932 257.292ZM711.427 258H710.467V251.808H711.427V252.816H711.475C711.775 252.12 712.303 251.664 713.227 251.664C714.499 251.664 715.303 252.528 715.303 254.028V258H714.343V254.196C714.343 253.092 713.863 252.528 712.939 252.528C712.171 252.528 711.427 252.912 711.427 253.704V258ZM718.059 256.596C718.563 256.596 718.791 256.884 718.791 257.304V257.472C718.791 258.12 718.383 259.008 717.699 259.596H716.895C717.375 259.092 717.663 258.672 717.795 258.108C717.471 258.036 717.327 257.796 717.327 257.472V257.304C717.327 256.884 717.555 256.596 718.059 256.596ZM726.2 258.144C724.52 258.144 723.416 256.872 723.416 254.904C723.416 252.936 724.52 251.664 726.2 251.664C727.856 251.664 728.876 252.936 728.876 254.688V255.144H724.424V255.432C724.424 256.5 725.108 257.304 726.26 257.304C727.04 257.304 727.64 256.92 727.964 256.236L728.648 256.728C728.252 257.568 727.364 258.144 726.2 258.144ZM726.2 252.468C725.156 252.468 724.424 253.26 724.424 254.34V254.424H727.844V254.292C727.844 253.2 727.184 252.468 726.2 252.468ZM732.478 258.144C731.338 258.144 730.582 257.664 730.03 256.932L730.714 256.38C731.194 256.98 731.77 257.328 732.55 257.328C733.366 257.328 733.846 256.956 733.846 256.32C733.846 255.84 733.582 255.468 732.766 255.348L732.274 255.276C731.134 255.108 730.282 254.64 730.282 253.488C730.282 252.264 731.23 251.664 732.49 251.664C733.486 251.664 734.146 252.036 734.65 252.66L734.014 253.236C733.738 252.852 733.21 252.48 732.418 252.48C731.626 252.48 731.206 252.852 731.206 253.44C731.206 254.04 731.626 254.28 732.394 254.4L732.874 254.472C734.242 254.676 734.77 255.276 734.77 256.212C734.77 257.412 733.894 258.144 732.478 258.144ZM739.112 258H737.912C737.252 258 736.892 257.58 736.892 256.98V252.648H735.872V251.808H736.448C736.856 251.808 736.988 251.664 736.988 251.244V250.092H737.852V251.808H739.208V252.648H737.852V257.16H739.112V258ZM745.951 258H745.411C744.703 258 744.415 257.568 744.343 256.992H744.283C744.019 257.748 743.359 258.144 742.495 258.144C741.187 258.144 740.419 257.424 740.419 256.272C740.419 255.108 741.259 254.46 743.059 254.46H744.283V253.848C744.283 252.972 743.803 252.492 742.819 252.492C742.075 252.492 741.583 252.852 741.247 253.416L740.671 252.876C741.007 252.216 741.751 251.664 742.867 251.664C744.355 251.664 745.243 252.444 745.243 253.752V257.16H745.951V258ZM742.651 257.328C743.599 257.328 744.283 256.836 744.283 256.2V255.18H743.011C741.919 255.18 741.427 255.516 741.427 256.116V256.368C741.427 256.98 741.907 257.328 742.651 257.328ZM747.481 258V249.12H748.441V252.816H748.489C748.813 252.036 749.449 251.664 750.301 251.664C751.849 251.664 752.821 252.924 752.821 254.904C752.821 256.884 751.849 258.144 750.301 258.144C749.449 258.144 748.861 257.76 748.489 256.992H748.441V258H747.481ZM750.037 257.28C751.117 257.28 751.789 256.536 751.789 255.432V254.376C751.789 253.272 751.117 252.528 750.037 252.528C749.161 252.528 748.441 253.032 748.441 253.716V256.02C748.441 256.824 749.161 257.28 750.037 257.28ZM756.474 258H755.622C754.962 258 754.602 257.58 754.602 257.004V249.12H755.562V257.16H756.474V258ZM758.512 250.356C758.104 250.356 757.924 250.14 757.924 249.816V249.66C757.924 249.336 758.104 249.12 758.512 249.12C758.92 249.12 759.1 249.336 759.1 249.66V249.816C759.1 250.14 758.92 250.356 758.512 250.356ZM758.032 258V251.808H758.992V258H758.032ZM763.052 258.144C761.912 258.144 761.156 257.664 760.604 256.932L761.288 256.38C761.768 256.98 762.344 257.328 763.124 257.328C763.94 257.328 764.42 256.956 764.42 256.32C764.42 255.84 764.156 255.468 763.34 255.348L762.848 255.276C761.708 255.108 760.856 254.64 760.856 253.488C760.856 252.264 761.804 251.664 763.064 251.664C764.06 251.664 764.72 252.036 765.224 252.66L764.588 253.236C764.312 252.852 763.784 252.48 762.992 252.48C762.2 252.48 761.78 252.852 761.78 253.44C761.78 254.04 762.2 254.28 762.968 254.4L763.448 254.472C764.816 254.676 765.344 255.276 765.344 256.212C765.344 257.412 764.468 258.144 763.052 258.144ZM767.199 258V249.12H768.159V252.816H768.207C768.507 252.12 769.035 251.664 769.959 251.664C771.231 251.664 772.035 252.528 772.035 254.028V258H771.075V254.196C771.075 253.092 770.595 252.528 769.671 252.528C768.903 252.528 768.159 252.912 768.159 253.704V258H767.199ZM776.508 258.144C774.828 258.144 773.724 256.872 773.724 254.904C773.724 252.936 774.828 251.664 776.508 251.664C778.164 251.664 779.184 252.936 779.184 254.688V255.144H774.732V255.432C774.732 256.5 775.416 257.304 776.568 257.304C777.348 257.304 777.948 256.92 778.272 256.236L778.956 256.728C778.56 257.568 777.672 258.144 776.508 258.144ZM776.508 252.468C775.464 252.468 774.732 253.26 774.732 254.34V254.424H778.152V254.292C778.152 253.2 777.492 252.468 776.508 252.468ZM784.885 258V256.992H784.837C784.465 257.76 783.877 258.144 783.025 258.144C781.477 258.144 780.505 256.884 780.505 254.904C780.505 252.924 781.477 251.664 783.025 251.664C783.877 251.664 784.513 252.036 784.837 252.816H784.885V249.12H785.845V258H784.885ZM783.289 257.28C784.165 257.28 784.885 256.824 784.885 256.02V253.716C784.885 253.032 784.165 252.528 783.289 252.528C782.209 252.528 781.537 253.272 781.537 254.376V255.432C781.537 256.536 782.209 257.28 783.289 257.28ZM611.02 276V267.12H611.98V270.816H612.028C612.352 270.036 612.988 269.664 613.84 269.664C615.388 269.664 616.36 270.924 616.36 272.904C616.36 274.884 615.388 276.144 613.84 276.144C612.988 276.144 612.4 275.76 612.028 274.992H611.98V276H611.02ZM613.576 275.28C614.656 275.28 615.328 274.536 615.328 273.432V272.376C615.328 271.272 614.656 270.528 613.576 270.528C612.7 270.528 611.98 271.032 611.98 271.716V274.02C611.98 274.824 612.7 275.28 613.576 275.28ZM620.398 274.02L621.898 269.808H622.846L620.074 277.44C619.798 278.184 619.546 278.4 618.634 278.4H618.142V277.56H619.114L619.582 276.24L617.266 269.808H618.226L619.714 274.02L620.002 275.028H620.062L620.398 274.02ZM632.267 276H631.727C631.019 276 630.731 275.568 630.659 274.992H630.599C630.335 275.748 629.675 276.144 628.811 276.144C627.503 276.144 626.735 275.424 626.735 274.272C626.735 273.108 627.575 272.46 629.375 272.46H630.599V271.848C630.599 270.972 630.119 270.492 629.135 270.492C628.391 270.492 627.899 270.852 627.563 271.416L626.987 270.876C627.323 270.216 628.067 269.664 629.183 269.664C630.671 269.664 631.559 270.444 631.559 271.752V275.16H632.267V276ZM628.967 275.328C629.915 275.328 630.599 274.836 630.599 274.2V273.18H629.327C628.235 273.18 627.743 273.516 627.743 274.116V274.368C627.743 274.98 628.223 275.328 628.967 275.328ZM637.757 276V274.992H637.709C637.337 275.76 636.749 276.144 635.897 276.144C634.349 276.144 633.377 274.884 633.377 272.904C633.377 270.924 634.349 269.664 635.897 269.664C636.749 269.664 637.385 270.036 637.709 270.816H637.757V267.12H638.717V276H637.757ZM636.161 275.28C637.037 275.28 637.757 274.824 637.757 274.02V271.716C637.757 271.032 637.037 270.528 636.161 270.528C635.081 270.528 634.409 271.272 634.409 272.376V273.432C634.409 274.536 635.081 275.28 636.161 275.28ZM644.878 276V274.992H644.83C644.458 275.76 643.87 276.144 643.018 276.144C641.47 276.144 640.498 274.884 640.498 272.904C640.498 270.924 641.47 269.664 643.018 269.664C643.87 269.664 644.506 270.036 644.83 270.816H644.878V267.12H645.838V276H644.878ZM643.282 275.28C644.158 275.28 644.878 274.824 644.878 274.02V271.716C644.878 271.032 644.158 270.528 643.282 270.528C642.202 270.528 641.53 271.272 641.53 272.376V273.432C641.53 274.536 642.202 275.28 643.282 275.28ZM648.519 268.356C648.111 268.356 647.931 268.14 647.931 267.816V267.66C647.931 267.336 648.111 267.12 648.519 267.12C648.927 267.12 649.107 267.336 649.107 267.66V267.816C649.107 268.14 648.927 268.356 648.519 268.356ZM648.039 276V269.808H648.999V276H648.039ZM652.159 276H651.199V269.808H652.159V270.816H652.207C652.507 270.12 653.035 269.664 653.959 269.664C655.231 269.664 656.035 270.528 656.035 272.028V276H655.075V272.196C655.075 271.092 654.595 270.528 653.671 270.528C652.903 270.528 652.159 270.912 652.159 271.704V276ZM663.399 276.684C663.399 277.956 662.391 278.544 660.399 278.544C658.467 278.544 657.675 277.992 657.675 277.02C657.675 276.348 658.047 275.988 658.659 275.82V275.688C658.311 275.52 658.107 275.244 658.107 274.824C658.107 274.2 658.551 273.9 659.175 273.744V273.696C658.443 273.348 658.011 272.664 658.011 271.8C658.011 270.54 658.935 269.664 660.339 269.664C660.783 269.664 661.179 269.748 661.515 269.904V269.796C661.515 269.316 661.719 268.968 662.235 268.968H663.159V269.808H661.983V270.204C662.427 270.588 662.691 271.14 662.691 271.8C662.691 273.06 661.767 273.936 660.351 273.936C660.147 273.936 659.931 273.912 659.751 273.876C659.343 273.984 658.935 274.188 658.935 274.572C658.935 274.944 659.319 275.04 659.883 275.04H661.203C662.739 275.04 663.399 275.664 663.399 276.684ZM662.499 276.756C662.499 276.264 662.175 275.94 661.215 275.94H659.151C658.755 276.12 658.575 276.396 658.575 276.78C658.575 277.32 658.947 277.764 659.919 277.764H660.807C661.875 277.764 662.499 277.428 662.499 276.756ZM660.351 273.168C661.167 273.168 661.683 272.784 661.683 271.968V271.632C661.683 270.816 661.167 270.432 660.351 270.432C659.535 270.432 659.019 270.816 659.019 271.632V271.968C659.019 272.784 659.535 273.168 660.351 273.168ZM672.715 276H672.175C671.467 276 671.179 275.568 671.107 274.992H671.047C670.783 275.748 670.123 276.144 669.259 276.144C667.951 276.144 667.183 275.424 667.183 274.272C667.183 273.108 668.023 272.46 669.823 272.46H671.047V271.848C671.047 270.972 670.567 270.492 669.583 270.492C668.839 270.492 668.347 270.852 668.011 271.416L667.435 270.876C667.771 270.216 668.515 269.664 669.631 269.664C671.119 269.664 672.007 270.444 672.007 271.752V275.16H672.715V276ZM669.415 275.328C670.363 275.328 671.047 274.836 671.047 274.2V273.18H669.775C668.683 273.18 668.191 273.516 668.191 274.116V274.368C668.191 274.98 668.671 275.328 669.415 275.328ZM675.205 276H674.245V269.808H675.205V270.816H675.253C675.553 270.12 676.081 269.664 677.005 269.664C678.277 269.664 679.081 270.528 679.081 272.028V276H678.121V272.196C678.121 271.092 677.641 270.528 676.717 270.528C675.949 270.528 675.205 270.912 675.205 271.704V276ZM687.281 276H683.921V275.16H685.097V268.464H683.921V267.624H687.281V268.464H686.105V275.16H687.281V276ZM693.087 276V274.992H693.039C692.667 275.76 692.079 276.144 691.227 276.144C689.679 276.144 688.707 274.884 688.707 272.904C688.707 270.924 689.679 269.664 691.227 269.664C692.079 269.664 692.715 270.036 693.039 270.816H693.087V267.12H694.047V276H693.087ZM691.491 275.28C692.367 275.28 693.087 274.824 693.087 274.02V271.716C693.087 271.032 692.367 270.528 691.491 270.528C690.411 270.528 689.739 271.272 689.739 272.376V273.432C689.739 274.536 690.411 275.28 691.491 275.28ZM697.352 276H696.344V267.624H699.68C701.18 267.624 702.02 268.548 702.02 270.024C702.02 271.5 701.18 272.424 699.68 272.424H697.352V276ZM697.352 268.512V271.536H699.68C700.472 271.536 700.94 271.104 700.94 270.336V269.712C700.94 268.944 700.472 268.512 699.68 268.512H697.352ZM709.249 276H708.049C707.389 276 707.029 275.58 707.029 274.98V270.648H706.009V269.808H706.585C706.993 269.808 707.125 269.664 707.125 269.244V268.092H707.989V269.808H709.345V270.648H707.989V275.16H709.249V276ZM713.342 276.144C711.686 276.144 710.546 274.872 710.546 272.904C710.546 270.936 711.686 269.664 713.342 269.664C714.998 269.664 716.138 270.936 716.138 272.904C716.138 274.872 714.998 276.144 713.342 276.144ZM713.342 275.292C714.374 275.292 715.106 274.656 715.106 273.348V272.46C715.106 271.152 714.374 270.516 713.342 270.516C712.31 270.516 711.578 271.152 711.578 272.46V273.348C711.578 274.656 712.31 275.292 713.342 275.292ZM723.188 274.02L724.688 269.808H725.636L722.864 277.44C722.588 278.184 722.336 278.4 721.424 278.4H720.932V277.56H721.904L722.372 276.24L720.056 269.808H721.016L722.504 274.02L722.792 275.028H722.852L723.188 274.02ZM729.302 276.144C727.646 276.144 726.506 274.872 726.506 272.904C726.506 270.936 727.646 269.664 729.302 269.664C730.958 269.664 732.098 270.936 732.098 272.904C732.098 274.872 730.958 276.144 729.302 276.144ZM729.302 275.292C730.334 275.292 731.066 274.656 731.066 273.348V272.46C731.066 271.152 730.334 270.516 729.302 270.516C728.27 270.516 727.538 271.152 727.538 272.46V273.348C727.538 274.656 728.27 275.292 729.302 275.292ZM737.653 276V274.992H737.605C737.365 275.58 736.897 276.144 735.865 276.144C734.593 276.144 733.777 275.28 733.777 273.78V269.808H734.737V273.612C734.737 274.716 735.229 275.28 736.153 275.28C736.909 275.28 737.653 274.908 737.653 274.092V269.808H738.613V276H737.653ZM741.777 276H740.817V269.808H741.777V270.948H741.837C742.053 270.36 742.617 269.808 743.625 269.808H743.997V270.768H743.433C742.401 270.768 741.777 271.212 741.777 271.8V276ZM753.419 276H752.879C752.171 276 751.883 275.568 751.811 274.992H751.751C751.487 275.748 750.827 276.144 749.963 276.144C748.655 276.144 747.887 275.424 747.887 274.272C747.887 273.108 748.727 272.46 750.527 272.46H751.751V271.848C751.751 270.972 751.271 270.492 750.287 270.492C749.543 270.492 749.051 270.852 748.715 271.416L748.139 270.876C748.475 270.216 749.219 269.664 750.335 269.664C751.823 269.664 752.711 270.444 752.711 271.752V275.16H753.419V276ZM750.119 275.328C751.067 275.328 751.751 274.836 751.751 274.2V273.18H750.479C749.387 273.18 748.895 273.516 748.895 274.116V274.368C748.895 274.98 749.375 275.328 750.119 275.328ZM757.254 276.144C755.514 276.144 754.494 274.884 754.494 272.904C754.494 270.924 755.514 269.664 757.254 269.664C758.478 269.664 759.21 270.264 759.57 271.116L758.766 271.524C758.538 270.888 758.01 270.516 757.254 270.516C756.114 270.516 755.526 271.296 755.526 272.376V273.432C755.526 274.512 756.114 275.292 757.254 275.292C758.034 275.292 758.598 274.92 758.934 274.212L759.63 274.68C759.234 275.568 758.43 276.144 757.254 276.144ZM763.378 276.144C761.638 276.144 760.618 274.884 760.618 272.904C760.618 270.924 761.638 269.664 763.378 269.664C764.602 269.664 765.334 270.264 765.694 271.116L764.89 271.524C764.662 270.888 764.134 270.516 763.378 270.516C762.238 270.516 761.65 271.296 761.65 272.376V273.432C761.65 274.512 762.238 275.292 763.378 275.292C764.158 275.292 764.722 274.92 765.058 274.212L765.754 274.68C765.358 275.568 764.554 276.144 763.378 276.144ZM769.539 276.144C767.883 276.144 766.743 274.872 766.743 272.904C766.743 270.936 767.883 269.664 769.539 269.664C771.195 269.664 772.335 270.936 772.335 272.904C772.335 274.872 771.195 276.144 769.539 276.144ZM769.539 275.292C770.571 275.292 771.303 274.656 771.303 273.348V272.46C771.303 271.152 770.571 270.516 769.539 270.516C768.507 270.516 767.775 271.152 767.775 272.46V273.348C767.775 274.656 768.507 275.292 769.539 275.292ZM777.89 276V274.992H777.842C777.602 275.58 777.134 276.144 776.102 276.144C774.83 276.144 774.014 275.28 774.014 273.78V269.808H774.974V273.612C774.974 274.716 775.466 275.28 776.39 275.28C777.146 275.28 777.89 274.908 777.89 274.092V269.808H778.85V276H777.89ZM782.014 276H781.054V269.808H782.014V270.816H782.062C782.362 270.12 782.89 269.664 783.814 269.664C785.086 269.664 785.89 270.528 785.89 272.028V276H784.93V272.196C784.93 271.092 784.45 270.528 783.526 270.528C782.758 270.528 782.014 270.912 782.014 271.704V276ZM790.603 276H789.403C788.743 276 788.383 275.58 788.383 274.98V270.648H787.363V269.808H787.939C788.347 269.808 788.479 269.664 788.479 269.244V268.092H789.343V269.808H790.699V270.648H789.343V275.16H790.603V276Z" fill="black"/>
<defs>
<clipPath id="clip0_20_432">
<rect width="208" height="48" fill="white" transform="translate(396 265)"/>
</clipPath>
<clipPath id="clip1_20_432">
<rect width="176" height="48" fill="white" transform="translate(412 321)"/>
</clipPath>
</defs>
</svg>
