<?xml version="1.0" encoding="UTF-8"?>
<svg width="589px" height="676px" viewBox="0 0 589 676" version="1.1" xmlns="http://www.w3.org/2000/svg" xmlns:xlink="http://www.w3.org/1999/xlink">
    <!-- Generator: Sketch 49.3 (51167) - http://www.bohemiancoding.com/sketch -->
    <title>1-singleorg</title>
    <desc>Created with Sketch.</desc>
    <defs>
        <path d="M0,0 L278,0 L278,214 L0,214 L0,0 Z" id="path-1"></path>
        <mask id="mask-2" maskContentUnits="userSpaceOnUse" maskUnits="objectBoundingBox" x="0" y="0" width="278" height="214" fill="white">
            <use xlink:href="#path-1"></use>
        </mask>
        <path d="M0,0 L278,0 L278,214 L0,214 L0,0 Z" id="path-3"></path>
        <mask id="mask-4" maskContentUnits="userSpaceOnUse" maskUnits="objectBoundingBox" x="0" y="0" width="278" height="214" fill="white">
            <use xlink:href="#path-3"></use>
        </mask>
        <path d="M0,0 L581,0 L581,429 L0,429 L0,0 Z" id="path-5"></path>
        <mask id="mask-6" maskContentUnits="userSpaceOnUse" maskUnits="objectBoundingBox" x="0" y="0" width="581" height="429" fill="white">
            <use xlink:href="#path-5"></use>
        </mask>
    </defs>
    <g id="1-singleorg" stroke="none" stroke-width="1" fill="none" fill-rule="evenodd">
        <g id="singleorg" transform="translate(4.000000, 5.000000)">
            <g id="local" transform="translate(1.000000, 0.000000)">
                <use id="dotted-box" stroke="#DFE3E6" mask="url(#mask-2)" stroke-width="6" stroke-dasharray="10" xlink:href="#path-1"></use>
                <text id="IBM-Cloud-Local" font-family="IBMPlexSans-Bold, IBM Plex Sans" font-size="20" font-weight="bold" fill="#5A6872">
                    <tspan x="63" y="49">IBM Cloud Local</tspan>
                </text>
                <text id="Organization-Copy" font-family="IBMPlexSans, IBM Plex Sans" font-size="20" font-weight="normal" fill="#5A6872">
                    <tspan x="82" y="180">Organization</tspan>
                </text>
                <g id="Hex" transform="translate(102.000000, 67.000000)" fill-rule="nonzero">
                    <polygon id="polygon19" fill="#5596E6" points="37 0 37 80 0 60 0 20"></polygon>
                    <polygon id="polygon21" fill="#3D70B2" points="37 0 37 80 74 60 74 20"></polygon>
                </g>
            </g>
            <g id="dedicated" transform="translate(303.000000, 0.000000)">
                <use id="dotted-box" stroke="#DFE3E6" mask="url(#mask-4)" stroke-width="6" stroke-dasharray="10" xlink:href="#path-3"></use>
                <text id="IBM-Cloud-Dedicated" font-family="IBMPlexSans-Bold, IBM Plex Sans" font-size="20" font-weight="bold" fill="#5A6872">
                    <tspan x="40" y="49">IBM Cloud Dedicated</tspan>
                </text>
                <text id="Organization" font-family="IBMPlexSans, IBM Plex Sans" font-size="20" font-weight="normal" fill="#5A6872">
                    <tspan x="82" y="180">Organization</tspan>
                </text>
                <g id="Hex" transform="translate(102.000000, 67.000000)" fill-rule="nonzero">
                    <polygon id="polygon23" fill="#5AAAFA" points="37 0 37 80 0 60 0 20"></polygon>
                    <polygon id="polygon25" fill="#5596E6" points="37 0 37 80 74 60 74 20"></polygon>
                </g>
            </g>
            <g id="public" transform="translate(0.000000, 238.000000)">
                <use id="dotted-box" stroke="#DFE3E6" mask="url(#mask-6)" stroke-width="6" stroke-dasharray="10" xlink:href="#path-5"></use>
                <text id="IBM-Cloud-Public" font-family="IBMPlexSans-Bold, IBM Plex Sans" font-size="20" font-weight="bold" fill="#5A6872">
                    <tspan x="31" y="64">IBM Cloud Public</tspan>
                </text>
                <g id="region" transform="translate(31.000000, 94.000000)">
                    <text id="Region" font-family="IBMPlexSans, IBM Plex Sans" font-size="20" font-weight="normal" fill="#5A6872">
                        <tspan x="48" y="39">Region</tspan>
                    </text>
                    <rect id="Rectangle-2" stroke="#8C9BA5" stroke-width="2" x="1" y="1" width="156" height="61"></rect>
                </g>
                <g id="region" transform="translate(212.000000, 94.000000)">
                    <text id="Region-Copy" font-family="IBMPlexSans, IBM Plex Sans" font-size="20" font-weight="normal" fill="#5A6872">
                        <tspan x="48" y="39">Region</tspan>
                    </text>
                    <rect id="Rectangle-2-Copy" stroke="#8C9BA5" stroke-width="2" x="1" y="1" width="156" height="61"></rect>
                </g>
                <g id="region" transform="translate(392.000000, 94.000000)">
                    <text id="Region-Copy-2" font-family="IBMPlexSans, IBM Plex Sans" font-size="20" font-weight="normal" fill="#5A6872">
                        <tspan x="48" y="39">Region</tspan>
                    </text>
                    <rect id="Rectangle-2-Copy-2" stroke="#8C9BA5" stroke-width="2" x="1" y="1" width="156" height="61"></rect>
                </g>
                <g id="blue-lines" transform="translate(103.000000, 149.000000)" stroke="#4A90E2" stroke-width="3">
                    <circle id="Oval" fill="#FFFFFF" cx="7" cy="7" r="7"></circle>
                    <circle id="Oval-Copy" fill="#FFFFFF" cx="188" cy="7" r="7"></circle>
                    <circle id="Oval-Copy-2" fill="#FFFFFF" cx="368" cy="7" r="7"></circle>
                    <polyline id="Line" stroke-linecap="square" points="8 15 8 87 368.500347 87"></polyline>
                    <path d="M188.5,14.5 L188.5,124" id="Line-Copy" stroke-linecap="square"></path>
                    <path d="M368.5,15.5 L368.5,86.5" id="Line-Copy-2" stroke-linecap="square"></path>
                </g>
                <text id="Organization-Copy-2" font-family="IBMPlexSans, IBM Plex Sans" font-size="20" font-weight="normal" fill="#5A6872">
                    <tspan x="234" y="380">Organization</tspan>
                </text>
                <g id="Hex" transform="translate(254.000000, 267.000000)" fill-rule="nonzero">
                    <polygon id="polygon35" fill="#7CC7FF" points="37 0 37 80 0 60 0 20"></polygon>
                    <polygon id="polygon37" fill="#5AAAFA" points="37 0 37 80 74 60 74 20"></polygon>
                </g>
            </g>
        </g>
    </g>
</svg>